<?xml version="1.0" encoding="UTF-8"?>
<svg id="Layer_1" data-name="Layer 1" xmlns="http://www.w3.org/2000/svg" viewBox="0 0 2284.86 1337.04">
  <defs>
    <style>
      .cls-1, .cls-2 {
        fill: #ed1c24;
      }

      .cls-3 {
        stroke-width: 7px;
      }

      .cls-3, .cls-4 {
        isolation: isolate;
        opacity: .55;
      }

      .cls-3, .cls-4, .cls-5, .cls-6, .cls-7, .cls-8, .cls-9 {
        stroke: #000;
        stroke-miterlimit: 10;
      }

      .cls-3, .cls-4, .cls-9 {
        fill: none;
      }

      .cls-4, .cls-5, .cls-7, .cls-8, .cls-9 {
        stroke-width: 6px;
      }

      .cls-5, .cls-10, .cls-9 {
        opacity: .6;
      }

      .cls-2 {
        stroke: #ef3940;
        stroke-width: 14px;
      }

      .cls-11 {
        opacity: .7;
      }

      .cls-12 {
        opacity: .65;
      }

      .cls-6 {
        stroke-width: 8px;
      }

      .cls-8 {
        fill: red;
        opacity: .85;
      }
    </style>
  </defs>
  <g class="cls-12">
    <g class="cls-11">
      <g>
        <g>
          <path class="cls-1" d="M82.81,214.57c-.65,9.07-1.18,18.22-1.38,27.3-.11,4.54-.15,9.06-.15,13.53-.02,4.47-.06,8.9-.03,13.26.02,4.64-.14,9.18-.43,13.64-.14,2.23-.32,4.44-.53,6.63-.22,2.19-.49,4.36-.77,6.52-1.13,8.63-2.61,17.02-4.06,25.38-3.13,16.7-6.08,33.25-6.54,51.37-.12,5.68-.38,11.34-.87,16.97-.51,5.63-1.16,11.24-1.9,16.83-.76,5.59-1.55,11.19-2.52,16.76-.97,5.57-2,11.15-3.03,16.73-1.06,5.58-2.03,11.19-3.16,16.79-1.1,5.61-2.16,11.24-3.16,16.91-1.92,11.35-3.87,22.79-5.1,34.53-4.69,43.07-10.37,86.68-17.86,130.53-3.69,21.92-7.65,43.9-11.72,65.86-2.06,11-4.11,21.98-6.17,32.96l-1.55,8.24-1.49,8.37c-1.07,5.58-1.89,11.18-2.82,16.77-3.28,20.7-5.26,41.29-6.39,61.7-1.12,20.41-1.38,40.62-1.05,60.66.68,40.07,3.64,79.4,7.71,118.33,2.04,19.47,4.37,38.84,6.91,58.18l1.97,14.65,3.24,21.14c1.23,7.5,2.46,15,3.68,22.5,1.31,7.59,2.62,15.18,3.92,22.77,5.38,30.59,11.34,61.25,17.51,93.93,3.2,16.84,6.4,33.71,9.62,50.63.84,4.42,1.68,8.84,2.52,13.26l1.27,6.71.16.84.08.42c.03.13.06.31.08.36l.27.89.54,1.8c.72,2.42,1.44,4.91,2.16,7.49l.54,1.95.69,2.61,1.5,5.77c1.76-5.21,3.57-10.58,5.39-15.97,4.08-12.16,8.2-24.42,12.34-36.78,4.22-12.7,8.48-25.49,12.76-38.36,1.07-3.24,2.14-6.48,3.21-9.73l1.6-4.82,1.55-4.56c2.08-6.17,4.17-12.35,6.26-18.56l1.58-4.72c.26-.84.53-1.47.81-2.14l.82-2.01c1.09-2.7,2.19-5.41,3.28-8.11,1.1-2.73,2.2-5.47,3.31-8.21l1.66-4.14c.56-1.38,1.1-2.81,1.69-4.05,2.32-5.2,4.64-10.41,6.97-15.63,1.17-2.64,2.34-5.28,3.52-7.93,1.2-2.61,2.4-5.23,3.6-7.85,4.64-10.15,9.3-20.33,13.97-30.55,3.31-7.2,6.63-14.43,9.96-21.67,1.35-2.9,2.66-5.91,3.99-8.88,1.31-2.99,2.66-5.92,3.94-8.98,2.57-6.1,5.17-12.15,7.59-18.48,2.51-6.19,4.8-12.74,7.1-19.23,1.13-3.29,2.16-6.72,3.23-10.07l.79-2.53.4-1.27.2-.64.19-.73,1.51-5.82c2.02-7.75,3.36-15.92,4.29-24.1,1.68-16.41.56-32.86-1.18-46.21l-.65-4.98-.65-4.69c-.42-2.98-.83-5.95-1.24-8.91l-.54-4.15c-.17-1.36-.38-2.78-.5-4.06-.27-2.6-.62-5.27-.78-7.74-.36-3.71-.5-7.53-.58-11.56.03-4.86.06-9.96.1-15.26,0-3.08.06-6.23.03-9.4-.12-3.15-.24-6.35-.37-9.6-.06-1.62-.13-3.26-.19-4.91-.03-.82-.07-1.65-.1-2.48-.06-.82-.12-1.64-.19-2.46-.26-3.29-.53-6.61-.8-9.98-.14-1.68-.27-3.37-.41-5.07-.19-1.67-.38-3.35-.57-5.04-.39-3.37-.79-6.77-1.19-10.2-.18-1.73-.43-3.41-.68-5.1s-.5-3.39-.75-5.1c-.51-3.4-.99-6.86-1.55-10.26-2.28-13.56-4.85-27.21-7.67-40.33-2.78-13.23-5.7-25.97-8.55-38.24-2.79-12.02-5.49-23.67-8.04-34.67-5-21.65-8.98-40.14-12.45-53.87,2.25,18.59,5.6,37.74,9.44,57.47s8.14,40.02,12.1,60.88c3.96,20.85,7.57,42.28,9.89,64.13,2.32,21.84,3.3,44.13,2.04,66.27-.06-24.31-2.68-48.13-6.48-71.22-3.81-23.11-8.78-45.54-13.73-67.51-4.95-21.97-9.9-43.5-13.8-64.76-.96-5.31-1.8-10.59-2.71-15.89l-2.22-15.78-1.66-15.9c-.58-6.86-1.64-13.19-2.77-19.35-1.15-6.16-2.48-11.99-3.83-17.69-1.35-5.71-2.75-11.2-4.09-16.6-2.69-10.77-5.19-21.05-6.87-30.78-1.66-9.67-2.5-18.84-1.78-26.42.34-3.8.95-7.25,2.01-10.19,1.03-2.97,2.37-5.58,4.13-8.07.49-.6.96-1.21,1.41-1.84.54-.59,1.12-1.16,1.66-1.76.49-.63,1.21-1.16,1.84-1.73.67-.56,1.22-1.19,2.01-1.7.74-.54,1.48-1.09,2.21-1.65l.28-.21.5-.34,1-.67,1.99-1.35c1.33-.88,2.64-1.85,3.95-2.8,1.31-.94,2.61-1.91,3.9-2.93,10.29-7.98,20.06-17.65,27.79-29.28,7.75-11.57,13.15-25.01,15.56-38.34,2.46-13.35,2.32-26.37.94-38.46,1.05,10.27,1.24,21.11-.27,32.24-1.49,11.11-4.84,22.48-10.14,32.9-5.25,10.47-12.38,19.78-20.24,27.74-3.94,4-8.1,7.6-12.35,10.99-4.25,3.39-8.64,6.41-13.07,9.32-10.83,7.48-15.3,15.08-16.65,28.24l-.14,1.2-.05,1.27-.13,2.54.02,2.66v1.33l.07,1.38.13,2.77.25,2.86c.13,1.88.43,3.88.65,5.83,1.04,7.91,2.77,16.27,4.7,24.87,2.08,8.94,4.16,17.89,6.24,26.82,2.09,9.3,4.11,18.98,5.4,29.5.35,2.59.57,5.32.81,8.03l.58,6.65.55,6.46c.1,1.08.17,2.15.29,3.23l.39,3.25c.54,4.34.99,8.66,1.59,13.01l1.91,13.08c2.78,17.49,6.19,35.15,9.68,53.01,3.48,17.87,7.1,35.94,10.13,54.37,3.03,18.41,5.52,37.13,6.83,56.12l.75,14.28c.04,4.79.08,9.58.13,14.37.06,2.38-.08,4.8-.17,7.2l-.3,7.2-.32,6.88-.34,6.14c-.25,8.21.02,16.51.63,25.11.6,8.6,1.56,17.55,2.17,27.01.62,9.43.79,19.37-.13,29.28-.28,2.48-.52,4.95-.87,7.41l-1.26,7.33c-1.07,4.82-2.14,9.63-3.65,14.25l-1.06,3.49c-.35,1.17-.77,2.21-1.15,3.31l-2.36,6.53-1.19,3.25-1.28,3.19-2.56,6.36c-3.49,8.42-7.17,16.67-11,24.79-1.87,4.09-3.87,8.08-5.82,12.1-1.94,4.02-3.95,7.99-5.95,11.95-2.13,4.22-4.26,8.43-6.39,12.63-2.24,4.38-4.47,8.75-6.7,13.12-8.95,17.39-17.25,33.14-24.53,47.19-1.84,3.44-3.57,6.74-5.29,9.77-1.74,2.93-3.25,6.11-4.81,9.06-1.57,2.94-2.94,5.82-4.31,8.53-1.41,2.7-2.6,5.32-3.77,7.79l-1.46,3.08-1.27,2.97-1.22,2.81-.15.34-.07.17-.02.04s-.01.03-.02-.03l-.03-.21-.22-1.64-.43-3.26c-1.16-8.65-2.19-16.95-3.12-24.88-1.85-15.87-3.24-30.28-4.19-43.11,1.59,10.81,3.38,22.36,5.4,34.71,1.07,6.34,2.14,12.72,3.22,19.14l.43,2.48.21,1.25.05.31s.05-.11.07-.16l.14-.4c.38-1.09.76-2.18,1.14-3.28.39-1.12.78-2.23,1.17-3.35.41-1.12.88-2.24,1.32-3.38,5.04-12.93,11.67-27.02,19.22-42.56,3.97-8.1,7.97-16.25,11.98-24.43,2.13-4.37,4.27-8.76,6.41-13.16,1.1-2.3,2.21-4.6,3.32-6.9l1.69-3.54,1.75-3.73c2.33-4.97,4.67-9.96,6.93-15,1.14-2.51,2.27-5.03,3.41-7.55,1.1-2.54,2.2-5.07,3.31-7.61,2.26-5.07,4.28-10.23,6.41-15.38,1.09-2.57,2-5.2,3.01-7.8.96-2.62,2.03-5.21,2.91-7.86,1.78-5.3,3.7-10.58,5.13-16.04.85-2.7,1.36-5.48,2-8.24.69-2.76,1.01-5.58,1.49-8.39.1-.7.24-1.41.32-2.11l.21-2.13.42-4.26c.15-1.42.15-2.85.23-4.28.05-1.43.15-2.86.16-4.29.03-5.72-.12-11.47-.59-17.17-.84-11.42-2.32-22.7-3.03-33.91l-.26-4.21c-.09-1.4-.1-2.8-.16-4.2l-.14-4.2v-4.19c.02-1.4,0-2.79.04-4.19l.18-4.18.34-8.54c1.1-23.25-.45-46.62-3.38-69.71-5.85-46.22-17.05-91.3-23.67-136.12-1.63-11.2-3.06-22.39-3.99-33.54l-.66-8.36c-.22-2.64-.45-5.95-.75-8.96-.62-6.12-1.61-12.03-2.68-17.86-2.18-11.64-4.9-22.83-7.34-33.83-2.45-10.99-4.7-21.79-5.95-32.35-.66-5.28-.97-10.47-.95-15.53.03-5.06.4-10,1.41-14.61,1.94-9.27,5.96-17.38,12.56-23.78,1.54-1.69,3.44-3.08,5.2-4.61l2.93-2.04.73-.51c.26-.18.44-.32.79-.54l1.87-1.23c4.98-3.27,9.83-6.81,14.42-10.75,9.17-7.83,17.39-17.2,23.39-27.96,6-10.75,9.61-22.71,10.89-34.49,1.32-11.81.63-23.39-1-34.47-1.63-11.1-4.16-21.77-6.89-32.2-2.74-10.42-5.72-20.6-8.43-30.73s-5.18-20.21-6.84-30.37-2.5-20.43-1.77-30.69c1.3-20.5,2.42-40.7,3.81-60.63.5-6.56.91-13.34,1.47-20.14.28-3.4.46-6.83.78-10.23.28-3.41.57-6.81.85-10.18.23-3.38.62-6.71.91-10.01.32-3.29.55-6.56.9-9.73.33-3.19.64-6.31.95-9.33.14-1.52.29-3.01.43-4.48.17-1.47.33-2.91.49-4.33-3.3,21.81-5.61,43.82-7.4,66.05-1.79,22.23-3.14,44.66-4.66,67.34-.18,2.85-.42,5.64-.55,8.56-.16,2.89-.15,5.79-.09,8.67.17,5.77.74,11.5,1.56,17.2,1.66,11.39,4.37,22.59,7.32,33.8,2.96,11.21,6.2,22.43,9.05,33.91,2.84,11.47,5.35,23.22,6.52,35.4,1.17,12.14.95,24.82-2.05,37.28-1.47,6.22-3.7,12.32-6.55,18.14-2.84,5.83-6.43,11.28-10.46,16.33-8.1,10.11-18.1,18.4-28.73,25.28l-2,1.29-1.71,1.17-1.69,1.15c-.56.39-1.15.74-1.65,1.19l-3.13,2.55c-.99.89-1.91,1.86-2.87,2.77-3.68,3.81-6.71,8.13-8.97,12.9-2.26,4.76-3.76,9.96-4.63,15.4-.87,5.44-1.04,11.13-.86,16.88.2,5.76.79,11.59,1.63,17.46.87,5.87,1.95,11.78,3.15,17.72,2.4,11.88,5.27,23.85,7.67,36.13,1.19,6.14,2.29,12.36,3.08,18.69l.52,4.78c.17,1.59.25,3.22.38,4.82l.65,9.18c3.33,48.64,14.92,97.07,22.56,145.9,1.03,6.09,1.79,12.23,2.67,18.34.46,3.05.76,6.13,1.13,9.19l1.05,9.18.78,9.2.38,4.59c.14,1.53.25,3.06.31,4.6l.42,9.19.21,4.59.02,4.59.03,9.16v2.29l-.1,2.29-.21,4.56c-.29,6.13-.58,12.24-.87,18.36-.34,12.35.53,24.71,1.65,36.83,1.11,12.12,2.26,24.01,1.83,35.6-.44,11.58-2.42,22.85-5.83,33.72-3.55,11-7.68,22-12.29,32.74-4.5,10.78-9.41,21.41-14.34,31.97-1.26,2.64-2.51,5.27-3.77,7.9l-1.88,3.94-1.56,3.11c-1.01,1.99-2.01,3.98-3.01,5.96l-1.43,2.78-1.36,2.61c-3.4,6.46-6.78,12.88-10.13,19.26-6.29,11.89-11.51,21.97-15.27,30.62-.22.51-.44,1-.66,1.5-.42.97-.77,1.95-1.15,2.89l-.55,1.4-.27.69c-.03.14-.04-.11-.06-.19l-.05-.34-.1-.67-1.54-10.48c-.98-6.8-1.86-13.23-2.65-19.31-1.57-12.15-2.76-22.86-3.64-32.26-.43-4.77-.86-9.54-1.28-14.31-1.22-9.84-2.45-19.69-3.67-29.55-2.42-20.32-4.57-40.66-6.37-61-3.59-40.67-5.86-81.39-5.79-121.79.04-20.2.69-40.31,2.22-60.19.79-9.93,1.7-19.83,2.97-29.61l.94-7.34c.33-2.44.74-4.85,1.11-7.28l.56-3.64c.19-1.22.35-2.4.59-3.69l1.3-7.6c8.8-43.87,19.49-88.31,29.34-133.62,1.25-5.83,2.5-11.66,3.74-17.49,1.19-5.86,2.37-11.73,3.56-17.59,1.17-5.87,2.38-11.73,3.51-17.62l3.28-17.67c1.06-5.9,2.22-11.78,3.2-17.69l2.99-17.74c2.05-11.82,3.76-23.69,5.56-35.55,6.98-47.47,12.23-95.18,15.56-142.83.67-10.58,1.41-22.19,2.18-34.48.3-6.15.6-12.47.91-18.91.28-6.44.65-13,.8-19.65.36-13.29.79-26.89.72-40.46,0-6.78-.02-13.55-.08-20.26-.15-6.71-.34-13.37-.58-19.91-.4-13.1-1.29-25.78-2.32-37.68-.28-2.97-.55-5.9-.82-8.77-.3-2.87-.66-5.69-1.01-8.44-.71-5.51-1.47-10.78-2.3-15.76-1.6-9.96-3.7-18.78-5.99-26.08-2.3-7.3-4.88-13.1-7.77-17.03-.36,26.91,2.67,56.69.67,82.57-.96-4.91-2.03-10.17-3.01-15.65-1.04-5.48-2.03-11.17-2.73-16.95.04,5.5-.1,11.3-.13,17.01-.09,5.71-.02,11.32.57,16.45-1.1-8.51-2.36-17.18-4.7-20.45-.29,6.6.23,14.58,1.08,22.23.82,7.64,1.94,14.95,2.45,20.17.33,3.06,1.65,11.63,2.74,20.46.27,2.21.53,4.43.76,6.58.2,2.15.37,4.24.48,6.18.23,3.87.27,7.14-.03,9.14-.88-5.25-1.69-10.84-2.57-16.53-.92-5.68-1.86-11.48-2.78-17.15-.96-5.67-1.91-11.21-2.99-16.39-1.11-5.18-2.27-10.01-3.52-14.25-.13,3.58-.14,7.15-.18,10.69-.02,1.77-.05,3.54-.12,5.29-.09,1.76-.21,3.5-.37,5.24-.87-4.33-1.52-10.71-2.24-16.56-.72-5.85-1.53-11.16-2.85-13.36.03,8.89.4,17.27.66,25.74.18,8.46.3,17.01,0,26.23-.06,1.87-.13,3.71-.19,5.54-.09,1.82-.18,3.63-.27,5.42-.17,3.58-.33,7.11-.45,10.62-.26,7.01-.24,13.96-.03,21.13-1.26-17.17-1.77-40.14-5.32-52.01-.55,3.92-.74,7.96-.78,12.04-.02,4.08,0,8.18.09,12.25-.33-1-.73-1.6-1.17-1.82-.09,3.6-.83,8.33-.82,12.07-.63.07-1.26.87-1.87.12.44.12.88.18,1.33.26"/>
          <path class="cls-1" d="M126.99,191.05c-.17,8.97-.48,19.81-.93,30.46-.48,10.65-1.35,21.08-2.38,29.24"/>
          <path class="cls-2" d="M77.82,1156.94s.22-.54.66-1.6c.44-1.06,1.08-2.66,2.01-4.76,1.81-4.21,4.57-10.51,8.48-18.95,3.87-8.46,8.92-19.05,14.97-32.02,1.57-3.4,3.2-6.92,4.87-10.54.43-.94.86-1.88,1.3-2.84.47-1.03.94-2.07,1.41-3.12,1.03-2.33,2.08-4.69,3.14-7.08,4.26-9.58,8.55-19.72,12.88-30.39,1.04-2.68,2.08-5.39,3.14-8.13s2.14-5.51,3.1-8.33c1-2.82,2.01-5.67,3.03-8.54.92-2.89,1.84-5.82,2.78-8.77,1.01-2.97,1.7-5.89,2.49-8.87.2-.74.39-1.49.59-2.24.15-.75.3-1.51.45-2.27.3-1.52.61-3.04.91-4.57.31-1.53.45-3.09.69-4.64.19-1.56.5-3.11.57-4.7.12-1.58.25-3.17.38-4.77.15-1.59.1-3.21.17-4.83.15-3.23-.04-6.53-.1-9.84-.22-3.33-.39-6.68-.76-10.1-.63-6.82-1.57-13.81-2.41-21.01-.85-7.19-1.65-14.57-2.02-22.11-.27-3.76-.27-7.57-.36-11.39-.03-1.91.06-3.83.08-5.75.04-1.9.07-3.8.11-5.71.06-3.71.12-7.45.18-11.2l.04-2.82-.09-2.83c-.06-1.89-.13-3.79-.19-5.69s-.13-3.81-.19-5.72c-.02-1.91-.26-3.82-.38-5.74-.29-3.84-.59-7.69-.89-11.57-1.59-15.48-3.89-31.2-6.73-47.11-5.78-31.81-13.52-64.33-19.78-97.84-3.17-16.75-5.73-33.8-7.46-51.06-.4-4.29-.8-8.58-1.2-12.88-.36-4.17-1.01-8.36-1.68-12.54-1.44-8.37-3.35-16.75-5.34-25.15-3.96-16.81-8.41-33.78-10.47-51.5-1.03-8.84-1.35-17.92-.25-27.06,1.01-9.12,3.89-18.31,8.73-26.48,4.87-8.17,11.85-14.92,19.5-20.11,1.99-1.41,3.6-2.44,5.35-3.61,1.7-1.17,3.38-2.37,5.02-3.59,3.28-2.47,6.4-5.08,9.37-7.83,2.93-2.78,5.71-5.67,8.24-8.72,2.51-3.07,4.8-6.27,6.82-9.61,4.05-6.67,6.9-13.9,8.67-21.38,3.51-15.02,2.45-30.9-.3-46.46-2.78-15.62-7.17-31.07-11.3-46.69-4.11-15.64-8.1-31.53-9.8-48.27-.86-8.35-1.05-16.96-.3-25.59.61-7.58,1.21-15.07,1.81-22.48.61-7.44,1.2-14.8,1.79-22.05.67-7.29,1.23-14.48,1.96-21.61,1.3-14.24,2.9-28.17,4.62-41.71,3.57-27.08,8.05-52.66,13.68-76.15,5.61-23.5,12.21-44.88,18.68-63.75"/>
        </g>
        <path class="cls-2" d="M146.2,777.35s-1.03-5.54-2.94-15.78c-2.02-10.12-4.96-24.88-8.67-43.47-3.61-18.46-7.89-40.58-10.83-65.54-.38-3.12-.61-6.28-.93-9.49-.32-3.33-.64-6.7-.96-10.12-.72-7.54-1.99-14.94-3.5-22.28-3.02-14.68-7.02-29.24-10.32-43.98-1.64-7.36-3.11-14.77-4.08-22.14-.95-7.36-1.46-14.73-.91-21.75.2-1.72.27-3.52.61-5.19l.41-2.56.6-2.47.29-1.24c.1-.41.26-.8.38-1.2l.77-2.39c.27-.79.64-1.53.94-2.3.33-.76.6-1.56,1.02-2.27,2.99-5.89,7.27-11.26,13.05-15.71l2.23-1.62c.75-.55,1.41-1.06,2.47-1.77,1.94-1.32,3.87-2.63,5.76-4.05,3.81-2.78,7.51-5.81,11.07-9.06,3.58-3.22,6.95-6.76,10.13-10.5,3.17-3.75,6.12-7.75,8.7-12.02,5.2-8.5,8.98-17.97,11.05-27.67,2.1-9.71,2.55-19.57,1.97-29.16-.59-9.6-2.18-18.97-4.23-28.13-2.05-9.17-4.56-18.14-7.18-27.04-5.22-17.81-10.98-35.35-14.37-53.67-1.68-9.16-2.74-18.52-2.56-28.07.38-9.24.76-18.45,1.13-27.62.75-18.28,1.51-36.45,2.58-54.48"/>
      </g>
    </g>
  </g>
  <path class="cls-5" d="M542.02,957.32c5.29,76.53-4.34,153.94-28.3,227.32"/>
  <path class="cls-9" d="M475.82,934.2c-2.41,24.64,20.9,44.13,31.69,66.74,7.9,16.56,9.04,35.17,9.2,53.29.42,49.67-5.69,99.39-18.17,147.69"/>
  <path class="cls-3" d="M96.42,593.81c383.72,478.96,2082.82,528.95,2172.29-421.2"/>
  <path class="cls-4" d="M93.42,600.33C422,275.45,1793.21,78.87,2278.71,967.93"/>
  <g>
    <path class="cls-8" d="M232.32,813.82c-5.47,0-8.2-3.55-8.2-10.62v-3.12c6.64-50.82,14.84-105.06,24.61-162.76,9.76-57.69,22.07-114.86,36.91-171.51,0-1.25.59-3.12,1.76-5.62-2.74-2.49-4.11-7.28-4.11-14.37,0-18.74,3.02-31.02,9.08-36.87,6.06-5.82,11.62-8.74,16.7-8.74,2.73,0,4.69.22,5.87.63l4.11-1.25c2.35-.84,4.88-1.25,7.61-1.25,1.95,0,3.81.42,5.57,1.25,1.76.84,2.63,2.29,2.63,4.37,0,2.49-1.17,6.25-3.52,11.25s-4.79,10-7.33,14.99c-2.55,5-4.39,8.96-5.57,11.87l-7.03,18.74c1.17,24.99,3.6,50.92,7.33,77.78,3.71,26.87,9.08,51.86,16.11,74.97,7.03,23.11,15.91,41.97,26.67,56.55,10.74,14.59,23.74,21.87,38.97,21.87,10.93,0,24.99-6.56,42.19-19.68,17.19-13.12,35.94-34.36,56.26-63.73,20.31-29.36,40.23-68.62,59.78-117.78l1.76-18.74v-3.12c0-3.33-.3-6.66-.87-10-.59-3.33-.87-6.45-.87-9.37,0-13.33,2.82-25.2,8.5-35.61,5.66-10.4,16.3-15.62,31.93-15.62,2.35,0,4.49.53,6.45,1.57,1.95,1.04,2.93,2.81,2.93,5.31,0,4.17-1.57,10.21-4.69,18.11-3.14,7.92-5.09,14.17-5.87,18.74-4.69,17.92-8.59,38.33-11.72,61.23-3.14,22.91-5.57,46.55-7.33,70.92s-3.03,48.32-3.81,71.85c-.79,23.54-1.17,45.09-1.17,64.67,0,15.41.1,29.05.29,40.92.19,11.88.68,21.15,1.46,27.8.78,6.25,1.76,9.9,2.93,10.93,1.17,1.04,1.76,3.03,1.76,5.94,0,5.84-1.66,10.21-4.98,13.12-3.33,2.91-7.13,4.37-11.43,4.37-3.91,0-7.33-1.04-10.26-3.12s-4.39-5-4.39-8.74c.38-47.49.97-93.72,1.76-138.7.78-44.98,2.35-88.93,4.69-131.83-21.1,47.07-41.91,84.56-62.41,112.47-20.52,27.91-39.37,47.91-56.54,59.98-17.2,12.08-31.85,18.11-43.95,18.11-15.24,0-28.52-6.35-39.85-19.05-11.34-12.7-21.01-29.36-29-49.98-8.01-20.62-14.55-42.79-19.63-66.54-5.09-23.74-8.79-46.86-11.13-69.35-7.03,23.74-13.38,48.01-19.04,72.78-5.67,24.78-10.65,48.85-14.94,72.17-4.31,23.33-7.82,44.67-10.55,64.04-2.74,19.37-4.5,35.3-5.28,47.79,0,5.41.38,9.47,1.17,12.19.78,2.71,1.17,5.53,1.17,8.43,0,6.67-1.66,11.56-4.98,14.68-3.33,3.12-6.15,4.69-8.5,4.69h-.04.03,0Z"/>
    <path class="cls-8" d="M651.89,810.69c-9.37,0-14.06-7.49-14.06-22.5,0-11.66,2.14-26.13,6.45-43.42,4.3-17.28,9.96-35.3,17-54.04,7.03-18.74,14.75-36.34,23.15-52.79,8.4-16.45,17-29.89,25.78-40.3,8.79-10.41,16.89-15.62,24.32-15.62h1.76l6.45-5c1.95-2.49,4.39-4.15,7.33-5,2.93-.84,5.95-1.25,9.08-1.25,7.8,0,16.02,1.67,24.61,5,8.59,3.34,14.45,5,17.58,5,2.73,0,4.78-1.66,6.15-5,1.36-3.33,4.39-5,9.08-5,5.47,0,9.28,1.25,11.43,3.75,2.14,2.49,3.22,5.84,3.22,10,0,5.84-1.57,12.6-4.69,20.31-3.14,7.71-5.66,14.06-7.61,19.06-.4,1.67-2.15,3.03-5.28,4.06-3.14,1.04-5.09,2.4-5.87,4.06-6.25,19.17-11.92,38.64-17,58.41-5.09,19.78-8.99,36.97-11.72,51.55-2.74,14.59-4.11,23.54-4.11,26.87,0,10.41,2.73,15.62,8.2,15.62,4.69,0,9.76-2.19,15.24-6.56,5.47-4.37,10.84-9.27,16.11-14.68,5.28-5.41,9.67-10.31,13.19-14.68s5.47-6.56,5.87-6.56c.78,0,1.17.84,1.17,2.49s-.59,4.17-1.76,7.49c-1.17,3.34-2.55,5.62-4.11,6.88-3.91,3.75-9.96,9.47-18.17,17.19-8.2,7.71-17,14.9-26.37,21.56-9.37,6.67-17.58,10-24.61,10-8.2,0-13.09-5.21-14.65-15.62,0-7.49,1.17-17.19,3.52-29.05,2.35-11.87,4.98-24.05,7.91-36.55s5.57-22.9,7.91-31.24c-5.87,8.34-13.38,18.96-22.56,31.87-9.18,12.92-19.15,25.72-29.89,38.42-10.75,12.71-21.39,23.43-31.93,32.18-10.55,8.74-19.93,13.12-28.13,13.12v-.05.02h0ZM670.64,781.33c3.9,0,9.08-2.81,15.52-8.43s13.48-12.8,21.09-21.56c7.62-8.74,14.84-17.5,21.69-26.24,6.83-8.74,12.69-16.56,17.58-23.43,4.88-6.88,7.91-11.13,9.08-12.8,6.25-10.82,12.4-22.59,18.46-35.3,6.06-12.7,11.04-24.37,14.94-34.99s5.87-18.01,5.87-22.18c0-2.49-.98-3.75-2.93-3.75h-1.76c-3.91,0-7.91-.41-12.02-1.25-4.11-.84-8.89-1.25-14.35-1.25s-11.34.84-17.58,2.49c-3.52.84-8.5,5.94-14.94,15.31-6.45,9.37-13.48,21.15-21.1,35.3-7.61,14.17-14.85,29.27-21.68,45.3-6.83,16.04-12.51,31.35-17,45.92-4.5,14.59-6.74,26.66-6.74,36.24,0,7.08,1.95,10.62,5.87,10.62h0Z"/>
    <path class="cls-8" d="M848.78,812.57c-7.42,0-11.13-3.75-11.13-11.25,0-3.75.78-8.12,2.35-13.12,8.59-26.24,15.62-47.79,21.09-64.67,5.47-16.87,9.76-30.2,12.89-39.99,3.12-9.78,5.28-17.28,6.45-22.5,1.17-5.21,1.76-9.47,1.76-12.8,0-2.08-.3-3.54-.87-4.37-.59-.84-.87-2.08-.87-3.75s.59-4.37,1.76-8.12c8.2-25.4,15.62-42.69,22.26-51.86,6.64-9.15,16.6-13.74,29.89-13.74,5.47,0,8.4,1.88,8.79,5.62-3.91,7.92-10.26,20.84-19.04,38.73-8.79,17.92-18.07,40.09-27.84,66.54-9.77,26.45-18.37,56.75-25.78,90.91-.4,1.25-.59,2.92-.59,5,0,5,1.95,7.49,5.87,7.49,2.35,0,6.06-1.57,11.13-4.69,5.08-3.12,10.34-6.25,15.82-9.37,5.47-3.12,9.56-4.69,12.3-4.69s4.3.84,4.69,2.49c0,2.49-2.93,6.35-8.79,11.56-5.87,5.22-12.89,10.62-21.09,16.25-8.2,5.62-16.11,10.41-23.74,14.37-7.61,3.95-13.38,5.94-17.28,5.94l-.02.03h0ZM934.93,528.3c-5.47,0-8.79-2.19-9.96-6.56s-1.76-9.06-1.76-14.06c0-6.25,2.93-12.8,8.79-19.68,5.87-6.88,12.8-12.7,20.8-17.5,8.01-4.78,14.75-7.19,20.22-7.19,1.95,0,3.12.63,3.52,1.88,0,4.59-1.66,8.96-4.98,13.12-3.33,4.17-6.94,8.34-10.84,12.5-3.91,4.17-7.03,8.96-9.37,14.37-1.57,4.17-3.52,8.74-5.87,13.74s-5.87,8.12-10.55,9.37h0Z"/>
    <path class="cls-6" d="M1049.78,819.45c-18.37,0-32.14-2.29-41.32-6.88-9.18-4.58-15.33-10.31-18.46-17.19-3.14-6.88-4.69-13.64-4.69-20.31v-4.37c0-3.33.97-7.82,2.93-13.43,1.95-5.62,6.25-8.43,12.89-8.43,3.12,0,4.88,2.61,5.28,7.82.38,5.22,2.14,10.73,5.28,16.56,6.25,10.84,14.26,17.92,24.02,21.25,9.76,3.34,22.07,5,36.91,5,12.89,0,26.67-2.29,41.32-6.88,14.65-4.58,28.42-11.03,41.32-19.37,12.89-8.33,23.34-18.32,31.35-29.99,8.01-11.66,12.02-24.77,12.02-39.36,0-13.33-4.39-24.37-13.19-33.11-8.79-8.74-20.22-16.45-34.28-23.11s-28.81-13.01-44.24-19.05c-15.44-6.03-30.18-13.22-44.24-21.56-14.06-8.33-25.5-18.53-34.28-30.62-8.79-12.07-13.19-27.28-13.19-45.61s4.78-34.99,14.35-51.23c9.56-16.25,22.66-30.71,39.26-43.42,16.6-12.7,35.36-22.7,56.26-29.99,20.9-7.28,42.68-10.94,65.34-10.94,16.79,0,29.3,3.23,37.5,9.68,8.2,6.46,13.78,14.37,16.7,23.74,2.93,9.37,4.39,18.85,4.39,28.42,0,2.09-.59,5.62-1.76,10.62s-3.03,9.47-5.57,13.43c-2.55,3.96-5.57,5.94-9.08,5.94-2.74,0-4.11-2.7-4.11-8.12v-12.5c0-19.15-5.37-31.96-16.11-38.42-10.75-6.45-24.13-9.68-40.15-9.68-10.55,0-23.35,1.98-38.39,5.94-15.05,3.96-29.79,10-44.24,18.12-14.46,8.12-26.48,18.02-36.04,29.68-9.58,11.67-14.35,25.41-14.35,41.24,0,.84.1,1.77.3,2.81.19,1.04.29,1.98.29,2.81,1.95,17.5,7.91,31.97,17.87,43.42,9.96,11.47,22.17,20.93,36.63,28.42,14.45,7.49,29.59,14.17,45.41,19.99,15.82,5.84,30.56,11.87,44.24,18.11,13.67,6.25,24.8,13.65,33.41,22.18,8.59,8.55,12.89,19.68,12.89,33.42,0,16.25-4.88,32.39-14.65,48.42-9.77,16.04-23.05,30.62-39.85,43.73-16.81,13.12-36.04,23.54-57.72,31.24-21.69,7.7-44.44,11.56-68.27,11.56h.01v.02h0Z"/>
    <path class="cls-6" d="M1366.23,848.19c-5.09,0-7.62-2.29-7.62-6.88,0-4.17,2.93-8.43,8.79-12.8,5.87-4.37,10.15-9.9,12.89-16.56,1.17-3.33,3.52-11.34,7.03-24.05,3.52-12.7,7.52-27.28,12.02-43.73,4.49-16.45,8.58-32.18,12.3-47.18,3.71-14.99,6.54-26.44,8.5-34.36-4.31,7.08-10.84,16.77-19.63,29.05-8.79,12.29-18.66,25.41-29.59,39.36-10.94,13.96-22.18,27.29-33.69,39.99-11.53,12.71-22.37,23.11-32.52,31.24-10.16,8.12-18.76,12.19-25.78,12.19-5.47,0-8.2-3.75-8.2-11.25,0-6.25,2.14-15.2,6.44-26.87,2.35-5.82,5.95-14.37,10.84-25.62,4.88-11.25,9.96-23.43,15.24-36.55s9.76-25.4,13.48-36.87c3.71-11.45,5.57-20.31,5.57-26.56,0-2.91-.39-4.89-1.17-5.94-.79-1.04-1.17-2.6-1.17-4.69,0-.84.1-1.76.3-2.81.19-1.04.49-2.39.87-4.06,4.3-17.07,8.29-30.4,12.02-39.99,3.71-9.58,8.29-16.25,13.76-19.99,5.47-3.75,12.89-5.62,22.26-5.62,5.47,0,8.79,1.88,9.96,5.62-1.57,4.17-4.88,12.8-9.96,25.93-5.09,13.12-11.05,28.54-17.87,46.24-6.83,17.71-13.48,35.21-19.93,52.49-6.44,17.29-11.81,32.28-16.11,44.98-4.31,12.71-6.45,20.52-6.45,23.43,0,1.67.59,2.49,1.76,2.49,1.56,0,3.6-1.04,6.15-3.12,2.54-2.08,5.17-4.37,7.91-6.88,23.04-18.74,42.97-39.88,59.78-63.41,16.79-23.53,31.25-47.38,43.37-71.54.38-6.25,1.86-14.15,4.39-23.74,2.54-9.58,6.93-18.11,13.19-25.62,6.25-7.49,14.45-11.25,24.61-11.25,4.3,0,6.64,1.88,7.03,5.62-1.96,6.67-5.96,18.54-12.02,35.61-6.06,17.08-12.41,35.61-19.04,55.61-3.14,10-6.64,21.77-10.55,35.3-3.91,13.54-7.72,27.18-11.43,40.92-3.72,13.74-6.74,25.83-9.08,36.24-2.35,10.41-3.52,17.29-3.52,20.62,0,1.25.38,1.88,1.17,1.88,3.52-.41,8.29-3.12,14.35-8.12,6.06-5,12.4-10.09,19.04-15.31,6.64-5.21,12.1-7.82,16.41-7.82.78,0,1.76.22,2.93.63,1.17.42,1.76,1.25,1.76,2.49,0,2.49-2.74,6.04-8.2,10.62-5.47,4.59-12.02,9.37-19.63,14.37-7.62,5-14.65,9.59-21.09,13.74-6.45,4.15-10.84,7.07-13.19,8.74-3.91,3.33-8.12,7.7-12.6,13.12-4.5,5.41-8.89,10.21-13.19,14.37-4.31,4.15-8.59,6.25-12.89,6.25l.02.05h-.02Z"/>
    <path class="cls-6" d="M1480.49,819.45c-3.14,0-5.67-1.36-7.61-4.06-1.96-2.71-2.93-5.53-2.93-8.43,0-5,2.14-7.49,6.45-7.49,4.69,0,11.81-1.03,21.39-3.12,9.56-2.08,19.53-4.9,29.89-8.43,10.34-3.54,19.23-7.82,26.67-12.8,7.42-5,11.13-10.4,11.13-16.25,0-5.41-2.84-10.94-8.5-16.56s-12.6-11.34-20.8-17.19c-8.2-5.82-16.51-11.88-24.91-18.11-8.4-6.25-15.44-12.8-21.09-19.68-5.67-6.88-8.5-14.26-8.5-22.18,0-3.33.49-6.66,1.46-10,.97-3.33,2.82-6.66,5.57-10,11.72-15.82,24.51-28.63,38.39-38.42,13.86-9.78,26.86-17.28,38.97-22.5,12.1-5.21,21.29-9.06,27.54-11.56,1.95-.84,4.3-1.56,7.03-2.19s5.47-.94,8.2-.94c5.47,0,10.34,1.77,14.65,5.31,4.3,3.55,6.45,10.1,6.45,19.68-.39,4.17-1.96,9.47-4.69,15.93-2.74,6.46-6.15,13.02-10.26,19.68-4.11,6.67-8.12,12.19-12.02,16.56-3.91,4.37-7.23,6.56-9.96,6.56-1.57,0-2.35-1.25-2.35-3.75,0-3.75,1.07-8.54,3.22-14.37,2.14-5.82,4.3-11.56,6.45-17.19,2.14-5.62,3.22-10.09,3.22-13.43,0-6.25-3.52-9.37-10.55-9.37-2.74,0-5.77.31-9.08.94-3.33.63-6.74,1.36-10.26,2.19-2.35.42-6.83,2.19-13.48,5.31-6.64,3.12-13.68,7.19-21.09,12.19-7.42,5-13.87,10.73-19.34,17.19s-8.2,13.43-8.2,20.93c0,4.59.97,8.75,2.93,12.5,4.69,10,11.13,17.8,19.34,23.43,8.2,5.62,16.41,10.62,24.61,14.99s15.14,9.17,20.8,14.37c5.66,5.22,8.5,12.6,8.5,22.18s-3.91,19.68-11.72,29.05c-7.82,9.37-17.68,17.71-29.59,24.99-11.92,7.29-23.83,13.12-35.74,17.5-11.92,4.37-21.98,6.56-30.18,6.56l-.02.02v-.04h.01Z"/>
    <path class="cls-6" d="M1715.47,837.56c-4.3,0-7.82-1.67-10.55-5-2.74-3.34-4.11-9.37-4.11-18.11,0-12.07,2.24-26.56,6.74-43.42,4.49-16.87,9.96-34.36,16.41-52.49,6.45-18.11,12.89-35.3,19.34-51.55,6.44-16.25,11.91-30.08,16.41-41.55,4.49-11.45,6.74-18.64,6.74-21.56,0-.84-.2-1.25-.59-1.25-1.57,0-5.09,3.12-10.55,9.37-22.26,26.66-40.15,50.61-53.62,71.85-13.48,21.25-24.02,39.99-31.65,56.23-7.62,16.25-13.68,29.68-18.17,40.3-4.5,10.62-8.99,18.64-13.48,24.05s-10.46,8.12-17.87,8.12c-3.52,0-5.28-2.09-5.28-6.25,0-3.75.97-7.91,2.93-12.5,17.97-49.14,33.41-96.73,46.3-142.77,12.89-46.02,27.15-94.03,42.78-144.01.78-2.91,1.27-5.21,1.46-6.88.19-1.66.3-3.12.3-4.37,0-2.08-.2-3.54-.59-4.37-.39-.84-.59-2.08-.59-3.75s.59-4.37,1.76-8.12c5.87-17.07,10.93-30.4,15.24-39.99,4.3-9.58,9.18-16.25,14.65-19.99,5.47-3.75,12.69-5.62,21.68-5.62,5.47,0,8.4,1.88,8.79,5.62-21.49,46.65-41.22,95.7-59.19,147.14-17.98,51.44-32.82,99.87-44.54,145.26,4.3-7.08,10.15-16.66,17.58-28.74,7.42-12.07,15.91-24.77,25.5-38.11,9.56-13.33,19.53-26.03,29.89-38.11,10.34-12.07,20.6-21.87,30.76-29.36,10.15-7.49,19.53-11.25,28.13-11.25s12.3,2.92,12.3,8.74c0,3.75-1.38,7.92-4.11,12.5-8.59,14.99-17.87,32.48-27.83,52.49-9.96,19.99-19.34,40.61-28.13,61.86-8.79,21.24-16.03,41.44-21.69,60.6-5.67,19.17-8.5,35.61-8.5,49.36,0,5.82,1.56,8.75,4.69,8.75,1.95,0,5.47-1.88,10.55-5.62,5.08-3.75,8.4-5.62,9.96-5.62,1.95,0,2.93,1.25,2.93,3.75,0,5-3.61,10.31-10.84,15.93s-14.55,8.43-21.98,8.43h.04,0Z"/>
    <path class="cls-6" d="M1813.92,812.57c-7.42,0-11.13-3.75-11.13-11.25,0-3.75.78-8.12,2.35-13.12,8.58-26.24,15.62-47.79,21.09-64.67,5.47-16.87,9.77-30.2,12.89-39.99,3.12-9.78,5.28-17.28,6.45-22.5,1.17-5.21,1.76-9.47,1.76-12.8,0-2.08-.29-3.54-.87-4.37s-.87-2.08-.87-3.75.59-4.37,1.76-8.12c8.2-25.4,15.62-42.69,22.28-51.86,6.64-9.15,16.6-13.74,29.89-13.74,5.47,0,8.39,1.88,8.79,5.62-3.91,7.92-10.26,20.84-19.04,38.73-8.79,17.92-18.07,40.09-27.84,66.54-9.77,26.45-18.36,56.75-25.78,90.91-.39,1.25-.59,2.92-.59,5,0,5,1.95,7.49,5.87,7.49,2.35,0,6.06-1.57,11.13-4.69,5.08-3.12,10.34-6.25,15.82-9.37,5.47-3.12,9.56-4.69,12.3-4.69s4.3.84,4.69,2.49c0,2.49-2.93,6.35-8.79,11.56-5.87,5.22-12.89,10.62-21.09,16.25s-16.11,10.41-23.74,14.37c-7.62,3.95-13.38,5.94-17.28,5.94l-.04.03h0ZM1900.07,528.3c-5.47,0-8.79-2.19-9.96-6.56s-1.76-9.06-1.76-14.06c0-6.25,2.93-12.8,8.79-19.68,5.87-6.88,12.8-12.7,20.8-17.5,8-4.78,14.75-7.19,20.22-7.19,1.95,0,3.12.63,3.52,1.88,0,4.59-1.66,8.96-4.98,13.12-3.33,4.17-6.94,8.34-10.84,12.5-3.91,4.17-7.03,8.96-9.37,14.37-1.57,4.17-3.52,8.74-5.87,13.74s-5.87,8.12-10.55,9.37h0Z"/>
  </g>
  <g class="cls-10">
    <path class="cls-7" d="M589.5,1152.44c-3.12,0-6.34-1.12-9.65-3.36s-4.97-4.13-4.97-5.69c0-1.39,1.06-2.08,3.21-2.08.19,0,1.46.23,3.8.69-.78-3.25-1.37-7-1.75-11.27-.39-4.26-.58-8.94-.58-14.04,0-8.83.44-18.38,1.31-28.67s2.15-20.63,3.8-31c1.65-10.37,3.46-20.21,5.41-29.49,1.94-9.29,3.89-17.26,5.85-23.91h-15.5c-4.28-.15-6.43-.77-6.43-1.86,0-.77,1.21-1.63,3.66-2.56,2.44-.93,5.31-1.39,8.61-1.39h11.4c.97-4.02,3.22-6.66,6.72-7.89,3.51-1.25,7.2-1.86,11.1-1.86,2.92,0,4.38.78,4.38,2.33s-.87,3.1-2.63,4.64c-1.75,1.55-2.83,2.71-3.21,3.48,4.87.31,10.81.89,17.83,1.74,7.01.86,14.17,2.08,21.49,3.72,7.3,1.63,14.12,3.84,20.45,6.61,6.33,2.78,11.49,6.23,15.5,10.33,3.99,4.1,5.99,9.09,5.99,14.97,0,4.64-1.6,9.05-4.82,13.24s-7.3,7.97-12.28,11.38-10.19,6.38-15.64,8.94c-5.46,2.56-10.42,4.61-14.9,6.16,2.15-.15,4.43-.28,6.87-.35s5.01-.11,7.74-.11c6.43,0,13.25.39,20.45,1.16,7.2.78,13.92,2.17,20.16,4.18,6.24,2.01,11.3,4.84,15.21,8.48,3.89,3.64,5.85,8.32,5.85,14.04,0,8.2-3.26,15.36-9.79,21.49s-15.04,11.15-25.57,15.09c-10.52,3.95-21.93,6.89-34.2,8.83-12.28,1.94-24.06,2.91-35.37,2.91-4.28,0-8.47-.11-12.57-.35s-7.89-.66-11.4-1.28c-.97,1.86-2.83,2.78-5.56,2.78h.02ZM619.6,1145.48c10.13,0,20.5-.69,31.12-2.08,10.61-1.39,20.45-3.64,29.52-6.74,9.07-3.1,16.37-7.24,21.93-12.42,5.56-5.18,8.32-11.5,8.32-18.93-.19-5.27-2.48-9.56-6.87-12.89-4.38-3.33-9.99-5.89-16.81-7.66-6.82-1.77-14.02-3.02-21.64-3.72-7.6-.69-14.71-1.05-21.34-1.05-8.97,0-17.49.42-25.57,1.28-8.09.86-16.52,1.82-25.28,2.91-.2,2.01-.39,4.92-.58,8.71-.2,3.8-.29,8.01-.29,12.66,0,6.66.15,13.46.44,20.43s.73,12.85,1.31,17.65c7.4,1.25,15.98,1.86,25.72,1.86h.02,0ZM600.31,1076.98c1.94,0,5.99-.28,12.13-.8,6.14-.53,13.11-1.63,20.89-3.25,7.78-1.62,15.44-3.86,22.95-6.74,7.49-2.86,13.73-6.61,18.71-11.27,4.97-4.65,7.45-10.37,7.45-17.19,0-.77-.05-1.59-.15-2.44s-.25-1.74-.44-2.67c-1.96-4.95-5.7-9.13-11.25-12.55-5.56-3.41-11.94-6.18-19.14-8.36-7.21-2.16-14.37-3.86-21.49-5.1s-13.11-2.08-17.97-2.56h-.29c-.97,2.33-2.19,5.89-3.66,10.68-1.46,4.81-2.97,10.14-4.53,16.02-1.56,5.89-3.07,11.85-4.53,17.88s-2.68,11.53-3.66,16.49c-.97,4.95-1.56,8.83-1.75,11.61.19,0,.87.03,2.05.11s2.73.11,4.67.11h.02-.02Z"/>
    <path class="cls-7" d="M716.64,1225.36c-3.12,0-4.67-1.48-4.67-4.41,0-3.87,1.71-8.66,5.12-14.4,3.41-5.72,7.65-11.77,12.71-18.1,5.07-6.35,10.13-12.42,15.21-18.23,5.06-5.8,9.4-10.72,13.01-14.74s5.6-6.43,5.99-7.2c1.16-2.78,2-5.96,2.48-9.52s.73-7.35.73-11.38c0-7.74-.64-15.25-1.89-22.52-1.26-7.28-3.12-13.32-5.56-18.11-2.44-4.8-5.6-7.2-9.5-7.2-.78,0-1.56.03-2.34.11s-1.37.11-1.75.11c-.78,0-1.16-.39-1.16-1.16,0-.46.44-1.16,1.31-2.08s2.58-2.08,5.12-3.48c.97-.62,2.08-1.7,3.37-3.25,1.26-1.54,2.58-3.02,3.95-4.41,1.36-1.39,2.63-2.08,3.8-2.08,2.92,0,5.56,2.36,7.89,7.08s4.24,10.76,5.7,18.11c1.46,7.35,2.19,15.06,2.19,23.11,0,1.86-.05,3.72-.15,5.58-.1,1.86-.15,3.72-.15,5.58,0,2.48.77,3.72,2.34,3.72,1.94,0,4.77-1.63,8.47-4.88s7.74-7.35,12.13-12.3,8.61-10.1,12.71-15.43,7.45-10.13,10.09-14.4c2.63-4.26,3.95-7.24,3.95-8.94,0-.93-.49-1.39-1.46-1.39-.58,0-1.26.17-2.05.46-.78.31-1.56.46-2.34.46-.97,0-1.75-.39-2.34-1.16,0-1.39,1.41-2.91,4.24-4.53,2.83-1.63,5.99-3.02,9.5-4.18s6.33-1.74,8.47-1.74c.97,0,1.65.09,2.05.23.58.62.87,1.48.87,2.56,0,2.33-1.41,5.72-4.24,10.22s-6.48,9.48-10.96,14.97c-4.48,5.5-9.36,11.15-14.61,16.96-5.27,5.8-10.42,11.3-15.5,16.49s-9.5,9.68-13.3,13.47c-3.8,3.8-6.48,6.38-8.03,7.77,0-1.08-.25-.8-.73.8-.49,1.63-1.07,3.8-1.75,6.5-.68,2.71-1.56,5.18-2.63,7.43-1.07,2.24-2.19,3.36-3.37,3.36-.97,0-2-.2-3.07-.58s-1.81-.58-2.19-.58c-14.41,15.48-24.6,27.41-30.54,35.76-5.94,8.36-8.91,14.4-8.91,18.11,0,1.86.39,3.29,1.16,4.3.78,1,1.16,1.97,1.16,2.91,0,1.7-1.21,3.16-3.66,4.41-2.44,1.25-4.72,1.86-6.87,1.86l-.02-.03h-.02Z"/>
    <path class="cls-7" d="M923.27,1149.2c-2.15,0-3.76-.23-4.82-.69-1.07-.46-1.6-1.47-1.6-3.02,0-4.18.44-10.25,1.31-18.23.87-7.97,2.05-16.91,3.51-26.82,1.46-9.91,3.12-20.09,4.97-30.54,1.86-10.44,3.75-20.44,5.7-29.95,1.94-9.52,3.8-17.68,5.56-24.5v-.46c0-.62-.15-1.11-.44-1.51-.29-.39-.44-.89-.44-1.51,0-.93.29-2.47.87-4.64.58-2.16,1.06-3.79,1.46-4.88h-1.75c-1.96,0-3.95.08-5.99.23s-3.85.23-5.41.23c-4.28-.15-6.43-.77-6.43-1.86,0-1.54,2.38-2.59,7.16-3.13,4.77-.54,9.5-.8,14.17-.8.58-2.63,2.58-4.8,5.99-6.5,3.41-1.7,7.55-2.56,12.42-2.56,3.12,0,4.67.93,4.67,2.78-.97,1.86-1.81,3.05-2.48,3.6-.68.54-1.41,1.74-2.19,3.6,5.06.31,11.05.89,17.97,1.74,6.91.86,13.98,2.05,21.19,3.6,7.2,1.55,13.92,3.64,20.16,6.27s11.3,5.96,15.21,9.99c3.89,4.02,5.85,8.91,5.85,14.63,0,5.27-1.52,10.33-4.53,15.21s-6.92,9.33-11.7,13.35c-4.78,4.02-9.79,7.47-15.04,10.33-5.27,2.87-10.23,4.92-14.9,6.16-6.63,1.86-13.69,3.13-21.18,3.84-7.5.69-14.37,1.05-20.6,1.05-4.67,0-8.61-.11-11.84-.35s-5.31-.5-6.28-.8c-.58,2.63-1.22,6.58-1.89,11.85-.68,5.27-1.22,11.11-1.6,17.53-.39,6.43-.58,12.81-.58,19.16,0,3.87.29,7.08.87,9.64s.87,3.75.87,3.6c0,.78-.25,1.2-.73,1.28-.49.09-.83.35-1.02.8-.39.78-1.22,1.36-2.48,1.74-1.26.39-2.58.58-3.95.58h-.05v-.03h0ZM953.96,1078.37c2.73,0,5.46-.03,8.18-.11s5.06-.19,7.01-.35c5.65-.46,11.84-1.77,18.56-3.95,6.72-2.16,13.05-5.07,19-8.71,5.94-3.64,10.81-7.94,14.61-12.89,3.8-4.95,5.7-10.53,5.7-16.71,0-5.41-2.44-10.05-7.3-13.93-4.87-3.86-11-7.08-18.41-9.64-7.4-2.56-15.04-4.53-22.95-5.92-7.89-1.39-14.96-2.33-21.18-2.78-1.37,2.33-2.97,5.89-4.82,10.68-1.86,4.81-3.66,10.22-5.41,16.25s-3.47,12.12-5.12,18.23c-1.66,6.12-3.02,11.7-4.09,16.71-1.07,5.03-1.81,8.94-2.19,11.72.58.46,2.73.8,6.43,1.05s7.69.35,11.99.35h0,0Z"/>
    <path class="cls-7" d="M1024.1,1149.43c-4.67,0-7.01-2.78-7.01-8.36,0-4.33,1.06-9.71,3.22-16.14,2.15-6.42,4.97-13.12,8.47-20.09,3.51-6.97,7.35-13.5,11.54-19.62,4.18-6.11,8.47-11.1,12.86-14.97,4.38-3.86,8.43-5.8,12.13-5.8h.87l3.22-1.86c.97-.93,2.19-1.54,3.66-1.86,1.46-.31,2.97-.46,4.53-.46,3.89,0,7.99.62,12.28,1.86s7.2,1.86,8.77,1.86c1.36,0,2.38-.62,3.06-1.86s2.19-1.86,4.53-1.86c2.73,0,4.62.46,5.7,1.39,1.06.93,1.6,2.17,1.6,3.72,0,2.17-.78,4.69-2.34,7.55s-2.83,5.23-3.8,7.08c-.2.62-1.07,1.12-2.63,1.51s-2.54.89-2.92,1.51c-3.12,7.12-5.95,14.35-8.49,21.71-2.54,7.35-4.48,13.74-5.85,19.16-1.37,5.42-2.05,8.75-2.05,9.99,0,3.87,1.36,5.8,4.09,5.8,2.34,0,4.87-.8,7.59-2.44s5.41-3.44,8.03-5.46c2.63-2.01,4.82-3.84,6.58-5.46s2.73-2.44,2.92-2.44c.39,0,.58.31.58.93s-.29,1.55-.87,2.78c-.58,1.25-1.26,2.08-2.05,2.56-1.96,1.39-4.97,3.53-9.06,6.38-4.09,2.87-8.47,5.53-13.15,8.01-4.67,2.48-8.77,3.72-12.28,3.72-4.09,0-6.53-1.94-7.3-5.8,0-2.78.58-6.38,1.75-10.8,1.16-4.41,2.48-8.94,3.95-13.58,1.46-4.64,2.77-8.51,3.95-11.61-2.92,3.1-6.68,7.04-11.25,11.85s-9.55,9.56-14.9,14.28c-5.37,4.73-10.67,8.71-15.93,11.96s-9.94,4.88-14.02,4.88l-.03-.02h.05ZM1033.44,1138.51c1.94,0,4.53-1.05,7.74-3.13,3.22-2.08,6.72-4.76,10.52-8.01s7.4-6.5,10.81-9.75c3.41-3.25,6.33-6.16,8.77-8.71,2.44-2.56,3.95-4.13,4.53-4.76,3.12-4.02,6.18-8.4,9.21-13.12,3.02-4.72,5.5-9.05,7.45-13,1.94-3.95,2.92-6.69,2.92-8.25,0-.93-.49-1.39-1.46-1.39h-.87c-1.96,0-3.95-.15-5.99-.46s-4.43-.46-7.16-.46-5.66.31-8.77.93c-1.75.31-4.24,2.2-7.45,5.69s-6.72,7.86-10.52,13.12-7.4,10.88-10.81,16.83c-3.41,5.96-6.24,11.65-8.47,17.07-2.25,5.42-3.36,9.91-3.36,13.47,0,2.63.97,3.95,2.92,3.95v-.03.02h0Z"/>
    <path class="cls-7" d="M1133.4,1150.59c-5.07,0-9.3-1.31-12.71-3.95s-5.12-6.8-5.12-12.55,1.26-11.8,3.8-18.69c2.53-6.88,5.75-13.63,9.65-20.21,3.89-6.58,7.84-12.23,11.84-16.96s7.55-7.63,10.67-8.71c6.04-1.7,10.71-3.44,14.02-5.23,3.31-1.77,7.4-2.67,12.28-2.67,3.89,0,7.16.78,9.79,2.33,2.63,1.55,3.95,4.41,3.95,8.59v1.74c0,.54-.1,1.2-.29,1.97-.58,2.78-1.75,4.95-3.51,6.5-1.75,1.55-3.41,2.33-4.97,2.33-2.34,0-3.51-1.39-3.51-4.18,0-1.54.39-3.29,1.16-5.23s1.16-3.67,1.16-5.23c0-2.47-1.66-3.72-4.97-3.72-1.75,0-4.14.66-7.16,1.97-3.02,1.31-5.95,2.83-8.77,4.53-2.83,1.7-4.93,3.1-6.28,4.18-1.56,1.25-3.8,4.11-6.72,8.59-2.92,4.5-5.89,9.75-8.91,15.8-3.02,6.03-5.6,12.04-7.74,17.99-2.15,5.96-3.22,11.02-3.22,15.21,0,5.72,2.83,8.59,8.47,8.59,6.24,0,11.99-1.36,17.24-4.06s9.99-5.8,14.17-9.29c4.18-3.48,7.55-6.58,10.09-9.29,2.53-2.71,4.09-4.13,4.67-4.3.97.31,1.46.86,1.46,1.63,0,1.55-1.41,4.06-4.24,7.55-2.83,3.48-6.63,7.12-11.4,10.91-4.78,3.8-10.19,7.06-16.22,9.75-6.05,2.71-12.28,4.06-18.71,4.06h.04,0Z"/>
    <path class="cls-7" d="M1195.66,1150.13c-3.7,0-5.56-1.39-5.56-4.18,0-1.39.39-3.02,1.16-4.88,4.28-9.75,7.79-17.77,10.52-24.03,2.73-6.27,4.87-11.22,6.43-14.86,1.56-3.64,2.63-6.42,3.22-8.36.58-1.94.87-3.52.87-4.76,0-.77-.15-1.31-.44-1.63s-.44-.77-.44-1.39.29-1.63.87-3.02c4.09-9.44,7.79-15.86,11.1-19.27,3.31-3.41,8.28-5.1,14.9-5.1,2.73,0,4.18.69,4.38,2.08-1.96,2.94-5.12,7.75-9.5,14.4-4.38,6.66-9.02,14.9-13.88,24.74-4.87,9.83-9.16,21.1-12.86,33.79-.2.46-.29,1.08-.29,1.86,0,1.86.97,2.78,2.92,2.78,1.16,0,3.02-.58,5.56-1.74,2.53-1.16,5.16-2.33,7.89-3.48s4.77-1.74,6.14-1.74,2.15.31,2.34.93c0,.93-1.46,2.36-4.38,4.3s-6.43,3.95-10.52,6.03-8.03,3.87-11.84,5.34c-3.8,1.47-6.68,2.2-8.61,2.2v-.02l.02.03ZM1238.62,1044.47c-2.73,0-4.38-.8-4.97-2.44-.58-1.63-.87-3.36-.87-5.23,0-2.33,1.46-4.76,4.38-7.31,2.93-2.56,6.38-4.72,10.38-6.5,3.99-1.77,7.35-2.67,10.09-2.67.97,0,1.56.23,1.75.69,0,1.7-.83,3.33-2.48,4.88-1.66,1.55-3.47,3.1-5.41,4.64-1.96,1.55-3.51,3.33-4.67,5.34-.78,1.55-1.75,3.25-2.92,5.1-1.16,1.86-2.93,3.02-5.27,3.48h0,.02,0Z"/>
    <path class="cls-7" d="M1206.75,1196.8c-6.82,0-11.84-1-15.04-3.02-3.22-2.01-5.27-4.5-6.14-7.43-.87-2.94-1.31-5.66-1.31-8.12,0-4.5.83-8.55,2.48-12.19,1.66-3.64,3.16-5.46,4.53-5.46.78,0,1.26.46,1.46,1.39-.19,1.08-.34,2.16-.44,3.25-.09,1.08-.15,2.16-.15,3.25,0,7.28,1.81,13.04,5.41,17.3,3.6,4.26,7.84,6.38,12.71,6.38,4.48,0,9.16-1.9,14.02-5.69,4.87-3.8,9.45-9.87,13.73-18.23,2.53-4.95,5.41-11.19,8.61-18.69,3.22-7.51,6.43-15.44,9.65-23.8s6.28-16.37,9.2-24.03c2.93-7.66,5.41-14.28,7.45-19.85,2.05-5.58,3.36-9.22,3.95-10.91h-19c-4.67,0-7.01-.69-7.01-2.08,0-1.08,1.26-2.24,3.8-3.48s4.47-1.86,5.85-1.86h18.71c.58-1.39,1.6-3.99,3.06-7.77,1.46-3.79,3.12-8.01,4.97-12.66s3.66-8.97,5.41-13c1.75-4.02,3.02-6.97,3.8-8.83,4.09-8.97,9.89-15.56,17.39-19.73,7.49-4.18,17.19-6.27,29.08-6.27,7.59,0,13.59,1.43,17.97,4.3,4.38,2.87,7.55,6.27,9.5,10.22,1.94,3.95,2.92,7.63,2.92,11.02,0,4.02-.93,7.12-2.77,9.29-1.86,2.17-3.99,3.67-6.43,4.53-2.44.86-4.53,1.28-6.28,1.28-1.16,0-2.39-.35-3.66-1.05s-1.89-1.89-1.89-3.6c0-2.01.77-4.21,2.34-6.61,1.56-2.39,3.06-4.53,4.53-6.38,1.46-1.86,2.19-3.1,2.19-3.72,0-1.7-1.07-3.67-3.22-5.92s-4.87-4.22-8.18-5.92c-3.32-1.7-6.72-2.56-10.23-2.56-6.43,0-11.59,1.2-15.5,3.6-3.9,2.39-6.97,5.3-9.2,8.71-2.25,3.41-4.14,6.66-5.7,9.75-2.34,4.81-4.57,9.87-6.72,15.21-2.15,5.35-4.09,10.33-5.85,14.97-1.75,4.64-3.22,8.44-4.38,11.38,2.15,0,4.53.09,7.16.23,2.63.15,5.31.23,8.03.23,3.31,0,6.68-.35,10.09-1.05s5.7-1.05,6.87-1.05c.77,0,1.16.15,1.16.46,0,2.33-2.1,4.02-6.28,5.1-4.19,1.08-9.06,1.74-14.61,1.97-5.56.23-10.48.35-14.75.35-.58,1.08-1.71,3.91-3.36,8.48-1.66,4.56-3.66,10.1-5.99,16.6s-4.82,13.32-7.45,20.43c-2.63,7.12-5.22,13.93-7.74,20.44-2.54,6.5-4.67,11.99-6.43,16.49-4.67,11.76-10.09,20.86-16.22,27.28-6.14,6.42-12.38,10.88-18.71,13.35s-12.13,3.72-17.39,3.72v-.02.02h0ZM1314.6,1150.13c-3.7,0-5.56-1.39-5.56-4.18,0-1.39.39-3.02,1.16-4.88,4.28-9.75,7.79-17.77,10.52-24.03,2.73-6.27,4.87-11.22,6.43-14.86,1.56-3.64,2.63-6.42,3.22-8.36.58-1.94.87-3.52.87-4.76,0-.77-.15-1.31-.44-1.63s-.44-.77-.44-1.39.29-1.63.87-3.02c4.09-9.44,7.79-15.86,11.1-19.27,3.31-3.41,8.28-5.1,14.9-5.1,2.73,0,4.18.69,4.38,2.08-1.96,2.94-5.12,7.75-9.5,14.4-4.38,6.66-9.01,14.9-13.88,24.74-4.87,9.83-9.16,21.1-12.86,33.79-.2.46-.29,1.08-.29,1.86,0,1.86.97,2.78,2.93,2.78,1.16,0,3.02-.58,5.56-1.74,2.53-1.16,5.16-2.33,7.89-3.48s4.77-1.74,6.14-1.74,2.15.31,2.34.93c0,.93-1.46,2.36-4.38,4.3-2.92,1.94-6.43,3.95-10.52,6.03s-8.03,3.87-11.84,5.34-6.68,2.2-8.61,2.2v-.02.03h0Z"/>
    <path class="cls-7" d="M1400.81,1200.75c-3.9,0-6.14-1.94-6.72-5.8,0-3.1.87-7.51,2.63-13.24,1.75-5.72,4.04-12.07,6.87-19.04s5.85-13.97,9.07-21.01c3.22-7.04,6.24-13.55,9.06-19.51,2.83-5.96,5.12-10.8,6.87-14.52-3.12,3.1-7.26,7.06-12.42,11.85-5.16,4.81-10.77,9.56-16.81,14.28-6.04,4.73-11.94,8.71-17.68,11.96-5.75,3.25-10.67,4.88-14.75,4.88-4.48,0-6.72-2.39-6.72-7.2,0-4.18,1.31-9.52,3.95-16.02,2.63-6.5,6.08-13.38,10.38-20.66,4.28-7.28,8.97-14.13,14.02-20.55,5.06-6.42,10.09-11.65,15.04-15.68,4.97-4.02,9.4-6.03,13.3-6.03h.87l3.22-1.86c.97-.93,2.19-1.54,3.66-1.86,1.46-.31,2.97-.46,4.53-.46,3.89,0,7.99.62,12.28,1.86,4.29,1.25,7.11,1.86,8.47,1.86s2.48-.62,3.36-1.86c.87-1.25,2.48-1.86,4.82-1.86,5.27,0,7.89,1.94,7.89,5.8,0,2.17-.68,4.61-2.05,7.31-1.37,2.71-2.54,4.92-3.51,6.61-.2.62-1.07,1.12-2.63,1.51s-2.54.89-2.93,1.51c-8.58,16.25-16.71,32.23-24.4,47.94s-14.08,32.23-19.14,49.58c-.78,2.47-1.16,4.64-1.16,6.5,0,2.78,1.06,4.18,3.22,4.18,2.34,0,4.97-.8,7.89-2.44,2.93-1.63,5.8-3.56,8.61-5.8,2.83-2.25,5.31-4.18,7.45-5.8,2.15-1.63,3.6-2.44,4.38-2.44.97,0,1.46.54,1.46,1.63,0,.93-.34,1.94-1.02,3.02s-1.22,1.7-1.6,1.86c-1.56,1.08-3.95,2.67-7.16,4.76-3.21,2.09-6.82,4.26-10.81,6.5-3.99,2.25-7.89,4.18-11.7,5.8s-7.16,2.44-10.09,2.44v-.03h.03,0ZM1378.9,1138.51c1.94,0,4.62-1.05,8.03-3.13s7.11-4.76,11.1-8.01,7.84-6.5,11.54-9.75c3.7-3.25,6.91-6.16,9.65-8.71,2.73-2.56,4.38-4.13,4.97-4.76,3.51-4.18,6.97-8.66,10.38-13.47,3.41-4.8,6.24-9.13,8.47-13,2.24-3.86,3.36-6.58,3.36-8.12,0-.77-.39-1.16-1.16-1.16h-.87c-1.96,0-3.95-.19-5.99-.58-2.05-.39-4.43-.58-7.16-.58-1.37,0-2.73.09-4.09.23-1.37.17-2.92.46-4.67.93-1.37.17-3.85,2.01-7.45,5.58-3.61,3.56-7.59,8.05-11.99,13.47-4.38,5.42-8.61,11.15-12.71,17.19-4.09,6.03-7.45,11.77-10.09,17.19-2.63,5.42-3.95,9.91-3.95,13.47,0,2.17.87,3.25,2.63,3.25v-.03h0Z"/>
    <path class="cls-7" d="M1500.77,1163.36c-2.54,0-3.8-.86-3.8-2.56,0-1.55,1.46-3.13,4.38-4.76,2.92-1.63,5.06-3.67,6.43-6.16.58-1.25,1.75-4.21,3.51-8.94,1.75-4.72,3.75-10.13,5.99-16.25,2.24-6.11,4.28-11.96,6.14-17.53,1.86-5.57,3.26-9.82,4.24-12.77-2.15,2.63-5.41,6.23-9.79,10.8s-9.3,9.45-14.75,14.63c-5.46,5.19-11.06,10.14-16.81,14.86-5.75,4.73-11.15,8.59-16.22,11.61-5.07,3.02-9.36,4.53-12.86,4.53-2.73,0-4.09-1.39-4.09-4.18,0-2.33,1.06-5.66,3.22-9.99,1.16-2.16,2.97-5.34,5.41-9.52,2.44-4.18,4.97-8.71,7.59-13.58s4.87-9.44,6.72-13.69,2.77-7.55,2.77-9.87c0-1.08-.2-1.82-.58-2.2-.39-.39-.58-.97-.58-1.74,0-.31.05-.66.15-1.05s.25-.89.44-1.51c2.15-6.35,4.14-11.3,5.99-14.86s4.14-6.03,6.87-7.43c2.73-1.39,6.43-2.08,11.1-2.08,2.73,0,4.38.69,4.97,2.08-.78,1.55-2.44,4.76-4.97,9.64-2.54,4.88-5.51,10.61-8.91,17.19-3.41,6.58-6.72,13.09-9.94,19.51s-5.89,11.99-8.03,16.71c-2.15,4.73-3.22,7.63-3.22,8.71,0,.62.29.93.87.93.77,0,1.79-.39,3.07-1.16,1.26-.77,2.58-1.63,3.95-2.56,11.49-6.97,21.43-14.83,29.81-23.57,8.37-8.74,15.59-17.61,21.64-26.59.19-2.33.92-5.27,2.19-8.83s3.46-6.74,6.58-9.52c3.12-2.78,7.2-4.18,12.28-4.18,2.15,0,3.31.69,3.51,2.08-.97,2.48-2.97,6.89-5.99,13.24s-6.19,13.24-9.5,20.66c-1.56,3.72-3.31,8.09-5.27,13.12-1.96,5.03-3.85,10.1-5.7,15.21-1.86,5.1-3.36,9.6-4.53,13.47s-1.75,6.43-1.75,7.66c0,.46.19.69.58.69,1.75-.15,4.14-1.16,7.16-3.02s6.18-3.75,9.5-5.69c3.31-1.94,6.04-2.91,8.18-2.91.39,0,.87.09,1.46.23.58.17.87.46.87.93,0,.93-1.37,2.25-4.09,3.95-2.73,1.7-5.99,3.48-9.79,5.34s-7.3,3.56-10.52,5.1-5.41,2.63-6.58,3.25c-1.96,1.25-4.05,2.86-6.28,4.88-2.25,2.01-4.43,3.79-6.58,5.34s-4.28,2.33-6.43,2.33h0v.02h0Z"/>
    <path class="cls-7" d="M1576.46,1151.05c-2.34,0-5.01-.43-8.03-1.28-3.02-.86-5.66-2.39-7.89-4.64-2.25-2.24-3.36-5.46-3.36-9.64,0-1.7.29-3.72.87-6.03,1.94-7.74,3.85-13.63,5.7-17.65s2.97-7.28,3.36-9.75c-.58-.15-1.46-.54-2.63-1.16-1.16-.62-1.75-1.47-1.75-2.56s.58-1.77,1.75-2.08,2.24-.46,3.22-.46h2.05c1.56-2.63,3.26-5.49,5.12-8.59s4.62-7.28,8.32-12.55c3.31-4.95,7.64-8.25,13.01-9.87,5.35-1.63,11.44-2.44,18.26-2.44s11.2,4.73,13.73,14.17c1.16,4.81,1.75,8.66,1.75,11.61,0,3.72-1.52,6.66-4.53,8.83-3.02,2.17-6.72,3.8-11.1,4.88-4.38,1.08-8.72,1.82-13.01,2.2s-7.69.58-10.23.58-4.72-.03-6.58-.11-3.16-.11-3.95-.11c-2.93,5.89-5.27,11.53-7.01,16.96-1.75,5.42-2.63,9.99-2.63,13.69,0,6.2,2.92,9.29,8.77,9.29,3.51,0,7.16-1.25,10.96-3.72s7.45-5.34,10.96-8.59,6.53-6.11,9.06-8.59c2.54-2.47,4.18-3.72,4.97-3.72,1.36,0,2.05.62,2.05,1.86,0,2.17-1.56,4.92-4.67,8.25-3.12,3.33-6.97,6.61-11.54,9.87-4.57,3.25-9.16,5.96-13.73,8.12-4.57,2.16-8.32,3.25-11.25,3.25v-.03l-.02-.03h0ZM1594.87,1098.35c7.4,0,13.01-.66,16.81-1.97s5.8-4.22,5.99-8.71c0-6.35-1.02-10.83-3.06-13.47-2.05-2.63-3.95-3.95-5.7-3.95-2.34,0-4.82,1.12-7.45,3.36-2.63,2.25-5.16,4.92-7.59,8.01-2.44,3.1-4.64,6.16-6.58,9.17-1.96,3.02-3.31,5.38-4.09,7.08.97,0,2.54.08,4.67.23s4.47.23,7.01.23h0Z"/>
  </g>
</svg>