<?xml version="1.0" encoding="UTF-8"?>
<svg id="Layer_1" data-name="Layer 1" xmlns="http://www.w3.org/2000/svg" viewBox="0 0 1920 1080">
  <defs>
    <style>
      .cls-1 {
        opacity: .3;
      }

      .cls-1, .cls-2, .cls-3 {
        stroke-miterlimit: 10;
      }

      .cls-1, .cls-2, .cls-3, .cls-4 {
        fill: none;
      }

      .cls-1, .cls-3 {
        stroke: #000;
      }

      .cls-5 {
        fill: #ef3940;
      }

      .cls-6 {
        letter-spacing: 0em;
      }

      .cls-7 {
        font-size: 36px;
      }

      .cls-7, .cls-8 {
        font-family: Bilbo-Regular, Bilbo;
      }

      .cls-9 {
        letter-spacing: .06em;
      }

      .cls-9, .cls-10 {
        fill: red;
      }

      .cls-8 {
        font-size: 14px;
      }

      .cls-2 {
        stroke: #231f20;
        stroke-linecap: round;
      }

      .cls-3 {
        stroke-width: .5px;
      }

      .cls-11 {
        opacity: .7;
      }

      .cls-4 {
        stroke: #ef3940;
      }

      .cls-12 {
        letter-spacing: -.12em;
      }
    </style>
  </defs>
  <text class="cls-7" transform="translate(693 421)"><tspan class="cls-10" x="0" y="0">Ma</tspan><tspan class="cls-9" x="39.02" y="0">i</tspan><tspan x="47.34" y="0">Sushi</tspan></text>
  <text class="cls-8" transform="translate(720 450)"><tspan x="0" y="0">By </tspan><tspan class="cls-12" x="16.07" y="0">P</tspan><tspan class="cls-6" x="21.73" y="0">acifique</tspan></text>
  <line class="cls-2" x1="800.61" y1="405.27" x2="802.68" y2="404.89"/>
  <g class="cls-11">
    <g>
      <g>
        <path class="cls-5" d="M671.71,367.46c-.09,1.56-.13,3.15-.17,4.64-.07,3.19-.66,5.82-.82,8.92-.21,3.89-.99,7.66-1.46,11.68-.86,7.38-2.19,14.97-3.43,22.46-.86,6.93-.46,13.61.17,20.14.33,3.27.75,6.5,1.22,9.75l.39,2.57c.21,1.25.43,2.51.64,3.77.25,1.37.49,2.74.74,4.12l.39,2.16.2,1.1c.07.3.13.47.19.73.21-.75.43-1.53.65-2.3.28-1,.57-2,.86-3.02l.43-1.45c.14-.5.29-1,.45-1.42.31-.89.63-1.8.98-2.68.22-.54.44-1.09.65-1.63.79-1.94,1.61-3.93,2.38-5.98.37-1.03.75-2.07,1.07-3.16.17-.54.31-1.08.45-1.65.14-.59.25-1.18.31-1.79.14-1.21.09-2.44-.03-3.55-.12-1.12-.27-2.13-.35-3.1-.06-.73-.07-1.44-.06-2.4.01-.99-.01-2.04-.1-3.13-.15-2.19-.5-4.51-.92-6.75-.87-4.48-1.72-8.67-2.06-11.18.32,3.37,1.05,6.85,1.68,10.4.63,3.55,1.14,7.22.98,10.82.05-3.96-.66-7.83-1.4-11.6-.37-1.89-.75-3.76-1.05-5.63-.15-.94-.28-1.87-.39-2.8-.06-.47-.09-.93-.13-1.4-.04-.45-.09-1.02-.16-1.51-.3-2.01-.81-3.86-1.09-5.67-.27-1.79-.38-3.61.4-4.89.07-.17.19-.32.32-.46.12-.14.22-.3.38-.41l.45-.38.6-.49.6-.5c.19-.17.36-.39.53-.58l.52-.59c.16-.21.29-.45.43-.67,1.14-1.81,1.43-4,1.24-5.93.13,1.65-.02,3.46-.8,5.09-.4.79-.89,1.55-1.5,2.18-.28.35-.61.62-.95.89-.31.26-.73.59-.93.77-.55.38-.87.93-1.15,1.49-.24.59-.36,1.27-.39,1.97-.04,1.43.24,2.94.55,4.48.31,1.54.68,3.12.82,4.82.11,1.56.28,3.09.52,4.63.46,3.08,1.12,6.17,1.6,9.32.24,1.57.42,3.16.51,4.75.11,1.58.01,3.26.02,4.7.02,1.5.26,3.01.35,4.61.09,1.6-.09,3.26-.55,4.76-.88,3-2.09,5.81-3.27,8.59-.59,1.38-1.19,2.79-1.76,4.2-.56,1.36-1.02,2.58-1.35,3.61l-.09.3-.02.07s-.01-.06-.02-.08l-.03-.23-.13-.89-.23-1.66c-.14-1.04-.25-1.98-.35-2.86.13.85.27,1.72.41,2.59.08.46.15.92.23,1.39l.12.73.03.19s0,.09.02.07l.02-.07.09-.3c.35-1.23.85-2.56,1.43-4.02.68-1.69,1.37-3.4,2.06-5.13.7-1.75,1.39-3.53,1.97-5.37.61-1.82,1.02-3.76.88-5.72-.11-1.96-.46-3.89-.38-5.84.08-1.97,0-3.97-.23-5.95-.44-3.96-1.33-7.85-1.9-11.74-.15-.97-.27-1.95-.36-2.92-.09-.96-.13-1.95-.27-2.97-.28-1.99-.8-3.89-1.05-5.79-.27-1.87-.25-3.84.77-5.29l.42-.5.5-.43,1.14-.93c.75-.66,1.39-1.45,1.88-2.32.99-1.77,1.06-3.83.87-5.69-.2-1.88-.67-3.67-1.04-5.44-.37-1.77-.69-3.54-.55-5.3.16-1.75.31-3.48.47-5.19.22-2.23.52-4.71.83-6.58-.67,3.65-.99,7.43-1.34,11.31-.23,1.96.1,3.93.52,5.87.41,1.95.92,3.91,1.07,5.97.14,2.04-.26,4.27-1.57,5.99-.36.39-.7.82-1.09,1.17l-1.23,1c-.81.57-1.38,1.41-1.66,2.36-.55,1.92-.18,4.05.2,6.09.2,1.03.42,2.07.59,3.12.18,1.05.24,2.14.31,3.18.35,4.21,1.3,8.37,1.91,12.56.31,2.1.53,4.2.55,6.3.02,1.05-.06,2.09-.04,3.15.02,1.05.13,2.1.23,3.13.73,4.17-.97,8.04-2.4,11.77-.76,1.86-1.5,3.71-2.24,5.53-.48,1.17-.89,2.18-1.16,3.06l-.03.09-.04.15s-.03.17-.04.05l-.06-.41-.12-.78-.21-1.44-.61-4.18c-.5-3.47-.92-6.96-1.23-10.46-.59-6.99-.89-14.06.27-20.99.71-3.84,1.43-7.71,2.15-11.56,1.48-7.95,2.56-16.08,3.11-24.16.25-3.59.5-8.59.45-13.04-.03-4.45-.34-8.33-.83-9.68,0,2.3.14,4.84.04,7.05-.07-.84-.17-1.8-.23-2.78,0,.94-.03,1.98.01,2.86-.04-.73-.09-1.47-.19-1.75-.03,1.13.09,2.73.13,3.62.02.52.19,2.93.12,3.61-.11-1.78-.23-4.03-.44-5.48-.02.61,0,1.22-.04,1.82-.07-.74-.09-2.18-.2-2.56,0,1.52.04,2.87,0,4.45-.04,1.28-.1,2.43-.1,3.66-.03-1.47-.02-3.43-.16-4.45-.05.67-.05,1.39-.06,2.08-.01-.08-.03-.14-.05-.15-.02.31-.04.72-.05,1.04-.03,0-.05.08-.08.01.02,0,.04.01.06.02"/>
        <path class="cls-5" d="M673.59,365.37c-.03,1.52-.1,3.69-.23,5.08"/>
        <path class="cls-4" d="M670.47,450.45s.25-.8.86-2.36c.39-1,.87-2.23,1.43-3.64.58-1.48,1.25-3.16,1.9-5.03.32-.94.65-1.92.93-2.95.29-1.03.49-2.11.53-3.25.08-2.27-.56-4.72-.46-7.34.21-5.16-1.13-10.67-2.13-16.39-.24-1.43-.45-2.89-.59-4.36-.06-.74-.12-1.48-.2-2.2-.1-.73-.23-1.45-.38-2.18-.29-1.45-.63-2.9-.81-4.39-.18-1.48-.18-3.05.42-4.48.34-.68.78-1.36,1.4-1.82.59-.51,1.14-.9,1.66-1.41,1.03-.99,1.7-2.27,2-3.62.6-2.74-.18-5.53-.73-8.2-.3-1.34-.55-2.69-.65-4.06-.07-.68-.04-1.37,0-2.06.06-.65.12-1.28.18-1.92.24-2.52.5-4.94.84-7.2.66-4.53,1.75-8.43,2.92-11.38"/>
      </g>
      <path class="cls-4" d="M675.53,416.41s-.32-1.9-.91-5.08c-.29-1.59-.63-3.51-.87-5.69-.07-.54-.1-1.1-.15-1.68-.05-.59-.11-1.23-.22-1.84-.2-1.24-.5-2.5-.76-3.79-.25-1.29-.49-2.63-.45-3.97.06-1.32.41-2.68,1.43-3.59.57-.48,1.14-.96,1.72-1.45.53-.59,1.08-1.17,1.46-1.89.81-1.4,1.11-3.06,1.05-4.65-.11-3.22-1.27-6.21-1.67-9.35-.24-1.57-.07-3.18.05-4.72.12-1.55.25-3.09.4-4.61"/>
    </g>
  </g>
  <path class="cls-3" d="M716.6,434.62c.34,5.27-.28,10.61-1.81,15.67"/>
  <path class="cls-3" d="M712.4,433.03c-.15,1.7,1.34,3.04,2.03,4.6.51,1.14.58,2.42.59,3.67.03,3.42-.36,6.85-1.17,10.18"/>
  <path class="cls-1" d="M675,408.93c18,32.07,126,32.07,170.45-21.34"/>
  <path class="cls-1" d="M674.96,409.25c18.04-20.55,123.53-41.44,171.93,34.33"/>
</svg>