<?xml version="1.0" encoding="UTF-8"?>
<svg id="Layer_1" xmlns="http://www.w3.org/2000/svg" version="1.1" viewBox="0 0 2278.69 1334.78">
  <!-- Generator: Adobe Illustrator 30.0.0, SVG Export Plug-In . SVG Version: 2.1.1 Build 123)  -->
  <defs>
    <style>
      .st0 {
        stroke: #231f20;
        stroke-linecap: round;
        stroke-width: 3px;
      }

      .st0, .st1, .st2, .st3, .st4, .st5, .st6, .st7, .st8 {
        stroke-miterlimit: 10;
      }

      .st0, .st1, .st4, .st5 {
        fill: none;
      }

      .st9, .st10 {
        fill: #ed1c24;
      }

      .st1 {
        opacity: .66;
      }

      .st1, .st4 {
        isolation: isolate;
        stroke-width: 8px;
      }

      .st1, .st4, .st5, .st6, .st7, .st8 {
        stroke: #000;
      }

      .st2, .st3 {
        fill: red;
        stroke: red;
      }

      .st2, .st6 {
        stroke-width: 30px;
      }

      .st3, .st5, .st8 {
        stroke-width: 25px;
      }

      .st4, .st11 {
        opacity: .7;
      }

      .st12 {
        opacity: .95;
      }

      .st10 {
        stroke: #ef3940;
      }

      .st7 {
        stroke-width: 20px;
      }
    </style>
  </defs>
  <line class="st0" x1="1675.81" y1="535.53" x2="1702.62" y2="530.06"/>
  <g class="st12">
    <g class="st11">
      <g>
        <g>
          <path class="st9" d="M82.79,212.31c-.65,9.07-1.18,18.22-1.38,27.3-.11,4.54-.15,9.06-.15,13.53-.02,4.47-.06,8.9-.03,13.26.02,4.64-.14,9.18-.43,13.64-.14,2.23-.32,4.44-.53,6.63-.22,2.19-.49,4.36-.77,6.52-1.13,8.63-2.61,17.02-4.06,25.38-3.13,16.7-6.08,33.25-6.54,51.37-.12,5.68-.38,11.34-.87,16.97-.51,5.63-1.16,11.24-1.9,16.83-.76,5.59-1.55,11.19-2.52,16.76-.97,5.57-2,11.15-3.03,16.73-1.06,5.58-2.03,11.19-3.16,16.79-1.1,5.61-2.16,11.24-3.16,16.91-1.92,11.35-3.87,22.79-5.1,34.53-4.69,43.07-10.37,86.68-17.86,130.53-3.69,21.92-7.65,43.9-11.72,65.86-2.06,11-4.11,21.98-6.17,32.96l-1.55,8.24-1.49,8.37c-1.07,5.58-1.89,11.18-2.82,16.77-3.28,20.7-5.26,41.29-6.39,61.7-1.12,20.41-1.38,40.62-1.05,60.66.68,40.07,3.64,79.4,7.71,118.33,2.04,19.47,4.37,38.84,6.91,58.18l1.97,14.65,3.24,21.14c1.23,7.5,2.46,15,3.68,22.5,1.31,7.59,2.62,15.18,3.92,22.77,5.38,30.59,11.34,61.25,17.51,93.93,3.2,16.84,6.4,33.71,9.62,50.63.84,4.42,1.68,8.84,2.52,13.26l1.27,6.71.16.84.08.42c.03.13.06.31.08.36l.27.89.54,1.8c.72,2.42,1.44,4.91,2.16,7.49l.54,1.95.69,2.61,1.5,5.77c1.76-5.21,3.57-10.58,5.39-15.97,4.08-12.16,8.2-24.42,12.34-36.78,4.22-12.7,8.48-25.49,12.76-38.36,1.07-3.24,2.14-6.48,3.21-9.73l1.6-4.82,1.55-4.56c2.08-6.17,4.17-12.35,6.26-18.56l1.58-4.72c.26-.84.53-1.47.81-2.14l.82-2.01c1.09-2.7,2.19-5.41,3.28-8.11,1.1-2.73,2.2-5.47,3.31-8.21l1.66-4.14c.56-1.38,1.1-2.81,1.69-4.05,2.32-5.2,4.64-10.41,6.97-15.63,1.17-2.64,2.34-5.28,3.52-7.93,1.2-2.61,2.4-5.23,3.6-7.85,4.64-10.15,9.3-20.33,13.97-30.55,3.31-7.2,6.63-14.43,9.96-21.67,1.35-2.9,2.66-5.91,3.99-8.88,1.31-2.99,2.66-5.92,3.94-8.98,2.57-6.1,5.17-12.15,7.59-18.48,2.51-6.19,4.8-12.74,7.1-19.23,1.13-3.29,2.16-6.72,3.23-10.07l.79-2.53.4-1.27.2-.64.19-.73,1.51-5.82c2.02-7.75,3.36-15.92,4.29-24.1,1.68-16.41.56-32.86-1.18-46.21l-.65-4.98-.65-4.69c-.42-2.98-.83-5.95-1.24-8.91l-.54-4.15c-.17-1.36-.38-2.78-.5-4.06-.27-2.6-.62-5.27-.78-7.74-.36-3.71-.5-7.53-.58-11.56.03-4.86.06-9.96.1-15.26,0-3.08.06-6.23.03-9.4-.12-3.15-.24-6.35-.37-9.6-.06-1.62-.13-3.26-.19-4.91-.03-.82-.07-1.65-.1-2.48-.06-.82-.12-1.64-.19-2.46-.26-3.29-.53-6.61-.8-9.98-.14-1.68-.27-3.37-.41-5.07-.19-1.67-.38-3.35-.57-5.04-.39-3.37-.79-6.77-1.19-10.2-.18-1.73-.43-3.41-.68-5.1s-.5-3.39-.75-5.1c-.51-3.4-.99-6.86-1.55-10.26-2.28-13.56-4.85-27.21-7.67-40.33-2.78-13.23-5.7-25.97-8.55-38.24-2.79-12.02-5.49-23.67-8.04-34.67-5-21.65-8.98-40.14-12.45-53.87,2.25,18.59,5.6,37.74,9.44,57.47s8.14,40.02,12.1,60.88c3.96,20.85,7.57,42.28,9.89,64.13,2.32,21.84,3.3,44.13,2.04,66.27-.06-24.31-2.68-48.13-6.48-71.22-3.81-23.11-8.78-45.54-13.73-67.51-4.95-21.97-9.9-43.5-13.8-64.76-.96-5.31-1.8-10.59-2.71-15.89l-2.22-15.78-1.66-15.9c-.58-6.86-1.64-13.19-2.77-19.35-1.15-6.16-2.48-11.99-3.83-17.69-1.35-5.71-2.75-11.2-4.09-16.6-2.69-10.77-5.19-21.05-6.87-30.78-1.66-9.67-2.5-18.84-1.78-26.42.34-3.8.95-7.25,2.01-10.19,1.03-2.97,2.37-5.58,4.13-8.07.49-.6.96-1.21,1.41-1.84.54-.59,1.12-1.16,1.66-1.76.49-.63,1.21-1.16,1.84-1.73.67-.56,1.22-1.19,2.01-1.7.74-.54,1.48-1.09,2.21-1.65l.28-.21.5-.34,1-.67,1.99-1.35c1.33-.88,2.64-1.85,3.95-2.8,1.31-.94,2.61-1.91,3.9-2.93,10.29-7.98,20.06-17.65,27.79-29.28,7.75-11.57,13.15-25.01,15.56-38.34,2.46-13.35,2.32-26.37.94-38.46,1.05,10.27,1.24,21.11-.27,32.24-1.49,11.11-4.84,22.48-10.14,32.9-5.25,10.47-12.38,19.78-20.24,27.74-3.94,4-8.1,7.6-12.35,10.99-4.25,3.39-8.64,6.41-13.07,9.32-10.83,7.48-15.3,15.08-16.65,28.24l-.14,1.2-.05,1.27-.13,2.54.02,2.66v1.33l.07,1.38.13,2.77.25,2.86c.13,1.88.43,3.88.65,5.83,1.04,7.91,2.77,16.27,4.7,24.87,2.08,8.94,4.16,17.89,6.24,26.82,2.09,9.3,4.11,18.98,5.4,29.5.35,2.59.57,5.32.81,8.03l.58,6.65.55,6.46c.1,1.08.17,2.15.29,3.23l.39,3.25c.54,4.34.99,8.66,1.59,13.01l1.91,13.08c2.78,17.49,6.19,35.15,9.68,53.01,3.48,17.87,7.1,35.94,10.13,54.37,3.03,18.41,5.52,37.13,6.83,56.12l.75,14.28c.04,4.79.08,9.58.13,14.37.06,2.38-.08,4.8-.17,7.2l-.3,7.2-.32,6.88-.34,6.14c-.25,8.21.02,16.51.63,25.11.6,8.6,1.56,17.55,2.17,27.01.62,9.43.79,19.37-.13,29.28-.28,2.48-.52,4.95-.87,7.41l-1.26,7.33c-1.07,4.82-2.14,9.63-3.65,14.25l-1.06,3.49c-.35,1.17-.77,2.21-1.15,3.31l-2.36,6.53-1.19,3.25-1.28,3.19-2.56,6.36c-3.49,8.42-7.17,16.67-11,24.79-1.87,4.09-3.87,8.08-5.82,12.1-1.94,4.02-3.95,7.99-5.95,11.95-2.13,4.22-4.26,8.43-6.39,12.63-2.24,4.38-4.47,8.75-6.7,13.12-8.95,17.39-17.25,33.14-24.53,47.19-1.84,3.44-3.57,6.74-5.29,9.77-1.74,2.93-3.25,6.11-4.81,9.06-1.57,2.94-2.94,5.82-4.31,8.53-1.41,2.7-2.6,5.32-3.77,7.79l-1.46,3.08-1.27,2.97-1.22,2.81-.15.34-.07.17-.02.04s-.01.03-.02-.03l-.03-.21-.22-1.64-.43-3.26c-1.16-8.65-2.19-16.95-3.12-24.88-1.85-15.87-3.24-30.28-4.19-43.11,1.59,10.81,3.38,22.36,5.4,34.71,1.07,6.34,2.14,12.72,3.22,19.14l.43,2.48.21,1.25.05.31s.05-.11.07-.16l.14-.4c.38-1.09.76-2.18,1.14-3.28.39-1.12.78-2.23,1.17-3.35.41-1.12.88-2.24,1.32-3.38,5.04-12.93,11.67-27.02,19.22-42.56,3.97-8.1,7.97-16.25,11.98-24.43,2.13-4.37,4.27-8.76,6.41-13.16,1.1-2.3,2.21-4.6,3.32-6.9l1.69-3.54,1.75-3.73c2.33-4.97,4.67-9.96,6.93-15,1.14-2.51,2.27-5.03,3.41-7.55,1.1-2.54,2.2-5.07,3.31-7.61,2.26-5.07,4.28-10.23,6.41-15.38,1.09-2.57,2-5.2,3.01-7.8.96-2.62,2.03-5.21,2.91-7.86,1.78-5.3,3.7-10.58,5.13-16.04.85-2.7,1.36-5.48,2-8.24.69-2.76,1.01-5.58,1.49-8.39.1-.7.24-1.41.32-2.11l.21-2.13.42-4.26c.15-1.42.15-2.85.23-4.28.05-1.43.15-2.86.16-4.29.03-5.72-.12-11.47-.59-17.17-.84-11.42-2.32-22.7-3.03-33.91l-.26-4.21c-.09-1.4-.1-2.8-.16-4.2l-.14-4.2v-4.19c.02-1.4,0-2.79.04-4.19l.18-4.18.34-8.54c1.1-23.25-.45-46.62-3.38-69.71-5.85-46.22-17.05-91.3-23.67-136.12-1.63-11.2-3.06-22.39-3.99-33.54l-.66-8.36c-.22-2.64-.45-5.95-.75-8.96-.62-6.12-1.61-12.03-2.68-17.86-2.18-11.64-4.9-22.83-7.34-33.83-2.45-10.99-4.7-21.79-5.95-32.35-.66-5.28-.97-10.47-.95-15.53.03-5.06.4-10,1.41-14.61,1.94-9.27,5.96-17.38,12.56-23.78,1.54-1.69,3.44-3.08,5.2-4.61l2.93-2.04.73-.51c.26-.18.44-.32.79-.54l1.87-1.23c4.98-3.27,9.83-6.81,14.42-10.75,9.17-7.83,17.39-17.2,23.39-27.96,6-10.75,9.61-22.71,10.89-34.49,1.32-11.81.63-23.39-1-34.47-1.63-11.1-4.16-21.77-6.89-32.2-2.74-10.42-5.72-20.6-8.43-30.73s-5.18-20.21-6.84-30.37-2.5-20.43-1.77-30.69c1.3-20.5,2.42-40.7,3.81-60.63.5-6.56.91-13.34,1.47-20.14.28-3.4.46-6.83.78-10.23.28-3.41.57-6.81.85-10.18.23-3.38.62-6.71.91-10.01.32-3.29.55-6.56.9-9.73.33-3.19.64-6.31.95-9.33.14-1.52.29-3.01.43-4.48.17-1.47.33-2.91.49-4.33-3.3,21.81-5.61,43.82-7.4,66.05-1.79,22.23-3.14,44.66-4.66,67.34-.18,2.85-.42,5.64-.55,8.56-.16,2.89-.15,5.79-.09,8.67.17,5.77.74,11.5,1.56,17.2,1.66,11.39,4.37,22.59,7.32,33.8,2.96,11.21,6.2,22.43,9.05,33.91,2.84,11.47,5.35,23.22,6.52,35.4,1.17,12.14.95,24.82-2.05,37.28-1.47,6.22-3.7,12.32-6.55,18.14-2.84,5.83-6.43,11.28-10.46,16.33-8.1,10.11-18.1,18.4-28.73,25.28l-2,1.29-1.71,1.17-1.69,1.15c-.56.39-1.15.74-1.65,1.19l-3.13,2.55c-.99.89-1.91,1.86-2.87,2.77-3.68,3.81-6.71,8.13-8.97,12.9-2.26,4.76-3.76,9.96-4.63,15.4-.87,5.44-1.04,11.13-.86,16.88.2,5.76.79,11.59,1.63,17.46.87,5.87,1.95,11.78,3.15,17.72,2.4,11.88,5.27,23.85,7.67,36.13,1.19,6.14,2.29,12.36,3.08,18.69l.52,4.78c.17,1.59.25,3.22.38,4.82l.65,9.18c3.33,48.64,14.92,97.07,22.56,145.9,1.03,6.09,1.79,12.23,2.67,18.34.46,3.05.76,6.13,1.13,9.19l1.05,9.18.78,9.2.38,4.59c.14,1.53.25,3.06.31,4.6l.42,9.19.21,4.59.02,4.59.03,9.16v2.29l-.1,2.29-.21,4.56c-.29,6.13-.58,12.24-.87,18.36-.34,12.35.53,24.71,1.65,36.83,1.11,12.12,2.26,24.01,1.83,35.6-.44,11.58-2.42,22.85-5.83,33.72-3.55,11-7.68,22-12.29,32.74-4.5,10.78-9.41,21.41-14.34,31.97-1.26,2.64-2.51,5.27-3.77,7.9l-1.88,3.94-1.56,3.11c-1.01,1.99-2.01,3.98-3.01,5.96l-1.43,2.78-1.36,2.61c-3.4,6.46-6.78,12.88-10.13,19.26-6.29,11.89-11.51,21.97-15.27,30.62-.22.51-.44,1-.66,1.5-.42.97-.77,1.95-1.15,2.89l-.55,1.4-.27.69c-.03.14-.04-.11-.06-.19l-.05-.34-.1-.67-1.54-10.48c-.98-6.8-1.86-13.23-2.65-19.31-1.57-12.15-2.76-22.86-3.64-32.26-.43-4.77-.86-9.54-1.28-14.31-1.22-9.84-2.45-19.69-3.67-29.55-2.42-20.32-4.57-40.66-6.37-61-3.59-40.67-5.86-81.39-5.79-121.79.04-20.2.69-40.31,2.22-60.19.79-9.93,1.7-19.83,2.97-29.61l.94-7.34c.33-2.44.74-4.85,1.11-7.28l.56-3.64c.19-1.22.35-2.4.59-3.69l1.3-7.6c8.8-43.87,19.49-88.31,29.34-133.62,1.25-5.83,2.5-11.66,3.74-17.49,1.19-5.86,2.37-11.73,3.56-17.59,1.17-5.87,2.38-11.73,3.51-17.62l3.28-17.67c1.06-5.9,2.22-11.78,3.2-17.69l2.99-17.74c2.05-11.82,3.76-23.69,5.56-35.55,6.98-47.47,12.23-95.18,15.56-142.83.67-10.58,1.41-22.19,2.18-34.48.3-6.15.6-12.47.91-18.91.28-6.44.65-13,.8-19.65.36-13.29.79-26.89.72-40.46,0-6.78-.02-13.55-.08-20.26-.15-6.71-.34-13.37-.58-19.91-.4-13.1-1.29-25.78-2.32-37.68-.28-2.97-.55-5.9-.82-8.77-.3-2.87-.66-5.69-1.01-8.44-.71-5.51-1.47-10.78-2.3-15.76-1.6-9.96-3.7-18.78-5.99-26.08-2.3-7.3-4.88-13.1-7.77-17.03-.36,26.91,2.67,56.69.67,82.57-.96-4.91-2.03-10.17-3.01-15.65-1.04-5.48-2.03-11.17-2.73-16.95.04,5.5-.1,11.3-.13,17.01-.09,5.71-.02,11.32.57,16.45-1.1-8.51-2.36-17.18-4.7-20.45-.29,6.6.23,14.58,1.08,22.23.82,7.64,1.94,14.95,2.45,20.17.33,3.06,1.65,11.63,2.74,20.46.27,2.21.53,4.43.76,6.58.2,2.15.37,4.24.48,6.18.23,3.87.27,7.14-.03,9.14-.88-5.25-1.69-10.84-2.57-16.53-.92-5.68-1.86-11.48-2.78-17.15-.96-5.67-1.91-11.21-2.99-16.39-1.11-5.18-2.27-10.01-3.52-14.25-.13,3.58-.14,7.15-.18,10.69-.02,1.77-.05,3.54-.12,5.29-.09,1.76-.21,3.5-.37,5.24-.87-4.33-1.52-10.71-2.24-16.56-.72-5.85-1.53-11.16-2.85-13.36.03,8.89.4,17.27.66,25.74.18,8.46.3,17.01,0,26.23-.06,1.87-.13,3.71-.19,5.54-.09,1.82-.18,3.63-.27,5.42-.17,3.58-.33,7.11-.45,10.62-.26,7.01-.24,13.96-.03,21.13-1.26-17.17-1.77-40.14-5.32-52.01-.55,3.92-.74,7.96-.78,12.04-.02,4.08,0,8.18.09,12.25-.33-1-.73-1.6-1.17-1.82-.09,3.6-.83,8.33-.82,12.07-.63.07-1.26.87-1.87.12.44.12.88.18,1.33.26"/>
          <path class="st9" d="M126.97,188.79c-.17,8.97-.48,19.81-.93,30.46-.48,10.65-1.35,21.08-2.38,29.24"/>
          <path class="st10" d="M77.8,1154.68s.22-.54.66-1.6c.44-1.06,1.08-2.66,2.01-4.76,1.81-4.21,4.57-10.51,8.48-18.95,3.87-8.46,8.92-19.05,14.97-32.02,1.57-3.4,3.2-6.92,4.87-10.54.43-.94.86-1.88,1.3-2.84.47-1.03.94-2.07,1.41-3.12,1.03-2.33,2.08-4.69,3.14-7.08,4.26-9.58,8.55-19.72,12.88-30.39,1.04-2.68,2.08-5.39,3.14-8.13s2.14-5.51,3.1-8.33c1-2.82,2.01-5.67,3.03-8.54.92-2.89,1.84-5.82,2.78-8.77,1.01-2.97,1.7-5.89,2.49-8.87.2-.74.39-1.49.59-2.24.15-.75.3-1.51.45-2.27.3-1.52.61-3.04.91-4.57.31-1.53.45-3.09.69-4.64.19-1.56.5-3.11.57-4.7.12-1.58.25-3.17.38-4.77.15-1.59.1-3.21.17-4.83.15-3.23-.04-6.53-.1-9.84-.22-3.33-.39-6.68-.76-10.1-.63-6.82-1.57-13.81-2.41-21.01-.85-7.19-1.65-14.57-2.02-22.11-.27-3.76-.27-7.57-.36-11.39-.03-1.91.06-3.83.08-5.75.04-1.9.07-3.8.11-5.71.06-3.71.12-7.45.18-11.2l.04-2.82-.09-2.83c-.06-1.89-.13-3.79-.19-5.69s-.13-3.81-.19-5.72c-.02-1.91-.26-3.82-.38-5.74-.29-3.84-.59-7.69-.89-11.57-1.59-15.48-3.89-31.2-6.73-47.11-5.78-31.81-13.52-64.33-19.78-97.84-3.17-16.75-5.73-33.8-7.46-51.06-.4-4.29-.8-8.58-1.2-12.88-.36-4.17-1.01-8.36-1.68-12.54-1.44-8.37-3.35-16.75-5.34-25.15-3.96-16.81-8.41-33.78-10.47-51.5-1.03-8.84-1.35-17.92-.25-27.06,1.01-9.12,3.89-18.31,8.73-26.48,4.87-8.17,11.85-14.92,19.5-20.11,1.99-1.41,3.6-2.44,5.35-3.61,1.7-1.17,3.38-2.37,5.02-3.59,3.28-2.47,6.4-5.08,9.37-7.83,2.93-2.78,5.71-5.67,8.24-8.72,2.51-3.07,4.8-6.27,6.82-9.61,4.05-6.67,6.9-13.9,8.67-21.38,3.51-15.02,2.45-30.9-.3-46.46-2.78-15.62-7.17-31.07-11.3-46.69-4.11-15.64-8.1-31.53-9.8-48.27-.86-8.35-1.05-16.96-.3-25.59.61-7.58,1.21-15.07,1.81-22.48.61-7.44,1.2-14.8,1.79-22.05.67-7.29,1.23-14.48,1.96-21.61,1.3-14.24,2.9-28.17,4.62-41.71,3.57-27.08,8.05-52.66,13.68-76.15,5.61-23.5,12.21-44.88,18.68-63.75"/>
        </g>
        <path class="st10" d="M146.18,775.09s-1.03-5.54-2.94-15.78c-2.02-10.12-4.96-24.88-8.67-43.47-3.61-18.46-7.89-40.58-10.83-65.54-.38-3.12-.61-6.28-.93-9.49-.32-3.33-.64-6.7-.96-10.12-.72-7.54-1.99-14.94-3.5-22.28-3.02-14.68-7.02-29.24-10.32-43.98-1.64-7.36-3.11-14.77-4.08-22.14-.95-7.36-1.46-14.73-.91-21.75.2-1.72.27-3.52.61-5.19l.41-2.56.6-2.47.29-1.24c.1-.41.26-.8.38-1.2l.77-2.39c.27-.79.64-1.53.94-2.3.33-.76.6-1.56,1.02-2.27,2.99-5.89,7.27-11.26,13.05-15.71l2.23-1.62c.75-.55,1.41-1.06,2.47-1.77,1.94-1.32,3.87-2.63,5.76-4.05,3.81-2.78,7.51-5.81,11.07-9.06,3.58-3.22,6.95-6.76,10.13-10.5,3.17-3.75,6.12-7.75,8.7-12.02,5.2-8.5,8.98-17.97,11.05-27.67,2.1-9.71,2.55-19.57,1.97-29.16-.59-9.6-2.18-18.97-4.23-28.13-2.05-9.17-4.56-18.14-7.18-27.04-5.22-17.81-10.98-35.35-14.37-53.67-1.68-9.16-2.74-18.52-2.56-28.07.38-9.24.76-18.45,1.13-27.62.75-18.28,1.51-36.45,2.58-54.48"/>
      </g>
    </g>
  </g>
  <path class="st5" d="M535.44,955.06c4.77,76.53-3.91,153.94-25.5,227.32"/>
  <path class="st5" d="M475.78,931.94c-2.17,24.64,18.83,44.13,28.56,66.74,7.12,16.56,8.15,35.17,8.29,53.29.38,49.67-5.13,99.39-16.37,147.69"/>
  <path class="st1" d="M96.4,591.55c383.72,478.96,2082.82,528.95,2172.29-421.2"/>
  <path class="st4" d="M93.4,592.07C421.98,267.19,1793.19,70.61,2278.69,959.67"/>
  <g>
    <path class="st2" d="M232.3,811.56c-5.47,0-8.2-3.55-8.2-10.62v-3.12c6.64-50.82,14.84-105.06,24.61-162.76,9.76-57.69,22.07-114.86,36.91-171.51,0-1.25.59-3.12,1.76-5.62-2.74-2.49-4.11-7.28-4.11-14.37,0-18.74,3.02-31.02,9.08-36.87,6.06-5.82,11.62-8.74,16.7-8.74,2.73,0,4.69.22,5.87.63l4.11-1.25c2.35-.84,4.88-1.25,7.61-1.25,1.95,0,3.81.42,5.57,1.25,1.76.84,2.63,2.29,2.63,4.37,0,2.49-1.17,6.25-3.52,11.25s-4.79,10-7.33,14.99c-2.55,5-4.39,8.96-5.57,11.87l-7.03,18.74c1.17,24.99,3.6,50.92,7.33,77.78,3.71,26.87,9.08,51.86,16.11,74.97,7.03,23.11,15.91,41.97,26.67,56.55,10.74,14.59,23.74,21.87,38.97,21.87,10.93,0,24.99-6.56,42.19-19.68,17.19-13.12,35.94-34.36,56.26-63.73,20.31-29.36,40.23-68.62,59.78-117.78l1.76-18.74v-3.12c0-3.33-.3-6.66-.87-10-.59-3.33-.87-6.45-.87-9.37,0-13.33,2.82-25.2,8.5-35.61,5.66-10.4,16.3-15.62,31.93-15.62,2.35,0,4.49.53,6.45,1.57,1.95,1.04,2.93,2.81,2.93,5.31,0,4.17-1.57,10.21-4.69,18.11-3.14,7.92-5.09,14.17-5.87,18.74-4.69,17.92-8.59,38.33-11.72,61.23-3.14,22.91-5.57,46.55-7.33,70.92-1.76,24.37-3.03,48.32-3.81,71.85-.79,23.54-1.17,45.09-1.17,64.67,0,15.41.1,29.05.29,40.92.19,11.88.68,21.15,1.46,27.8.78,6.25,1.76,9.9,2.93,10.93,1.17,1.04,1.76,3.03,1.76,5.94,0,5.84-1.66,10.21-4.98,13.12-3.33,2.91-7.13,4.37-11.43,4.37-3.91,0-7.33-1.04-10.26-3.12s-4.39-5-4.39-8.74c.38-47.49.97-93.72,1.76-138.7.78-44.98,2.35-88.93,4.69-131.83-21.1,47.07-41.91,84.56-62.41,112.47-20.52,27.91-39.37,47.91-56.54,59.98-17.2,12.08-31.85,18.11-43.95,18.11-15.24,0-28.52-6.35-39.85-19.05-11.34-12.7-21.01-29.36-29-49.98-8.01-20.62-14.55-42.79-19.63-66.54-5.09-23.74-8.79-46.86-11.13-69.35-7.03,23.74-13.38,48.01-19.04,72.78-5.67,24.78-10.65,48.85-14.94,72.17-4.31,23.33-7.82,44.67-10.55,64.04-2.74,19.37-4.5,35.3-5.28,47.79,0,5.41.38,9.47,1.17,12.19.78,2.71,1.17,5.53,1.17,8.43,0,6.67-1.66,11.56-4.98,14.68-3.33,3.12-6.15,4.69-8.5,4.69h-.04Z"/>
    <path class="st3" d="M651.87,808.43c-9.37,0-14.06-7.49-14.06-22.5,0-11.66,2.14-26.13,6.45-43.42,4.3-17.28,9.96-35.3,17-54.04,7.03-18.74,14.75-36.34,23.15-52.79,8.4-16.45,17-29.89,25.78-40.3,8.79-10.41,16.89-15.62,24.32-15.62h1.76l6.45-5c1.95-2.49,4.39-4.15,7.33-5,2.93-.84,5.95-1.25,9.08-1.25,7.8,0,16.02,1.67,24.61,5,8.59,3.34,14.45,5,17.58,5,2.73,0,4.78-1.66,6.15-5,1.36-3.33,4.39-5,9.08-5,5.47,0,9.28,1.25,11.43,3.75,2.14,2.49,3.22,5.84,3.22,10,0,5.84-1.57,12.6-4.69,20.31-3.14,7.71-5.66,14.06-7.61,19.06-.4,1.67-2.15,3.03-5.28,4.06-3.14,1.04-5.09,2.4-5.87,4.06-6.25,19.17-11.92,38.64-17,58.41-5.09,19.78-8.99,36.97-11.72,51.55-2.74,14.59-4.11,23.54-4.11,26.87,0,10.41,2.73,15.62,8.2,15.62,4.69,0,9.76-2.19,15.24-6.56,5.47-4.37,10.84-9.27,16.11-14.68,5.28-5.41,9.67-10.31,13.19-14.68s5.47-6.56,5.87-6.56c.78,0,1.17.84,1.17,2.49s-.59,4.17-1.76,7.49c-1.17,3.34-2.55,5.62-4.11,6.88-3.91,3.75-9.96,9.47-18.17,17.19-8.2,7.71-17,14.9-26.37,21.56-9.37,6.67-17.58,10-24.61,10-8.2,0-13.09-5.21-14.65-15.62,0-7.49,1.17-17.19,3.52-29.05,2.35-11.87,4.98-24.05,7.91-36.55,2.93-12.5,5.57-22.9,7.91-31.24-5.87,8.34-13.38,18.96-22.56,31.87-9.18,12.92-19.15,25.72-29.89,38.42-10.75,12.71-21.39,23.43-31.93,32.18-10.55,8.74-19.93,13.12-28.13,13.12v-.05ZM670.62,779.07c3.9,0,9.08-2.81,15.52-8.43s13.48-12.8,21.09-21.56c7.62-8.74,14.84-17.5,21.69-26.24,6.83-8.74,12.69-16.56,17.58-23.43,4.88-6.88,7.91-11.13,9.08-12.8,6.25-10.82,12.4-22.59,18.46-35.3,6.06-12.7,11.04-24.37,14.94-34.99,3.9-10.62,5.87-18.01,5.87-22.18,0-2.49-.98-3.75-2.93-3.75h-1.76c-3.91,0-7.91-.41-12.02-1.25-4.11-.84-8.89-1.25-14.35-1.25s-11.34.84-17.58,2.49c-3.52.84-8.5,5.94-14.94,15.31-6.45,9.37-13.48,21.15-21.1,35.3-7.61,14.17-14.85,29.27-21.68,45.3-6.83,16.04-12.51,31.35-17,45.92-4.5,14.59-6.74,26.66-6.74,36.24,0,7.08,1.95,10.62,5.87,10.62h0Z"/>
    <path class="st3" d="M848.76,810.31c-7.42,0-11.13-3.75-11.13-11.25,0-3.75.78-8.12,2.35-13.12,8.59-26.24,15.62-47.79,21.09-64.67,5.47-16.87,9.76-30.2,12.89-39.99,3.12-9.78,5.28-17.28,6.45-22.5,1.17-5.21,1.76-9.47,1.76-12.8,0-2.08-.3-3.54-.87-4.37-.59-.84-.87-2.08-.87-3.75s.59-4.37,1.76-8.12c8.2-25.4,15.62-42.69,22.26-51.86,6.64-9.15,16.6-13.74,29.89-13.74,5.47,0,8.4,1.88,8.79,5.62-3.91,7.92-10.26,20.84-19.04,38.73-8.79,17.92-18.07,40.09-27.84,66.54-9.77,26.45-18.37,56.75-25.78,90.91-.4,1.25-.59,2.92-.59,5,0,5,1.95,7.49,5.87,7.49,2.35,0,6.06-1.57,11.13-4.69,5.08-3.12,10.34-6.25,15.82-9.37,5.47-3.12,9.56-4.69,12.3-4.69s4.3.84,4.69,2.49c0,2.49-2.93,6.35-8.79,11.56-5.87,5.22-12.89,10.62-21.09,16.25-8.2,5.62-16.11,10.41-23.74,14.37-7.61,3.95-13.38,5.94-17.28,5.94l-.02.03ZM934.91,526.04c-5.47,0-8.79-2.19-9.96-6.56s-1.76-9.06-1.76-14.06c0-6.25,2.93-12.8,8.79-19.68,5.87-6.88,12.8-12.7,20.8-17.5,8.01-4.78,14.75-7.19,20.22-7.19,1.95,0,3.12.63,3.52,1.88,0,4.59-1.66,8.96-4.98,13.12-3.33,4.17-6.94,8.34-10.84,12.5-3.91,4.17-7.03,8.96-9.37,14.37-1.57,4.17-3.52,8.74-5.87,13.74s-5.87,8.12-10.55,9.37h0Z"/>
    <path class="st6" d="M1049.76,817.19c-18.37,0-32.14-2.29-41.32-6.88-9.18-4.58-15.33-10.31-18.46-17.19-3.14-6.88-4.69-13.64-4.69-20.31v-4.37c0-3.33.97-7.82,2.93-13.43,1.95-5.62,6.25-8.43,12.89-8.43,3.12,0,4.88,2.61,5.28,7.82.38,5.22,2.14,10.73,5.28,16.56,6.25,10.84,14.26,17.92,24.02,21.25,9.76,3.34,22.07,5,36.91,5,12.89,0,26.67-2.29,41.32-6.88,14.65-4.58,28.42-11.03,41.32-19.37,12.89-8.33,23.34-18.32,31.35-29.99,8.01-11.66,12.02-24.77,12.02-39.36,0-13.33-4.39-24.37-13.19-33.11-8.79-8.74-20.22-16.45-34.28-23.11-14.06-6.66-28.81-13.01-44.24-19.05-15.44-6.03-30.18-13.22-44.24-21.56-14.06-8.33-25.5-18.53-34.28-30.62-8.79-12.07-13.19-27.28-13.19-45.61s4.78-34.99,14.35-51.23c9.56-16.25,22.66-30.71,39.26-43.42,16.6-12.7,35.36-22.7,56.26-29.99,20.9-7.28,42.68-10.94,65.34-10.94,16.79,0,29.3,3.23,37.5,9.68,8.2,6.46,13.78,14.37,16.7,23.74,2.93,9.37,4.39,18.85,4.39,28.42,0,2.09-.59,5.62-1.76,10.62s-3.03,9.47-5.57,13.43c-2.55,3.96-5.57,5.94-9.08,5.94-2.74,0-4.11-2.7-4.11-8.12v-12.5c0-19.15-5.37-31.96-16.11-38.42-10.75-6.45-24.13-9.68-40.15-9.68-10.55,0-23.35,1.98-38.39,5.94-15.05,3.96-29.79,10-44.24,18.12-14.46,8.12-26.48,18.02-36.04,29.68-9.58,11.67-14.35,25.41-14.35,41.24,0,.84.1,1.77.3,2.81.19,1.04.29,1.98.29,2.81,1.95,17.5,7.91,31.97,17.87,43.42,9.96,11.47,22.17,20.93,36.63,28.42,14.45,7.49,29.59,14.17,45.41,19.99,15.82,5.84,30.56,11.87,44.24,18.11,13.67,6.25,24.8,13.65,33.41,22.18,8.59,8.55,12.89,19.68,12.89,33.42,0,16.25-4.88,32.39-14.65,48.42-9.77,16.04-23.05,30.62-39.85,43.73-16.81,13.12-36.04,23.54-57.72,31.24-21.69,7.7-44.44,11.56-68.27,11.56h.01Z"/>
    <path class="st8" d="M1366.21,845.93c-5.09,0-7.62-2.29-7.62-6.88,0-4.17,2.93-8.43,8.79-12.8,5.87-4.37,10.15-9.9,12.89-16.56,1.17-3.33,3.52-11.34,7.03-24.05,3.52-12.7,7.52-27.28,12.02-43.73,4.49-16.45,8.58-32.18,12.3-47.18,3.71-14.99,6.54-26.44,8.5-34.36-4.31,7.08-10.84,16.77-19.63,29.05-8.79,12.29-18.66,25.41-29.59,39.36-10.94,13.96-22.18,27.29-33.69,39.99-11.53,12.71-22.37,23.11-32.52,31.24-10.16,8.12-18.76,12.19-25.78,12.19-5.47,0-8.2-3.75-8.2-11.25,0-6.25,2.14-15.2,6.44-26.87,2.35-5.82,5.95-14.37,10.84-25.62,4.88-11.25,9.96-23.43,15.24-36.55,5.28-13.12,9.76-25.4,13.48-36.87,3.71-11.45,5.57-20.31,5.57-26.56,0-2.91-.39-4.89-1.17-5.94-.79-1.04-1.17-2.6-1.17-4.69,0-.84.1-1.76.3-2.81.19-1.04.49-2.39.87-4.06,4.3-17.07,8.29-30.4,12.02-39.99,3.71-9.58,8.29-16.25,13.76-19.99,5.47-3.75,12.89-5.62,22.26-5.62,5.47,0,8.79,1.88,9.96,5.62-1.57,4.17-4.88,12.8-9.96,25.93-5.09,13.12-11.05,28.54-17.87,46.24-6.83,17.71-13.48,35.21-19.93,52.49-6.44,17.29-11.81,32.28-16.11,44.98-4.31,12.71-6.45,20.52-6.45,23.43,0,1.67.59,2.49,1.76,2.49,1.56,0,3.6-1.04,6.15-3.12,2.54-2.08,5.17-4.37,7.91-6.88,23.04-18.74,42.97-39.88,59.78-63.41,16.79-23.53,31.25-47.38,43.37-71.54.38-6.25,1.86-14.15,4.39-23.74,2.54-9.58,6.93-18.11,13.19-25.62,6.25-7.49,14.45-11.25,24.61-11.25,4.3,0,6.64,1.88,7.03,5.62-1.96,6.67-5.96,18.54-12.02,35.61-6.06,17.08-12.41,35.61-19.04,55.61-3.14,10-6.64,21.77-10.55,35.3-3.91,13.54-7.72,27.18-11.43,40.92-3.72,13.74-6.74,25.83-9.08,36.24-2.35,10.41-3.52,17.29-3.52,20.62,0,1.25.38,1.88,1.17,1.88,3.52-.41,8.29-3.12,14.35-8.12,6.06-5,12.4-10.09,19.04-15.31,6.64-5.21,12.1-7.82,16.41-7.82.78,0,1.76.22,2.93.63,1.17.42,1.76,1.25,1.76,2.49,0,2.49-2.74,6.04-8.2,10.62-5.47,4.59-12.02,9.37-19.63,14.37-7.62,5-14.65,9.59-21.09,13.74-6.45,4.15-10.84,7.07-13.19,8.74-3.91,3.33-8.12,7.7-12.6,13.12-4.5,5.41-8.89,10.21-13.19,14.37-4.31,4.15-8.59,6.25-12.89,6.25l.02.05Z"/>
    <path class="st8" d="M1480.47,817.19c-3.14,0-5.67-1.36-7.61-4.06-1.96-2.71-2.93-5.53-2.93-8.43,0-5,2.14-7.49,6.45-7.49,4.69,0,11.81-1.03,21.39-3.12,9.56-2.08,19.53-4.9,29.89-8.43,10.34-3.54,19.23-7.82,26.67-12.8,7.42-5,11.13-10.4,11.13-16.25,0-5.41-2.84-10.94-8.5-16.56-5.66-5.62-12.6-11.34-20.8-17.19-8.2-5.82-16.51-11.88-24.91-18.11-8.4-6.25-15.44-12.8-21.09-19.68-5.67-6.88-8.5-14.26-8.5-22.18,0-3.33.49-6.66,1.46-10,.97-3.33,2.82-6.66,5.57-10,11.72-15.82,24.51-28.63,38.39-38.42,13.86-9.78,26.86-17.28,38.97-22.5,12.1-5.21,21.29-9.06,27.54-11.56,1.95-.84,4.3-1.56,7.03-2.19s5.47-.94,8.2-.94c5.47,0,10.34,1.77,14.65,5.31,4.3,3.55,6.45,10.1,6.45,19.68-.39,4.17-1.96,9.47-4.69,15.93-2.74,6.46-6.15,13.02-10.26,19.68-4.11,6.67-8.12,12.19-12.02,16.56-3.91,4.37-7.23,6.56-9.96,6.56-1.57,0-2.35-1.25-2.35-3.75,0-3.75,1.07-8.54,3.22-14.37,2.14-5.82,4.3-11.56,6.45-17.19,2.14-5.62,3.22-10.09,3.22-13.43,0-6.25-3.52-9.37-10.55-9.37-2.74,0-5.77.31-9.08.94-3.33.63-6.74,1.36-10.26,2.19-2.35.42-6.83,2.19-13.48,5.31-6.64,3.12-13.68,7.19-21.09,12.19-7.42,5-13.87,10.73-19.34,17.19-5.47,6.46-8.2,13.43-8.2,20.93,0,4.59.97,8.75,2.93,12.5,4.69,10,11.13,17.8,19.34,23.43,8.2,5.62,16.41,10.62,24.61,14.99,8.2,4.37,15.14,9.17,20.8,14.37,5.66,5.22,8.5,12.6,8.5,22.18s-3.91,19.68-11.72,29.05c-7.82,9.37-17.68,17.71-29.59,24.99-11.92,7.29-23.83,13.12-35.74,17.5-11.92,4.37-21.98,6.56-30.18,6.56l-.02.02Z"/>
    <path class="st8" d="M1715.45,835.3c-4.3,0-7.82-1.67-10.55-5-2.74-3.34-4.11-9.37-4.11-18.11,0-12.07,2.24-26.56,6.74-43.42,4.49-16.87,9.96-34.36,16.41-52.49,6.45-18.11,12.89-35.3,19.34-51.55,6.44-16.25,11.91-30.08,16.41-41.55,4.49-11.45,6.74-18.64,6.74-21.56,0-.84-.2-1.25-.59-1.25-1.57,0-5.09,3.12-10.55,9.37-22.26,26.66-40.15,50.61-53.62,71.85-13.48,21.25-24.02,39.99-31.65,56.23-7.62,16.25-13.68,29.68-18.17,40.3-4.5,10.62-8.99,18.64-13.48,24.05-4.49,5.41-10.46,8.12-17.87,8.12-3.52,0-5.28-2.09-5.28-6.25,0-3.75.97-7.91,2.93-12.5,17.97-49.14,33.41-96.73,46.3-142.77,12.89-46.02,27.15-94.03,42.78-144.01.78-2.91,1.27-5.21,1.46-6.88.19-1.66.3-3.12.3-4.37,0-2.08-.2-3.54-.59-4.37-.39-.84-.59-2.08-.59-3.75s.59-4.37,1.76-8.12c5.87-17.07,10.93-30.4,15.24-39.99,4.3-9.58,9.18-16.25,14.65-19.99,5.47-3.75,12.69-5.62,21.68-5.62,5.47,0,8.4,1.88,8.79,5.62-21.49,46.65-41.22,95.7-59.19,147.14-17.98,51.44-32.82,99.87-44.54,145.26,4.3-7.08,10.15-16.66,17.58-28.74,7.42-12.07,15.91-24.77,25.5-38.11,9.56-13.33,19.53-26.03,29.89-38.11,10.34-12.07,20.6-21.87,30.76-29.36,10.15-7.49,19.53-11.25,28.13-11.25s12.3,2.92,12.3,8.74c0,3.75-1.38,7.92-4.11,12.5-8.59,14.99-17.87,32.48-27.83,52.49-9.96,19.99-19.34,40.61-28.13,61.86-8.79,21.24-16.03,41.44-21.69,60.6-5.67,19.17-8.5,35.61-8.5,49.36,0,5.82,1.56,8.75,4.69,8.75,1.95,0,5.47-1.88,10.55-5.62,5.08-3.75,8.4-5.62,9.96-5.62,1.95,0,2.93,1.25,2.93,3.75,0,5-3.61,10.31-10.84,15.93-7.23,5.62-14.55,8.43-21.98,8.43h.01Z"/>
    <path class="st8" d="M1813.9,810.31c-7.42,0-11.13-3.75-11.13-11.25,0-3.75.78-8.12,2.35-13.12,8.58-26.24,15.62-47.79,21.09-64.67,5.47-16.87,9.77-30.2,12.89-39.99,3.12-9.78,5.28-17.28,6.45-22.5,1.17-5.21,1.76-9.47,1.76-12.8,0-2.08-.29-3.54-.87-4.37s-.87-2.08-.87-3.75.59-4.37,1.76-8.12c8.2-25.4,15.62-42.69,22.28-51.86,6.64-9.15,16.6-13.74,29.89-13.74,5.47,0,8.39,1.88,8.79,5.62-3.91,7.92-10.26,20.84-19.04,38.73-8.79,17.92-18.07,40.09-27.84,66.54-9.77,26.45-18.36,56.75-25.78,90.91-.39,1.25-.59,2.92-.59,5,0,5,1.95,7.49,5.87,7.49,2.35,0,6.06-1.57,11.13-4.69,5.08-3.12,10.34-6.25,15.82-9.37,5.47-3.12,9.56-4.69,12.3-4.69s4.3.84,4.69,2.49c0,2.49-2.93,6.35-8.79,11.56-5.87,5.22-12.89,10.62-21.09,16.25-8.2,5.63-16.11,10.41-23.74,14.37-7.62,3.95-13.38,5.94-17.28,5.94l-.04.03ZM1900.05,526.04c-5.47,0-8.79-2.19-9.96-6.56s-1.76-9.06-1.76-14.06c0-6.25,2.93-12.8,8.79-19.68,5.87-6.88,12.8-12.7,20.8-17.5,8-4.78,14.75-7.19,20.22-7.19,1.95,0,3.12.63,3.52,1.88,0,4.59-1.66,8.96-4.98,13.12-3.33,4.17-6.94,8.34-10.84,12.5-3.91,4.17-7.03,8.96-9.37,14.37-1.57,4.17-3.52,8.74-5.87,13.74-2.35,5-5.87,8.12-10.55,9.37h0Z"/>
  </g>
  <g>
    <path class="st7" d="M582.31,1144.91c-3.09,0-6.28-1.02-9.56-3.05-3.28-2.03-4.92-3.75-4.92-5.16,0-1.26,1.06-1.89,3.18-1.89.19,0,1.45.21,3.77.63-.78-2.95-1.36-6.35-1.73-10.22-.39-3.86-.58-8.11-.58-12.74,0-8.01.43-16.67,1.3-26.01.87-9.34,2.12-18.71,3.77-28.12,1.63-9.41,3.42-18.33,5.36-26.75,1.92-8.43,3.86-15.66,5.79-21.69h-15.35c-4.25-.14-6.37-.7-6.37-1.69,0-.7,1.2-1.48,3.62-2.32,2.41-.84,5.26-1.26,8.54-1.26h11.3c.97-3.65,3.19-6.04,6.66-7.16,3.48-1.13,7.14-1.69,11.01-1.69,2.89,0,4.35.71,4.35,2.11s-.87,2.81-2.6,4.21c-1.73,1.41-2.8,2.46-3.18,3.16,4.82.28,10.72.81,17.67,1.58,6.95.78,14.04,1.89,21.29,3.37,7.24,1.48,14,3.48,20.27,6,6.27,2.52,11.38,5.65,15.35,9.37,3.96,3.72,5.94,8.25,5.94,13.58,0,4.21-1.59,8.21-4.78,12.01s-7.24,7.23-12.16,10.32-10.09,5.79-15.5,8.11c-5.4,2.32-10.33,4.18-14.76,5.59,2.12-.14,4.39-.25,6.8-.32s4.97-.1,7.67-.1c6.37,0,13.13.35,20.27,1.05,7.14.71,13.8,1.97,19.98,3.79,6.18,1.82,11.2,4.39,15.06,7.69,3.86,3.3,5.79,7.55,5.79,12.74,0,7.44-3.24,13.93-9.71,19.49s-14.91,10.11-25.34,13.69c-10.43,3.58-21.72,6.25-33.89,8.01-12.16,1.76-23.85,2.64-35.04,2.64-4.25,0-8.39-.1-12.45-.32s-7.82-.6-11.3-1.16c-.97,1.69-2.8,2.52-5.5,2.52h0ZM612.14,1138.59c10.04,0,20.31-.63,30.84-1.89,10.52-1.26,20.27-3.3,29.25-6.11s16.22-6.57,21.72-11.27c5.5-4.7,8.25-10.43,8.25-17.17-.19-4.78-2.46-8.67-6.8-11.69-4.35-3.02-9.89-5.34-16.65-6.95-6.76-1.61-13.9-2.74-21.43-3.37-7.54-.63-14.57-.95-21.15-.95-8.88,0-17.33.38-25.34,1.16-8.02.78-16.36,1.65-25.05,2.64-.2,1.82-.39,4.46-.58,7.9-.2,3.45-.29,7.27-.29,11.48,0,6.04.14,12.21.43,18.53s.72,11.66,1.3,16.01c7.34,1.13,15.83,1.69,25.48,1.69h.01ZM593.03,1076.46c1.92,0,5.94-.25,12.02-.73s12.99-1.48,20.7-2.95,15.3-3.5,22.73-6.11c7.43-2.59,13.61-6,18.53-10.22s7.38-9.41,7.38-15.59c0-.7-.04-1.44-.14-2.21s-.24-1.58-.43-2.42c-1.93-4.49-5.65-8.28-11.15-11.38-5.5-3.09-11.83-5.61-18.97-7.58-7.15-1.96-14.24-3.5-21.29-4.63s-12.99-1.89-17.81-2.32h-.29c-.97,2.11-2.17,5.34-3.62,9.69-1.45,4.36-2.95,9.2-4.49,14.53-1.55,5.34-3.05,10.75-4.49,16.22s-2.66,10.46-3.62,14.96c-.97,4.49-1.55,8.01-1.73,10.53.19,0,.87.03,2.02.1s2.7.1,4.64.1h.02Z"/>
    <path class="st7" d="M708.29,1211.05c-3.09,0-4.64-1.34-4.64-4,0-3.51,1.69-7.86,5.07-13.06,3.38-5.19,7.58-10.68,12.6-16.42,5.03-5.76,10.04-11.27,15.06-16.54,5.01-5.26,9.32-9.72,12.88-13.37s5.55-5.83,5.94-6.53c1.16-2.52,1.98-5.41,2.46-8.64s.72-6.67.72-10.32c0-7.02-.63-13.83-1.88-20.43-1.26-6.6-3.09-12.08-5.5-16.43-2.41-4.35-5.55-6.53-9.42-6.53-.78,0-1.55.03-2.31.1-.78.07-1.36.1-1.73.1-.78,0-1.16-.35-1.16-1.05,0-.42.43-1.05,1.3-1.89s2.56-1.89,5.07-3.16c.97-.56,2.07-1.54,3.34-2.95,1.26-1.4,2.56-2.74,3.91-4,1.35-1.26,2.6-1.89,3.77-1.89,2.89,0,5.5,2.14,7.82,6.42s4.2,9.76,5.65,16.43c1.45,6.67,2.17,13.66,2.17,20.96,0,1.69-.06,3.37-.14,5.06-.1,1.69-.14,3.37-.14,5.06,0,2.25.77,3.37,2.31,3.37,1.92,0,4.72-1.48,8.39-4.43s7.67-6.67,12.02-11.16,8.54-9.16,12.6-14,7.38-9.19,9.99-13.06c2.6-3.86,3.91-6.57,3.91-8.11,0-.84-.49-1.26-1.45-1.26-.58,0-1.26.15-2.02.42-.78.28-1.55.42-2.31.42-.97,0-1.73-.35-2.31-1.05,0-1.26,1.4-2.64,4.2-4.11,2.8-1.48,5.94-2.74,9.42-3.79s6.27-1.58,8.39-1.58c.97,0,1.63.08,2.02.21.58.56.87,1.34.87,2.32,0,2.11-1.4,5.19-4.2,9.27s-6.43,8.6-10.86,13.58c-4.45,4.99-9.27,10.11-14.47,15.38-5.21,5.26-10.33,10.25-15.35,14.96s-9.42,8.78-13.17,12.22c-3.77,3.45-6.43,5.79-7.96,7.05,0-.98-.24-.73-.72.73-.49,1.48-1.07,3.45-1.73,5.9-.68,2.46-1.55,4.7-2.6,6.74-1.07,2.03-2.17,3.05-3.34,3.05-.97,0-1.98-.18-3.05-.53-1.07-.35-1.79-.53-2.17-.53-14.29,14.04-24.38,24.86-30.26,32.44-5.88,7.58-8.83,13.06-8.83,16.43,0,1.69.39,2.98,1.16,3.9.78.91,1.16,1.79,1.16,2.64,0,1.54-1.2,2.87-3.62,4-2.41,1.13-4.68,1.69-6.8,1.69l-.02-.03Z"/>
    <path class="st7" d="M913.03,1141.97c-2.12,0-3.72-.21-4.78-.63-1.07-.42-1.59-1.33-1.59-2.74,0-3.79.43-9.3,1.3-16.54.87-7.23,2.02-15.34,3.48-24.33,1.45-8.99,3.09-18.22,4.92-27.7,1.83-9.47,3.71-18.54,5.65-27.17,1.92-8.64,3.77-16.04,5.5-22.22v-.42c0-.56-.14-1.01-.43-1.37-.29-.35-.43-.81-.43-1.37,0-.84.29-2.24.87-4.21.58-1.96,1.06-3.44,1.45-4.43h-1.73c-1.93,0-3.91.07-5.94.21s-3.81.21-5.36.21c-4.25-.14-6.37-.7-6.37-1.69,0-1.4,2.36-2.35,7.09-2.84,4.72-.49,9.42-.73,14.04-.73.58-2.39,2.56-4.35,5.94-5.9,3.38-1.54,7.48-2.32,12.31-2.32,3.09,0,4.64.84,4.64,2.52-.97,1.69-1.79,2.77-2.46,3.27-.68.49-1.4,1.58-2.17,3.27,5.01.28,10.95.81,17.81,1.58,6.85.78,13.85,1.86,21,3.27,7.14,1.41,13.8,3.3,19.98,5.69s11.2,5.41,15.06,9.06c3.86,3.65,5.79,8.08,5.79,13.27,0,4.78-1.5,9.37-4.49,13.8s-6.86,8.46-11.58,12.11c-4.74,3.65-9.71,6.78-14.91,9.37-5.21,2.6-10.14,4.46-14.76,5.59-6.57,1.69-13.56,2.84-20.99,3.48-7.44.63-14.24.95-20.41.95-4.64,0-8.54-.1-11.73-.32s-5.26-.45-6.23-.73c-.58,2.39-1.21,5.97-1.88,10.75-.68,4.78-1.21,10.08-1.59,15.9-.39,5.83-.58,11.62-.58,17.38,0,3.51.29,6.42.87,8.74s.87,3.4.87,3.27c0,.71-.24,1.09-.72,1.16-.49.08-.82.32-1.01.73-.39.71-1.21,1.23-2.46,1.58-1.26.35-2.56.53-3.91.53h-.04ZM943.44,1077.72c2.7,0,5.4-.03,8.1-.1s5.01-.17,6.95-.32c5.59-.42,11.73-1.61,18.39-3.58,6.66-1.96,12.93-4.6,18.82-7.9,5.88-3.3,10.72-7.2,14.47-11.69,3.77-4.49,5.65-9.55,5.65-15.16,0-4.91-2.41-9.12-7.24-12.64-4.82-3.5-10.91-6.42-18.24-8.74s-14.91-4.11-22.73-5.37c-7.82-1.26-14.82-2.11-20.99-2.52-1.36,2.11-2.95,5.34-4.78,9.69-1.83,4.36-3.62,9.27-5.36,14.74s-3.44,10.99-5.07,16.54c-1.65,5.55-2.99,10.61-4.06,15.16-1.07,4.56-1.79,8.11-2.17,10.63.58.42,2.7.73,6.37.95s7.63.32,11.87.32h.01Z"/>
    <path class="st7" d="M1012.93,1142.18c-4.64,0-6.95-2.52-6.95-7.58,0-3.93,1.06-8.81,3.19-14.64,2.12-5.82,4.92-11.9,8.39-18.22,3.48-6.32,7.28-12.25,11.44-17.8,4.15-5.54,8.39-10.07,12.74-13.58,4.35-3.5,8.35-5.26,12.02-5.26h.87l3.19-1.69c.97-.84,2.17-1.4,3.62-1.69,1.45-.28,2.95-.42,4.49-.42,3.86,0,7.92.56,12.16,1.69s7.14,1.69,8.68,1.69c1.35,0,2.36-.56,3.04-1.69s2.17-1.69,4.49-1.69c2.7,0,4.58.42,5.65,1.26,1.06.84,1.59,1.97,1.59,3.37,0,1.97-.78,4.25-2.31,6.85-1.55,2.6-2.8,4.74-3.77,6.42-.2.56-1.07,1.02-2.6,1.37-1.55.35-2.51.81-2.89,1.37-3.09,6.46-5.89,13.02-8.4,19.69-2.51,6.67-4.45,12.46-5.79,17.38-1.36,4.92-2.02,7.94-2.02,9.06,0,3.51,1.35,5.26,4.06,5.26,2.31,0,4.82-.73,7.53-2.21s5.36-3.12,7.96-4.95c2.6-1.82,4.78-3.48,6.51-4.95s2.7-2.21,2.89-2.21c.39,0,.58.28.58.84s-.29,1.41-.87,2.52c-.58,1.13-1.26,1.89-2.02,2.32-1.93,1.26-4.93,3.2-8.97,5.79-4.06,2.6-8.39,5.02-13.03,7.27-4.64,2.25-8.68,3.37-12.16,3.37-4.06,0-6.47-1.76-7.24-5.26,0-2.52.58-5.79,1.73-9.8,1.16-4,2.46-8.11,3.91-12.32,1.45-4.21,2.75-7.72,3.91-10.53-2.89,2.81-6.61,6.39-11.15,10.75s-9.46,8.67-14.76,12.95c-5.31,4.29-10.57,7.9-15.79,10.85s-9.85,4.43-13.9,4.43l-.02-.02ZM1022.2,1132.27c1.92,0,4.49-.95,7.67-2.84,3.19-1.89,6.66-4.32,10.43-7.27s7.34-5.9,10.72-8.84c3.38-2.95,6.27-5.59,8.68-7.9,2.41-2.32,3.91-3.75,4.49-4.32,3.09-3.65,6.13-7.62,9.13-11.9,2.99-4.28,5.45-8.21,7.38-11.79,1.92-3.58,2.89-6.07,2.89-7.48,0-.84-.49-1.26-1.45-1.26h-.87c-1.93,0-3.91-.14-5.94-.42s-4.39-.42-7.09-.42-5.6.28-8.68.84c-1.73.28-4.2,2-7.38,5.16s-6.66,7.13-10.43,11.9-7.34,9.87-10.72,15.27c-3.38,5.41-6.18,10.57-8.39,15.48-2.22,4.92-3.34,8.99-3.34,12.22,0,2.39.97,3.58,2.89,3.58v-.03Z"/>
    <path class="st7" d="M1121.25,1143.23c-5.03,0-9.22-1.19-12.6-3.58-3.38-2.39-5.07-6.17-5.07-11.38s1.26-10.7,3.77-16.95c2.5-6.24,5.69-12.36,9.56-18.33,3.86-5.97,7.77-11.09,11.73-15.38s7.48-6.92,10.57-7.9c5.98-1.54,10.62-3.12,13.9-4.74,3.28-1.61,7.34-2.42,12.16-2.42,3.86,0,7.09.71,9.71,2.11,2.6,1.41,3.91,4,3.91,7.79v1.58c0,.49-.1,1.09-.29,1.79-.58,2.52-1.73,4.49-3.48,5.9-1.73,1.41-3.38,2.11-4.93,2.11-2.31,0-3.48-1.26-3.48-3.79,0-1.4.39-2.98,1.16-4.74.77-1.76,1.16-3.33,1.16-4.74,0-2.24-1.65-3.37-4.93-3.37-1.73,0-4.1.6-7.09,1.79-2.99,1.19-5.89,2.57-8.68,4.11-2.8,1.54-4.88,2.81-6.23,3.79-1.55,1.13-3.77,3.73-6.66,7.79-2.89,4.08-5.84,8.84-8.83,14.33-2.99,5.47-5.55,10.92-7.67,16.32s-3.19,10-3.19,13.8c0,5.19,2.8,7.79,8.39,7.79,6.18,0,11.87-1.23,17.09-3.68s9.89-5.26,14.04-8.43c4.15-3.16,7.48-5.97,9.99-8.43,2.5-2.46,4.06-3.75,4.64-3.9.97.28,1.45.78,1.45,1.48,0,1.41-1.4,3.68-4.2,6.85-2.8,3.16-6.57,6.46-11.3,9.9-4.74,3.45-10.09,6.4-16.08,8.84-5.99,2.46-12.16,3.68-18.53,3.68h0Z"/>
    <path class="st7" d="M1182.93,1142.81c-3.67,0-5.5-1.26-5.5-3.79,0-1.26.39-2.74,1.16-4.43,4.25-8.84,7.72-16.12,10.43-21.8,2.7-5.69,4.82-10.18,6.37-13.48,1.55-3.3,2.6-5.82,3.19-7.58.58-1.76.87-3.19.87-4.32,0-.7-.14-1.19-.43-1.48s-.43-.7-.43-1.26.29-1.48.87-2.74c4.06-8.56,7.72-14.39,11.01-17.48,3.28-3.09,8.2-4.63,14.76-4.63,2.7,0,4.15.63,4.35,1.89-1.93,2.67-5.07,7.03-9.42,13.06-4.35,6.04-8.94,13.52-13.75,22.44-4.82,8.92-9.07,19.14-12.74,30.65-.2.42-.29.98-.29,1.69,0,1.69.97,2.52,2.89,2.52,1.16,0,2.99-.53,5.5-1.58,2.5-1.05,5.11-2.11,7.82-3.16s4.72-1.58,6.08-1.58,2.12.28,2.31.84c0,.84-1.45,2.14-4.35,3.9-2.9,1.76-6.37,3.58-10.43,5.47s-7.96,3.51-11.73,4.84c-3.77,1.33-6.61,2-8.54,2v-.02ZM1225.49,1046.97c-2.7,0-4.35-.73-4.93-2.21-.58-1.48-.87-3.05-.87-4.74,0-2.11,1.45-4.32,4.35-6.63,2.9-2.32,6.33-4.28,10.28-5.9,3.96-1.61,7.28-2.42,9.99-2.42.97,0,1.55.21,1.73.63,0,1.54-.82,3.02-2.46,4.43-1.65,1.41-3.44,2.81-5.36,4.21-1.93,1.41-3.48,3.02-4.64,4.84-.78,1.41-1.73,2.95-2.89,4.63-1.16,1.69-2.9,2.74-5.21,3.16h-.01Z"/>
    <path class="st7" d="M1193.92,1185.15c-6.76,0-11.73-.91-14.91-2.74-3.19-1.82-5.21-4.08-6.08-6.74-.87-2.67-1.3-5.13-1.3-7.37,0-4.08.82-7.76,2.46-11.06,1.65-3.3,3.14-4.95,4.49-4.95.78,0,1.26.42,1.45,1.26-.19.98-.33,1.96-.43,2.95-.09.98-.14,1.96-.14,2.95,0,6.6,1.79,11.83,5.36,15.69,3.57,3.86,7.77,5.79,12.6,5.79,4.45,0,9.07-1.72,13.9-5.16,4.82-3.45,9.36-8.95,13.61-16.54,2.5-4.49,5.36-10.15,8.54-16.95,3.19-6.81,6.37-14.01,9.56-21.59,3.19-7.58,6.23-14.85,9.12-21.8,2.9-6.95,5.36-12.95,7.38-18.01,2.02-5.06,3.34-8.36,3.91-9.9h-18.82c-4.64,0-6.95-.63-6.95-1.89,0-.98,1.26-2.03,3.77-3.16,2.51-1.13,4.44-1.69,5.79-1.69h18.53c.58-1.26,1.59-3.62,3.04-7.05,1.45-3.44,3.09-7.27,4.93-11.48s3.62-8.14,5.36-11.79c1.73-3.65,2.99-6.32,3.77-8.01,4.06-8.14,9.79-14.11,17.23-17.9,7.43-3.79,17.03-5.69,28.82-5.69,7.53,0,13.46,1.3,17.81,3.9s7.48,5.69,9.42,9.27c1.92,3.58,2.89,6.92,2.89,10,0,3.65-.92,6.46-2.75,8.43-1.83,1.97-3.96,3.33-6.37,4.11-2.41.78-4.49,1.16-6.23,1.16-1.16,0-2.37-.32-3.62-.95s-1.88-1.71-1.88-3.27c0-1.82.77-3.82,2.31-6,1.55-2.17,3.04-4.11,4.49-5.79,1.45-1.69,2.17-2.81,2.17-3.37,0-1.54-1.07-3.33-3.19-5.37s-4.82-3.83-8.1-5.37c-3.29-1.54-6.66-2.32-10.14-2.32-6.37,0-11.48,1.09-15.35,3.27-3.87,2.17-6.9,4.81-9.12,7.9-2.22,3.09-4.1,6.04-5.65,8.84-2.31,4.36-4.54,8.95-6.66,13.8-2.12,4.84-4.06,9.37-5.79,13.58-1.73,4.21-3.19,7.66-4.35,10.32,2.12,0,4.49.08,7.09.21,2.6.14,5.26.21,7.96.21,3.28,0,6.61-.32,9.99-.95s5.65-.95,6.8-.95c.77,0,1.16.14,1.16.42,0,2.11-2.08,3.65-6.23,4.63-4.16.98-8.97,1.58-14.47,1.79-5.5.21-10.38.32-14.62.32-.58.98-1.69,3.55-3.34,7.69s-3.62,9.16-5.94,15.06-4.78,12.08-7.38,18.53c-2.6,6.46-5.17,12.64-7.67,18.54-2.51,5.9-4.64,10.88-6.37,14.96-4.64,10.67-9.99,18.92-16.08,24.75-6.08,5.82-12.26,9.87-18.53,12.11-6.27,2.24-12.02,3.37-17.23,3.37v-.02ZM1300.78,1142.81c-3.67,0-5.5-1.26-5.5-3.79,0-1.26.39-2.74,1.16-4.43,4.25-8.84,7.72-16.12,10.43-21.8,2.7-5.69,4.82-10.18,6.37-13.48,1.55-3.3,2.6-5.82,3.19-7.58.58-1.76.87-3.19.87-4.32,0-.7-.14-1.19-.43-1.48s-.43-.7-.43-1.26.29-1.48.87-2.74c4.06-8.56,7.72-14.39,11.01-17.48,3.28-3.09,8.2-4.63,14.76-4.63,2.7,0,4.15.63,4.35,1.89-1.93,2.67-5.07,7.03-9.42,13.06-4.35,6.04-8.93,13.52-13.75,22.44-4.82,8.92-9.07,19.14-12.74,30.65-.2.42-.29.98-.29,1.69,0,1.69.97,2.52,2.9,2.52,1.16,0,2.99-.53,5.5-1.58,2.5-1.05,5.11-2.11,7.82-3.16s4.72-1.58,6.08-1.58,2.12.28,2.31.84c0,.84-1.45,2.14-4.35,3.9-2.89,1.76-6.37,3.58-10.43,5.47-4.06,1.89-7.96,3.51-11.73,4.84s-6.61,2-8.54,2v-.02Z"/>
    <path class="st7" d="M1386.21,1188.73c-3.87,0-6.08-1.76-6.66-5.26,0-2.81.87-6.81,2.6-12.01,1.73-5.19,4-10.95,6.8-17.27s5.79-12.67,8.98-19.06c3.19-6.39,6.18-12.29,8.97-17.7,2.8-5.41,5.07-9.8,6.8-13.17-3.09,2.81-7.19,6.4-12.31,10.75-5.11,4.36-10.67,8.67-16.65,12.95-5.98,4.29-11.83,7.9-17.52,10.85-5.69,2.95-10.57,4.43-14.62,4.43-4.45,0-6.66-2.17-6.66-6.53,0-3.79,1.3-8.64,3.91-14.53,2.6-5.9,6.03-12.14,10.28-18.74,4.25-6.6,8.88-12.82,13.9-18.64s9.99-10.57,14.91-14.22c4.93-3.65,9.32-5.47,13.17-5.47h.87l3.19-1.69c.97-.84,2.17-1.4,3.62-1.69,1.45-.28,2.95-.42,4.49-.42,3.86,0,7.92.56,12.16,1.69s7.05,1.69,8.39,1.69,2.46-.56,3.34-1.69c.87-1.13,2.46-1.69,4.78-1.69,5.21,0,7.82,1.76,7.82,5.26,0,1.97-.68,4.18-2.02,6.63-1.36,2.46-2.51,4.46-3.48,6-.2.56-1.07,1.02-2.6,1.37-1.55.35-2.51.81-2.9,1.37-8.49,14.74-16.55,29.24-24.18,43.49s-13.95,29.24-18.97,44.97c-.78,2.24-1.16,4.21-1.16,5.9,0,2.52,1.06,3.79,3.19,3.79,2.31,0,4.93-.73,7.82-2.21,2.9-1.48,5.75-3.23,8.54-5.26,2.8-2.04,5.26-3.79,7.38-5.26,2.12-1.48,3.57-2.21,4.35-2.21.97,0,1.45.49,1.45,1.48,0,.84-.33,1.76-1.01,2.74-.68.98-1.21,1.54-1.59,1.69-1.55.98-3.91,2.42-7.09,4.32s-6.76,3.86-10.72,5.9-7.82,3.79-11.58,5.26-7.09,2.21-9.99,2.21v-.03ZM1364.49,1132.27c1.92,0,4.58-.95,7.96-2.84s7.05-4.32,11.01-7.27,7.77-5.9,11.44-8.84c3.67-2.95,6.85-5.59,9.56-7.9,2.7-2.32,4.35-3.75,4.93-4.32,3.48-3.79,6.9-7.86,10.28-12.22,3.38-4.35,6.18-8.28,8.39-11.79,2.21-3.5,3.34-5.97,3.34-7.37,0-.7-.39-1.05-1.16-1.05h-.87c-1.93,0-3.91-.17-5.94-.53-2.02-.35-4.39-.53-7.09-.53-1.36,0-2.7.08-4.06.21-1.36.15-2.89.42-4.64.84-1.36.15-3.81,1.82-7.38,5.06-3.58,3.23-7.53,7.3-11.87,12.22-4.35,4.92-8.54,10.11-12.6,15.59-4.06,5.47-7.38,10.68-9.99,15.59-2.6,4.92-3.91,8.99-3.91,12.22,0,1.97.87,2.95,2.6,2.95v-.03Z"/>
    <path class="st7" d="M1485.25,1154.81c-2.51,0-3.77-.78-3.77-2.32,0-1.41,1.45-2.84,4.35-4.32,2.89-1.48,5.01-3.33,6.37-5.59.58-1.13,1.73-3.82,3.48-8.11,1.73-4.28,3.71-9.19,5.94-14.74,2.21-5.54,4.25-10.85,6.08-15.9s3.24-8.91,4.2-11.58c-2.12,2.39-5.36,5.65-9.71,9.8s-9.22,8.57-14.62,13.27c-5.4,4.71-10.96,9.2-16.65,13.48-5.69,4.29-11.05,7.79-16.08,10.53s-9.27,4.11-12.74,4.11c-2.7,0-4.06-1.26-4.06-3.79,0-2.11,1.06-5.13,3.19-9.06,1.16-1.96,2.95-4.84,5.36-8.64,2.41-3.79,4.93-7.9,7.53-12.32s4.82-8.56,6.66-12.42c1.83-3.86,2.75-6.85,2.75-8.95,0-.98-.2-1.65-.58-2-.39-.35-.58-.88-.58-1.58,0-.28.04-.6.14-.95s.24-.81.43-1.37c2.12-5.76,4.1-10.25,5.94-13.48s4.1-5.47,6.8-6.74c2.7-1.26,6.37-1.89,11.01-1.89,2.7,0,4.35.63,4.93,1.89-.78,1.41-2.41,4.32-4.93,8.74s-5.46,9.62-8.83,15.59c-3.38,5.97-6.66,11.87-9.85,17.7-3.19,5.83-5.84,10.88-7.96,15.16-2.12,4.29-3.19,6.92-3.19,7.9,0,.56.29.84.87.84.77,0,1.78-.35,3.05-1.05,1.26-.7,2.56-1.48,3.91-2.32,11.38-6.32,21.23-13.45,29.54-21.38,8.29-7.93,15.44-15.97,21.43-24.12.19-2.11.91-4.78,2.17-8.01s3.42-6.11,6.51-8.64c3.09-2.52,7.14-3.79,12.16-3.79,2.12,0,3.28.63,3.48,1.89-.97,2.25-2.95,6.25-5.94,12.01-2.99,5.76-6.14,12.01-9.42,18.74-1.55,3.37-3.28,7.34-5.21,11.9s-3.81,9.16-5.65,13.8c-1.83,4.63-3.34,8.71-4.49,12.22s-1.73,5.83-1.73,6.95c0,.42.19.63.58.63,1.73-.14,4.1-1.05,7.09-2.74,2.99-1.69,6.13-3.4,9.42-5.16,3.28-1.76,5.98-2.64,8.1-2.64.39,0,.87.08,1.45.21.58.15.87.42.87.84,0,.84-1.36,2.04-4.06,3.58-2.7,1.54-5.94,3.16-9.71,4.84s-7.24,3.23-10.43,4.63-5.36,2.39-6.51,2.95c-1.93,1.13-4.01,2.59-6.23,4.43-2.22,1.82-4.39,3.44-6.51,4.84-2.12,1.4-4.25,2.11-6.37,2.11h.01Z"/>
    <path class="st7" d="M1560.25,1143.65c-2.31,0-4.97-.39-7.96-1.16-2.99-.78-5.6-2.17-7.82-4.21-2.22-2.03-3.34-4.95-3.34-8.74,0-1.54.29-3.37.87-5.47,1.92-7.02,3.81-12.36,5.65-16.01,1.83-3.65,2.95-6.6,3.34-8.84-.58-.14-1.45-.49-2.6-1.05-1.16-.56-1.73-1.33-1.73-2.32s.58-1.61,1.73-1.89,2.21-.42,3.19-.42h2.02c1.55-2.39,3.24-4.98,5.07-7.79,1.83-2.81,4.58-6.6,8.25-11.38,3.28-4.49,7.57-7.48,12.88-8.95,5.3-1.48,11.34-2.21,18.1-2.21s11.1,4.29,13.61,12.85c1.16,4.36,1.73,7.86,1.73,10.53,0,3.37-1.5,6.04-4.49,8.01-2.99,1.97-6.66,3.45-11.01,4.43-4.35.98-8.64,1.65-12.88,2s-7.63.53-10.14.53-4.68-.03-6.51-.1-3.14-.1-3.91-.1c-2.9,5.34-5.21,10.46-6.95,15.38-1.73,4.92-2.6,9.06-2.6,12.42,0,5.62,2.89,8.43,8.68,8.43,3.48,0,7.09-1.13,10.86-3.37,3.77-2.24,7.38-4.84,10.86-7.79s6.47-5.54,8.97-7.79c2.51-2.24,4.15-3.37,4.93-3.37,1.35,0,2.02.56,2.02,1.69,0,1.97-1.55,4.46-4.64,7.48-3.09,3.02-6.9,6-11.44,8.95-4.54,2.95-9.07,5.41-13.61,7.37s-8.25,2.95-11.15,2.95v-.03ZM1578.49,1095.84c7.34,0,12.88-.6,16.65-1.79s5.75-3.83,5.94-7.9c0-5.76-1.01-9.82-3.04-12.22-2.02-2.39-3.91-3.58-5.65-3.58-2.31,0-4.78,1.02-7.38,3.05-2.6,2.04-5.11,4.46-7.53,7.27-2.41,2.81-4.59,5.59-6.51,8.32-1.93,2.74-3.28,4.88-4.06,6.42.97,0,2.51.07,4.64.21s4.44.21,6.95.21h-.01Z"/>
  </g>
</svg>