<?xml version="1.0" encoding="UTF-8"?>
<svg id="Layer_1" data-name="Layer 1" xmlns="http://www.w3.org/2000/svg" viewBox="0 0 2284.86 1337.04">
  <defs>
    <style>
      .cls-1, .cls-2, .cls-3, .cls-4, .cls-5, .cls-6, .cls-7, .cls-8, .cls-9 {
        stroke-miterlimit: 10;
      }

      .cls-1, .cls-2, .cls-5, .cls-7, .cls-8, .cls-9 {
        stroke: #000;
      }

      .cls-1, .cls-3, .cls-4, .cls-5, .cls-8, .cls-9 {
        isolation: isolate;
      }

      .cls-1, .cls-3, .cls-5, .cls-7, .cls-9 {
        stroke-width: 6px;
      }

      .cls-1, .cls-5, .cls-10 {
        opacity: .77;
      }

      .cls-2 {
        opacity: .9;
        stroke-width: 8px;
      }

      .cls-3, .cls-4 {
        fill: #ed1c24;
        opacity: .7;
      }

      .cls-3, .cls-4, .cls-6 {
        stroke: red;
      }

      .cls-4 {
        stroke-width: 5px;
      }

      .cls-5, .cls-8, .cls-9 {
        fill: none;
      }

      .cls-11 {
        opacity: .79;
      }

      .cls-12 {
        opacity: .7;
      }

      .cls-13 {
        opacity: .95;
      }

      .cls-14 {
        opacity: .65;
      }

      .cls-6 {
        fill: red;
        stroke-width: .25px;
      }

      .cls-8 {
        stroke-width: 7px;
      }

      .cls-8, .cls-9 {
        opacity: .45;
      }
    </style>
  </defs>
  <g class="cls-14">
    <g class="cls-12">
      <g class="cls-11">
        <g>
          <path class="cls-6" d="M82.81,214.57c-.65,9.07-1.18,18.22-1.38,27.3-.11,4.54-.15,9.06-.15,13.53-.02,4.47-.06,8.9-.03,13.26.02,4.64-.14,9.18-.43,13.64-.14,2.23-.32,4.44-.53,6.63-.22,2.19-.49,4.36-.77,6.52-1.13,8.63-2.61,17.02-4.06,25.38-3.13,16.7-6.08,33.25-6.54,51.37-.12,5.68-.38,11.34-.87,16.97-.51,5.63-1.16,11.24-1.9,16.83-.76,5.59-1.55,11.19-2.52,16.76-.97,5.57-2,11.15-3.03,16.73-1.06,5.58-2.03,11.19-3.16,16.79-1.1,5.61-2.16,11.24-3.16,16.91-1.92,11.35-3.87,22.79-5.1,34.53-4.69,43.07-10.37,86.68-17.86,130.53-3.69,21.92-7.65,43.9-11.72,65.86-2.06,11-4.11,21.98-6.17,32.96l-1.55,8.24-1.49,8.37c-1.07,5.58-1.89,11.18-2.82,16.77-3.28,20.7-5.26,41.29-6.39,61.7-1.12,20.41-1.38,40.62-1.05,60.66.68,40.07,3.64,79.4,7.71,118.33,2.04,19.47,4.37,38.84,6.91,58.18l1.97,14.65,3.24,21.14c1.23,7.5,2.46,15,3.68,22.5,1.31,7.59,2.62,15.18,3.92,22.77,5.38,30.59,11.34,61.25,17.51,93.93,3.2,16.84,6.4,33.71,9.62,50.63.84,4.42,1.68,8.84,2.52,13.26l1.27,6.71.16.84.08.42c.03.13.06.31.08.36l.27.89.54,1.8c.72,2.42,1.44,4.91,2.16,7.49l.54,1.95.69,2.61,1.5,5.77c1.76-5.21,3.57-10.58,5.39-15.97,4.08-12.16,8.2-24.42,12.34-36.78,4.22-12.7,8.48-25.49,12.76-38.36,1.07-3.24,2.14-6.48,3.21-9.73l1.6-4.82,1.55-4.56c2.08-6.17,4.17-12.35,6.26-18.56l1.58-4.72c.26-.84.53-1.47.81-2.14l.82-2.01c1.09-2.7,2.19-5.41,3.28-8.11,1.1-2.73,2.2-5.47,3.31-8.21l1.66-4.14c.56-1.38,1.1-2.81,1.69-4.05,2.32-5.2,4.64-10.41,6.97-15.63,1.17-2.64,2.34-5.28,3.52-7.93,1.2-2.61,2.4-5.23,3.6-7.85,4.64-10.15,9.3-20.33,13.97-30.55,3.31-7.2,6.63-14.43,9.96-21.67,1.35-2.9,2.66-5.91,3.99-8.88,1.31-2.99,2.66-5.92,3.94-8.98,2.57-6.1,5.17-12.15,7.59-18.48,2.51-6.19,4.8-12.74,7.1-19.23,1.13-3.29,2.16-6.72,3.23-10.07l.79-2.53.4-1.27.2-.64.19-.73,1.51-5.82c2.02-7.75,3.36-15.92,4.29-24.1,1.68-16.41.56-32.86-1.18-46.21l-.65-4.98-.65-4.69c-.42-2.98-.83-5.95-1.24-8.91l-.54-4.15c-.17-1.36-.38-2.78-.5-4.06-.27-2.6-.62-5.27-.78-7.74-.36-3.71-.5-7.53-.58-11.56.03-4.86.06-9.96.1-15.26,0-3.08.06-6.23.03-9.4-.12-3.15-.24-6.35-.37-9.6-.06-1.62-.13-3.26-.19-4.91-.03-.82-.07-1.65-.1-2.48-.06-.82-.12-1.64-.19-2.46-.26-3.29-.53-6.61-.8-9.98-.14-1.68-.27-3.37-.41-5.07-.19-1.67-.38-3.35-.57-5.04-.39-3.37-.79-6.77-1.19-10.2-.18-1.73-.43-3.41-.68-5.1s-.5-3.39-.75-5.1c-.51-3.4-.99-6.86-1.55-10.26-2.28-13.56-4.85-27.21-7.67-40.33-2.78-13.23-5.7-25.97-8.55-38.24-2.79-12.02-5.49-23.67-8.04-34.67-5-21.65-8.98-40.14-12.45-53.87,2.25,18.59,5.6,37.74,9.44,57.47s8.14,40.02,12.1,60.88c3.96,20.85,7.57,42.28,9.89,64.13,2.32,21.84,3.3,44.13,2.04,66.27-.06-24.31-2.68-48.13-6.48-71.22-3.81-23.11-8.78-45.54-13.73-67.51-4.95-21.97-9.9-43.5-13.8-64.76-.96-5.31-1.8-10.59-2.71-15.89l-2.22-15.78-1.66-15.9c-.58-6.86-1.64-13.19-2.77-19.35-1.15-6.16-2.48-11.99-3.83-17.69-1.35-5.71-2.75-11.2-4.09-16.6-2.69-10.77-5.19-21.05-6.87-30.78-1.66-9.67-2.5-18.84-1.78-26.42.34-3.8.95-7.25,2.01-10.19,1.03-2.97,2.37-5.58,4.13-8.07.49-.6.96-1.21,1.41-1.84.54-.59,1.12-1.16,1.66-1.76.49-.63,1.21-1.16,1.84-1.73.67-.56,1.22-1.19,2.01-1.7.74-.54,1.48-1.09,2.21-1.65l.28-.21.5-.34,1-.67,1.99-1.35c1.33-.88,2.64-1.85,3.95-2.8,1.31-.94,2.61-1.91,3.9-2.93,10.29-7.98,20.06-17.65,27.79-29.28,7.75-11.57,13.15-25.01,15.56-38.34,2.46-13.35,2.32-26.37.94-38.46,1.05,10.27,1.24,21.11-.27,32.24-1.49,11.11-4.84,22.48-10.14,32.9-5.25,10.47-12.38,19.78-20.24,27.74-3.94,4-8.1,7.6-12.35,10.99-4.25,3.39-8.64,6.41-13.07,9.32-10.83,7.48-15.3,15.08-16.65,28.24l-.14,1.2-.05,1.27-.13,2.54.02,2.66v1.33l.07,1.38.13,2.77.25,2.86c.13,1.88.43,3.88.65,5.83,1.04,7.91,2.77,16.27,4.7,24.87,2.08,8.94,4.16,17.89,6.24,26.82,2.09,9.3,4.11,18.98,5.4,29.5.35,2.59.57,5.32.81,8.03l.58,6.65.55,6.46c.1,1.08.17,2.15.29,3.23l.39,3.25c.54,4.34.99,8.66,1.59,13.01l1.91,13.08c2.78,17.49,6.19,35.15,9.68,53.01,3.48,17.87,7.1,35.94,10.13,54.37,3.03,18.41,5.52,37.13,6.83,56.12l.75,14.28c.04,4.79.08,9.58.13,14.37.06,2.38-.08,4.8-.17,7.2l-.3,7.2-.32,6.88-.34,6.14c-.25,8.21.02,16.51.63,25.11.6,8.6,1.56,17.55,2.17,27.01.62,9.43.79,19.37-.13,29.28-.28,2.48-.52,4.95-.87,7.41l-1.26,7.33c-1.07,4.82-2.14,9.63-3.65,14.25l-1.06,3.49c-.35,1.17-.77,2.21-1.15,3.31l-2.36,6.53-1.19,3.25-1.28,3.19-2.56,6.36c-3.49,8.42-7.17,16.67-11,24.79-1.87,4.09-3.87,8.08-5.82,12.1-1.94,4.02-3.95,7.99-5.95,11.95-2.13,4.22-4.26,8.43-6.39,12.63-2.24,4.38-4.47,8.75-6.7,13.12-8.95,17.39-17.25,33.14-24.53,47.19-1.84,3.44-3.57,6.74-5.29,9.77-1.74,2.93-3.25,6.11-4.81,9.06-1.57,2.94-2.94,5.82-4.31,8.53-1.41,2.7-2.6,5.32-3.77,7.79l-1.46,3.08-1.27,2.97-1.22,2.81-.15.34-.07.17-.02.04s-.01.03-.02-.03l-.03-.21-.22-1.64-.43-3.26c-1.16-8.65-2.19-16.95-3.12-24.88-1.85-15.87-3.24-30.28-4.19-43.11,1.59,10.81,3.38,22.36,5.4,34.71,1.07,6.34,2.14,12.72,3.22,19.14l.43,2.48.21,1.25.05.31s.05-.11.07-.16l.14-.4c.38-1.09.76-2.18,1.14-3.28.39-1.12.78-2.23,1.17-3.35.41-1.12.88-2.24,1.32-3.38,5.04-12.93,11.67-27.02,19.22-42.56,3.97-8.1,7.97-16.25,11.98-24.43,2.13-4.37,4.27-8.76,6.41-13.16,1.1-2.3,2.21-4.6,3.32-6.9l1.69-3.54,1.75-3.73c2.33-4.97,4.67-9.96,6.93-15,1.14-2.51,2.27-5.03,3.41-7.55,1.1-2.54,2.2-5.07,3.31-7.61,2.26-5.07,4.28-10.23,6.41-15.38,1.09-2.57,2-5.2,3.01-7.8.96-2.62,2.03-5.21,2.91-7.86,1.78-5.3,3.7-10.58,5.13-16.04.85-2.7,1.36-5.48,2-8.24.69-2.76,1.01-5.58,1.49-8.39.1-.7.24-1.41.32-2.11l.21-2.13.42-4.26c.15-1.42.15-2.85.23-4.28.05-1.43.15-2.86.16-4.29.03-5.72-.12-11.47-.59-17.17-.84-11.42-2.32-22.7-3.03-33.91l-.26-4.21c-.09-1.4-.1-2.8-.16-4.2l-.14-4.2v-4.19c.02-1.4,0-2.79.04-4.19l.18-4.18.34-8.54c1.1-23.25-.45-46.62-3.38-69.71-5.85-46.22-17.05-91.3-23.67-136.12-1.63-11.2-3.06-22.39-3.99-33.54l-.66-8.36c-.22-2.64-.45-5.95-.75-8.96-.62-6.12-1.61-12.03-2.68-17.86-2.18-11.64-4.9-22.83-7.34-33.83-2.45-10.99-4.7-21.79-5.95-32.35-.66-5.28-.97-10.47-.95-15.53.03-5.06.4-10,1.41-14.61,1.94-9.27,5.96-17.38,12.56-23.78,1.54-1.69,3.44-3.08,5.2-4.61l2.93-2.04.73-.51c.26-.18.44-.32.79-.54l1.87-1.23c4.98-3.27,9.83-6.81,14.42-10.75,9.17-7.83,17.39-17.2,23.39-27.96,6-10.75,9.61-22.71,10.89-34.49,1.32-11.81.63-23.39-1-34.47-1.63-11.1-4.16-21.77-6.89-32.2-2.74-10.42-5.72-20.6-8.43-30.73s-5.18-20.21-6.84-30.37-2.5-20.43-1.77-30.69c1.3-20.5,2.42-40.7,3.81-60.63.5-6.56.91-13.34,1.47-20.14.28-3.4.46-6.83.78-10.23.28-3.41.57-6.81.85-10.18.23-3.38.62-6.71.91-10.01.32-3.29.55-6.56.9-9.73.33-3.19.64-6.31.95-9.33.14-1.52.29-3.01.43-4.48.17-1.47.33-2.91.49-4.33-3.3,21.81-5.61,43.82-7.4,66.05-1.79,22.23-3.14,44.66-4.66,67.34-.18,2.85-.42,5.64-.55,8.56-.16,2.89-.15,5.79-.09,8.67.17,5.77.74,11.5,1.56,17.2,1.66,11.39,4.37,22.59,7.32,33.8,2.96,11.21,6.2,22.43,9.05,33.91,2.84,11.47,5.35,23.22,6.52,35.4,1.17,12.14.95,24.82-2.05,37.28-1.47,6.22-3.7,12.32-6.55,18.14-2.84,5.83-6.43,11.28-10.46,16.33-8.1,10.11-18.1,18.4-28.73,25.28l-2,1.29-1.71,1.17-1.69,1.15c-.56.39-1.15.74-1.65,1.19l-3.13,2.55c-.99.89-1.91,1.86-2.87,2.77-3.68,3.81-6.71,8.13-8.97,12.9-2.26,4.76-3.76,9.96-4.63,15.4-.87,5.44-1.04,11.13-.86,16.88.2,5.76.79,11.59,1.63,17.46.87,5.87,1.95,11.78,3.15,17.72,2.4,11.88,5.27,23.85,7.67,36.13,1.19,6.14,2.29,12.36,3.08,18.69l.52,4.78c.17,1.59.25,3.22.38,4.82l.65,9.18c3.33,48.64,14.92,97.07,22.56,145.9,1.03,6.09,1.79,12.23,2.67,18.34.46,3.05.76,6.13,1.13,9.19l1.05,9.18.78,9.2.38,4.59c.14,1.53.25,3.06.31,4.6l.42,9.19.21,4.59.02,4.59.03,9.16v2.29l-.1,2.29-.21,4.56c-.29,6.13-.58,12.24-.87,18.36-.34,12.35.53,24.71,1.65,36.83,1.11,12.12,2.26,24.01,1.83,35.6-.44,11.58-2.42,22.85-5.83,33.72-3.55,11-7.68,22-12.29,32.74-4.5,10.78-9.41,21.41-14.34,31.97-1.26,2.64-2.51,5.27-3.77,7.9l-1.88,3.94-1.56,3.11c-1.01,1.99-2.01,3.98-3.01,5.96l-1.43,2.78-1.36,2.61c-3.4,6.46-6.78,12.88-10.13,19.26-6.29,11.89-11.51,21.97-15.27,30.62-.22.51-.44,1-.66,1.5-.42.97-.77,1.95-1.15,2.89l-.55,1.4-.27.69c-.03.14-.04-.11-.06-.19l-.05-.34-.1-.67-1.54-10.48c-.98-6.8-1.86-13.23-2.65-19.31-1.57-12.15-2.76-22.86-3.64-32.26-.43-4.77-.86-9.54-1.28-14.31-1.22-9.84-2.45-19.69-3.67-29.55-2.42-20.32-4.57-40.66-6.37-61-3.59-40.67-5.86-81.39-5.79-121.79.04-20.2.69-40.31,2.22-60.19.79-9.93,1.7-19.83,2.97-29.61l.94-7.34c.33-2.44.74-4.85,1.11-7.28l.56-3.64c.19-1.22.35-2.4.59-3.69l1.3-7.6c8.8-43.87,19.49-88.31,29.34-133.62,1.25-5.83,2.5-11.66,3.74-17.49,1.19-5.86,2.37-11.73,3.56-17.59,1.17-5.87,2.38-11.73,3.51-17.62l3.28-17.67c1.06-5.9,2.22-11.78,3.2-17.69l2.99-17.74c2.05-11.82,3.76-23.69,5.56-35.55,6.98-47.47,12.23-95.18,15.56-142.83.67-10.58,1.41-22.19,2.18-34.48.3-6.15.6-12.47.91-18.91.28-6.44.65-13,.8-19.65.36-13.29.79-26.89.72-40.46,0-6.78-.02-13.55-.08-20.26-.15-6.71-.34-13.37-.58-19.91-.4-13.1-1.29-25.78-2.32-37.68-.28-2.97-.55-5.9-.82-8.77-.3-2.87-.66-5.69-1.01-8.44-.71-5.51-1.47-10.78-2.3-15.76-1.6-9.96-3.7-18.78-5.99-26.08-2.3-7.3-4.88-13.1-7.77-17.03-.36,26.91,2.67,56.69.67,82.57-.96-4.91-2.03-10.17-3.01-15.65-1.04-5.48-2.03-11.17-2.73-16.95.04,5.5-.1,11.3-.13,17.01-.09,5.71-.02,11.32.57,16.45-1.1-8.51-2.36-17.18-4.7-20.45-.29,6.6.23,14.58,1.08,22.23.82,7.64,1.94,14.95,2.45,20.17.33,3.06,1.65,11.63,2.74,20.46.27,2.21.53,4.43.76,6.58.2,2.15.37,4.24.48,6.18.23,3.87.27,7.14-.03,9.14-.88-5.25-1.69-10.84-2.57-16.53-.92-5.68-1.86-11.48-2.78-17.15-.96-5.67-1.91-11.21-2.99-16.39-1.11-5.18-2.27-10.01-3.52-14.25-.13,3.58-.14,7.15-.18,10.69-.02,1.77-.05,3.54-.12,5.29-.09,1.76-.21,3.5-.37,5.24-.87-4.33-1.52-10.71-2.24-16.56-.72-5.85-1.53-11.16-2.85-13.36.03,8.89.4,17.27.66,25.74.18,8.46.3,17.01,0,26.23-.06,1.87-.13,3.71-.19,5.54-.09,1.82-.18,3.63-.27,5.42-.17,3.58-.33,7.11-.45,10.62-.26,7.01-.24,13.96-.03,21.13-1.26-17.17-1.77-40.14-5.32-52.01-.55,3.92-.74,7.96-.78,12.04-.02,4.08,0,8.18.09,12.25-.33-1-.73-1.6-1.17-1.82-.09,3.6-.83,8.33-.82,12.07-.63.07-1.26.87-1.87.12.44.12.88.18,1.33.26"/>
          <path class="cls-6" d="M126.99,191.05c-.17,8.97-.48,19.81-.93,30.46-.48,10.65-1.35,21.08-2.38,29.24"/>
          <path class="cls-6" d="M77.82,1156.94s.22-.54.66-1.6c.44-1.06,1.08-2.66,2.01-4.76,1.81-4.21,4.57-10.51,8.48-18.95,3.87-8.46,8.92-19.05,14.97-32.02,1.57-3.4,3.2-6.92,4.87-10.54.43-.94.86-1.88,1.3-2.84.47-1.03.94-2.07,1.41-3.12,1.03-2.33,2.08-4.69,3.14-7.08,4.26-9.58,8.55-19.72,12.88-30.39,1.04-2.68,2.08-5.39,3.14-8.13s2.14-5.51,3.1-8.33c1-2.82,2.01-5.67,3.03-8.54.92-2.89,1.84-5.82,2.78-8.77,1.01-2.97,1.7-5.89,2.49-8.87.18-.66.35-1.33.53-2l.18-.78c.4-2.1.83-4.19,1.25-6.3.31-1.53.45-3.09.69-4.64.19-1.56.5-3.11.57-4.7.12-1.58.25-3.17.38-4.77.15-1.59.1-3.21.17-4.83.15-3.23-.04-6.53-.1-9.84-.22-3.33-.39-6.68-.76-10.1-.63-6.82-1.57-13.81-2.41-21.01-.85-7.19-1.65-14.57-2.02-22.11-.27-3.76-.27-7.57-.36-11.39-.03-1.91.06-3.83.08-5.75.04-1.9.07-3.8.11-5.71.06-3.71.12-7.45.18-11.2l.04-2.82-.09-2.83c-.06-1.89-.13-3.79-.19-5.69s-.13-3.81-.19-5.72c-.02-1.91-.26-3.82-.38-5.74-.29-3.84-.59-7.69-.89-11.57-1.59-15.48-3.89-31.2-6.73-47.11-5.78-31.81-13.52-64.33-19.78-97.84-3.17-16.75-5.73-33.8-7.46-51.06-.4-4.29-.8-8.58-1.2-12.88-.36-4.17-1.01-8.36-1.68-12.54-1.44-8.37-3.35-16.75-5.34-25.15-3.96-16.81-8.41-33.78-10.47-51.5-1.03-8.84-1.35-17.92-.25-27.06,1.01-9.12,3.89-18.31,8.73-26.48,4.87-8.17,11.85-14.92,19.5-20.11,1.99-1.41,3.6-2.44,5.35-3.61,1.7-1.17,3.38-2.37,5.02-3.59,3.28-2.47,6.4-5.08,9.37-7.83,2.93-2.78,5.71-5.67,8.24-8.72,2.51-3.07,4.8-6.27,6.82-9.61,4.05-6.67,6.9-13.9,8.67-21.38,3.51-15.02,2.45-30.9-.3-46.46-2.78-15.62-7.17-31.07-11.3-46.69-4.11-15.64-8.1-31.53-9.8-48.27-.86-8.35-1.05-16.96-.3-25.59.61-7.58,1.21-15.07,1.81-22.48.61-7.44,1.2-14.8,1.79-22.05.67-7.29,1.23-14.48,1.96-21.61,1.3-14.24,2.9-28.17,4.62-41.71,3.57-27.08,8.05-52.66,13.68-76.15,5.61-23.5,12.21-44.88,18.68-63.75"/>
        </g>
        <path class="cls-6" d="M146.2,777.35s-1.03-5.54-2.94-15.78c-2.02-10.12-4.96-24.88-8.67-43.47-3.61-18.46-7.89-40.58-10.83-65.54-.38-3.12-.61-6.28-.93-9.49-.32-3.33-.64-6.7-.96-10.12-.72-7.54-1.99-14.94-3.5-22.28-3.02-14.68-7.02-29.24-10.32-43.98-1.64-7.36-3.11-14.77-4.08-22.14-.95-7.36-1.46-14.73-.91-21.75.2-1.72.27-3.52.61-5.19l.41-2.56.6-2.47.29-1.24c.1-.41.26-.8.38-1.2l.77-2.39c.27-.79.64-1.53.94-2.3.33-.76.6-1.56,1.02-2.27,2.99-5.89,7.27-11.26,13.05-15.71l2.23-1.62c.75-.55,1.41-1.06,2.47-1.77,1.94-1.32,3.87-2.63,5.76-4.05,3.81-2.78,7.51-5.81,11.07-9.06,3.58-3.22,6.95-6.76,10.13-10.5,3.17-3.75,6.12-7.75,8.7-12.02,5.2-8.5,8.98-17.97,11.05-27.67,2.1-9.71,2.55-19.57,1.97-29.16-.59-9.6-2.18-18.97-4.23-28.13-2.05-9.17-4.56-18.14-7.18-27.04-5.22-17.81-10.98-35.35-14.37-53.67-1.68-9.16-2.74-18.52-2.56-28.07.38-9.24.76-18.45,1.13-27.62.75-18.28,1.51-36.45,2.58-54.48"/>
      </g>
    </g>
  </g>
  <path class="cls-1" d="M595.53,979.26c5.14,60.24-4.21,121.18-27.47,178.94"/>
  <path class="cls-5" d="M531.26,961.06c-2.34,19.4,20.29,34.74,30.76,52.54,7.67,13.04,8.78,27.68,8.93,41.95.41,39.1-5.52,78.24-17.64,116.26"/>
  <path class="cls-8" d="M95.67,597.92c44.08,257.15,1504.77,739.12,2189.18-170.98"/>
  <path class="cls-9" d="M93.42,600.33c329.78-238.45,1446.07-472.65,2191.43,277.44"/>
  <g class="cls-13">
    <path class="cls-4" d="M228.14,862.43c-6.02,0-9.01-4.04-9.01-12.11v-3.56c7.3-57.94,16.31-119.77,27.05-185.55,10.73-65.77,24.26-130.94,40.57-195.52,0-1.42.65-3.56,1.93-6.41-3.01-2.84-4.52-8.3-4.52-16.38,0-21.37,3.32-35.36,9.98-42.04,6.66-6.63,12.77-9.96,18.36-9.96,3,0,5.16.25,6.45.72l4.52-1.42c2.58-.95,5.36-1.42,8.36-1.42,2.14,0,4.19.48,6.12,1.42,1.93.95,2.89,2.61,2.89,4.99,0,2.84-1.28,7.12-3.87,12.82s-5.26,11.4-8.06,17.08c-2.8,5.7-4.83,10.21-6.12,13.53l-7.73,21.37c1.28,28.49,3.96,58.05,8.06,88.67,4.08,30.63,9.98,59.12,17.71,85.46,7.73,26.34,17.49,47.84,29.31,64.47,11.8,16.63,26.1,24.93,42.83,24.93,12.01,0,27.47-7.47,46.38-22.43,18.89-14.96,39.5-39.18,61.84-72.65,22.32-33.47,44.22-78.23,65.7-134.27l1.93-21.37v-3.56c0-3.79-.33-7.59-.96-11.4-.65-3.79-.96-7.35-.96-10.68,0-15.2,3.1-28.73,9.34-40.6,6.22-11.86,17.91-17.81,35.1-17.81,2.58,0,4.93.6,7.09,1.79,2.14,1.18,3.22,3.2,3.22,6.05,0,4.76-1.73,11.64-5.16,20.65-3.45,9.03-5.59,16.15-6.45,21.37-5.16,20.43-9.45,43.7-12.88,69.8-3.45,26.11-6.12,53.07-8.06,80.85s-3.33,55.09-4.19,81.91c-.87,26.84-1.28,51.41-1.28,73.73,0,17.57.11,33.12.32,46.65.21,13.54.74,24.11,1.6,31.69.86,7.12,1.93,11.29,3.22,12.46,1.28,1.18,1.93,3.45,1.93,6.77,0,6.66-1.83,11.64-5.48,14.96-3.66,3.32-7.83,4.99-12.57,4.99-4.3,0-8.06-1.18-11.28-3.56s-4.83-5.7-4.83-9.96c.41-54.13,1.06-106.84,1.93-158.12.86-51.27,2.58-101.39,5.16-150.28-23.19,53.66-46.07,96.4-68.6,128.21-22.55,31.82-43.28,54.62-62.15,68.38-18.9,13.77-35.01,20.65-48.31,20.65-16.75,0-31.35-7.24-43.8-21.72-12.46-14.48-23.09-33.47-31.88-56.97-8.81-23.51-15.99-48.79-21.58-75.85-5.59-27.07-9.66-53.42-12.24-79.06-7.73,27.07-14.71,54.74-20.93,82.97-6.23,28.25-11.71,55.69-16.42,82.27-4.73,26.6-8.6,50.92-11.6,73-3.01,22.08-4.95,40.24-5.81,54.48,0,6.17.41,10.79,1.28,13.9.86,3.09,1.28,6.3,1.28,9.61,0,7.61-1.83,13.18-5.48,16.73-3.66,3.56-6.76,5.35-9.34,5.35h-.04.08Z"/>
    <path class="cls-3" d="M689.31,858.86c-10.29,0-15.45-8.54-15.45-25.65,0-13.29,2.36-29.78,7.09-49.5,4.72-19.7,10.95-40.24,18.69-61.61,7.73-21.37,16.22-41.43,25.45-60.18,9.23-18.75,18.69-34.08,28.34-45.94,9.66-11.87,18.56-17.81,26.73-17.81h1.93l7.09-5.7c2.14-2.84,4.83-4.73,8.06-5.7,3.22-.95,6.54-1.42,9.98-1.42,8.58,0,17.61,1.91,27.05,5.7,9.45,3.8,15.89,5.7,19.33,5.7,3,0,5.25-1.9,6.76-5.7,1.5-3.79,4.83-5.7,9.98-5.7,6.02,0,10.2,1.42,12.57,4.27,2.36,2.84,3.53,6.66,3.53,11.4,0,6.66-1.73,14.37-5.16,23.15-3.45,8.79-6.22,16.03-8.36,21.73-.44,1.91-2.37,3.45-5.81,4.62-3.45,1.18-5.59,2.74-6.45,4.62-6.87,21.85-13.11,44.05-18.69,66.58-5.59,22.55-9.88,42.15-12.88,58.77-3.01,16.63-4.52,26.84-4.52,30.63,0,11.87,3,17.81,9.01,17.81,5.16,0,10.73-2.5,16.75-7.47,6.02-4.99,11.92-10.56,17.7-16.73,5.81-6.17,10.63-11.76,14.5-16.73,3.87-4.99,6.02-7.47,6.45-7.47.86,0,1.28.95,1.28,2.84s-.65,4.76-1.93,8.54c-1.28,3.8-2.8,6.41-4.52,7.85-4.3,4.27-10.95,10.79-19.97,19.59-9.01,8.79-18.69,16.99-28.98,24.58-10.29,7.61-19.33,11.4-27.05,11.4-9.01,0-14.39-5.94-16.1-17.81,0-8.54,1.28-19.59,3.87-33.12,2.58-13.53,5.48-27.42,8.69-41.66,3.22-14.25,6.12-26.1,8.69-35.61-6.45,9.51-14.71,21.61-24.8,36.33-10.09,14.73-21.05,29.32-32.86,43.8-11.81,14.49-23.51,26.71-35.1,36.69-11.6,9.96-21.9,14.96-30.92,14.96v-.05.02h.04ZM709.92,825.39c4.29,0,9.98-3.2,17.05-9.61s14.82-14.6,23.18-24.58c8.37-9.96,16.31-19.96,23.84-29.92,7.5-9.96,13.95-18.88,19.33-26.71,5.36-7.85,8.69-12.69,9.98-14.6,6.87-12.34,13.63-25.75,20.29-40.24,6.66-14.48,12.13-27.78,16.42-39.89,4.29-12.11,6.45-20.54,6.45-25.28,0-2.84-1.07-4.27-3.22-4.27h-1.93c-4.3,0-8.69-.47-13.21-1.42s-9.77-1.42-15.77-1.42-12.46.95-19.33,2.84c-3.87.95-9.34,6.77-16.42,17.46-7.09,10.68-14.82,24.11-23.19,40.24-8.36,16.15-16.32,33.37-23.83,51.65-7.5,18.29-13.75,35.73-18.69,52.35-4.95,16.63-7.41,30.39-7.41,41.31,0,8.08,2.14,12.11,6.45,12.11h0Z"/>
    <path class="cls-3" d="M905.72,861.01c-8.15,0-12.24-4.27-12.24-12.82,0-4.27.86-9.26,2.58-14.96,9.45-29.92,17.17-54.48,23.18-73.73,6.02-19.23,10.73-34.43,14.17-45.59,3.43-11.14,5.81-19.7,7.09-25.65,1.28-5.94,1.93-10.79,1.93-14.6,0-2.37-.33-4.03-.96-4.99-.65-.95-.96-2.37-.96-4.27s.65-4.99,1.93-9.26c9.01-28.95,17.17-48.67,24.46-59.12,7.3-10.43,18.24-15.66,32.86-15.66,6.02,0,9.23,2.15,9.66,6.41-4.3,9.03-11.28,23.76-20.93,44.15-9.66,20.43-19.86,45.71-30.6,75.85-10.74,30.16-20.2,64.7-28.34,103.64-.44,1.42-.65,3.33-.65,5.7,0,5.7,2.14,8.54,6.45,8.54,2.58,0,6.66-1.79,12.24-5.35,5.58-3.56,11.37-7.12,17.38-10.68s10.51-5.35,13.52-5.35,4.72.95,5.16,2.84c0,2.84-3.22,7.24-9.66,13.18-6.45,5.95-14.17,12.11-23.18,18.53-9.01,6.41-17.7,11.87-26.1,16.38-8.36,4.5-14.71,6.77-19,6.77l-.02.03h-.01.01ZM1000.41,536.93c-6.02,0-9.66-2.5-10.95-7.47s-1.93-10.33-1.93-16.03c0-7.12,3.22-14.6,9.66-22.43,6.45-7.85,14.07-14.48,22.86-19.96,8.81-5.45,16.22-8.2,22.22-8.2,2.14,0,3.43.72,3.87,2.15,0,5.24-1.83,10.21-5.48,14.96-3.66,4.76-7.63,9.51-11.92,14.25-4.3,4.76-7.73,10.21-10.29,16.38-1.73,4.76-3.87,9.96-6.45,15.66s-6.45,9.26-11.6,10.68h.01Z"/>
    <path class="cls-2" d="M1126.65,868.84c-20.2,0-35.33-2.61-45.41-7.85-10.09-5.22-16.85-11.76-20.29-19.59-3.45-7.85-5.16-15.55-5.16-23.15v-4.99c0-3.79,1.06-8.92,3.22-15.31,2.14-6.41,6.87-9.61,14.17-9.61,3.43,0,5.36,2.98,5.81,8.92.41,5.95,2.36,12.23,5.81,18.88,6.87,12.36,15.68,20.43,26.4,24.23s24.26,5.7,40.57,5.7c14.17,0,29.31-2.61,45.41-7.85,16.1-5.22,31.23-12.57,45.41-22.08,14.17-9.5,25.65-20.89,34.46-34.19,8.81-13.29,13.21-28.24,13.21-44.87,0-15.2-4.83-27.78-14.5-37.74-9.66-9.96-22.22-18.75-37.68-26.34-15.45-7.59-31.67-14.83-48.63-21.72-16.97-6.87-33.18-15.07-48.63-24.58-15.45-9.5-28.03-21.13-37.68-34.9-9.66-13.76-14.5-31.1-14.5-52s5.25-39.89,15.77-58.41c10.51-18.53,24.91-35.01,43.15-49.5,18.24-14.48,38.86-25.88,61.84-34.19,22.98-8.3,46.91-12.47,71.82-12.47,18.46,0,32.21,3.68,41.22,11.04,9.01,7.36,15.14,16.38,18.36,27.07,3.22,10.68,4.83,21.49,4.83,32.4,0,2.38-.65,6.41-1.93,12.11-1.28,5.7-3.33,10.79-6.12,15.31-2.8,4.51-6.12,6.77-9.98,6.77-3.01,0-4.52-3.08-4.52-9.26v-14.25c0-21.83-5.9-36.44-17.7-43.8-11.81-7.35-26.52-11.04-44.13-11.04-11.6,0-25.66,2.26-42.2,6.77-16.55,4.51-32.74,11.4-48.63,20.66-15.9,9.26-29.11,20.55-39.62,33.84-10.53,13.3-15.77,28.96-15.77,47.01,0,.95.11,2.02.33,3.2.21,1.18.32,2.26.32,3.2,2.14,19.96,8.69,36.45,19.64,49.5,10.95,13.07,24.37,23.86,40.26,32.4,15.89,8.54,32.53,16.15,49.91,22.79,17.38,6.66,33.59,13.53,48.63,20.65,15.03,7.12,27.26,15.56,36.72,25.28,9.45,9.74,14.17,22.43,14.17,38.1,0,18.53-5.36,36.93-16.1,55.2-10.74,18.29-25.33,34.9-43.8,49.85-18.48,14.96-39.62,26.84-63.44,35.61-23.84,8.78-48.85,13.18-75.04,13.18h.01v.02h.01-.02Z"/>
    <path class="cls-2" d="M1474.48,901.61c-5.59,0-8.37-2.61-8.37-7.85,0-4.76,3.22-9.61,9.66-14.6,6.45-4.99,11.15-11.29,14.17-18.88,1.28-3.79,3.87-12.93,7.73-27.42,3.87-14.48,8.27-31.1,13.21-49.85,4.93-18.75,9.43-36.69,13.52-53.78,4.08-17.08,7.18-30.15,9.34-39.18-4.73,8.08-11.92,19.12-21.58,33.12-9.66,14.02-20.51,28.96-32.53,44.87-12.02,15.91-24.38,31.11-37.03,45.59-12.67,14.49-24.59,26.34-35.74,35.61-11.16,9.26-20.62,13.9-28.34,13.9-6.02,0-9.01-4.27-9.01-12.82,0-7.12,2.36-17.33,7.08-30.63,2.58-6.63,6.54-16.38,11.92-29.2,5.36-12.82,10.95-26.71,16.75-41.66,5.81-14.96,10.73-28.95,14.82-42.04,4.08-13.05,6.12-23.15,6.12-30.28,0-3.32-.42-5.58-1.28-6.77-.87-1.18-1.28-2.96-1.28-5.35,0-.95.11-2.01.33-3.2.21-1.18.54-2.73.96-4.62,4.72-19.46,9.12-34.66,13.21-45.59,4.08-10.93,9.12-18.53,15.12-22.79,6.02-4.27,14.17-6.41,24.46-6.41,6.02,0,9.66,2.15,10.95,6.41-1.73,4.76-5.36,14.6-10.95,29.57-5.59,14.96-12.14,32.54-19.64,52.71-7.5,20.19-14.82,40.14-21.9,59.84-7.08,19.71-12.98,36.8-17.7,51.27-4.73,14.49-7.09,23.4-7.09,26.71,0,1.91.65,2.84,1.93,2.84,1.72,0,3.96-1.18,6.76-3.56,2.79-2.37,5.68-4.99,8.69-7.85,25.32-21.37,47.23-45.47,65.7-72.29,18.46-26.83,34.35-54.01,47.67-81.55.41-7.12,2.05-16.13,4.83-27.07,2.79-10.93,7.62-20.65,14.5-29.2,6.87-8.54,15.89-12.82,27.05-12.82,4.72,0,7.3,2.15,7.73,6.41-2.15,7.61-6.55,21.14-13.21,40.6-6.66,19.47-13.64,40.6-20.93,63.39-3.45,11.4-7.3,24.82-11.6,40.24-4.3,15.44-8.49,30.99-12.57,46.65-4.09,15.66-7.41,29.44-9.98,41.31-2.58,11.87-3.87,19.71-3.87,23.51,0,1.42.41,2.15,1.28,2.15,3.87-.47,9.12-3.56,15.77-9.26,6.66-5.7,13.63-11.51,20.93-17.46,7.3-5.94,13.3-8.92,18.04-8.92.86,0,1.93.25,3.22.72,1.28.48,1.93,1.42,1.93,2.84,0,2.84-3.01,6.88-9.01,12.11-6.02,5.24-13.21,10.68-21.58,16.38-8.37,5.7-16.1,10.94-23.18,15.66-7.09,4.73-11.92,8.07-14.5,9.96-4.3,3.79-8.93,8.78-13.85,14.96-4.95,6.17-9.77,11.64-14.5,16.38-4.73,4.73-9.45,7.12-14.17,7.12l.02.05h-.02.01Z"/>
    <path class="cls-2" d="M1600.07,868.84c-3.45,0-6.23-1.55-8.36-4.62-2.15-3.09-3.22-6.3-3.22-9.61,0-5.7,2.36-8.54,7.09-8.54,5.16,0,12.98-1.17,23.51-3.56,10.51-2.37,21.47-5.59,32.86-9.61,11.37-4.03,21.14-8.92,29.31-14.6,8.15-5.7,12.24-11.86,12.24-18.53,0-6.17-3.12-12.47-9.34-18.88-6.22-6.41-13.85-12.93-22.86-19.59-9.01-6.63-18.15-13.54-27.38-20.65-9.23-7.12-16.97-14.6-23.18-22.43-6.23-7.85-9.34-16.25-9.34-25.28,0-3.79.54-7.59,1.6-11.4,1.06-3.79,3.1-7.59,6.12-11.4,12.88-18.04,26.94-32.63,42.2-43.8,15.23-11.14,29.52-19.7,42.83-25.65,13.3-5.94,23.4-10.33,30.27-13.18,2.14-.95,4.72-1.78,7.73-2.5s6.02-1.07,9.01-1.07c6.02,0,11.37,2.02,16.1,6.05,4.72,4.04,7.09,11.52,7.09,22.43-.42,4.76-2.15,10.79-5.16,18.16-3.01,7.36-6.76,14.84-11.28,22.43-4.52,7.61-8.93,13.9-13.21,18.88-4.3,4.99-7.95,7.47-10.95,7.47-1.73,0-2.58-1.42-2.58-4.27,0-4.27,1.18-9.73,3.53-16.38,2.36-6.63,4.72-13.18,7.09-19.59,2.36-6.41,3.53-11.51,3.53-15.31,0-7.12-3.87-10.68-11.6-10.68-3.01,0-6.35.35-9.98,1.07-3.66.72-7.41,1.55-11.28,2.5-2.58.48-7.5,2.5-14.82,6.05-7.3,3.56-15.04,8.2-23.18,13.9-8.15,5.7-15.25,12.23-21.26,19.59-6.02,7.36-9.01,15.31-9.01,23.86,0,5.24,1.06,9.97,3.22,14.25,5.16,11.4,12.24,20.29,21.26,26.71,9.01,6.41,18.04,12.11,27.05,17.08s16.64,10.45,22.86,16.38c6.22,5.95,9.34,14.37,9.34,25.28s-4.3,22.43-12.88,33.12c-8.6,10.68-19.43,20.19-32.53,28.49-13.11,8.31-26.19,14.96-39.29,19.96-13.11,4.99-24.15,7.47-33.18,7.47l-.02.02v-.04h.01l.03.04Z"/>
    <path class="cls-2" d="M1858.35,889.49c-4.72,0-8.6-1.91-11.6-5.7-3.01-3.8-4.52-10.68-4.52-20.65,0-13.76,2.46-30.28,7.41-49.5,4.93-19.23,10.95-39.18,18.04-59.84,7.09-20.65,14.17-40.24,21.26-58.77,7.08-18.53,13.1-34.29,18.04-47.37,4.93-13.05,7.41-21.25,7.41-24.58,0-.95-.22-1.42-.65-1.42-1.73,0-5.59,3.56-11.6,10.68-24.46,30.39-44.13,57.7-58.93,81.91-14.82,24.23-26.4,45.59-34.79,64.11-8.37,18.53-15.04,33.84-19.97,45.94-4.95,12.11-9.88,21.25-14.82,27.42-4.93,6.17-11.49,9.26-19.64,9.26-3.87,0-5.81-2.38-5.81-7.12,0-4.27,1.06-9.02,3.22-14.25,19.75-56.02,36.72-110.27,50.89-162.76,14.17-52.47,29.84-107.19,47.03-164.18.86-3.32,1.4-5.94,1.6-7.85.21-1.9.33-3.56.33-4.99,0-2.37-.22-4.03-.65-4.99s-.65-2.37-.65-4.27.65-4.99,1.93-9.26c6.45-19.46,12.01-34.66,16.75-45.59,4.72-10.93,10.09-18.53,16.1-22.79,6.02-4.27,13.95-6.41,23.83-6.41,6.02,0,9.23,2.15,9.66,6.41-23.62,53.18-45.31,109.1-65.06,167.74-19.76,58.64-36.07,113.86-48.96,165.6,4.72-8.08,11.15-18.99,19.33-32.77,8.15-13.76,17.49-28.24,28.03-43.45,10.51-15.2,21.47-29.68,32.86-43.45,11.37-13.76,22.65-24.93,33.81-33.47,11.15-8.54,21.47-12.82,30.92-12.82s13.52,3.33,13.52,9.96c0,4.27-1.52,9.03-4.52,14.25-9.45,17.08-19.64,37.03-30.59,59.84-10.95,22.79-21.26,46.3-30.92,70.52-9.66,24.22-17.62,47.24-23.84,69.08-6.23,21.85-9.34,40.6-9.34,56.27,0,6.63,1.72,9.97,5.16,9.97,2.14,0,6.02-2.15,11.6-6.41,5.58-4.27,9.23-6.41,10.95-6.41,2.14,0,3.22,1.42,3.22,4.27,0,5.7-3.97,11.76-11.92,18.16-7.95,6.4-15.99,9.61-24.15,9.61h.04v.05Z"/>
    <path class="cls-2" d="M1966.57,861.01c-8.15,0-12.24-4.27-12.24-12.82,0-4.27.86-9.26,2.58-14.96,9.43-29.92,17.17-54.48,23.18-73.73,6.02-19.23,10.74-34.43,14.17-45.59,3.43-11.14,5.81-19.7,7.09-25.65,1.28-5.94,1.93-10.79,1.93-14.6,0-2.37-.32-4.03-.96-4.99s-.96-2.37-.96-4.27.65-4.99,1.93-9.26c9.01-28.95,17.17-48.67,24.49-59.12,7.3-10.43,18.24-15.66,32.86-15.66,6.02,0,9.22,2.15,9.66,6.41-4.3,9.03-11.28,23.76-20.93,44.15-9.66,20.43-19.86,45.71-30.6,75.85-10.74,30.16-20.19,64.7-28.34,103.64-.42,1.42-.65,3.33-.65,5.7,0,5.7,2.14,8.54,6.45,8.54,2.58,0,6.66-1.79,12.24-5.35,5.58-3.56,11.37-7.12,17.38-10.68s10.51-5.35,13.52-5.35,4.72.95,5.16,2.84c0,2.84-3.22,7.24-9.66,13.18-6.45,5.95-14.17,12.11-23.18,18.53-9.01,6.42-17.7,11.87-26.1,16.38-8.37,4.5-14.71,6.77-19,6.77l-.04.03h-.01,0ZM2061.25,536.93c-6.02,0-9.66-2.5-10.95-7.47-1.29-4.98-1.93-10.33-1.93-16.03,0-7.12,3.22-14.6,9.66-22.43,6.45-7.85,14.07-14.48,22.86-19.96,8.8-5.45,16.22-8.2,22.22-8.2,2.14,0,3.43.72,3.87,2.15,0,5.24-1.83,10.21-5.48,14.96-3.66,4.76-7.63,9.51-11.92,14.25-4.3,4.76-7.73,10.21-10.29,16.38-1.73,4.76-3.87,9.96-6.45,15.66-2.58,5.7-6.45,9.26-11.6,10.68h.01Z"/>
  </g>
  <g class="cls-10">
    <path class="cls-7" d="M689.86,1151.62c-3.22,0-6.55-1.06-9.97-3.18s-5.13-3.91-5.13-5.38c0-1.31,1.09-1.97,3.32-1.97.2,0,1.51.22,3.92.65-.81-3.07-1.41-6.62-1.81-10.66-.4-4.03-.6-8.45-.6-13.28,0-8.35.45-17.38,1.35-27.11.9-9.73,2.22-19.51,3.92-29.31,1.7-9.81,3.57-19.11,5.59-27.89,2-8.78,4.02-16.32,6.04-22.61h-16.01c-4.42-.14-6.64-.73-6.64-1.76,0-.73,1.25-1.54,3.78-2.42,2.52-.88,5.48-1.31,8.89-1.31h11.77c1-3.8,3.33-6.3,6.94-7.46,3.62-1.18,7.44-1.76,11.46-1.76,3.02,0,4.52.74,4.52,2.2s-.9,2.93-2.72,4.39c-1.81,1.47-2.92,2.56-3.32,3.29,5.03.29,11.16.84,18.41,1.65,7.24.81,14.63,1.97,22.19,3.52,7.54,1.54,14.58,3.63,21.12,6.25,6.54,2.63,11.87,5.89,16.01,9.77,4.12,3.88,6.19,8.6,6.19,14.16,0,4.39-1.65,8.56-4.98,12.52s-7.54,7.54-12.68,10.76-10.52,6.03-16.15,8.45c-5.64,2.42-10.76,4.36-15.39,5.83,2.22-.14,4.57-.26,7.09-.33s5.17-.1,7.99-.1c6.64,0,13.68.37,21.12,1.1,7.44.74,14.38,2.05,20.82,3.95s11.67,4.58,15.71,8.02c4.02,3.44,6.04,7.87,6.04,13.28,0,7.75-3.37,14.52-10.11,20.32-6.74,5.8-15.53,10.54-26.41,14.27-10.86,3.74-22.65,6.52-35.32,8.35-12.68,1.83-24.85,2.75-36.53,2.75-4.42,0-8.75-.1-12.98-.33s-8.15-.62-11.77-1.21c-1,1.76-2.92,2.63-5.74,2.63h.02v-.03ZM720.95,1145.04c10.46,0,21.17-.65,32.14-1.97,10.96-1.31,21.12-3.44,30.49-6.37,9.37-2.93,16.91-6.85,22.65-11.74,5.74-4.9,8.59-10.87,8.59-17.9-.2-4.98-2.56-9.04-7.09-12.19-4.52-3.15-10.32-5.57-17.36-7.24s-14.48-2.86-22.35-3.52c-7.85-.65-15.19-.99-22.04-.99-9.26,0-18.06.4-26.41,1.21-8.35.81-17.06,1.72-26.11,2.75-.21,1.9-.4,4.65-.6,8.24-.21,3.59-.3,7.57-.3,11.97,0,6.3.15,12.73.45,19.32s.75,12.15,1.35,16.69c7.64,1.18,16.5,1.76,26.56,1.76h.02ZM701.03,1080.26c2,0,6.19-.26,12.53-.76,6.34-.5,13.54-1.54,21.57-3.07,8.03-1.53,15.95-3.65,23.7-6.37,7.74-2.7,14.18-6.25,19.32-10.66,5.13-4.4,7.69-9.81,7.69-16.26,0-.73-.05-1.5-.15-2.31s-.26-1.65-.45-2.52c-2.02-4.68-5.89-8.63-11.62-11.87-5.74-3.22-12.33-5.84-19.77-7.91-7.45-2.04-14.84-3.65-22.19-4.82-7.35-1.17-13.54-1.97-18.56-2.42h-.3c-1,2.2-2.26,5.57-3.78,10.1-1.51,4.55-3.07,9.59-4.68,15.15-1.61,5.57-3.17,11.21-4.68,16.91s-2.77,10.9-3.78,15.59c-1,4.68-1.61,8.35-1.81,10.98.2,0,.9.03,2.12.1s2.82.1,4.82.1h.02-.02v.03Z"/>
    <path class="cls-7" d="M821.16,1220.58c-3.22,0-4.82-1.4-4.82-4.17,0-3.66,1.77-8.19,5.29-13.62,3.52-5.41,7.9-11.13,13.13-17.12,5.24-6,10.46-11.74,15.71-17.24,5.23-5.48,9.71-10.14,13.44-13.94s5.78-6.08,6.19-6.81c1.2-2.63,2.07-5.64,2.56-9s.75-6.95.75-10.76c0-7.32-.66-14.42-1.95-21.3-1.3-6.88-3.22-12.6-5.74-17.13-2.52-4.54-5.78-6.81-9.81-6.81-.81,0-1.61.03-2.42.1s-1.41.1-1.81.1c-.81,0-1.2-.37-1.2-1.1,0-.43.45-1.1,1.35-1.97s2.66-1.97,5.29-3.29c1-.59,2.15-1.61,3.48-3.07,1.3-1.46,2.66-2.86,4.08-4.17,1.4-1.31,2.72-1.97,3.92-1.97,3.02,0,5.74,2.23,8.15,6.69s4.38,10.17,5.89,17.13,2.26,14.24,2.26,21.85c0,1.76-.05,3.52-.15,5.28-.1,1.76-.15,3.52-.15,5.28,0,2.35.8,3.52,2.42,3.52,2,0,4.93-1.54,8.75-4.61s7.99-6.95,12.53-11.63c4.53-4.68,8.89-9.55,13.13-14.59s7.69-9.58,10.42-13.62c2.72-4.03,4.08-6.85,4.08-8.45,0-.88-.51-1.31-1.51-1.31-.6,0-1.3.16-2.12.43-.81.29-1.61.43-2.42.43-1,0-1.81-.37-2.42-1.1,0-1.31,1.46-2.75,4.38-4.28,2.92-1.54,6.19-2.86,9.81-3.95,3.62-1.1,6.54-1.65,8.75-1.65,1,0,1.7.09,2.12.22.6.59.9,1.4.9,2.42,0,2.2-1.46,5.41-4.38,9.66s-6.69,8.96-11.32,14.16c-4.63,5.2-9.67,10.54-15.09,16.04-5.44,5.48-10.76,10.69-16.01,15.59-5.25,4.91-9.81,9.15-13.74,12.74-3.92,3.59-6.69,6.03-8.29,7.35,0-1.02-.26-.76-.75.76-.51,1.54-1.11,3.59-1.81,6.15-.7,2.56-1.61,4.9-2.72,7.03-1.11,2.12-2.26,3.18-3.48,3.18-1,0-2.07-.19-3.17-.55s-1.87-.55-2.26-.55c-14.88,14.64-25.4,25.92-31.54,33.82-6.13,7.91-9.2,13.62-9.2,17.13,0,1.76.4,3.11,1.2,4.07.81.95,1.2,1.86,1.2,2.75,0,1.61-1.25,2.99-3.78,4.17-2.52,1.18-4.87,1.76-7.09,1.76l-.02-.03h-.02l.04-.02Z"/>
    <path class="cls-7" d="M1034.55,1148.56c-2.22,0-3.88-.22-4.98-.65-1.11-.43-1.65-1.39-1.65-2.86,0-3.95.45-9.69,1.35-17.24.9-7.54,2.12-15.99,3.62-25.36,1.51-9.37,3.22-19,5.13-28.88,1.92-9.87,3.87-19.33,5.89-28.32,2-9,3.92-16.72,5.74-23.17v-.44c0-.59-.15-1.05-.45-1.43-.3-.37-.45-.84-.45-1.43,0-.88.3-2.34.9-4.39.6-2.04,1.09-3.58,1.51-4.61h-1.81c-2.02,0-4.08.08-6.19.22s-3.98.22-5.59.22c-4.42-.14-6.64-.73-6.64-1.76,0-1.46,2.46-2.45,7.39-2.96,4.93-.51,9.81-.76,14.63-.76.6-2.49,2.66-4.54,6.19-6.15s7.8-2.42,12.83-2.42c3.22,0,4.82.88,4.82,2.63-1,1.76-1.87,2.88-2.56,3.4-.7.51-1.46,1.65-2.26,3.4,5.23.29,11.41.84,18.56,1.65,7.14.81,14.44,1.94,21.88,3.4,7.44,1.47,14.38,3.44,20.82,5.93s11.67,5.64,15.71,9.45c4.02,3.8,6.04,8.43,6.04,13.83,0,4.98-1.57,9.77-4.68,14.38s-7.15,8.82-12.08,12.62c-4.94,3.8-10.11,7.06-15.53,9.77-5.44,2.71-10.56,4.65-15.39,5.83-6.85,1.76-14.14,2.96-21.87,3.63-7.75.65-14.84.99-21.27.99-4.82,0-8.89-.1-12.23-.33s-5.48-.47-6.49-.76c-.6,2.49-1.26,6.22-1.95,11.21-.7,4.98-1.26,10.51-1.65,16.58-.4,6.08-.6,12.11-.6,18.12,0,3.66.3,6.69.9,9.12s.9,3.55.9,3.4c0,.74-.26,1.13-.75,1.21-.51.09-.86.33-1.05.76-.4.74-1.26,1.29-2.56,1.65-1.3.37-2.66.55-4.08.55h-.05v-.03h.01ZM1066.25,1081.58c2.82,0,5.64-.03,8.45-.1,2.81-.08,5.23-.18,7.24-.33,5.83-.43,12.23-1.67,19.17-3.74,6.94-2.04,13.48-4.79,19.62-8.24,6.13-3.44,11.16-7.51,15.09-12.19,3.92-4.68,5.89-9.96,5.89-15.8,0-5.12-2.52-9.5-7.54-13.17-5.03-3.65-11.36-6.7-19.01-9.12-7.64-2.42-15.53-4.28-23.7-5.6-8.15-1.31-15.45-2.2-21.87-2.63-1.41,2.2-3.07,5.57-4.98,10.1-1.92,4.55-3.78,9.66-5.59,15.37s-3.58,11.46-5.29,17.24c-1.71,5.79-3.12,11.06-4.22,15.8-1.11,4.76-1.87,8.45-2.26,11.08.6.43,2.82.76,6.64.99s7.94.33,12.38.33h-.01Z"/>
    <path class="cls-7" d="M1138.68,1148.78c-4.82,0-7.24-2.63-7.24-7.91,0-4.09,1.09-9.18,3.33-15.26,2.22-6.07,5.13-12.41,8.75-19,3.62-6.59,7.59-12.77,11.92-18.55,4.32-5.78,8.75-10.5,13.28-14.16,4.52-3.65,8.71-5.48,12.53-5.48h.9l3.33-1.76c1-.88,2.26-1.46,3.78-1.76,1.51-.29,3.07-.43,4.68-.43,4.02,0,8.25.59,12.68,1.76s7.44,1.76,9.06,1.76c1.4,0,2.46-.59,3.16-1.76s2.26-1.76,4.68-1.76c2.82,0,4.77.43,5.89,1.31,1.09.88,1.65,2.05,1.65,3.52,0,2.05-.81,4.43-2.42,7.14s-2.92,4.95-3.92,6.69c-.21.59-1.1,1.06-2.72,1.43s-2.62.84-3.02,1.43c-3.22,6.73-6.14,13.57-8.77,20.53-2.62,6.95-4.63,12.99-6.04,18.12-1.41,5.13-2.12,8.27-2.12,9.45,0,3.66,1.4,5.48,4.22,5.48,2.42,0,5.03-.76,7.84-2.31s5.59-3.25,8.29-5.16c2.72-1.9,4.98-3.63,6.8-5.16s2.82-2.31,3.02-2.31c.4,0,.6.29.6.88s-.3,1.47-.9,2.63c-.6,1.18-1.3,1.97-2.12,2.42-2.02,1.31-5.13,3.34-9.36,6.03-4.22,2.71-8.75,5.23-13.58,7.57-4.82,2.35-9.06,3.52-12.68,3.52-4.22,0-6.74-1.83-7.54-5.48,0-2.63.6-6.03,1.81-10.21,1.2-4.17,2.56-8.45,4.08-12.84,1.51-4.39,2.86-8.05,4.08-10.98-3.02,2.93-6.9,6.66-11.62,11.21s-9.86,9.04-15.39,13.5c-5.55,4.47-11.02,8.24-16.45,11.31s-10.27,4.61-14.48,4.61l-.03-.02h.05ZM1148.33,1138.45c2,0,4.68-.99,7.99-2.96,3.33-1.97,6.94-4.5,10.86-7.57s7.64-6.15,11.16-9.22,6.54-5.83,9.06-8.24c2.52-2.42,4.08-3.91,4.68-4.5,3.22-3.8,6.38-7.94,9.51-12.41,3.12-4.46,5.68-8.56,7.69-12.29,2-3.74,3.02-6.33,3.02-7.8,0-.88-.51-1.31-1.51-1.31h-.9c-2.02,0-4.08-.14-6.19-.43s-4.57-.43-7.39-.43-5.85.29-9.06.88c-1.81.29-4.38,2.08-7.69,5.38s-6.94,7.43-10.86,12.41c-3.92,4.97-7.64,10.29-11.16,15.91-3.52,5.64-6.44,11.02-8.75,16.14-2.32,5.13-3.47,9.37-3.47,12.74,0,2.49,1,3.74,3.02,3.74v-.03.02h-.01Z"/>
    <path class="cls-7" d="M1251.56,1149.87c-5.24,0-9.6-1.24-13.13-3.74s-5.29-6.43-5.29-11.87,1.3-11.16,3.92-17.67c2.61-6.51,5.94-12.89,9.97-19.11,4.02-6.22,8.1-11.56,12.23-16.04s7.8-7.22,11.02-8.24c6.24-1.61,11.06-3.25,14.48-4.95,3.42-1.67,7.64-2.52,12.68-2.52,4.02,0,7.39.74,10.11,2.2,2.72,1.47,4.08,4.17,4.08,8.12v1.65c0,.51-.1,1.13-.3,1.86-.6,2.63-1.81,4.68-3.62,6.15-1.81,1.47-3.52,2.2-5.13,2.2-2.42,0-3.62-1.31-3.62-3.95,0-1.46.4-3.11,1.2-4.95s1.2-3.47,1.2-4.95c0-2.34-1.71-3.52-5.13-3.52-1.81,0-4.28.62-7.39,1.86-3.12,1.24-6.14,2.68-9.06,4.28-2.92,1.61-5.09,2.93-6.49,3.95-1.61,1.18-3.92,3.89-6.94,8.12-3.02,4.26-6.08,9.22-9.2,14.94-3.12,5.7-5.78,11.39-7.99,17.01-2.22,5.64-3.33,10.42-3.33,14.38,0,5.41,2.92,8.12,8.75,8.12,6.44,0,12.38-1.29,17.8-3.84s10.32-5.48,14.63-8.78c4.32-3.29,7.8-6.22,10.42-8.78,2.61-2.56,4.22-3.91,4.82-4.07,1,.29,1.51.81,1.51,1.54,0,1.47-1.46,3.84-4.38,7.14-2.92,3.29-6.85,6.73-11.77,10.32-4.94,3.59-10.52,6.68-16.75,9.22-6.25,2.56-12.68,3.84-19.32,3.84h.04v.05Z"/>
    <path class="cls-7" d="M1315.85,1149.44c-3.82,0-5.74-1.31-5.74-3.95,0-1.31.4-2.86,1.2-4.61,4.42-9.22,8.04-16.8,10.86-22.72,2.82-5.93,5.03-10.61,6.64-14.05s2.72-6.07,3.33-7.91c.6-1.83.9-3.33.9-4.5,0-.73-.15-1.24-.45-1.54s-.45-.73-.45-1.31.3-1.54.9-2.86c4.22-8.93,8.04-15,11.46-18.22,3.42-3.22,8.55-4.82,15.39-4.82,2.82,0,4.32.65,4.52,1.97-2.02,2.78-5.29,7.33-9.81,13.62-4.52,6.3-9.32,14.09-14.33,23.39-5.03,9.3-9.46,19.95-13.28,31.95-.21.43-.3,1.02-.3,1.76,0,1.76,1,2.63,3.02,2.63,1.2,0,3.12-.55,5.74-1.65,2.61-1.1,5.33-2.2,8.15-3.29s4.93-1.65,6.34-1.65,2.22.29,2.42.88c0,.88-1.51,2.23-4.52,4.07s-6.64,3.74-10.86,5.7c-4.22,1.97-8.29,3.66-12.23,5.05-3.92,1.39-6.9,2.08-8.89,2.08v-.02l.02.03v-.02ZM1360.22,1049.52c-2.82,0-4.52-.76-5.13-2.31-.6-1.54-.9-3.18-.9-4.95,0-2.2,1.51-4.5,4.52-6.91,3.03-2.42,6.59-4.46,10.72-6.15,4.12-1.67,7.59-2.52,10.42-2.52,1,0,1.61.22,1.81.65,0,1.61-.86,3.15-2.56,4.61-1.71,1.47-3.58,2.93-5.59,4.39-2.02,1.47-3.62,3.15-4.82,5.05-.81,1.47-1.81,3.07-3.02,4.82-1.2,1.76-3.03,2.86-5.44,3.29h.02l-.03.02Z"/>
    <path class="cls-7" d="M1327.31,1193.57c-7.04,0-12.23-.95-15.53-2.86-3.33-1.9-5.44-4.26-6.34-7.03-.9-2.78-1.35-5.35-1.35-7.68,0-4.26.86-8.09,2.56-11.53,1.71-3.44,3.26-5.16,4.68-5.16.81,0,1.3.43,1.51,1.31-.2,1.02-.35,2.04-.45,3.07-.09,1.02-.15,2.04-.15,3.07,0,6.88,1.87,12.33,5.59,16.36,3.72,4.03,8.1,6.03,13.13,6.03,4.63,0,9.46-1.8,14.48-5.38,5.03-3.59,9.76-9.33,14.18-17.24,2.61-4.68,5.59-10.58,8.89-17.67,3.33-7.1,6.64-14.6,9.97-22.51s6.49-15.48,9.5-22.72c3.03-7.24,5.59-13.5,7.69-18.77,2.12-5.28,3.47-8.72,4.08-10.32h-19.62c-4.82,0-7.24-.65-7.24-1.97,0-1.02,1.3-2.12,3.92-3.29s4.62-1.76,6.04-1.76h19.32c.6-1.31,1.65-3.77,3.16-7.35,1.51-3.58,3.22-7.57,5.13-11.97s3.78-8.48,5.59-12.29c1.81-3.8,3.12-6.59,3.92-8.35,4.22-8.48,10.21-14.71,17.96-18.66,7.74-3.95,17.75-5.93,30.03-5.93,7.84,0,14.03,1.35,18.56,4.07s7.8,5.93,9.81,9.66c2,3.74,3.02,7.22,3.02,10.42,0,3.8-.96,6.73-2.86,8.78-1.92,2.05-4.12,3.47-6.64,4.28-2.52.81-4.68,1.21-6.49,1.21-1.2,0-2.47-.33-3.78-.99s-1.95-1.79-1.95-3.4c0-1.9.8-3.98,2.42-6.25,1.61-2.26,3.16-4.28,4.68-6.03,1.51-1.76,2.26-2.93,2.26-3.52,0-1.61-1.1-3.47-3.33-5.6-2.22-2.13-5.03-3.99-8.45-5.6-3.43-1.61-6.94-2.42-10.56-2.42-6.64,0-11.97,1.13-16.01,3.4-4.03,2.26-7.2,5.01-9.5,8.24-2.32,3.22-4.28,6.3-5.89,9.22-2.42,4.55-4.72,9.33-6.94,14.38-2.22,5.06-4.22,9.77-6.04,14.16-1.81,4.39-3.33,7.98-4.52,10.76,2.22,0,4.68.09,7.39.22,2.72.14,5.48.22,8.29.22,3.42,0,6.9-.33,10.42-.99s5.89-.99,7.09-.99c.8,0,1.2.14,1.2.43,0,2.2-2.17,3.8-6.49,4.82-4.33,1.02-9.36,1.65-15.09,1.86-5.74.22-10.82.33-15.23.33-.6,1.02-1.77,3.7-3.47,8.02-1.71,4.31-3.78,9.55-6.19,15.7-2.41,6.15-4.98,12.6-7.69,19.32-2.72,6.73-5.39,13.17-7.99,19.33-2.62,6.15-4.82,11.34-6.64,15.59-4.82,11.12-10.42,19.73-16.75,25.8-6.34,6.07-12.79,10.29-19.32,12.62-6.54,2.34-12.53,3.52-17.96,3.52v-.02.02h0ZM1438.68,1149.44c-3.82,0-5.74-1.31-5.74-3.95,0-1.31.4-2.86,1.2-4.61,4.42-9.22,8.04-16.8,10.86-22.72,2.82-5.93,5.03-10.61,6.64-14.05s2.72-6.07,3.33-7.91c.6-1.83.9-3.33.9-4.5,0-.73-.15-1.24-.45-1.54s-.45-.73-.45-1.31.3-1.54.9-2.86c4.22-8.93,8.04-15,11.46-18.22,3.42-3.22,8.55-4.82,15.39-4.82,2.82,0,4.32.65,4.52,1.97-2.02,2.78-5.29,7.33-9.81,13.62-4.52,6.3-9.3,14.09-14.33,23.39-5.03,9.3-9.46,19.95-13.28,31.95-.21.43-.3,1.02-.3,1.76,0,1.76,1,2.63,3.03,2.63,1.2,0,3.12-.55,5.74-1.65,2.61-1.1,5.33-2.2,8.15-3.29s4.93-1.65,6.34-1.65,2.22.29,2.42.88c0,.88-1.51,2.23-4.52,4.07-3.02,1.83-6.64,3.74-10.86,5.7-4.22,1.97-8.29,3.66-12.23,5.05s-6.9,2.08-8.89,2.08v-.02.03h0v-.02Z"/>
    <path class="cls-7" d="M1527.71,1197.3c-4.03,0-6.34-1.83-6.94-5.48,0-2.93.9-7.1,2.72-12.52,1.81-5.41,4.17-11.41,7.09-18,2.92-6.59,6.04-13.21,9.37-19.87,3.33-6.66,6.44-12.81,9.36-18.45,2.92-5.64,5.29-10.21,7.09-13.73-3.22,2.93-7.5,6.68-12.83,11.21-5.33,4.55-11.12,9.04-17.36,13.5-6.24,4.47-12.33,8.24-18.26,11.31-5.94,3.07-11.02,4.61-15.23,4.61-4.63,0-6.94-2.26-6.94-6.81,0-3.95,1.35-9,4.08-15.15,2.72-6.15,6.28-12.65,10.72-19.54,4.42-6.88,9.26-13.36,14.48-19.43,5.23-6.07,10.42-11.02,15.53-14.83,5.13-3.8,9.71-5.7,13.74-5.7h.9l3.33-1.76c1-.88,2.26-1.46,3.78-1.76,1.51-.29,3.07-.43,4.68-.43,4.02,0,8.25.59,12.68,1.76,4.43,1.18,7.34,1.76,8.75,1.76s2.56-.59,3.47-1.76c.9-1.18,2.56-1.76,4.98-1.76,5.44,0,8.15,1.83,8.15,5.48,0,2.05-.7,4.36-2.12,6.91-1.41,2.56-2.62,4.65-3.62,6.25-.21.59-1.1,1.06-2.72,1.43s-2.62.84-3.03,1.43c-8.86,15.37-17.26,30.48-25.2,45.33-7.94,14.86-14.54,30.48-19.77,46.88-.81,2.34-1.2,4.39-1.2,6.15,0,2.63,1.09,3.95,3.33,3.95,2.42,0,5.13-.76,8.15-2.31,3.03-1.54,5.99-3.37,8.89-5.48,2.92-2.13,5.48-3.95,7.69-5.48,2.22-1.54,3.72-2.31,4.52-2.31,1,0,1.51.51,1.51,1.54,0,.88-.35,1.83-1.05,2.86s-1.26,1.61-1.65,1.76c-1.61,1.02-4.08,2.52-7.39,4.5-3.31,1.98-7.04,4.03-11.16,6.15-4.12,2.13-8.15,3.95-12.08,5.48s-7.39,2.31-10.42,2.31v-.03h.03l-.03.03ZM1505.09,1138.45c2,0,4.77-.99,8.29-2.96s7.34-4.5,11.46-7.57,8.1-6.15,11.92-9.22c3.82-3.07,7.14-5.83,9.97-8.24,2.82-2.42,4.52-3.91,5.13-4.5,3.62-3.95,7.2-8.19,10.72-12.74,3.52-4.54,6.44-8.63,8.75-12.29,2.31-3.65,3.47-6.22,3.47-7.68,0-.73-.4-1.1-1.2-1.1h-.9c-2.02,0-4.08-.18-6.19-.55-2.12-.37-4.57-.55-7.39-.55-1.41,0-2.82.09-4.22.22-1.41.16-3.02.43-4.82.88-1.41.16-3.98,1.9-7.69,5.28-3.73,3.37-7.84,7.61-12.38,12.74-4.52,5.13-8.89,10.54-13.13,16.26-4.22,5.7-7.69,11.13-10.42,16.26-2.72,5.13-4.08,9.37-4.08,12.74,0,2.05.9,3.07,2.72,3.07v-.03h0Z"/>
    <path class="cls-7" d="M1630.95,1161.95c-2.62,0-3.92-.81-3.92-2.42,0-1.47,1.51-2.96,4.52-4.5s5.23-3.47,6.64-5.83c.6-1.18,1.81-3.98,3.62-8.45,1.81-4.46,3.87-9.58,6.19-15.37,2.31-5.78,4.42-11.31,6.34-16.58,1.92-5.27,3.37-9.29,4.38-12.08-2.22,2.49-5.59,5.89-10.11,10.21-4.52,4.32-9.6,8.94-15.23,13.83-5.64,4.91-11.42,9.59-17.36,14.05-5.94,4.47-11.51,8.12-16.75,10.98s-9.67,4.28-13.28,4.28c-2.82,0-4.22-1.31-4.22-3.95,0-2.2,1.09-5.35,3.33-9.45,1.2-2.04,3.07-5.05,5.59-9,2.52-3.95,5.13-8.24,7.84-12.84s5.03-8.93,6.94-12.95,2.86-7.14,2.86-9.33c0-1.02-.21-1.72-.6-2.08s-.6-.92-.6-1.65c0-.29.05-.62.15-.99s.26-.84.45-1.43c2.22-6,4.28-10.69,6.19-14.05s4.28-5.7,7.09-7.03c2.82-1.31,6.64-1.97,11.46-1.97,2.82,0,4.52.65,5.13,1.97-.81,1.47-2.52,4.5-5.13,9.12-2.62,4.61-5.69,10.03-9.2,16.26-3.52,6.22-6.94,12.38-10.27,18.45-3.33,6.07-6.08,11.34-8.29,15.8-2.22,4.47-3.33,7.22-3.33,8.24,0,.59.3.88.9.88.8,0,1.85-.37,3.17-1.1,1.3-.73,2.66-1.54,4.08-2.42,11.87-6.59,22.13-14.02,30.79-22.29,8.64-8.26,16.1-16.65,22.35-25.14.2-2.2.95-4.98,2.26-8.35,1.31-3.37,3.57-6.37,6.8-9,3.22-2.63,7.44-3.95,12.68-3.95,2.22,0,3.42.65,3.62,1.97-1,2.35-3.07,6.52-6.19,12.52s-6.39,12.52-9.81,19.54c-1.61,3.52-3.42,7.65-5.44,12.41s-3.98,9.55-5.89,14.38c-1.92,4.82-3.47,9.08-4.68,12.74-1.21,3.66-1.81,6.08-1.81,7.24,0,.43.2.65.6.65,1.81-.14,4.28-1.1,7.39-2.86s6.38-3.55,9.81-5.38c3.42-1.83,6.24-2.75,8.45-2.75.4,0,.9.09,1.51.22.6.16.9.43.9.88,0,.88-1.41,2.13-4.22,3.74-2.82,1.61-6.19,3.29-10.11,5.05s-7.54,3.37-10.86,4.82-5.59,2.49-6.8,3.07c-2.02,1.18-4.18,2.7-6.49,4.61-2.32,1.9-4.57,3.58-6.8,5.05s-4.42,2.2-6.64,2.2h0v.02h-.01Z"/>
    <path class="cls-7" d="M1709.11,1150.31c-2.42,0-5.17-.41-8.29-1.21-3.12-.81-5.85-2.26-8.15-4.39-2.32-2.12-3.47-5.16-3.47-9.12,0-1.61.3-3.52.9-5.7,2-7.32,3.98-12.89,5.89-16.69s3.07-6.88,3.47-9.22c-.6-.14-1.51-.51-2.72-1.1-1.2-.59-1.81-1.39-1.81-2.42s.6-1.67,1.81-1.97,2.31-.43,3.33-.43h2.12c1.61-2.49,3.37-5.19,5.29-8.12s4.77-6.88,8.59-11.87c3.42-4.68,7.89-7.8,13.44-9.33,5.52-1.54,11.81-2.31,18.86-2.31s11.57,4.47,14.18,13.4c1.2,4.55,1.81,8.19,1.81,10.98,0,3.52-1.57,6.3-4.68,8.35-3.12,2.05-6.94,3.59-11.46,4.61-4.52,1.02-9.01,1.72-13.44,2.08s-7.94.55-10.56.55-4.87-.03-6.8-.1-3.26-.1-4.08-.1c-3.03,5.57-5.44,10.9-7.24,16.04-1.81,5.13-2.72,9.45-2.72,12.95,0,5.86,3.02,8.78,9.06,8.78,3.62,0,7.39-1.18,11.32-3.52,3.92-2.34,7.69-5.05,11.32-8.12s6.74-5.78,9.36-8.12c2.62-2.34,4.32-3.52,5.13-3.52,1.4,0,2.12.59,2.12,1.76,0,2.05-1.61,4.65-4.82,7.8-3.22,3.15-7.2,6.25-11.92,9.33-4.72,3.07-9.46,5.64-14.18,7.68-4.72,2.04-8.59,3.07-11.62,3.07v-.03l-.02-.03h0v.04ZM1728.12,1100.47c7.64,0,13.44-.62,17.36-1.86,3.92-1.24,5.99-3.99,6.19-8.24,0-6-1.05-10.24-3.16-12.74-2.12-2.49-4.08-3.74-5.89-3.74-2.42,0-4.98,1.06-7.69,3.18-2.72,2.13-5.33,4.65-7.84,7.57-2.52,2.93-4.79,5.83-6.8,8.67-2.02,2.86-3.42,5.09-4.22,6.69,1,0,2.62.08,4.82.22s4.62.22,7.24.22h0v.02Z"/>
  </g>
</svg>