<?xml version="1.0" encoding="UTF-8"?>
<svg id="Layer_1" data-name="Layer 1" xmlns="http://www.w3.org/2000/svg" viewBox="0 0 2284.86 1337.04">
  <defs>
    <style>
      .cls-1, .cls-2 {
        fill: #ed1c24;
      }

      .cls-3, .cls-4, .cls-5 {
        opacity: .6;
      }

      .cls-3, .cls-6, .cls-7, .cls-8, .cls-9, .cls-10, .cls-5, .cls-11 {
        stroke: #000;
        stroke-miterlimit: 10;
      }

      .cls-3, .cls-7, .cls-8, .cls-5, .cls-11 {
        stroke-width: 6px;
      }

      .cls-2 {
        stroke: #ef3940;
        stroke-width: 14px;
      }

      .cls-12 {
        opacity: .9;
      }

      .cls-13 {
        opacity: .7;
      }

      .cls-14 {
        opacity: .65;
      }

      .cls-6 {
        stroke-width: 8px;
      }

      .cls-8, .cls-9 {
        opacity: .8;
      }

      .cls-9 {
        stroke-width: 5px;
      }

      .cls-10 {
        stroke-width: 7px;
      }

      .cls-10, .cls-5, .cls-11 {
        fill: none;
      }

      .cls-10, .cls-11 {
        isolation: isolate;
        opacity: .45;
      }
    </style>
  </defs>
  <g class="cls-14">
    <g class="cls-13">
      <g>
        <g>
          <path class="cls-1" d="M82.81,214.57c-.65,9.07-1.18,18.22-1.38,27.3-.11,4.54-.15,9.06-.15,13.53-.02,4.47-.06,8.9-.03,13.26.02,4.64-.14,9.18-.43,13.64-.14,2.23-.32,4.44-.53,6.63-.22,2.19-.49,4.36-.77,6.52-1.13,8.63-2.61,17.02-4.06,25.38-3.13,16.7-6.08,33.25-6.54,51.37-.12,5.68-.38,11.34-.87,16.97-.51,5.63-1.16,11.24-1.9,16.83-.76,5.59-1.55,11.19-2.52,16.76-.97,5.57-2,11.15-3.03,16.73-1.06,5.58-2.03,11.19-3.16,16.79-1.1,5.61-2.16,11.24-3.16,16.91-1.92,11.35-3.87,22.79-5.1,34.53-4.69,43.07-10.37,86.68-17.86,130.53-3.69,21.92-7.65,43.9-11.72,65.86-2.06,11-4.11,21.98-6.17,32.96l-1.55,8.24-1.49,8.37c-1.07,5.58-1.89,11.18-2.82,16.77-3.28,20.7-5.26,41.29-6.39,61.7-1.12,20.41-1.38,40.62-1.05,60.66.68,40.07,3.64,79.4,7.71,118.33,2.04,19.47,4.37,38.84,6.91,58.18l1.97,14.65,3.24,21.14c1.23,7.5,2.46,15,3.68,22.5,1.31,7.59,2.62,15.18,3.92,22.77,5.38,30.59,11.34,61.25,17.51,93.93,3.2,16.84,6.4,33.71,9.62,50.63.84,4.42,1.68,8.84,2.52,13.26l1.27,6.71.16.84.08.42c.03.13.06.31.08.36l.27.89.54,1.8c.72,2.42,1.44,4.91,2.16,7.49l.54,1.95.69,2.61,1.5,5.77c1.76-5.21,3.57-10.58,5.39-15.97,4.08-12.16,8.2-24.42,12.34-36.78,4.22-12.7,8.48-25.49,12.76-38.36,1.07-3.24,2.14-6.48,3.21-9.73l1.6-4.82,1.55-4.56c2.08-6.17,4.17-12.35,6.26-18.56l1.58-4.72c.26-.84.53-1.47.81-2.14l.82-2.01c1.09-2.7,2.19-5.41,3.28-8.11,1.1-2.73,2.2-5.47,3.31-8.21l1.66-4.14c.56-1.38,1.1-2.81,1.69-4.05,2.32-5.2,4.64-10.41,6.97-15.63,1.17-2.64,2.34-5.28,3.52-7.93,1.2-2.61,2.4-5.23,3.6-7.85,4.64-10.15,9.3-20.33,13.97-30.55,3.31-7.2,6.63-14.43,9.96-21.67,1.35-2.9,2.66-5.91,3.99-8.88,1.31-2.99,2.66-5.92,3.94-8.98,2.57-6.1,5.17-12.15,7.59-18.48,2.51-6.19,4.8-12.74,7.1-19.23,1.13-3.29,2.16-6.72,3.23-10.07l.79-2.53.4-1.27.2-.64.19-.73,1.51-5.82c2.02-7.75,3.36-15.92,4.29-24.1,1.68-16.41.56-32.86-1.18-46.21l-.65-4.98-.65-4.69c-.42-2.98-.83-5.95-1.24-8.91l-.54-4.15c-.17-1.36-.38-2.78-.5-4.06-.27-2.6-.62-5.27-.78-7.74-.36-3.71-.5-7.53-.58-11.56.03-4.86.06-9.96.1-15.26,0-3.08.06-6.23.03-9.4-.12-3.15-.24-6.35-.37-9.6-.06-1.62-.13-3.26-.19-4.91-.03-.82-.07-1.65-.1-2.48-.06-.82-.12-1.64-.19-2.46-.26-3.29-.53-6.61-.8-9.98-.14-1.68-.27-3.37-.41-5.07-.19-1.67-.38-3.35-.57-5.04-.39-3.37-.79-6.77-1.19-10.2-.18-1.73-.43-3.41-.68-5.1s-.5-3.39-.75-5.1c-.51-3.4-.99-6.86-1.55-10.26-2.28-13.56-4.85-27.21-7.67-40.33-2.78-13.23-5.7-25.97-8.55-38.24-2.79-12.02-5.49-23.67-8.04-34.67-5-21.65-8.98-40.14-12.45-53.87,2.25,18.59,5.6,37.74,9.44,57.47s8.14,40.02,12.1,60.88c3.96,20.85,7.57,42.28,9.89,64.13,2.32,21.84,3.3,44.13,2.04,66.27-.06-24.31-2.68-48.13-6.48-71.22-3.81-23.11-8.78-45.54-13.73-67.51-4.95-21.97-9.9-43.5-13.8-64.76-.96-5.31-1.8-10.59-2.71-15.89l-2.22-15.78-1.66-15.9c-.58-6.86-1.64-13.19-2.77-19.35-1.15-6.16-2.48-11.99-3.83-17.69-1.35-5.71-2.75-11.2-4.09-16.6-2.69-10.77-5.19-21.05-6.87-30.78-1.66-9.67-2.5-18.84-1.78-26.42.34-3.8.95-7.25,2.01-10.19,1.03-2.97,2.37-5.58,4.13-8.07.49-.6.96-1.21,1.41-1.84.54-.59,1.12-1.16,1.66-1.76.49-.63,1.21-1.16,1.84-1.73.67-.56,1.22-1.19,2.01-1.7.74-.54,1.48-1.09,2.21-1.65l.28-.21.5-.34,1-.67,1.99-1.35c1.33-.88,2.64-1.85,3.95-2.8,1.31-.94,2.61-1.91,3.9-2.93,10.29-7.98,20.06-17.65,27.79-29.28,7.75-11.57,13.15-25.01,15.56-38.34,2.46-13.35,2.32-26.37.94-38.46,1.05,10.27,1.24,21.11-.27,32.24-1.49,11.11-4.84,22.48-10.14,32.9-5.25,10.47-12.38,19.78-20.24,27.74-3.94,4-8.1,7.6-12.35,10.99-4.25,3.39-8.64,6.41-13.07,9.32-10.83,7.48-15.3,15.08-16.65,28.24l-.14,1.2-.05,1.27-.13,2.54.02,2.66v1.33l.07,1.38.13,2.77.25,2.86c.13,1.88.43,3.88.65,5.83,1.04,7.91,2.77,16.27,4.7,24.87,2.08,8.94,4.16,17.89,6.24,26.82,2.09,9.3,4.11,18.98,5.4,29.5.35,2.59.57,5.32.81,8.03l.58,6.65.55,6.46c.1,1.08.17,2.15.29,3.23l.39,3.25c.54,4.34.99,8.66,1.59,13.01l1.91,13.08c2.78,17.49,6.19,35.15,9.68,53.01,3.48,17.87,7.1,35.94,10.13,54.37,3.03,18.41,5.52,37.13,6.83,56.12l.75,14.28c.04,4.79.08,9.58.13,14.37.06,2.38-.08,4.8-.17,7.2l-.3,7.2-.32,6.88-.34,6.14c-.25,8.21.02,16.51.63,25.11.6,8.6,1.56,17.55,2.17,27.01.62,9.43.79,19.37-.13,29.28-.28,2.48-.52,4.95-.87,7.41l-1.26,7.33c-1.07,4.82-2.14,9.63-3.65,14.25l-1.06,3.49c-.35,1.17-.77,2.21-1.15,3.31l-2.36,6.53-1.19,3.25-1.28,3.19-2.56,6.36c-3.49,8.42-7.17,16.67-11,24.79-1.87,4.09-3.87,8.08-5.82,12.1-1.94,4.02-3.95,7.99-5.95,11.95-2.13,4.22-4.26,8.43-6.39,12.63-2.24,4.38-4.47,8.75-6.7,13.12-8.95,17.39-17.25,33.14-24.53,47.19-1.84,3.44-3.57,6.74-5.29,9.77-1.74,2.93-3.25,6.11-4.81,9.06-1.57,2.94-2.94,5.82-4.31,8.53-1.41,2.7-2.6,5.32-3.77,7.79l-1.46,3.08-1.27,2.97-1.22,2.81-.15.34-.07.17-.02.04s-.01.03-.02-.03l-.03-.21-.22-1.64-.43-3.26c-1.16-8.65-2.19-16.95-3.12-24.88-1.85-15.87-3.24-30.28-4.19-43.11,1.59,10.81,3.38,22.36,5.4,34.71,1.07,6.34,2.14,12.72,3.22,19.14l.43,2.48.21,1.25.05.31s.05-.11.07-.16l.14-.4c.38-1.09.76-2.18,1.14-3.28.39-1.12.78-2.23,1.17-3.35.41-1.12.88-2.24,1.32-3.38,5.04-12.93,11.67-27.02,19.22-42.56,3.97-8.1,7.97-16.25,11.98-24.43,2.13-4.37,4.27-8.76,6.41-13.16,1.1-2.3,2.21-4.6,3.32-6.9l1.69-3.54,1.75-3.73c2.33-4.97,4.67-9.96,6.93-15,1.14-2.51,2.27-5.03,3.41-7.55,1.1-2.54,2.2-5.07,3.31-7.61,2.26-5.07,4.28-10.23,6.41-15.38,1.09-2.57,2-5.2,3.01-7.8.96-2.62,2.03-5.21,2.91-7.86,1.78-5.3,3.7-10.58,5.13-16.04.85-2.7,1.36-5.48,2-8.24.69-2.76,1.01-5.58,1.49-8.39.1-.7.24-1.41.32-2.11l.21-2.13.42-4.26c.15-1.42.15-2.85.23-4.28.05-1.43.15-2.86.16-4.29.03-5.72-.12-11.47-.59-17.17-.84-11.42-2.32-22.7-3.03-33.91l-.26-4.21c-.09-1.4-.1-2.8-.16-4.2l-.14-4.2v-4.19c.02-1.4,0-2.79.04-4.19l.18-4.18.34-8.54c1.1-23.25-.45-46.62-3.38-69.71-5.85-46.22-17.05-91.3-23.67-136.12-1.63-11.2-3.06-22.39-3.99-33.54l-.66-8.36c-.22-2.64-.45-5.95-.75-8.96-.62-6.12-1.61-12.03-2.68-17.86-2.18-11.64-4.9-22.83-7.34-33.83-2.45-10.99-4.7-21.79-5.95-32.35-.66-5.28-.97-10.47-.95-15.53.03-5.06.4-10,1.41-14.61,1.94-9.27,5.96-17.38,12.56-23.78,1.54-1.69,3.44-3.08,5.2-4.61l2.93-2.04.73-.51c.26-.18.44-.32.79-.54l1.87-1.23c4.98-3.27,9.83-6.81,14.42-10.75,9.17-7.83,17.39-17.2,23.39-27.96,6-10.75,9.61-22.71,10.89-34.49,1.32-11.81.63-23.39-1-34.47-1.63-11.1-4.16-21.77-6.89-32.2-2.74-10.42-5.72-20.6-8.43-30.73s-5.18-20.21-6.84-30.37-2.5-20.43-1.77-30.69c1.3-20.5,2.42-40.7,3.81-60.63.5-6.56.91-13.34,1.47-20.14.28-3.4.46-6.83.78-10.23.28-3.41.57-6.81.85-10.18.23-3.38.62-6.71.91-10.01.32-3.29.55-6.56.9-9.73.33-3.19.64-6.31.95-9.33.14-1.52.29-3.01.43-4.48.17-1.47.33-2.91.49-4.33-3.3,21.81-5.61,43.82-7.4,66.05-1.79,22.23-3.14,44.66-4.66,67.34-.18,2.85-.42,5.64-.55,8.56-.16,2.89-.15,5.79-.09,8.67.17,5.77.74,11.5,1.56,17.2,1.66,11.39,4.37,22.59,7.32,33.8,2.96,11.21,6.2,22.43,9.05,33.91,2.84,11.47,5.35,23.22,6.52,35.4,1.17,12.14.95,24.82-2.05,37.28-1.47,6.22-3.7,12.32-6.55,18.14-2.84,5.83-6.43,11.28-10.46,16.33-8.1,10.11-18.1,18.4-28.73,25.28l-2,1.29-1.71,1.17-1.69,1.15c-.56.39-1.15.74-1.65,1.19l-3.13,2.55c-.99.89-1.91,1.86-2.87,2.77-3.68,3.81-6.71,8.13-8.97,12.9-2.26,4.76-3.76,9.96-4.63,15.4-.87,5.44-1.04,11.13-.86,16.88.2,5.76.79,11.59,1.63,17.46.87,5.87,1.95,11.78,3.15,17.72,2.4,11.88,5.27,23.85,7.67,36.13,1.19,6.14,2.29,12.36,3.08,18.69l.52,4.78c.17,1.59.25,3.22.38,4.82l.65,9.18c3.33,48.64,14.92,97.07,22.56,145.9,1.03,6.09,1.79,12.23,2.67,18.34.46,3.05.76,6.13,1.13,9.19l1.05,9.18.78,9.2.38,4.59c.14,1.53.25,3.06.31,4.6l.42,9.19.21,4.59.02,4.59.03,9.16v2.29l-.1,2.29-.21,4.56c-.29,6.13-.58,12.24-.87,18.36-.34,12.35.53,24.71,1.65,36.83,1.11,12.12,2.26,24.01,1.83,35.6-.44,11.58-2.42,22.85-5.83,33.72-3.55,11-7.68,22-12.29,32.74-4.5,10.78-9.41,21.41-14.34,31.97-1.26,2.64-2.51,5.27-3.77,7.9l-1.88,3.94-1.56,3.11c-1.01,1.99-2.01,3.98-3.01,5.96l-1.43,2.78-1.36,2.61c-3.4,6.46-6.78,12.88-10.13,19.26-6.29,11.89-11.51,21.97-15.27,30.62-.22.51-.44,1-.66,1.5-.42.97-.77,1.95-1.15,2.89l-.55,1.4-.27.69c-.03.14-.04-.11-.06-.19l-.05-.34-.1-.67-1.54-10.48c-.98-6.8-1.86-13.23-2.65-19.31-1.57-12.15-2.76-22.86-3.64-32.26-.43-4.77-.86-9.54-1.28-14.31-1.22-9.84-2.45-19.69-3.67-29.55-2.42-20.32-4.57-40.66-6.37-61-3.59-40.67-5.86-81.39-5.79-121.79.04-20.2.69-40.31,2.22-60.19.79-9.93,1.7-19.83,2.97-29.61l.94-7.34c.33-2.44.74-4.85,1.11-7.28l.56-3.64c.19-1.22.35-2.4.59-3.69l1.3-7.6c8.8-43.87,19.49-88.31,29.34-133.62,1.25-5.83,2.5-11.66,3.74-17.49,1.19-5.86,2.37-11.73,3.56-17.59,1.17-5.87,2.38-11.73,3.51-17.62l3.28-17.67c1.06-5.9,2.22-11.78,3.2-17.69l2.99-17.74c2.05-11.82,3.76-23.69,5.56-35.55,6.98-47.47,12.23-95.18,15.56-142.83.67-10.58,1.41-22.19,2.18-34.48.3-6.15.6-12.47.91-18.91.28-6.44.65-13,.8-19.65.36-13.29.79-26.89.72-40.46,0-6.78-.02-13.55-.08-20.26-.15-6.71-.34-13.37-.58-19.91-.4-13.1-1.29-25.78-2.32-37.68-.28-2.97-.55-5.9-.82-8.77-.3-2.87-.66-5.69-1.01-8.44-.71-5.51-1.47-10.78-2.3-15.76-1.6-9.96-3.7-18.78-5.99-26.08-2.3-7.3-4.88-13.1-7.77-17.03-.36,26.91,2.67,56.69.67,82.57-.96-4.91-2.03-10.17-3.01-15.65-1.04-5.48-2.03-11.17-2.73-16.95.04,5.5-.1,11.3-.13,17.01-.09,5.71-.02,11.32.57,16.45-1.1-8.51-2.36-17.18-4.7-20.45-.29,6.6.23,14.58,1.08,22.23.82,7.64,1.94,14.95,2.45,20.17.33,3.06,1.65,11.63,2.74,20.46.27,2.21.53,4.43.76,6.58.2,2.15.37,4.24.48,6.18.23,3.87.27,7.14-.03,9.14-.88-5.25-1.69-10.84-2.57-16.53-.92-5.68-1.86-11.48-2.78-17.15-.96-5.67-1.91-11.21-2.99-16.39-1.11-5.18-2.27-10.01-3.52-14.25-.13,3.58-.14,7.15-.18,10.69-.02,1.77-.05,3.54-.12,5.29-.09,1.76-.21,3.5-.37,5.24-.87-4.33-1.52-10.71-2.24-16.56-.72-5.85-1.53-11.16-2.85-13.36.03,8.89.4,17.27.66,25.74.18,8.46.3,17.01,0,26.23-.06,1.87-.13,3.71-.19,5.54-.09,1.82-.18,3.63-.27,5.42-.17,3.58-.33,7.11-.45,10.62-.26,7.01-.24,13.96-.03,21.13-1.26-17.17-1.77-40.14-5.32-52.01-.55,3.92-.74,7.96-.78,12.04-.02,4.08,0,8.18.09,12.25-.33-1-.73-1.6-1.17-1.82-.09,3.6-.83,8.33-.82,12.07-.63.07-1.26.87-1.87.12.44.12.88.18,1.33.26"/>
          <path class="cls-1" d="M126.99,191.05c-.17,8.97-.48,19.81-.93,30.46-.48,10.65-1.35,21.08-2.38,29.24"/>
          <path class="cls-2" d="M77.82,1156.94s.22-.54.66-1.6c.44-1.06,1.08-2.66,2.01-4.76,1.81-4.21,4.57-10.51,8.48-18.95,3.87-8.46,8.92-19.05,14.97-32.02,1.57-3.4,3.2-6.92,4.87-10.54.43-.94.86-1.88,1.3-2.84.47-1.03.94-2.07,1.41-3.12,1.03-2.33,2.08-4.69,3.14-7.08,4.26-9.58,8.55-19.72,12.88-30.39,1.04-2.68,2.08-5.39,3.14-8.13s2.14-5.51,3.1-8.33c1-2.82,2.01-5.67,3.03-8.54.92-2.89,1.84-5.82,2.78-8.77,1.01-2.97,1.7-5.89,2.49-8.87.2-.74.39-1.49.59-2.24.15-.75.3-1.51.45-2.27.3-1.52.61-3.04.91-4.57.31-1.53.45-3.09.69-4.64.19-1.56.5-3.11.57-4.7.12-1.58.25-3.17.38-4.77.15-1.59.1-3.21.17-4.83.15-3.23-.04-6.53-.1-9.84-.22-3.33-.39-6.68-.76-10.1-.63-6.82-1.57-13.81-2.41-21.01-.85-7.19-1.65-14.57-2.02-22.11-.27-3.76-.27-7.57-.36-11.39-.03-1.91.06-3.83.08-5.75.04-1.9.07-3.8.11-5.71.06-3.71.12-7.45.18-11.2l.04-2.82-.09-2.83c-.06-1.89-.13-3.79-.19-5.69s-.13-3.81-.19-5.72c-.02-1.91-.26-3.82-.38-5.74-.29-3.84-.59-7.69-.89-11.57-1.59-15.48-3.89-31.2-6.73-47.11-5.78-31.81-13.52-64.33-19.78-97.84-3.17-16.75-5.73-33.8-7.46-51.06-.4-4.29-.8-8.58-1.2-12.88-.36-4.17-1.01-8.36-1.68-12.54-1.44-8.37-3.35-16.75-5.34-25.15-3.96-16.81-8.41-33.78-10.47-51.5-1.03-8.84-1.35-17.92-.25-27.06,1.01-9.12,3.89-18.31,8.73-26.48,4.87-8.17,11.85-14.92,19.5-20.11,1.99-1.41,3.6-2.44,5.35-3.61,1.7-1.17,3.38-2.37,5.02-3.59,3.28-2.47,6.4-5.08,9.37-7.83,2.93-2.78,5.71-5.67,8.24-8.72,2.51-3.07,4.8-6.27,6.82-9.61,4.05-6.67,6.9-13.9,8.67-21.38,3.51-15.02,2.45-30.9-.3-46.46-2.78-15.62-7.17-31.07-11.3-46.69-4.11-15.64-8.1-31.53-9.8-48.27-.86-8.35-1.05-16.96-.3-25.59.61-7.58,1.21-15.07,1.81-22.48.61-7.44,1.2-14.8,1.79-22.05.67-7.29,1.23-14.48,1.96-21.61,1.3-14.24,2.9-28.17,4.62-41.71,3.57-27.08,8.05-52.66,13.68-76.15,5.61-23.5,12.21-44.88,18.68-63.75"/>
        </g>
        <path class="cls-2" d="M146.2,777.35s-1.03-5.54-2.94-15.78c-2.02-10.12-4.96-24.88-8.67-43.47-3.61-18.46-7.89-40.58-10.83-65.54-.38-3.12-.61-6.28-.93-9.49-.32-3.33-.64-6.7-.96-10.12-.72-7.54-1.99-14.94-3.5-22.28-3.02-14.68-7.02-29.24-10.32-43.98-1.64-7.36-3.11-14.77-4.08-22.14-.95-7.36-1.46-14.73-.91-21.75.2-1.72.27-3.52.61-5.19l.41-2.56.6-2.47.29-1.24c.1-.41.26-.8.38-1.2l.77-2.39c.27-.79.64-1.53.94-2.3.33-.76.6-1.56,1.02-2.27,2.99-5.89,7.27-11.26,13.05-15.71l2.23-1.62c.75-.55,1.41-1.06,2.47-1.77,1.94-1.32,3.87-2.63,5.76-4.05,3.81-2.78,7.51-5.81,11.07-9.06,3.58-3.22,6.95-6.76,10.13-10.5,3.17-3.75,6.12-7.75,8.7-12.02,5.2-8.5,8.98-17.97,11.05-27.67,2.1-9.71,2.55-19.57,1.97-29.16-.59-9.6-2.18-18.97-4.23-28.13-2.05-9.17-4.56-18.14-7.18-27.04-5.22-17.81-10.98-35.35-14.37-53.67-1.68-9.16-2.74-18.52-2.56-28.07.38-9.24.76-18.45,1.13-27.62.75-18.28,1.51-36.45,2.58-54.48"/>
      </g>
    </g>
  </g>
  <path class="cls-3" d="M542.02,957.32c5.29,76.53-4.34,153.94-28.3,227.32"/>
  <path class="cls-5" d="M475.82,934.2c-2.41,24.64,20.9,44.13,31.69,66.74,7.9,16.56,9.04,35.17,9.2,53.29.42,49.67-5.69,99.39-18.17,147.69"/>
  <path class="cls-10" d="M96.67,596.92c207.07,447.55,1851.08,587.72,2188.18-220.52"/>
  <path class="cls-11" d="M93.42,600.33c382.23-331.28,1700.09-438.63,2185.29,367.6"/>
  <g class="cls-12">
    <path class="cls-9" d="M232.62,830.7c-5.67,0-8.49-3.69-8.49-11.05v-3.25c6.88-52.87,15.37-109.3,25.49-169.32,10.11-60.02,22.86-119.49,38.23-178.42,0-1.3.61-3.25,1.82-5.85-2.84-2.59-4.26-7.57-4.26-14.95,0-19.5,3.13-32.27,9.4-38.36,6.28-6.05,12.03-9.09,17.3-9.09,2.83,0,4.86.23,6.08.66l4.26-1.3c2.43-.87,5.05-1.3,7.88-1.3,2.02,0,3.95.44,5.77,1.3,1.82.87,2.72,2.38,2.72,4.55,0,2.59-1.21,6.5-3.65,11.7s-4.96,10.4-7.59,15.59c-2.64,5.2-4.55,9.32-5.77,12.35l-7.28,19.5c1.21,26,3.73,52.97,7.59,80.92,3.84,27.95,9.4,53.95,16.69,77.99,7.28,24.04,16.48,43.66,27.62,58.83,11.12,15.18,24.59,22.75,40.36,22.75,11.32,0,25.88-6.82,43.7-20.47,17.8-13.65,37.22-35.75,58.27-66.3,21.03-30.54,41.67-71.39,61.91-122.53l1.82-19.5v-3.25c0-3.46-.31-6.93-.9-10.4-.61-3.46-.9-6.71-.9-9.75,0-13.87,2.92-26.22,8.8-37.05,5.86-10.82,16.88-16.25,33.07-16.25,2.43,0,4.65.55,6.68,1.63,2.02,1.08,3.03,2.92,3.03,5.52,0,4.34-1.63,10.62-4.86,18.84-3.25,8.24-5.27,14.74-6.08,19.5-4.86,18.64-8.9,39.88-12.14,63.7-3.25,23.83-5.77,48.43-7.59,73.78-1.82,25.35-3.14,50.27-3.95,74.75-.82,24.49-1.21,46.91-1.21,67.28,0,16.03.1,30.22.3,42.57.2,12.36.7,22,1.51,28.92.81,6.5,1.82,10.3,3.03,11.37,1.21,1.08,1.82,3.15,1.82,6.18,0,6.08-1.72,10.62-5.16,13.65-3.45,3.03-7.38,4.55-11.84,4.55-4.05,0-7.59-1.08-10.63-3.25s-4.55-5.2-4.55-9.09c.39-49.4,1-97.5,1.82-144.29.81-46.79,2.43-92.52,4.86-137.14-21.85,48.97-43.41,87.97-64.64,117-21.25,29.04-40.78,49.84-58.56,62.4-17.81,12.57-32.99,18.84-45.52,18.84-15.78,0-29.54-6.61-41.27-19.82-11.74-13.21-21.76-30.54-30.04-51.99-8.3-21.45-15.07-44.52-20.33-69.22-5.27-24.7-9.1-48.75-11.53-72.15-7.28,24.7-13.86,49.95-19.72,75.71-5.87,25.78-11.03,50.82-15.47,75.08-4.46,24.27-8.1,46.47-10.93,66.62-2.84,20.15-4.66,36.72-5.47,49.72,0,5.63.39,9.85,1.21,12.68.81,2.82,1.21,5.75,1.21,8.77,0,6.94-1.72,12.03-5.16,15.27-3.45,3.25-6.37,4.88-8.8,4.88h-.04.03,0Z"/>
    <path class="cls-8" d="M667.16,827.44c-9.7,0-14.56-7.79-14.56-23.41,0-12.13,2.22-27.18,6.68-45.17,4.45-17.98,10.32-36.72,17.61-56.22,7.28-19.5,15.28-37.81,23.98-54.92,8.7-17.11,17.61-31.1,26.7-41.92,9.1-10.83,17.49-16.25,25.19-16.25h1.82l6.68-5.2c2.02-2.59,4.55-4.32,7.59-5.2,3.03-.87,6.16-1.3,9.4-1.3,8.08,0,16.59,1.74,25.49,5.2,8.9,3.47,14.97,5.2,18.21,5.2,2.83,0,4.95-1.73,6.37-5.2,1.41-3.46,4.55-5.2,9.4-5.2,5.67,0,9.61,1.3,11.84,3.9,2.22,2.59,3.33,6.08,3.33,10.4,0,6.08-1.63,13.11-4.86,21.13-3.25,8.02-5.86,14.63-7.88,19.83-.41,1.74-2.23,3.15-5.47,4.22-3.25,1.08-5.27,2.5-6.08,4.22-6.47,19.94-12.35,40.2-17.61,60.76-5.27,20.58-9.31,38.46-12.14,53.63-2.84,15.18-4.26,24.49-4.26,27.95,0,10.83,2.83,16.25,8.49,16.25,4.86,0,10.11-2.28,15.78-6.82,5.67-4.55,11.23-9.64,16.68-15.27,5.47-5.63,10.02-10.73,13.66-15.27,3.65-4.55,5.67-6.82,6.08-6.82.81,0,1.21.87,1.21,2.59s-.61,4.34-1.82,7.79c-1.21,3.47-2.64,5.85-4.26,7.16-4.05,3.9-10.32,9.85-18.82,17.88-8.49,8.02-17.61,15.5-27.31,22.43-9.7,6.94-18.21,10.4-25.49,10.4-8.49,0-13.56-5.42-15.17-16.25,0-7.79,1.21-17.88,3.65-30.22,2.43-12.35,5.16-25.02,8.19-38.02s5.77-23.82,8.19-32.5c-6.08,8.68-13.86,19.72-23.37,33.15-9.51,13.44-19.83,26.76-30.96,39.97-11.13,13.22-22.15,24.37-33.07,33.48-10.93,9.09-20.64,13.65-29.13,13.65v-.05.02h.01ZM686.58,796.9c4.04,0,9.4-2.92,16.07-8.77s13.96-13.32,21.84-22.43c7.89-9.09,15.37-18.21,22.46-27.3,7.07-9.09,13.14-17.23,18.21-24.37,5.05-7.16,8.19-11.58,9.4-13.32,6.47-11.26,12.84-23.5,19.12-36.72,6.28-13.21,11.43-25.35,15.47-36.4,4.04-11.05,6.08-18.74,6.08-23.07,0-2.59-1.01-3.9-3.03-3.9h-1.82c-4.05,0-8.19-.43-12.45-1.3-4.26-.87-9.21-1.3-14.86-1.3s-11.74.87-18.21,2.59c-3.65.87-8.8,6.18-15.47,15.93-6.68,9.75-13.96,22-21.85,36.72-7.88,14.74-15.38,30.45-22.45,47.13-7.07,16.69-12.96,32.61-17.61,47.77-4.66,15.18-6.98,27.73-6.98,37.7,0,7.37,2.02,11.05,6.08,11.05h0Z"/>
    <path class="cls-8" d="M871.08,829.4c-7.68,0-11.53-3.9-11.53-11.7,0-3.9.81-8.45,2.43-13.65,8.9-27.3,16.18-49.72,21.84-67.28,5.67-17.55,10.11-31.42,13.35-41.6,3.23-10.17,5.47-17.98,6.68-23.41,1.21-5.42,1.82-9.85,1.82-13.32,0-2.16-.31-3.68-.9-4.55-.61-.87-.9-2.16-.9-3.9s.61-4.55,1.82-8.45c8.49-26.42,16.18-44.41,23.05-53.95,6.88-9.52,17.19-14.29,30.96-14.29,5.67,0,8.7,1.96,9.1,5.85-4.05,8.24-10.63,21.68-19.72,40.29-9.1,18.64-18.71,41.71-28.83,69.22-10.12,27.52-19.03,59.04-26.7,94.58-.41,1.3-.61,3.04-.61,5.2,0,5.2,2.02,7.79,6.08,7.79,2.43,0,6.28-1.63,11.53-4.88,5.26-3.25,10.71-6.5,16.38-9.75,5.67-3.25,9.9-4.88,12.74-4.88s4.45.87,4.86,2.59c0,2.59-3.03,6.61-9.1,12.03-6.08,5.43-13.35,11.05-21.84,16.91-8.49,5.85-16.68,10.83-24.59,14.95-7.88,4.11-13.86,6.18-17.9,6.18l-.02.03h-.01ZM960.3,533.66c-5.67,0-9.1-2.28-10.32-6.82s-1.82-9.43-1.82-14.63c0-6.5,3.03-13.32,9.1-20.47,6.08-7.16,13.26-13.21,21.54-18.21,8.3-4.97,15.28-7.48,20.94-7.48,2.02,0,3.23.66,3.65,1.96,0,4.78-1.72,9.32-5.16,13.65-3.45,4.34-7.19,8.68-11.23,13-4.05,4.34-7.28,9.32-9.7,14.95-1.63,4.34-3.65,9.09-6.08,14.29s-6.08,8.45-10.93,9.75h0Z"/>
    <path class="cls-6" d="M1079.25,836.55c-19.03,0-33.29-2.38-42.79-7.16-9.51-4.76-15.88-10.73-19.12-17.88-3.25-7.16-4.86-14.19-4.86-21.13v-4.55c0-3.46,1-8.14,3.03-13.97,2.02-5.85,6.47-8.77,13.35-8.77,3.23,0,5.05,2.72,5.47,8.14.39,5.43,2.22,11.16,5.47,17.23,6.47,11.28,14.77,18.64,24.88,22.11,10.11,3.47,22.86,5.2,38.23,5.2,13.35,0,27.62-2.38,42.79-7.16,15.17-4.76,29.43-11.47,42.79-20.15,13.35-8.67,24.17-19.06,32.47-31.2,8.3-12.13,12.45-25.77,12.45-40.95,0-13.87-4.55-25.35-13.66-34.44-9.1-9.09-20.94-17.11-35.5-24.04-14.56-6.93-29.84-13.53-45.82-19.82-15.99-6.27-31.26-13.75-45.82-22.43-14.56-8.67-26.41-19.28-35.5-31.85-9.1-12.56-13.66-28.38-13.66-47.45s4.95-36.4,14.86-53.3c9.9-16.91,23.47-31.95,40.66-45.17,17.19-13.21,36.62-23.62,58.27-31.2,21.65-7.57,44.2-11.38,67.67-11.38,17.39,0,30.35,3.36,38.84,10.07,8.49,6.72,14.27,14.95,17.3,24.7,3.03,9.75,4.55,19.61,4.55,29.57,0,2.17-.61,5.85-1.82,11.05s-3.14,9.85-5.77,13.97c-2.64,4.12-5.77,6.18-9.4,6.18-2.84,0-4.26-2.81-4.26-8.45v-13c0-19.92-5.56-33.25-16.68-39.97-11.13-6.71-24.99-10.07-41.58-10.07-10.93,0-24.18,2.06-39.76,6.18-15.59,4.12-30.85,10.4-45.82,18.85-14.98,8.45-27.43,18.75-37.33,30.88-9.92,12.14-14.86,26.43-14.86,42.9,0,.87.1,1.84.31,2.92.2,1.08.3,2.06.3,2.92,2.02,18.21,8.19,33.26,18.51,45.17,10.32,11.93,22.96,21.77,37.94,29.57,14.97,7.79,30.65,14.74,47.03,20.8,16.38,6.08,31.65,12.35,45.82,18.84,14.16,6.5,25.69,14.2,34.6,23.07,8.9,8.89,13.35,20.47,13.35,34.77,0,16.91-5.05,33.7-15.17,50.37-10.12,16.69-23.87,31.85-41.27,45.49-17.41,13.65-37.33,24.49-59.78,32.5-22.46,8.01-46.03,12.03-70.71,12.03h.01v.02h.01Z"/>
    <path class="cls-6" d="M1407,866.45c-5.27,0-7.89-2.38-7.89-7.16,0-4.34,3.03-8.77,9.1-13.32,6.08-4.55,10.51-10.3,13.35-17.23,1.21-3.46,3.65-11.8,7.28-25.02,3.65-13.21,7.79-28.38,12.45-45.49,4.65-17.11,8.89-33.48,12.74-49.08,3.84-15.59,6.77-27.51,8.8-35.75-4.46,7.37-11.23,17.45-20.33,30.22-9.1,12.79-19.33,26.43-30.65,40.95-11.33,14.52-22.97,28.39-34.89,41.6-11.94,13.22-23.17,24.04-33.68,32.5-10.52,8.45-19.43,12.68-26.7,12.68-5.67,0-8.49-3.9-8.49-11.7,0-6.5,2.22-15.81,6.67-27.95,2.43-6.05,6.16-14.95,11.23-26.65,5.05-11.7,10.32-24.37,15.78-38.02,5.47-13.65,10.11-26.42,13.96-38.36,3.84-11.91,5.77-21.13,5.77-27.63,0-3.03-.4-5.09-1.21-6.18-.82-1.08-1.21-2.7-1.21-4.88,0-.87.1-1.83.31-2.92.2-1.08.51-2.49.9-4.22,4.45-17.76,8.59-31.63,12.45-41.6,3.84-9.97,8.59-16.91,14.25-20.8,5.67-3.9,13.35-5.85,23.05-5.85,5.67,0,9.1,1.96,10.32,5.85-1.63,4.34-5.05,13.32-10.32,26.98-5.27,13.65-11.44,29.69-18.51,48.1-7.07,18.42-13.96,36.63-20.64,54.61-6.67,17.99-12.23,33.58-16.68,46.79-4.46,13.22-6.68,21.35-6.68,24.37,0,1.74.61,2.59,1.82,2.59,1.62,0,3.73-1.08,6.37-3.25,2.63-2.16,5.35-4.55,8.19-7.16,23.86-19.5,44.5-41.49,61.91-65.97,17.39-24.48,32.37-49.29,44.92-74.42.39-6.5,1.93-14.72,4.55-24.7,2.63-9.97,7.18-18.84,13.66-26.65,6.47-7.79,14.97-11.7,25.49-11.7,4.45,0,6.88,1.96,7.28,5.85-2.03,6.94-6.17,19.29-12.45,37.05-6.28,17.77-12.85,37.05-19.72,57.85-3.25,10.4-6.88,22.65-10.93,36.72-4.05,14.09-8,28.28-11.84,42.57-3.85,14.29-6.98,26.87-9.4,37.7-2.43,10.83-3.65,17.99-3.65,21.45,0,1.3.39,1.96,1.21,1.96,3.65-.43,8.59-3.25,14.86-8.45,6.28-5.2,12.84-10.5,19.72-15.93,6.88-5.42,12.53-8.14,17-8.14.81,0,1.82.23,3.03.66,1.21.44,1.82,1.3,1.82,2.59,0,2.59-2.84,6.28-8.49,11.05-5.67,4.78-12.45,9.75-20.33,14.95-7.89,5.2-15.17,9.98-21.84,14.29-6.68,4.32-11.23,7.36-13.66,9.09-4.05,3.46-8.41,8.01-13.05,13.65-4.66,5.63-9.21,10.62-13.66,14.95-4.46,4.32-8.9,6.5-13.35,6.5l.02.05h-.02Z"/>
    <path class="cls-6" d="M1525.33,836.55c-3.25,0-5.87-1.41-7.88-4.22-2.03-2.82-3.03-5.75-3.03-8.77,0-5.2,2.22-7.79,6.68-7.79,4.86,0,12.23-1.07,22.15-3.25,9.9-2.16,20.23-5.1,30.96-8.77,10.71-3.68,19.92-8.14,27.62-13.32,7.68-5.2,11.53-10.82,11.53-16.91,0-5.63-2.94-11.38-8.8-17.23-5.86-5.85-13.05-11.8-21.54-17.88-8.49-6.05-17.1-12.36-25.8-18.84-8.7-6.5-15.99-13.32-21.84-20.47-5.87-7.16-8.8-14.83-8.8-23.07,0-3.46.51-6.93,1.51-10.4,1-3.46,2.92-6.93,5.77-10.4,12.14-16.46,25.38-29.78,39.76-39.97,14.35-10.17,27.82-17.98,40.36-23.41,12.53-5.42,22.05-9.43,28.52-12.03,2.02-.87,4.45-1.62,7.28-2.28s5.67-.98,8.49-.98c5.67,0,10.71,1.84,15.17,5.52,4.45,3.69,6.68,10.51,6.68,20.47-.4,4.34-2.03,9.85-4.86,16.57-2.84,6.72-6.37,13.54-10.63,20.47-4.26,6.94-8.41,12.68-12.45,17.23-4.05,4.55-7.49,6.82-10.32,6.82-1.63,0-2.43-1.3-2.43-3.9,0-3.9,1.11-8.88,3.33-14.95,2.22-6.05,4.45-12.03,6.68-17.88,2.22-5.85,3.33-10.5,3.33-13.97,0-6.5-3.65-9.75-10.93-9.75-2.84,0-5.98.32-9.4.98-3.45.66-6.98,1.41-10.63,2.28-2.43.44-7.07,2.28-13.96,5.52-6.88,3.25-14.17,7.48-21.84,12.68-7.68,5.2-14.37,11.16-20.03,17.88-5.67,6.72-8.49,13.97-8.49,21.77,0,4.78,1,9.1,3.03,13,4.86,10.4,11.53,18.52,20.03,24.37,8.49,5.85,17,11.05,25.49,15.59s15.68,9.54,21.54,14.95c5.86,5.43,8.8,13.11,8.8,23.07s-4.05,20.47-12.14,30.22c-8.1,9.75-18.31,18.42-30.65,26-12.35,7.58-24.68,13.65-37.02,18.21-12.35,4.55-22.76,6.82-31.26,6.82l-.02.02v-.04h.01Z"/>
    <path class="cls-6" d="M1768.7,855.39c-4.45,0-8.1-1.74-10.93-5.2-2.84-3.47-4.26-9.75-4.26-18.84,0-12.56,2.32-27.63,6.98-45.17,4.65-17.55,10.32-35.75,17-54.61,6.68-18.84,13.35-36.72,20.03-53.63,6.67-16.91,12.34-31.29,17-43.23,4.65-11.91,6.98-19.39,6.98-22.43,0-.87-.21-1.3-.61-1.3-1.63,0-5.27,3.25-10.93,9.75-23.05,27.73-41.58,52.65-55.53,74.75-13.96,22.11-24.88,41.6-32.78,58.5-7.89,16.91-14.17,30.88-18.82,41.92-4.66,11.05-9.31,19.39-13.96,25.02-4.65,5.63-10.83,8.45-18.51,8.45-3.65,0-5.47-2.17-5.47-6.5,0-3.9,1-8.23,3.03-13,18.61-51.12,34.6-100.63,47.95-148.53,13.35-47.88,28.12-97.82,44.31-149.82.81-3.03,1.32-5.42,1.51-7.16.2-1.73.31-3.25.31-4.55,0-2.16-.21-3.68-.61-4.55-.4-.87-.61-2.16-.61-3.9s.61-4.55,1.82-8.45c6.08-17.76,11.32-31.63,15.78-41.6,4.45-9.97,9.51-16.91,15.17-20.8,5.67-3.9,13.14-5.85,22.45-5.85,5.67,0,8.7,1.96,9.1,5.85-22.26,48.53-42.69,99.56-61.3,153.07-18.62,53.51-33.99,103.9-46.13,151.12,4.45-7.37,10.51-17.33,18.21-29.9,7.68-12.56,16.48-25.77,26.41-39.65,9.9-13.87,20.23-27.08,30.96-39.65,10.71-12.56,21.34-22.75,31.86-30.54,10.51-7.79,20.23-11.7,29.13-11.7s12.74,3.04,12.74,9.09c0,3.9-1.43,8.24-4.26,13-8.9,15.59-18.51,33.79-28.82,54.61-10.32,20.8-20.03,42.25-29.13,64.35-9.1,22.1-16.6,43.11-22.46,63.04-5.87,19.94-8.8,37.05-8.8,51.35,0,6.05,1.62,9.1,4.86,9.1,2.02,0,5.67-1.96,10.93-5.85,5.26-3.9,8.7-5.85,10.32-5.85,2.02,0,3.03,1.3,3.03,3.9,0,5.2-3.74,10.73-11.23,16.57s-15.07,8.77-22.76,8.77h.04,0Z"/>
    <path class="cls-6" d="M1870.67,829.4c-7.68,0-11.53-3.9-11.53-11.7,0-3.9.81-8.45,2.43-13.65,8.89-27.3,16.18-49.72,21.84-67.28,5.67-17.55,10.12-31.42,13.35-41.6,3.23-10.17,5.47-17.98,6.68-23.41,1.21-5.42,1.82-9.85,1.82-13.32,0-2.16-.3-3.68-.9-4.55s-.9-2.16-.9-3.9.61-4.55,1.82-8.45c8.49-26.42,16.18-44.41,23.08-53.95,6.88-9.52,17.19-14.29,30.96-14.29,5.67,0,8.69,1.96,9.1,5.85-4.05,8.24-10.63,21.68-19.72,40.29-9.1,18.64-18.71,41.71-28.83,69.22-10.12,27.52-19.02,59.04-26.7,94.58-.4,1.3-.61,3.04-.61,5.2,0,5.2,2.02,7.79,6.08,7.79,2.43,0,6.28-1.63,11.53-4.88,5.26-3.25,10.71-6.5,16.38-9.75,5.67-3.25,9.9-4.88,12.74-4.88s4.45.87,4.86,2.59c0,2.59-3.03,6.61-9.1,12.03-6.08,5.43-13.35,11.05-21.84,16.91-8.49,5.86-16.68,10.83-24.59,14.95-7.89,4.11-13.86,6.18-17.9,6.18l-.04.03h-.01ZM1959.89,533.66c-5.67,0-9.1-2.28-10.32-6.82s-1.82-9.43-1.82-14.63c0-6.5,3.03-13.32,9.1-20.47,6.08-7.16,13.26-13.21,21.54-18.21,8.29-4.97,15.28-7.48,20.94-7.48,2.02,0,3.23.66,3.65,1.96,0,4.78-1.72,9.32-5.16,13.65-3.45,4.34-7.19,8.68-11.23,13-4.05,4.34-7.28,9.32-9.7,14.95-1.63,4.34-3.65,9.09-6.08,14.29-2.43,5.2-6.08,8.45-10.93,9.75h0Z"/>
  </g>
  <g class="cls-4">
    <path class="cls-7" d="M589.5,1152.44c-3.12,0-6.34-1.12-9.65-3.36s-4.97-4.13-4.97-5.69c0-1.39,1.06-2.08,3.21-2.08.19,0,1.46.23,3.8.69-.78-3.25-1.37-7-1.75-11.27-.39-4.26-.58-8.94-.58-14.04,0-8.83.44-18.38,1.31-28.67s2.15-20.63,3.8-31c1.65-10.37,3.46-20.21,5.41-29.49,1.94-9.29,3.89-17.26,5.85-23.91h-15.5c-4.28-.15-6.43-.77-6.43-1.86,0-.77,1.21-1.63,3.66-2.56,2.44-.93,5.31-1.39,8.61-1.39h11.4c.97-4.02,3.22-6.66,6.72-7.89,3.51-1.25,7.2-1.86,11.1-1.86,2.92,0,4.38.78,4.38,2.33s-.87,3.1-2.63,4.64c-1.75,1.55-2.83,2.71-3.21,3.48,4.87.31,10.81.89,17.83,1.74,7.01.86,14.17,2.08,21.49,3.72,7.3,1.63,14.12,3.84,20.45,6.61,6.33,2.78,11.49,6.23,15.5,10.33,3.99,4.1,5.99,9.09,5.99,14.97,0,4.64-1.6,9.05-4.82,13.24s-7.3,7.97-12.28,11.38-10.19,6.38-15.64,8.94c-5.46,2.56-10.42,4.61-14.9,6.16,2.15-.15,4.43-.28,6.87-.35s5.01-.11,7.74-.11c6.43,0,13.25.39,20.45,1.16,7.2.78,13.92,2.17,20.16,4.18,6.24,2.01,11.3,4.84,15.21,8.48,3.89,3.64,5.85,8.32,5.85,14.04,0,8.2-3.26,15.36-9.79,21.49s-15.04,11.15-25.57,15.09c-10.52,3.95-21.93,6.89-34.2,8.83-12.28,1.94-24.06,2.91-35.37,2.91-4.28,0-8.47-.11-12.57-.35s-7.89-.66-11.4-1.28c-.97,1.86-2.83,2.78-5.56,2.78h.02ZM619.6,1145.48c10.13,0,20.5-.69,31.12-2.08,10.61-1.39,20.45-3.64,29.52-6.74,9.07-3.1,16.37-7.24,21.93-12.42,5.56-5.18,8.32-11.5,8.32-18.93-.19-5.27-2.48-9.56-6.87-12.89-4.38-3.33-9.99-5.89-16.81-7.66-6.82-1.77-14.02-3.02-21.64-3.72-7.6-.69-14.71-1.05-21.34-1.05-8.97,0-17.49.42-25.57,1.28-8.09.86-16.52,1.82-25.28,2.91-.2,2.01-.39,4.92-.58,8.71-.2,3.8-.29,8.01-.29,12.66,0,6.66.15,13.46.44,20.43s.73,12.85,1.31,17.65c7.4,1.25,15.98,1.86,25.72,1.86h.02,0ZM600.31,1076.98c1.94,0,5.99-.28,12.13-.8,6.14-.53,13.11-1.63,20.89-3.25,7.78-1.62,15.44-3.86,22.95-6.74,7.49-2.86,13.73-6.61,18.71-11.27,4.97-4.65,7.45-10.37,7.45-17.19,0-.77-.05-1.59-.15-2.44s-.25-1.74-.44-2.67c-1.96-4.95-5.7-9.13-11.25-12.55-5.56-3.41-11.94-6.18-19.14-8.36-7.21-2.16-14.37-3.86-21.49-5.1s-13.11-2.08-17.97-2.56h-.29c-.97,2.33-2.19,5.89-3.66,10.68-1.46,4.81-2.97,10.14-4.53,16.02-1.56,5.89-3.07,11.85-4.53,17.88s-2.68,11.53-3.66,16.49c-.97,4.95-1.56,8.83-1.75,11.61.19,0,.87.03,2.05.11s2.73.11,4.67.11h.02-.02Z"/>
    <path class="cls-7" d="M716.64,1225.36c-3.12,0-4.67-1.48-4.67-4.41,0-3.87,1.71-8.66,5.12-14.4,3.41-5.72,7.65-11.77,12.71-18.1,5.07-6.35,10.13-12.42,15.21-18.23,5.06-5.8,9.4-10.72,13.01-14.74s5.6-6.43,5.99-7.2c1.16-2.78,2-5.96,2.48-9.52s.73-7.35.73-11.38c0-7.74-.64-15.25-1.89-22.52-1.26-7.28-3.12-13.32-5.56-18.11-2.44-4.8-5.6-7.2-9.5-7.2-.78,0-1.56.03-2.34.11s-1.37.11-1.75.11c-.78,0-1.16-.39-1.16-1.16,0-.46.44-1.16,1.31-2.08s2.58-2.08,5.12-3.48c.97-.62,2.08-1.7,3.37-3.25,1.26-1.54,2.58-3.02,3.95-4.41,1.36-1.39,2.63-2.08,3.8-2.08,2.92,0,5.56,2.36,7.89,7.08s4.24,10.76,5.7,18.11c1.46,7.35,2.19,15.06,2.19,23.11,0,1.86-.05,3.72-.15,5.58-.1,1.86-.15,3.72-.15,5.58,0,2.48.77,3.72,2.34,3.72,1.94,0,4.77-1.63,8.47-4.88s7.74-7.35,12.13-12.3,8.61-10.1,12.71-15.43,7.45-10.13,10.09-14.4c2.63-4.26,3.95-7.24,3.95-8.94,0-.93-.49-1.39-1.46-1.39-.58,0-1.26.17-2.05.46-.78.31-1.56.46-2.34.46-.97,0-1.75-.39-2.34-1.16,0-1.39,1.41-2.91,4.24-4.53,2.83-1.63,5.99-3.02,9.5-4.18s6.33-1.74,8.47-1.74c.97,0,1.65.09,2.05.23.58.62.87,1.48.87,2.56,0,2.33-1.41,5.72-4.24,10.22s-6.48,9.48-10.96,14.97c-4.48,5.5-9.36,11.15-14.61,16.96-5.27,5.8-10.42,11.3-15.5,16.49s-9.5,9.68-13.3,13.47c-3.8,3.8-6.48,6.38-8.03,7.77,0-1.08-.25-.8-.73.8-.49,1.63-1.07,3.8-1.75,6.5-.68,2.71-1.56,5.18-2.63,7.43-1.07,2.24-2.19,3.36-3.37,3.36-.97,0-2-.2-3.07-.58s-1.81-.58-2.19-.58c-14.41,15.48-24.6,27.41-30.54,35.76-5.94,8.36-8.91,14.4-8.91,18.11,0,1.86.39,3.29,1.16,4.3.78,1,1.16,1.97,1.16,2.91,0,1.7-1.21,3.16-3.66,4.41-2.44,1.25-4.72,1.86-6.87,1.86l-.02-.03h-.02Z"/>
    <path class="cls-7" d="M923.27,1149.2c-2.15,0-3.76-.23-4.82-.69-1.07-.46-1.6-1.47-1.6-3.02,0-4.18.44-10.25,1.31-18.23.87-7.97,2.05-16.91,3.51-26.82,1.46-9.91,3.12-20.09,4.97-30.54,1.86-10.44,3.75-20.44,5.7-29.95,1.94-9.52,3.8-17.68,5.56-24.5v-.46c0-.62-.15-1.11-.44-1.51-.29-.39-.44-.89-.44-1.51,0-.93.29-2.47.87-4.64.58-2.16,1.06-3.79,1.46-4.88h-1.75c-1.96,0-3.95.08-5.99.23s-3.85.23-5.41.23c-4.28-.15-6.43-.77-6.43-1.86,0-1.54,2.38-2.59,7.16-3.13,4.77-.54,9.5-.8,14.17-.8.58-2.63,2.58-4.8,5.99-6.5,3.41-1.7,7.55-2.56,12.42-2.56,3.12,0,4.67.93,4.67,2.78-.97,1.86-1.81,3.05-2.48,3.6-.68.54-1.41,1.74-2.19,3.6,5.06.31,11.05.89,17.97,1.74,6.91.86,13.98,2.05,21.19,3.6,7.2,1.55,13.92,3.64,20.16,6.27s11.3,5.96,15.21,9.99c3.89,4.02,5.85,8.91,5.85,14.63,0,5.27-1.52,10.33-4.53,15.21s-6.92,9.33-11.7,13.35c-4.78,4.02-9.79,7.47-15.04,10.33-5.27,2.87-10.23,4.92-14.9,6.16-6.63,1.86-13.69,3.13-21.18,3.84-7.5.69-14.37,1.05-20.6,1.05-4.67,0-8.61-.11-11.84-.35s-5.31-.5-6.28-.8c-.58,2.63-1.22,6.58-1.89,11.85-.68,5.27-1.22,11.11-1.6,17.53-.39,6.43-.58,12.81-.58,19.16,0,3.87.29,7.08.87,9.64s.87,3.75.87,3.6c0,.78-.25,1.2-.73,1.28-.49.09-.83.35-1.02.8-.39.78-1.22,1.36-2.48,1.74-1.26.39-2.58.58-3.95.58h-.05v-.03h0ZM953.96,1078.37c2.73,0,5.46-.03,8.18-.11s5.06-.19,7.01-.35c5.65-.46,11.84-1.77,18.56-3.95,6.72-2.16,13.05-5.07,19-8.71,5.94-3.64,10.81-7.94,14.61-12.89,3.8-4.95,5.7-10.53,5.7-16.71,0-5.41-2.44-10.05-7.3-13.93-4.87-3.86-11-7.08-18.41-9.64-7.4-2.56-15.04-4.53-22.95-5.92-7.89-1.39-14.96-2.33-21.18-2.78-1.37,2.33-2.97,5.89-4.82,10.68-1.86,4.81-3.66,10.22-5.41,16.25s-3.47,12.12-5.12,18.23c-1.66,6.12-3.02,11.7-4.09,16.71-1.07,5.03-1.81,8.94-2.19,11.72.58.46,2.73.8,6.43,1.05s7.69.35,11.99.35h0,0Z"/>
    <path class="cls-7" d="M1024.1,1149.43c-4.67,0-7.01-2.78-7.01-8.36,0-4.33,1.06-9.71,3.22-16.14,2.15-6.42,4.97-13.12,8.47-20.09,3.51-6.97,7.35-13.5,11.54-19.62,4.18-6.11,8.47-11.1,12.86-14.97,4.38-3.86,8.43-5.8,12.13-5.8h.87l3.22-1.86c.97-.93,2.19-1.54,3.66-1.86,1.46-.31,2.97-.46,4.53-.46,3.89,0,7.99.62,12.28,1.86s7.2,1.86,8.77,1.86c1.36,0,2.38-.62,3.06-1.86s2.19-1.86,4.53-1.86c2.73,0,4.62.46,5.7,1.39,1.06.93,1.6,2.17,1.6,3.72,0,2.17-.78,4.69-2.34,7.55s-2.83,5.23-3.8,7.08c-.2.62-1.07,1.12-2.63,1.51s-2.54.89-2.92,1.51c-3.12,7.12-5.95,14.35-8.49,21.71-2.54,7.35-4.48,13.74-5.85,19.16-1.37,5.42-2.05,8.75-2.05,9.99,0,3.87,1.36,5.8,4.09,5.8,2.34,0,4.87-.8,7.59-2.44s5.41-3.44,8.03-5.46c2.63-2.01,4.82-3.84,6.58-5.46s2.73-2.44,2.92-2.44c.39,0,.58.31.58.93s-.29,1.55-.87,2.78c-.58,1.25-1.26,2.08-2.05,2.56-1.96,1.39-4.97,3.53-9.06,6.38-4.09,2.87-8.47,5.53-13.15,8.01-4.67,2.48-8.77,3.72-12.28,3.72-4.09,0-6.53-1.94-7.3-5.8,0-2.78.58-6.38,1.75-10.8,1.16-4.41,2.48-8.94,3.95-13.58,1.46-4.64,2.77-8.51,3.95-11.61-2.92,3.1-6.68,7.04-11.25,11.85s-9.55,9.56-14.9,14.28c-5.37,4.73-10.67,8.71-15.93,11.96s-9.94,4.88-14.02,4.88l-.03-.02h.05ZM1033.44,1138.51c1.94,0,4.53-1.05,7.74-3.13,3.22-2.08,6.72-4.76,10.52-8.01s7.4-6.5,10.81-9.75c3.41-3.25,6.33-6.16,8.77-8.71,2.44-2.56,3.95-4.13,4.53-4.76,3.12-4.02,6.18-8.4,9.21-13.12,3.02-4.72,5.5-9.05,7.45-13,1.94-3.95,2.92-6.69,2.92-8.25,0-.93-.49-1.39-1.46-1.39h-.87c-1.96,0-3.95-.15-5.99-.46s-4.43-.46-7.16-.46-5.66.31-8.77.93c-1.75.31-4.24,2.2-7.45,5.69s-6.72,7.86-10.52,13.12-7.4,10.88-10.81,16.83c-3.41,5.96-6.24,11.65-8.47,17.07-2.25,5.42-3.36,9.91-3.36,13.47,0,2.63.97,3.95,2.92,3.95v-.03.02h0Z"/>
    <path class="cls-7" d="M1133.4,1150.59c-5.07,0-9.3-1.31-12.71-3.95s-5.12-6.8-5.12-12.55,1.26-11.8,3.8-18.69c2.53-6.88,5.75-13.63,9.65-20.21,3.89-6.58,7.84-12.23,11.84-16.96s7.55-7.63,10.67-8.71c6.04-1.7,10.71-3.44,14.02-5.23,3.31-1.77,7.4-2.67,12.28-2.67,3.89,0,7.16.78,9.79,2.33,2.63,1.55,3.95,4.41,3.95,8.59v1.74c0,.54-.1,1.2-.29,1.97-.58,2.78-1.75,4.95-3.51,6.5-1.75,1.55-3.41,2.33-4.97,2.33-2.34,0-3.51-1.39-3.51-4.18,0-1.54.39-3.29,1.16-5.23s1.16-3.67,1.16-5.23c0-2.47-1.66-3.72-4.97-3.72-1.75,0-4.14.66-7.16,1.97-3.02,1.31-5.95,2.83-8.77,4.53-2.83,1.7-4.93,3.1-6.28,4.18-1.56,1.25-3.8,4.11-6.72,8.59-2.92,4.5-5.89,9.75-8.91,15.8-3.02,6.03-5.6,12.04-7.74,17.99-2.15,5.96-3.22,11.02-3.22,15.21,0,5.72,2.83,8.59,8.47,8.59,6.24,0,11.99-1.36,17.24-4.06s9.99-5.8,14.17-9.29c4.18-3.48,7.55-6.58,10.09-9.29,2.53-2.71,4.09-4.13,4.67-4.3.97.31,1.46.86,1.46,1.63,0,1.55-1.41,4.06-4.24,7.55-2.83,3.48-6.63,7.12-11.4,10.91-4.78,3.8-10.19,7.06-16.22,9.75-6.05,2.71-12.28,4.06-18.71,4.06h.04,0Z"/>
    <path class="cls-7" d="M1195.66,1150.13c-3.7,0-5.56-1.39-5.56-4.18,0-1.39.39-3.02,1.16-4.88,4.28-9.75,7.79-17.77,10.52-24.03,2.73-6.27,4.87-11.22,6.43-14.86,1.56-3.64,2.63-6.42,3.22-8.36.58-1.94.87-3.52.87-4.76,0-.77-.15-1.31-.44-1.63s-.44-.77-.44-1.39.29-1.63.87-3.02c4.09-9.44,7.79-15.86,11.1-19.27,3.31-3.41,8.28-5.1,14.9-5.1,2.73,0,4.18.69,4.38,2.08-1.96,2.94-5.12,7.75-9.5,14.4-4.38,6.66-9.02,14.9-13.88,24.74-4.87,9.83-9.16,21.1-12.86,33.79-.2.46-.29,1.08-.29,1.86,0,1.86.97,2.78,2.92,2.78,1.16,0,3.02-.58,5.56-1.74,2.53-1.16,5.16-2.33,7.89-3.48s4.77-1.74,6.14-1.74,2.15.31,2.34.93c0,.93-1.46,2.36-4.38,4.3s-6.43,3.95-10.52,6.03-8.03,3.87-11.84,5.34c-3.8,1.47-6.68,2.2-8.61,2.2v-.02l.02.03ZM1238.62,1044.47c-2.73,0-4.38-.8-4.97-2.44-.58-1.63-.87-3.36-.87-5.23,0-2.33,1.46-4.76,4.38-7.31,2.93-2.56,6.38-4.72,10.38-6.5,3.99-1.77,7.35-2.67,10.09-2.67.97,0,1.56.23,1.75.69,0,1.7-.83,3.33-2.48,4.88-1.66,1.55-3.47,3.1-5.41,4.64-1.96,1.55-3.51,3.33-4.67,5.34-.78,1.55-1.75,3.25-2.92,5.1-1.16,1.86-2.93,3.02-5.27,3.48h0,.02,0Z"/>
    <path class="cls-7" d="M1206.75,1196.8c-6.82,0-11.84-1-15.04-3.02-3.22-2.01-5.27-4.5-6.14-7.43-.87-2.94-1.31-5.66-1.31-8.12,0-4.5.83-8.55,2.48-12.19,1.66-3.64,3.16-5.46,4.53-5.46.78,0,1.26.46,1.46,1.39-.19,1.08-.34,2.16-.44,3.25-.09,1.08-.15,2.16-.15,3.25,0,7.28,1.81,13.04,5.41,17.3,3.6,4.26,7.84,6.38,12.71,6.38,4.48,0,9.16-1.9,14.02-5.69,4.87-3.8,9.45-9.87,13.73-18.23,2.53-4.95,5.41-11.19,8.61-18.69,3.22-7.51,6.43-15.44,9.65-23.8s6.28-16.37,9.2-24.03c2.93-7.66,5.41-14.28,7.45-19.85,2.05-5.58,3.36-9.22,3.95-10.91h-19c-4.67,0-7.01-.69-7.01-2.08,0-1.08,1.26-2.24,3.8-3.48s4.47-1.86,5.85-1.86h18.71c.58-1.39,1.6-3.99,3.06-7.77,1.46-3.79,3.12-8.01,4.97-12.66s3.66-8.97,5.41-13c1.75-4.02,3.02-6.97,3.8-8.83,4.09-8.97,9.89-15.56,17.39-19.73,7.49-4.18,17.19-6.27,29.08-6.27,7.59,0,13.59,1.43,17.97,4.3,4.38,2.87,7.55,6.27,9.5,10.22,1.94,3.95,2.92,7.63,2.92,11.02,0,4.02-.93,7.12-2.77,9.29-1.86,2.17-3.99,3.67-6.43,4.53-2.44.86-4.53,1.28-6.28,1.28-1.16,0-2.39-.35-3.66-1.05s-1.89-1.89-1.89-3.6c0-2.01.77-4.21,2.34-6.61,1.56-2.39,3.06-4.53,4.53-6.38,1.46-1.86,2.19-3.1,2.19-3.72,0-1.7-1.07-3.67-3.22-5.92s-4.87-4.22-8.18-5.92c-3.32-1.7-6.72-2.56-10.23-2.56-6.43,0-11.59,1.2-15.5,3.6-3.9,2.39-6.97,5.3-9.2,8.71-2.25,3.41-4.14,6.66-5.7,9.75-2.34,4.81-4.57,9.87-6.72,15.21-2.15,5.35-4.09,10.33-5.85,14.97-1.75,4.64-3.22,8.44-4.38,11.38,2.15,0,4.53.09,7.16.23,2.63.15,5.31.23,8.03.23,3.31,0,6.68-.35,10.09-1.05s5.7-1.05,6.87-1.05c.77,0,1.16.15,1.16.46,0,2.33-2.1,4.02-6.28,5.1-4.19,1.08-9.06,1.74-14.61,1.97-5.56.23-10.48.35-14.75.35-.58,1.08-1.71,3.91-3.36,8.48-1.66,4.56-3.66,10.1-5.99,16.6s-4.82,13.32-7.45,20.43c-2.63,7.12-5.22,13.93-7.74,20.44-2.54,6.5-4.67,11.99-6.43,16.49-4.67,11.76-10.09,20.86-16.22,27.28-6.14,6.42-12.38,10.88-18.71,13.35s-12.13,3.72-17.39,3.72v-.02.02h0ZM1314.6,1150.13c-3.7,0-5.56-1.39-5.56-4.18,0-1.39.39-3.02,1.16-4.88,4.28-9.75,7.79-17.77,10.52-24.03,2.73-6.27,4.87-11.22,6.43-14.86,1.56-3.64,2.63-6.42,3.22-8.36.58-1.94.87-3.52.87-4.76,0-.77-.15-1.31-.44-1.63s-.44-.77-.44-1.39.29-1.63.87-3.02c4.09-9.44,7.79-15.86,11.1-19.27,3.31-3.41,8.28-5.1,14.9-5.1,2.73,0,4.18.69,4.38,2.08-1.96,2.94-5.12,7.75-9.5,14.4-4.38,6.66-9.01,14.9-13.88,24.74-4.87,9.83-9.16,21.1-12.86,33.79-.2.46-.29,1.08-.29,1.86,0,1.86.97,2.78,2.93,2.78,1.16,0,3.02-.58,5.56-1.74,2.53-1.16,5.16-2.33,7.89-3.48s4.77-1.74,6.14-1.74,2.15.31,2.34.93c0,.93-1.46,2.36-4.38,4.3-2.92,1.94-6.43,3.95-10.52,6.03s-8.03,3.87-11.84,5.34-6.68,2.2-8.61,2.2v-.02.03h0Z"/>
    <path class="cls-7" d="M1400.81,1200.75c-3.9,0-6.14-1.94-6.72-5.8,0-3.1.87-7.51,2.63-13.24,1.75-5.72,4.04-12.07,6.87-19.04s5.85-13.97,9.07-21.01c3.22-7.04,6.24-13.55,9.06-19.51,2.83-5.96,5.12-10.8,6.87-14.52-3.12,3.1-7.26,7.06-12.42,11.85-5.16,4.81-10.77,9.56-16.81,14.28-6.04,4.73-11.94,8.71-17.68,11.96-5.75,3.25-10.67,4.88-14.75,4.88-4.48,0-6.72-2.39-6.72-7.2,0-4.18,1.31-9.52,3.95-16.02,2.63-6.5,6.08-13.38,10.38-20.66,4.28-7.28,8.97-14.13,14.02-20.55,5.06-6.42,10.09-11.65,15.04-15.68,4.97-4.02,9.4-6.03,13.3-6.03h.87l3.22-1.86c.97-.93,2.19-1.54,3.66-1.86,1.46-.31,2.97-.46,4.53-.46,3.89,0,7.99.62,12.28,1.86,4.29,1.25,7.11,1.86,8.47,1.86s2.48-.62,3.36-1.86c.87-1.25,2.48-1.86,4.82-1.86,5.27,0,7.89,1.94,7.89,5.8,0,2.17-.68,4.61-2.05,7.31-1.37,2.71-2.54,4.92-3.51,6.61-.2.62-1.07,1.12-2.63,1.51s-2.54.89-2.93,1.51c-8.58,16.25-16.71,32.23-24.4,47.94s-14.08,32.23-19.14,49.58c-.78,2.47-1.16,4.64-1.16,6.5,0,2.78,1.06,4.18,3.22,4.18,2.34,0,4.97-.8,7.89-2.44,2.93-1.63,5.8-3.56,8.61-5.8,2.83-2.25,5.31-4.18,7.45-5.8,2.15-1.63,3.6-2.44,4.38-2.44.97,0,1.46.54,1.46,1.63,0,.93-.34,1.94-1.02,3.02s-1.22,1.7-1.6,1.86c-1.56,1.08-3.95,2.67-7.16,4.76-3.21,2.09-6.82,4.26-10.81,6.5-3.99,2.25-7.89,4.18-11.7,5.8s-7.16,2.44-10.09,2.44v-.03h.03,0ZM1378.9,1138.51c1.94,0,4.62-1.05,8.03-3.13s7.11-4.76,11.1-8.01,7.84-6.5,11.54-9.75c3.7-3.25,6.91-6.16,9.65-8.71,2.73-2.56,4.38-4.13,4.97-4.76,3.51-4.18,6.97-8.66,10.38-13.47,3.41-4.8,6.24-9.13,8.47-13,2.24-3.86,3.36-6.58,3.36-8.12,0-.77-.39-1.16-1.16-1.16h-.87c-1.96,0-3.95-.19-5.99-.58-2.05-.39-4.43-.58-7.16-.58-1.37,0-2.73.09-4.09.23-1.37.17-2.92.46-4.67.93-1.37.17-3.85,2.01-7.45,5.58-3.61,3.56-7.59,8.05-11.99,13.47-4.38,5.42-8.61,11.15-12.71,17.19-4.09,6.03-7.45,11.77-10.09,17.19-2.63,5.42-3.95,9.91-3.95,13.47,0,2.17.87,3.25,2.63,3.25v-.03h0Z"/>
    <path class="cls-7" d="M1500.77,1163.36c-2.54,0-3.8-.86-3.8-2.56,0-1.55,1.46-3.13,4.38-4.76,2.92-1.63,5.06-3.67,6.43-6.16.58-1.25,1.75-4.21,3.51-8.94,1.75-4.72,3.75-10.13,5.99-16.25,2.24-6.11,4.28-11.96,6.14-17.53,1.86-5.57,3.26-9.82,4.24-12.77-2.15,2.63-5.41,6.23-9.79,10.8s-9.3,9.45-14.75,14.63c-5.46,5.19-11.06,10.14-16.81,14.86-5.75,4.73-11.15,8.59-16.22,11.61-5.07,3.02-9.36,4.53-12.86,4.53-2.73,0-4.09-1.39-4.09-4.18,0-2.33,1.06-5.66,3.22-9.99,1.16-2.16,2.97-5.34,5.41-9.52,2.44-4.18,4.97-8.71,7.59-13.58s4.87-9.44,6.72-13.69,2.77-7.55,2.77-9.87c0-1.08-.2-1.82-.58-2.2-.39-.39-.58-.97-.58-1.74,0-.31.05-.66.15-1.05s.25-.89.44-1.51c2.15-6.35,4.14-11.3,5.99-14.86s4.14-6.03,6.87-7.43c2.73-1.39,6.43-2.08,11.1-2.08,2.73,0,4.38.69,4.97,2.08-.78,1.55-2.44,4.76-4.97,9.64-2.54,4.88-5.51,10.61-8.91,17.19-3.41,6.58-6.72,13.09-9.94,19.51s-5.89,11.99-8.03,16.71c-2.15,4.73-3.22,7.63-3.22,8.71,0,.62.29.93.87.93.77,0,1.79-.39,3.07-1.16,1.26-.77,2.58-1.63,3.95-2.56,11.49-6.97,21.43-14.83,29.81-23.57,8.37-8.74,15.59-17.61,21.64-26.59.19-2.33.92-5.27,2.19-8.83s3.46-6.74,6.58-9.52c3.12-2.78,7.2-4.18,12.28-4.18,2.15,0,3.31.69,3.51,2.08-.97,2.48-2.97,6.89-5.99,13.24s-6.19,13.24-9.5,20.66c-1.56,3.72-3.31,8.09-5.27,13.12-1.96,5.03-3.85,10.1-5.7,15.21-1.86,5.1-3.36,9.6-4.53,13.47s-1.75,6.43-1.75,7.66c0,.46.19.69.58.69,1.75-.15,4.14-1.16,7.16-3.02s6.18-3.75,9.5-5.69c3.31-1.94,6.04-2.91,8.18-2.91.39,0,.87.09,1.46.23.58.17.87.46.87.93,0,.93-1.37,2.25-4.09,3.95-2.73,1.7-5.99,3.48-9.79,5.34s-7.3,3.56-10.52,5.1-5.41,2.63-6.58,3.25c-1.96,1.25-4.05,2.86-6.28,4.88-2.25,2.01-4.43,3.79-6.58,5.34s-4.28,2.33-6.43,2.33h0v.02h0Z"/>
    <path class="cls-7" d="M1576.46,1151.05c-2.34,0-5.01-.43-8.03-1.28-3.02-.86-5.66-2.39-7.89-4.64-2.25-2.24-3.36-5.46-3.36-9.64,0-1.7.29-3.72.87-6.03,1.94-7.74,3.85-13.63,5.7-17.65s2.97-7.28,3.36-9.75c-.58-.15-1.46-.54-2.63-1.16-1.16-.62-1.75-1.47-1.75-2.56s.58-1.77,1.75-2.08,2.24-.46,3.22-.46h2.05c1.56-2.63,3.26-5.49,5.12-8.59s4.62-7.28,8.32-12.55c3.31-4.95,7.64-8.25,13.01-9.87,5.35-1.63,11.44-2.44,18.26-2.44s11.2,4.73,13.73,14.17c1.16,4.81,1.75,8.66,1.75,11.61,0,3.72-1.52,6.66-4.53,8.83-3.02,2.17-6.72,3.8-11.1,4.88-4.38,1.08-8.72,1.82-13.01,2.2s-7.69.58-10.23.58-4.72-.03-6.58-.11-3.16-.11-3.95-.11c-2.93,5.89-5.27,11.53-7.01,16.96-1.75,5.42-2.63,9.99-2.63,13.69,0,6.2,2.92,9.29,8.77,9.29,3.51,0,7.16-1.25,10.96-3.72s7.45-5.34,10.96-8.59,6.53-6.11,9.06-8.59c2.54-2.47,4.18-3.72,4.97-3.72,1.36,0,2.05.62,2.05,1.86,0,2.17-1.56,4.92-4.67,8.25-3.12,3.33-6.97,6.61-11.54,9.87-4.57,3.25-9.16,5.96-13.73,8.12-4.57,2.16-8.32,3.25-11.25,3.25v-.03l-.02-.03h0ZM1594.87,1098.35c7.4,0,13.01-.66,16.81-1.97s5.8-4.22,5.99-8.71c0-6.35-1.02-10.83-3.06-13.47-2.05-2.63-3.95-3.95-5.7-3.95-2.34,0-4.82,1.12-7.45,3.36-2.63,2.25-5.16,4.92-7.59,8.01-2.44,3.1-4.64,6.16-6.58,9.17-1.96,3.02-3.31,5.38-4.09,7.08.97,0,2.54.08,4.67.23s4.47.23,7.01.23h0Z"/>
  </g>
</svg>