<?xml version="1.0" encoding="UTF-8"?>
<svg id="Layer_1" data-name="Layer 1" xmlns="http://www.w3.org/2000/svg" viewBox="0 0 1920 1080">
  <defs>
    <style>
      .cls-1 {
        fill: #ef3940;
      }

      .cls-2 {
        opacity: .66;
      }

      .cls-2, .cls-3, .cls-4, .cls-5 {
        stroke-miterlimit: 10;
      }

      .cls-2, .cls-3, .cls-4, .cls-5, .cls-6 {
        fill: none;
      }

      .cls-2, .cls-4 {
        stroke-width: 6px;
      }

      .cls-2, .cls-4, .cls-5 {
        stroke: #000;
      }

      .cls-3 {
        stroke: #231f20;
        stroke-linecap: round;
        stroke-width: 3px;
      }

      .cls-4 {
        opacity: .7;
      }

      .cls-7 {
        opacity: .85;
      }

      .cls-8 {
        opacity: .7;
      }

      .cls-9 {
        fill: red;
      }

      .cls-5 {
        stroke-width: 5px;
      }

      .cls-6 {
        stroke: #ef3940;
      }
    </style>
  </defs>
  <g>
    <path class="cls-9" d="M266.68,671.15c-3.79,0-5.68-2.25-5.68-6.75v-1.99c4.59-32.31,10.27-66.8,17.02-103.48,6.75-36.68,15.26-73.02,25.54-109.04,0-.79.41-1.99,1.22-3.58-1.89-1.59-2.84-4.63-2.84-9.14,0-11.92,2.09-19.73,6.28-23.44,4.19-3.71,8.04-5.56,11.55-5.56,1.89,0,3.24.14,4.05.4l2.84-.79c1.62-.53,3.38-.79,5.27-.79,1.35,0,2.63.27,3.85.79,1.22.53,1.82,1.46,1.82,2.78,0,1.59-.81,3.97-2.43,7.15s-3.31,6.36-5.07,9.53c-1.76,3.18-3.04,5.7-3.85,7.55l-4.86,11.92c.81,15.89,2.5,32.38,5.07,49.46,2.57,17.08,6.28,32.97,11.15,47.67,4.86,14.7,11.01,26.68,18.44,35.95,7.43,9.27,16.42,13.9,26.95,13.9,7.56,0,17.29-4.17,29.18-12.51,11.89-8.34,24.86-21.85,38.91-40.52,14.05-18.67,27.83-43.63,41.34-74.88l1.22-11.92v-1.99c0-2.12-.2-4.23-.61-6.36-.41-2.12-.61-4.1-.61-5.96,0-8.47,1.96-16.02,5.88-22.64,3.91-6.62,11.28-9.93,22.09-9.93,1.62,0,3.1.34,4.46.99,1.35.66,2.03,1.79,2.03,3.38,0,2.65-1.08,6.49-3.24,11.52-2.17,5.03-3.51,9.01-4.05,11.92-3.24,11.39-5.95,24.37-8.11,38.93-2.17,14.57-3.85,29.59-5.07,45.09-1.22,15.49-2.1,30.72-2.63,45.68-.54,14.97-.81,28.67-.81,41.11,0,9.8.06,18.47.2,26.02.13,7.55.47,13.44,1.01,17.68.54,3.97,1.22,6.29,2.03,6.95.81.66,1.22,1.92,1.22,3.77,0,3.71-1.15,6.49-3.45,8.34-2.3,1.85-4.93,2.78-7.9,2.78-2.7,0-5.07-.66-7.09-1.99s-3.04-3.18-3.04-5.56c.27-30.19.67-59.59,1.22-88.19.54-28.6,1.62-56.54,3.24-83.82-14.59,29.93-28.98,53.76-43.17,71.5-14.19,17.74-27.23,30.46-39.11,38.14-11.89,7.68-22.03,11.52-30.4,11.52-10.54,0-19.73-4.03-27.56-12.12-7.84-8.08-14.53-18.67-20.06-31.78-5.54-13.11-10.07-27.21-13.58-42.31-3.51-15.09-6.08-29.79-7.7-44.09-4.86,15.09-9.26,30.53-13.17,46.28-3.92,15.76-7.37,31.05-10.34,45.88-2.98,14.84-5.41,28.4-7.3,40.72-1.89,12.31-3.11,22.44-3.65,30.39,0,3.44.27,6.03.81,7.75.54,1.72.81,3.51.81,5.36,0,4.24-1.15,7.35-3.45,9.33-2.3,1.99-4.26,2.98-5.88,2.98Z"/>
    <path class="cls-9" d="M556.89,669.17c-6.49,0-9.73-4.77-9.73-14.3,0-7.41,1.48-16.62,4.46-27.61,2.97-10.99,6.89-22.44,11.75-34.36s10.2-23.1,16.01-33.57c5.81-10.46,11.75-19,17.83-25.62,6.08-6.62,11.69-9.93,16.82-9.93h1.22l4.46-3.18c1.35-1.59,3.04-2.64,5.07-3.18,2.03-.53,4.12-.8,6.28-.8,5.4,0,11.08,1.06,17.02,3.18,5.94,2.12,9.99,3.18,12.16,3.18,1.89,0,3.31-1.06,4.26-3.18.94-2.12,3.04-3.18,6.28-3.18,3.78,0,6.42.8,7.9,2.38,1.48,1.59,2.23,3.71,2.23,6.36,0,3.71-1.08,8.01-3.24,12.91-2.17,4.9-3.92,8.94-5.27,12.12-.27,1.06-1.49,1.92-3.65,2.58-2.17.66-3.51,1.53-4.05,2.58-4.33,12.18-8.25,24.57-11.75,37.14-3.52,12.58-6.22,23.51-8.11,32.77-1.89,9.27-2.84,14.97-2.84,17.08,0,6.62,1.89,9.93,5.67,9.93,3.24,0,6.75-1.39,10.54-4.17,3.78-2.78,7.5-5.89,11.15-9.33,3.65-3.44,6.69-6.55,9.12-9.34,2.43-2.78,3.78-4.17,4.05-4.17.54,0,.81.53.81,1.59s-.41,2.65-1.22,4.77c-.81,2.12-1.76,3.58-2.84,4.37-2.7,2.38-6.89,6.03-12.57,10.92-5.67,4.9-11.75,9.47-18.24,13.7-6.49,4.24-12.16,6.36-17.02,6.36-5.67,0-9.06-3.31-10.13-9.93,0-4.77.81-10.92,2.43-18.47,1.62-7.55,3.45-15.29,5.47-23.24,2.03-7.94,3.85-14.56,5.47-19.86-4.05,5.3-9.26,12.05-15.61,20.26-6.35,8.21-13.24,16.35-20.67,24.43-7.44,8.08-14.79,14.9-22.09,20.46-7.3,5.56-13.78,8.34-19.46,8.34ZM569.86,650.5c2.7,0,6.28-1.79,10.74-5.36s9.32-8.14,14.59-13.7c5.27-5.56,10.27-11.12,15-16.68,4.72-5.56,8.78-10.53,12.16-14.9,3.38-4.37,5.47-7.08,6.28-8.14,4.32-6.88,8.58-14.36,12.77-22.44,4.19-8.08,7.63-15.49,10.34-22.25,2.7-6.75,4.05-11.45,4.05-14.1,0-1.59-.68-2.38-2.03-2.38h-1.22c-2.7,0-5.47-.26-8.31-.79-2.84-.53-6.15-.79-9.93-.79s-7.84.53-12.16,1.59c-2.43.53-5.88,3.77-10.34,9.73s-9.32,13.44-14.59,22.44c-5.27,9.01-10.27,18.61-15,28.8-4.73,10.2-8.65,19.93-11.75,29.2-3.11,9.27-4.66,16.95-4.66,23.04,0,4.51,1.35,6.75,4.05,6.75Z"/>
    <path class="cls-9" d="M693.07,670.36c-5.14,0-7.7-2.38-7.7-7.15,0-2.38.54-5.16,1.62-8.34,5.94-16.68,10.8-30.39,14.59-41.11,3.78-10.72,6.75-19.2,8.92-25.42,2.16-6.22,3.65-10.99,4.46-14.3.81-3.31,1.22-6.02,1.22-8.14,0-1.32-.2-2.25-.61-2.78-.41-.53-.61-1.32-.61-2.38s.41-2.78,1.22-5.16c5.67-16.15,10.8-27.14,15.4-32.97,4.59-5.82,11.48-8.74,20.67-8.74,3.78,0,5.81,1.19,6.08,3.58-2.7,5.03-7.09,13.24-13.17,24.63-6.08,11.39-12.5,25.49-19.25,42.31-6.76,16.82-12.7,36.09-17.83,57.8-.27.79-.41,1.86-.41,3.18,0,3.18,1.35,4.77,4.05,4.77,1.62,0,4.19-.99,7.7-2.98,3.51-1.99,7.16-3.97,10.94-5.96,3.78-1.99,6.62-2.98,8.51-2.98s2.97.53,3.24,1.59c0,1.59-2.03,4.04-6.08,7.35-4.05,3.31-8.92,6.75-14.59,10.33s-11.15,6.62-16.42,9.14c-5.27,2.51-9.26,3.77-11.96,3.77ZM752.66,489.61c-3.79,0-6.08-1.39-6.89-4.17-.81-2.78-1.22-5.76-1.22-8.94,0-3.97,2.03-8.14,6.08-12.51,4.05-4.37,8.85-8.08,14.39-11.12,5.54-3.04,10.2-4.57,13.98-4.57,1.35,0,2.16.4,2.43,1.19,0,2.92-1.15,5.7-3.45,8.34-2.3,2.65-4.8,5.3-7.5,7.95-2.7,2.65-4.86,5.7-6.49,9.14-1.08,2.65-2.43,5.56-4.05,8.74-1.62,3.18-4.05,5.16-7.3,5.96Z"/>
    <path d="M832.1,674.73c-12.7,0-22.23-1.46-28.58-4.37-6.35-2.91-10.61-6.55-12.77-10.92-2.17-4.37-3.24-8.67-3.24-12.91v-2.78c0-2.12.67-4.97,2.03-8.54,1.35-3.58,4.32-5.36,8.92-5.36,2.16,0,3.38,1.66,3.65,4.97.27,3.31,1.48,6.82,3.65,10.53,4.32,6.89,9.86,11.39,16.62,13.51,6.75,2.12,15.26,3.18,25.54,3.18,8.92,0,18.44-1.45,28.58-4.37,10.13-2.91,19.66-7.01,28.58-12.31,8.92-5.29,16.14-11.65,21.68-19.07,5.54-7.41,8.31-15.75,8.31-25.03,0-8.47-3.04-15.49-9.12-21.05-6.08-5.56-13.98-10.46-23.71-14.7-9.73-4.23-19.93-8.27-30.6-12.12-10.68-3.84-20.87-8.4-30.6-13.7-9.73-5.29-17.63-11.78-23.71-19.47-6.08-7.68-9.12-17.34-9.12-29s3.31-22.25,9.93-32.57c6.62-10.33,15.67-19.53,27.16-27.61,11.48-8.08,24.45-14.43,38.91-19.07,14.45-4.63,29.52-6.95,45.19-6.95,11.62,0,20.27,2.05,25.94,6.16,5.67,4.11,9.53,9.14,11.55,15.1,2.03,5.96,3.04,11.99,3.04,18.07,0,1.33-.4,3.58-1.22,6.75-.81,3.18-2.1,6.03-3.85,8.54-1.76,2.52-3.85,3.77-6.28,3.77-1.89,0-2.84-1.72-2.84-5.16v-7.94c0-12.18-3.72-20.32-11.15-24.43-7.44-4.1-16.69-6.16-27.76-6.16-7.3,0-16.15,1.26-26.55,3.77-10.41,2.52-20.61,6.36-30.6,11.52-10,5.16-18.31,11.46-24.93,18.87-6.62,7.42-9.93,16.16-9.93,26.22,0,.53.06,1.13.2,1.79.13.66.2,1.26.2,1.79,1.35,11.12,5.47,20.33,12.36,27.61,6.89,7.29,15.33,13.31,25.33,18.07,9.99,4.77,20.47,9.01,31.41,12.71,10.94,3.71,21.14,7.55,30.6,11.52,9.46,3.97,17.16,8.68,23.1,14.1,5.94,5.43,8.92,12.51,8.92,21.25,0,10.33-3.38,20.59-10.13,30.79-6.76,10.2-15.95,19.47-27.56,27.81-11.62,8.34-24.93,14.97-39.92,19.86-15,4.9-30.74,7.35-47.22,7.35Z"/>
    <path d="M1050.97,693c-3.52,0-5.27-1.46-5.27-4.37,0-2.65,2.03-5.36,6.08-8.14s7.02-6.29,8.92-10.53c.81-2.12,2.43-7.21,4.86-15.29,2.43-8.08,5.2-17.34,8.31-27.81,3.1-10.46,5.94-20.46,8.51-29.99,2.56-9.53,4.52-16.81,5.88-21.85-2.98,4.51-7.5,10.66-13.58,18.47-6.08,7.81-12.91,16.16-20.47,25.03-7.57,8.88-15.34,17.35-23.31,25.42-7.97,8.08-15.47,14.7-22.5,19.86-7.03,5.16-12.97,7.75-17.83,7.75-3.79,0-5.67-2.38-5.67-7.15,0-3.97,1.48-9.66,4.46-17.08,1.62-3.71,4.12-9.14,7.5-16.29,3.38-7.15,6.89-14.9,10.54-23.24,3.65-8.34,6.75-16.15,9.32-23.44,2.56-7.28,3.85-12.91,3.85-16.88,0-1.85-.27-3.11-.81-3.77-.55-.66-.81-1.65-.81-2.98,0-.53.06-1.12.2-1.79.13-.66.34-1.52.61-2.58,2.97-10.86,5.74-19.33,8.31-25.42,2.56-6.09,5.74-10.33,9.52-12.71,3.78-2.38,8.92-3.58,15.4-3.58,3.78,0,6.08,1.19,6.89,3.58-1.08,2.65-3.38,8.14-6.89,16.48-3.51,8.34-7.64,18.14-12.36,29.4-4.73,11.26-9.32,22.38-13.78,33.37-4.46,10.99-8.18,20.53-11.15,28.6-2.98,8.08-4.46,13.05-4.46,14.9,0,1.06.41,1.59,1.22,1.59,1.08,0,2.49-.66,4.26-1.99,1.75-1.32,3.58-2.78,5.47-4.37,15.94-11.92,29.72-25.36,41.34-40.32,11.62-14.96,21.62-30.12,30-45.48.27-3.97,1.28-9,3.04-15.1,1.75-6.09,4.79-11.52,9.12-16.29,4.32-4.77,9.99-7.15,17.02-7.15,2.97,0,4.59,1.19,4.86,3.58-1.36,4.24-4.12,11.79-8.31,22.64-4.19,10.86-8.58,22.64-13.17,35.35-2.17,6.36-4.6,13.84-7.3,22.44-2.7,8.61-5.34,17.28-7.9,26.02-2.57,8.74-4.66,16.42-6.28,23.04-1.62,6.62-2.43,10.99-2.43,13.11,0,.8.27,1.19.81,1.19,2.43-.26,5.74-1.99,9.93-5.16,4.19-3.18,8.58-6.42,13.17-9.73,4.59-3.31,8.37-4.97,11.35-4.97.54,0,1.22.14,2.03.4.81.27,1.22.79,1.22,1.59,0,1.59-1.89,3.84-5.67,6.75-3.79,2.92-8.31,5.96-13.58,9.14-5.27,3.18-10.13,6.1-14.59,8.74-4.46,2.64-7.5,4.5-9.12,5.56-2.7,2.12-5.61,4.9-8.71,8.34-3.11,3.44-6.15,6.49-9.12,9.14-2.98,2.64-5.95,3.97-8.92,3.97Z"/>
    <path d="M1130.01,674.73c-2.17,0-3.92-.86-5.27-2.58-1.36-1.73-2.03-3.51-2.03-5.36,0-3.18,1.48-4.77,4.46-4.77,3.24,0,8.17-.66,14.79-1.99,6.62-1.32,13.51-3.11,20.67-5.36,7.16-2.25,13.31-4.97,18.44-8.14,5.13-3.18,7.7-6.62,7.7-10.33,0-3.44-1.96-6.95-5.88-10.53-3.92-3.58-8.71-7.21-14.39-10.92-5.67-3.71-11.42-7.55-17.23-11.52-5.81-3.97-10.68-8.14-14.59-12.51-3.92-4.37-5.88-9.07-5.88-14.1,0-2.12.34-4.23,1.01-6.36.67-2.12,1.96-4.23,3.85-6.36,8.11-10.06,16.95-18.2,26.55-24.43,9.59-6.22,18.57-10.99,26.95-14.3,8.37-3.31,14.72-5.76,19.05-7.35,1.35-.53,2.97-.99,4.86-1.39,1.89-.4,3.78-.6,5.67-.6,3.78,0,7.16,1.13,10.13,3.38,2.97,2.25,4.46,6.42,4.46,12.51-.27,2.65-1.36,6.03-3.24,10.13-1.89,4.11-4.26,8.28-7.09,12.51-2.84,4.24-5.61,7.75-8.31,10.53-2.7,2.78-5,4.17-6.89,4.17-1.08,0-1.62-.8-1.62-2.38,0-2.38.74-5.43,2.23-9.14,1.48-3.71,2.97-7.35,4.46-10.92,1.48-3.58,2.23-6.42,2.23-8.54,0-3.97-2.43-5.96-7.3-5.96-1.89,0-3.99.2-6.28.6-2.3.4-4.66.86-7.09,1.39-1.62.27-4.73,1.39-9.32,3.38-4.6,1.99-9.46,4.57-14.59,7.75-5.14,3.18-9.59,6.82-13.38,10.92-3.79,4.11-5.67,8.54-5.67,13.31,0,2.92.67,5.56,2.03,7.95,3.24,6.36,7.7,11.32,13.38,14.9s11.35,6.75,17.02,9.53c5.67,2.78,10.47,5.83,14.39,9.14,3.91,3.31,5.88,8.01,5.88,14.1s-2.7,12.51-8.11,18.47c-5.41,5.96-12.23,11.26-20.47,15.89-8.25,4.64-16.48,8.34-24.72,11.12-8.25,2.78-15.2,4.17-20.88,4.17Z"/>
    <path d="M1292.54,686.25c-2.98,0-5.41-1.06-7.3-3.18-1.89-2.12-2.84-5.96-2.84-11.52,0-7.68,1.55-16.88,4.66-27.61,3.1-10.73,6.89-21.85,11.35-33.37s8.92-22.44,13.38-32.77c4.46-10.33,8.24-19.13,11.35-26.42,3.1-7.28,4.66-11.85,4.66-13.7,0-.53-.14-.79-.4-.79-1.08,0-3.52,1.99-7.3,5.96-15.4,16.95-27.76,32.18-37.09,45.68-9.32,13.51-16.62,25.42-21.89,35.75-5.27,10.33-9.46,18.87-12.57,25.62-3.11,6.75-6.22,11.85-9.32,15.29-3.11,3.44-7.23,5.16-12.36,5.16-2.43,0-3.65-1.33-3.65-3.97,0-2.38.67-5.03,2.03-7.94,12.43-31.24,23.1-61.5,32.02-90.77,8.92-29.26,18.78-59.78,29.59-91.56.54-1.85.87-3.31,1.01-4.37.13-1.06.2-1.99.2-2.78,0-1.32-.14-2.25-.41-2.78-.27-.53-.4-1.32-.4-2.38s.4-2.78,1.22-5.16c4.05-10.86,7.56-19.33,10.54-25.42,2.97-6.09,6.35-10.33,10.13-12.71,3.78-2.38,8.78-3.58,15-3.58,3.78,0,5.81,1.19,6.08,3.58-14.86,29.66-28.51,60.85-40.94,93.55-12.43,32.71-22.7,63.5-30.8,92.36,2.97-4.5,7.02-10.59,12.16-18.27,5.13-7.68,11.01-15.75,17.63-24.23,6.62-8.47,13.51-16.55,20.67-24.23,7.16-7.68,14.25-13.9,21.28-18.67,7.02-4.77,13.51-7.15,19.46-7.15s8.51,1.86,8.51,5.56c0,2.38-.95,5.03-2.84,7.94-5.95,9.53-12.36,20.66-19.25,33.37-6.89,12.71-13.38,25.82-19.46,39.33-6.08,13.51-11.08,26.35-15,38.53-3.92,12.18-5.88,22.64-5.88,31.38,0,3.71,1.08,5.56,3.24,5.56,1.35,0,3.78-1.19,7.3-3.58,3.51-2.38,5.81-3.58,6.89-3.58,1.35,0,2.03.79,2.03,2.38,0,3.18-2.5,6.55-7.5,10.13-5,3.58-10.07,5.36-15.2,5.36Z"/>
    <path d="M1360.64,670.36c-5.14,0-7.7-2.38-7.7-7.15,0-2.38.54-5.16,1.62-8.34,5.94-16.68,10.81-30.39,14.59-41.11,3.78-10.72,6.75-19.2,8.92-25.42,2.16-6.22,3.65-10.99,4.46-14.3.81-3.31,1.22-6.02,1.22-8.14,0-1.32-.2-2.25-.61-2.78-.4-.53-.61-1.32-.61-2.38s.4-2.78,1.22-5.16c5.67-16.15,10.81-27.14,15.4-32.97,4.59-5.82,11.48-8.74,20.67-8.74,3.78,0,5.81,1.19,6.08,3.58-2.7,5.03-7.09,13.24-13.17,24.63-6.08,11.39-12.5,25.49-19.25,42.31-6.76,16.82-12.7,36.09-17.83,57.8-.27.79-.4,1.86-.4,3.18,0,3.18,1.35,4.77,4.05,4.77,1.62,0,4.19-.99,7.7-2.98,3.51-1.99,7.16-3.97,10.94-5.96,3.78-1.99,6.62-2.98,8.51-2.98s2.97.53,3.24,1.59c0,1.59-2.03,4.04-6.08,7.35-4.05,3.31-8.92,6.75-14.59,10.33s-11.15,6.62-16.42,9.14c-5.27,2.51-9.26,3.77-11.96,3.77ZM1420.22,489.61c-3.79,0-6.08-1.39-6.89-4.17-.81-2.78-1.22-5.76-1.22-8.94,0-3.97,2.03-8.14,6.08-12.51,4.05-4.37,8.85-8.08,14.39-11.12,5.53-3.04,10.2-4.57,13.98-4.57,1.35,0,2.16.4,2.43,1.19,0,2.92-1.15,5.7-3.44,8.34-2.3,2.65-4.8,5.3-7.5,7.95-2.7,2.65-4.86,5.7-6.49,9.14-1.08,2.65-2.43,5.56-4.05,8.74-1.62,3.18-4.05,5.16-7.3,5.96Z"/>
  </g>
  <line class="cls-3" x1="1420.05" y1="493.16" x2="1441.47" y2="489.54"/>
  <g class="cls-7">
    <g class="cls-8">
      <g>
        <g>
          <path class="cls-1" d="M120.83,180.43c-.58,6.82-1,13.71-1.09,20.54-.05,3.42-.05,6.82,0,10.19.02,3.37.06,6.71.15,9.99.09,3.5,0,6.92-.23,10.28-.11,1.68-.26,3.34-.43,4.99-.2,1.65-.42,3.28-.67,4.9-.98,6.48-2.31,12.78-3.62,19.05-2.8,12.52-5.44,24.92-5.47,38.6,0,4.29-.12,8.56-.48,12.8-.36,4.24-.87,8.46-1.46,12.66-.62,4.2-1.25,8.41-2.08,12.59-.81,4.18-1.67,8.36-2.55,12.55-1.7,8.38-3.66,16.76-5.28,25.26-1.57,8.52-3.12,17.11-3.95,25.96-3.2,32.48-7.1,65.38-12.64,98.53-2.73,16.57-5.72,33.19-8.9,49.78-1.58,8.3-3.21,16.61-4.88,24.91l-1.25,6.24-1.22,6.38c-.88,4.25-1.53,8.5-2.33,12.74-2.78,15.88-4.46,31.69-5.46,47.35-.99,15.66-1.28,31.17-1.1,46.53.38,30.73,2.66,60.84,5.76,90.65.37,3.73.79,7.45,1.21,11.16.4,3.72.84,7.43,1.29,11.14l1.06,7.97,1.21,8.33c.8,5.58,1.61,11.19,2.51,16.79,3.49,22.5,7.49,45.3,11.84,68.44,4.58,24.08,9.17,48.21,13.79,72.45,2.51,13.19,5.03,26.42,7.56,39.68l.98,5.17.49,2.6.39,1.3c.52,1.74,1.04,3.53,1.57,5.39l.82,2.98,1.11,4.19c.74,2.91,1.48,5.82,2.22,8.73.67-1.83,1.36-3.71,2.06-5.6,3.28-9.06,6.59-18.19,9.93-27.4,3.46-9.69,6.94-19.45,10.45-29.27,3.47-9.85,6.97-19.76,10.49-29.72,1.69-4.8,3.38-9.62,5.07-14.44.85-2.44,1.7-4.88,2.55-7.32l.64-1.84.32-.92c.11-.32.21-.62.32-.86l1.29-3.16c3.47-8.32,6.91-17.5,10.62-24.98,1.84-3.96,3.68-7.93,5.53-11.91,1.89-3.9,3.78-7.81,5.68-11.72,3.83-7.95,7.68-15.92,11.53-23.9,1.93-4.05,3.81-8.17,5.73-12.29,1.91-4.13,3.85-8.27,5.72-12.48l2.59-5.98,1.57-3.48c1.04-2.33,2.03-4.77,3.04-7.16l1.51-3.61c.5-1.2.97-2.49,1.45-3.73l2.85-7.53,2.66-7.9.66-1.98c.11-.3.22-.71.33-1.11l.33-1.18,1.3-4.73c.21-.79.43-1.57.62-2.38l.52-2.46,1-4.93c.32-1.65.52-3.35.76-5.03.21-1.68.5-3.37.62-5.05.26-3.37.58-6.79.58-10.09.02-1.65.07-3.34.04-4.96l-.17-4.8c-.04-1.63-.17-3.12-.29-4.63-.12-1.49-.23-3.06-.38-4.48-.31-2.79-.62-5.7-.98-8.18-.7-5.27-1.4-9.67-1.99-13.85-.25-1.96-.58-4.04-.76-5.82l-.33-2.76-.24-2.62c-.06-.64-.12-1.29-.18-1.94-.03-.64-.06-1.28-.09-1.94-.05-1.31-.15-2.67-.11-4.02.02-3.79.05-7.77.07-11.91,0-1.21.01-2.44.02-3.68,0-.62,0-1.24,0-1.86-.02-.61-.05-1.23-.07-1.85-.1-2.47-.2-4.99-.3-7.54-.05-1.28-.11-2.56-.16-3.85-.05-1.3-.19-2.55-.28-3.84-.21-2.57-.43-5.17-.64-7.79-1.88-20.97-5.99-42.32-10.43-62.3-1.11-5.06-2.25-9.86-3.4-14.71-1.15-4.74-2.3-9.43-3.42-14.06-2.23-8.9-4.4-17.54-6.44-25.69-4.07-15.94-7.32-29.28-10.6-39.21,1.87,13.46,4.5,27.46,7.47,42.06,2.97,14.6,6.27,29.8,9.32,45.57,3.04,15.77,5.82,32.14,7.58,48.98,1.76,16.82,2.46,34.15,1.33,51.42-.19-18.97-2.46-37.39-5.6-55.07-3.15-17.69-7.18-34.7-11.14-51.23-3.96-16.53-7.87-32.6-10.9-48.33l-2.09-11.73c-.55-3.86-1.21-7.75-1.69-11.6l-1.38-12.27c-.6-5.4-1.47-10.44-2.47-15.14-1.99-9.45-4.36-17.95-6.48-25.96-1.06-4-2.09-7.88-2.98-11.6-.47-1.89-.85-3.68-1.27-5.5-.35-1.76-.75-3.56-1.03-5.24-.34-1.74-.54-3.34-.8-4.99-.17-1.57-.39-3.16-.46-4.61-.19-2.93-.25-5.65,0-7.87.23-2.25.64-4.09,1.16-5.62.49-1.57,1.33-3.01,2.34-4.37.25-.34.46-.71.84-1.05.34-.34.64-.72.98-1.08.85-.67,1.53-1.46,2.58-2.15l.72-.55.36-.28.1-.08.2-.13.39-.26,3.14-2.12c2.08-1.43,4.17-2.78,6.2-4.45,8.15-6.2,16.04-13.78,22.38-23.1l2.27-3.58c.73-1.21,1.52-2.36,2.14-3.65l1.93-3.8.94-1.91.8-1.98,1.54-3.96.37-.99.3-1.01.6-2.02c.39-1.35.78-2.69,1.14-4.04l.81-4.05c1.08-5.4,1.42-10.71,1.52-15.88-.02-2.55-.1-5.08-.23-7.58l-.33-3.67c-.11-1.22-.22-2.45-.4-3.61.92,8.02,1.16,16.62-.05,25.55-1.18,8.91-3.95,18.1-8.3,26.44-4.32,8.36-10.05,15.81-16.33,22.07-1.58,1.53-3.21,2.97-4.83,4.44-1.61,1.52-3.29,2.79-4.97,4.1l-2.53,1.95c-.84.66-1.69,1.3-2.55,1.85l-5.17,3.45-1.3.86c-.26.17-.33.23-.44.31l-.31.23c-.41.31-.83.6-1.25.89-.45.28-.78.6-1.13.91-.35.31-.71.6-1.07.89l-.88.92c-.29.3-.63.58-.82.89-.22.3-.46.6-.71.88-.26.27-.39.63-.61.93-.47.58-.72,1.29-1.1,1.91-.18.32-.26.69-.42,1.01-.15.33-.31.66-.39,1.04-.11.37-.23.72-.36,1.08-.09.41-.17.83-.28,1.23-.05.21-.11.4-.16.62l-.1.69c-.06.46-.17.89-.23,1.37-.44,3.9-.41,8.72.34,14.22.7,5.47,1.88,11.4,3.36,17.68,1.47,6.28,3.17,12.86,4.85,19.8,1.68,6.96,3.34,14.32,4.57,22.35.16.99.28,2.05.42,3.08.13,1.05.28,2.04.37,3.14l.53,5.79.84,9.46,1.17,9.56c.4,3.19.96,6.43,1.42,9.64,2.02,12.9,4.56,26.01,7.22,39.35,2.66,13.33,5.43,26.95,7.79,40.83,2.35,13.9,4.42,28.05,5.43,42.56.44,7.27.85,14.53.73,21.91v5.5s-.3,5.54-.3,5.54l-.3,5.52-.16,2.6-.16,2.21c-.44,5.91-.52,11.84-.2,18.09.28,6.25.9,12.82,1.39,19.91.48,7.06.77,14.68.2,22.4-.55,7.72-1.97,15.44-4.08,22.74-1.18,3.58-2.33,7.27-3.67,10.43l-1.95,4.91c-.64,1.64-1.39,3.2-2.08,4.8l-2.11,4.75c-.7,1.58-1.47,3.11-2.21,4.66-1.48,3.09-2.95,6.18-4.53,9.19l-.58,1.13-.68,1.37-1.37,2.76c-.9,1.83-1.84,3.62-2.77,5.39-1.86,3.54-3.65,7.03-5.5,10.4-3.66,6.74-7.23,13.18-10.7,19.27-3.34,5.87-6.67,11.72-9.99,17.56-1.56,2.72-3.12,5.44-4.68,8.16-1.53,2.6-3.02,5.1-4.46,7.44-1.44,2.34-2.86,4.5-4.18,6.53-.67,1.01-1.32,1.97-1.97,2.88-.32.48-.64.85-.96,1.39l-.91,1.51c-1.18,1.99-2.4,3.86-3.46,5.67-1.02,1.71-2.04,3.41-3.06,5.11-.82,1.46-1.61,2.84-2.38,4.12-.68,1.31-1.33,2.53-1.95,3.66l-.12.21-.06.1s0,.02-.01.02v-.09s-.03-.18-.03-.18l-.17-1.4-.33-2.78-.64-5.49c-.39-3.56-.78-7.11-1.17-10.66-1.46-13.93-2.52-26.7-3.18-38.2,1.27,9.05,2.73,18.73,4.38,29.1.42,2.62.85,5.26,1.28,7.9.22,1.35.45,2.7.67,4.05l.34,2.05.17,1.03.04.26s.01.13.02.09l.03-.07.11-.29c.62-1.6,1.24-3.21,1.86-4.83.72-1.66,1.45-3.32,2.17-4.99,8.25-18.18,21.06-39.8,34.82-66.7,1.75-3.35,3.42-6.82,5.17-10.34.89-1.76,1.71-3.56,2.57-5.37.88-1.87,1.76-3.75,2.64-5.63,3.39-7.61,6.8-15.28,9.64-23.21,2.99-7.87,5.28-16.15,6.26-24.72,1.03-8.56.83-17.32.07-25.87-.72-8.58-1.71-17.02-2.05-25.4-.04-2.09-.12-4.18-.13-6.27.04-2.08.02-4.17.11-6.24l.34-6.26.31-6.58c.76-17.59-.54-35.27-2.86-52.67-4.67-34.85-13.23-68.66-18.02-102.12l-.9-6.26c-.27-2.09-.48-4.17-.73-6.25l-.71-6.24-.49-6.22-.51-6.37c-.1-1.19-.18-2.4-.31-3.57l-.42-3.5c-.63-4.62-1.45-9.09-2.35-13.47-1.83-8.73-3.93-17.09-5.81-25.26-.92-4.07-1.79-8.1-2.54-12.07-.72-3.96-1.32-7.87-1.73-11.69-.73-7.6-.66-14.93,1.1-21.13.87-3.1,2.03-5.95,3.7-8.58,1.69-2.61,3.74-4.93,6.17-7.12,1.31-1.01,2.53-2.12,4.01-3.02l1.06-.72.53-.36.7-.46,2.87-1.88c1.91-1.26,3.83-2.47,5.64-3.93l2.75-2.11c.92-.7,1.83-1.39,2.69-2.2,7.07-5.99,13.47-13.26,18.09-21.67,4.66-8.38,7.36-17.72,8.26-26.83.96-9.15.18-18-1.24-26.4-2.92-16.83-8.33-32.07-12.77-47.16-2.24-7.54-4.29-15.03-5.71-22.62-1.45-7.58-2.15-15.27-1.74-23.01.65-15.51,1.3-30.77,1.93-45.76.47-9.98.97-20.59,1.55-30.91.32-5.19.63-10.28.92-15.14.39-4.88.58-9.6.95-13.98-2.12,16.71-3.46,33.47-4.47,50.31-.99,16.84-1.66,33.78-2.51,50.88-.09,2.15-.25,4.25-.3,6.45-.02,2.2-.15,4.38.01,6.57l.15,3.26.33,3.25c.17,2.16.55,4.3.87,6.44,1.38,8.55,3.65,16.91,6.06,25.27,2.43,8.36,5.08,16.73,7.45,25.32,2.36,8.59,4.45,17.42,5.55,26.64,1.15,9.19,1.07,18.89-1.1,28.49-2.04,9.63-6.74,18.84-12.93,26.59-6.21,7.79-13.87,14.12-21.96,19.36l-3.05,1.97-2.6,1.71-1.25.81c-.4.28-.77.6-1.16.9-.75.62-1.58,1.17-2.27,1.83l-2.1,1.96-1.88,2.1c-.33.34-.6.72-.87,1.1l-.83,1.13c-.6.73-1.02,1.57-1.52,2.37-3.79,6.43-5.34,14.27-5.31,22.63.03,8.37,1.35,17.1,3.12,25.92,1.75,8.83,3.96,17.79,5.9,27,.96,4.61,1.86,9.28,2.58,14.05l.5,3.6.39,3.64c.12,1.22.19,2.46.28,3.69l.24,3.47c1.05,18.15,3.72,36.38,6.86,54.61,3.14,18.24,6.78,36.51,9.7,54.89,2.92,18.37,5.14,36.87,5.49,55.27.01,2.3-.03,4.6-.04,6.89l-.03,3.44c0,1.14-.01,2.29-.11,3.43-.28,4.58-.57,9.16-.85,13.73-.63,9.3-.31,18.7.43,27.89.7,9.18,1.69,18.18,1.5,26.82-.14,8.65-1.35,16.99-3.86,25.01l-.99,2.99c-.34,1-.62,1.97-1.04,3-.78,2.03-1.56,4.06-2.34,6.09-.74,2.03-1.68,4.03-2.5,6.04-.87,2.01-1.66,4.01-2.6,6-1.83,3.98-3.61,7.95-5.55,11.88l-1.16,2.29c-.38.74-.75,1.48-1.14,2.21-.76,1.43-1.53,2.86-2.29,4.28-6.05,11.23-11.8,20.78-16.72,28.99-4.92,8.21-9.11,15.05-12.17,20.86-.37.74-.73,1.45-1.09,2.16-.67,1.27-1.17,2.54-1.74,3.71-.04.19-.06-.17-.08-.3l-.08-.54-.15-1.08-.3-2.13-.57-4.18c-.74-5.51-1.4-10.73-1.98-15.68-1.17-9.9-2.05-18.69-2.68-26.46-.63-7.77-1-14.53-1.19-20.41l-.06-2.17v-.54s-.02-.13-.02-.13v-.07s-.02-.17-.02-.17l-.08-.72-.32-2.86c-.44-3.82-.79-7.64-1.2-11.45-.77-7.63-1.48-15.27-2.13-22.89-2.57-30.5-4.16-60.97-3.99-91.05.1-15.03.62-29.97,1.81-44.67.35-3.66.62-7.34,1.02-10.97l.61-5.45.3-2.72.37-2.69c.5-3.59.94-7.2,1.56-10.73l.86-5.33,1.02-5.67c7.09-32.69,15.64-66,23.57-100.21,1-4.41,2.01-8.81,3.01-13.22l2.87-13.31,2.83-13.33,2.63-13.38c.86-4.47,1.77-8.92,2.57-13.4l2.39-13.44c1.63-8.95,3.02-17.95,4.44-26.95,5.56-35.99,9.67-72.2,12.15-108.37.5-8.03,1.05-16.85,1.63-26.17.41-9.34.94-19.18,1.2-29.27.21-10.09.48-20.41.31-30.71-.05-5.15-.13-10.28-.25-15.38-.18-5.09-.42-10.14-.68-15.11-.49-9.94-1.39-19.56-2.46-28.58-1.01-9.02-2.53-17.45-4.16-24.99-1.62-7.55-3.67-14.22-5.94-19.74-2.28-5.52-4.84-9.89-7.72-12.85-.45,20.34,2.53,42.85.62,62.41-.97-3.71-2.06-7.7-3.06-11.84-1.04-4.14-2.03-8.45-2.73-12.81.04,4.16-.1,8.54-.13,12.85-.07,4.31.01,8.55.61,12.43-1.12-6.43-2.42-12.98-4.74-15.46-.29,4.98.26,11.01,1.13,16.78.85,5.77,1.97,11.3,2.53,15.25.35,2.31,1.72,8.8,2.86,15.48.29,1.67.56,3.35.8,4.98.22,1.63.4,3.21.53,4.67.27,2.93.33,5.4.04,6.91-.92-3.98-1.79-8.21-2.7-12.52-.95-4.3-1.93-8.69-2.88-12.99-.99-4.29-1.98-8.48-3.07-12.4-1.12-3.92-2.3-7.57-3.56-10.77-.26,5.4.07,10.76-.6,16-.9-3.27-1.56-8.09-2.3-12.5-.74-4.41-1.57-8.42-2.89-10.08.05,6.7.45,13.02.73,19.4.23,6.38.4,12.83.16,19.77-.17,5.63-.59,10.97-.74,16.26-.2,5.29-.13,10.52.16,15.94-1.43-12.97-2.13-30.3-5.72-39.26-.52,2.95-.7,5.99-.71,9.06,0,3.07.07,6.16.18,9.23-.34-.76-.75-1.21-1.19-1.38-.06,2.71-.76,6.26-.71,9.08-.63.05-1.25.64-1.87.07.44.09.88.15,1.33.21"/>
          <path class="cls-1" d="M164.8,163.16c-.11,6.8-.32,15.02-.68,23.09-.4,8.07-1.13,15.97-2.07,22.14"/>
          <path class="cls-6" d="M122.08,879.97s.17-.39.51-1.14c.33-.76.87-1.88,1.58-3.38,1.41-3.01,3.58-7.5,6.63-13.56,3.22-6.36,7.14-14.11,11.68-23.08,2.36-4.69,4.91-9.82,7.6-15.42,1.37-2.79,2.7-5.73,4.12-8.76.72-1.51,1.39-3.08,2.1-4.65.41-.93.82-1.86,1.23-2.8.42-.98.87-1.97,1.28-2.96.82-2,1.65-4.01,2.49-6.05.41-1.02.85-2.05,1.25-3.08.39-1.04.79-2.08,1.18-3.13.78-2.1,1.63-4.21,2.38-6.36.73-2.15,1.46-4.33,2.2-6.52.4-1.11.7-2.19,1-3.27.31-1.09.62-2.18.93-3.27.34-1.09.5-2.21.77-3.33.23-1.12.51-2.24.71-3.37.17-1.14.34-2.28.51-3.43l.26-1.73.15-1.75c.1-1.17.22-2.34.3-3.52.04-1.19.07-2.38.11-3.58.22-9.61-1.27-19.81-2.58-30.73-.61-5.47-1.25-11.07-1.47-16.82-.1-1.43-.12-2.88-.14-4.32-.02-1.45-.07-2.9-.05-4.36.07-2.87.14-5.75.2-8.65.06-2.79.11-5.59.17-8.4,0-2.82-.15-5.66-.22-8.51-.05-1.43-.09-2.86-.14-4.29-.11-1.43-.22-2.87-.33-4.31-.24-2.88-.39-5.78-.72-8.69-1.19-11.64-3.1-23.46-5.31-35.43-4.54-23.94-10.65-48.43-15.52-73.75-2.48-12.65-4.51-25.54-5.8-38.62-.32-3.21-.64-6.43-.95-9.65-.37-3.12-.85-6.24-1.46-9.38-1.19-6.27-2.72-12.55-4.31-18.88-3.16-12.65-6.67-25.48-8.22-39.02-.71-6.77-.89-13.76.14-20.81l.49-2.64.25-1.32.35-1.31.71-2.62.92-2.58.47-1.29c.17-.42.38-.84.56-1.25l1.16-2.5c.43-.81.91-1.6,1.36-2.39.46-.8.91-1.6,1.47-2.33,4.16-6.1,9.74-11.09,15.75-14.86l3.92-2.62,1.92-1.28.96-.64.9-.7,3.6-2.8.9-.7.83-.76,1.66-1.52c2.3-1.94,4.19-4.21,6.21-6.35l2.66-3.45.66-.86.57-.91,1.15-1.82c2.99-4.86,5.15-10.09,6.44-15.53,1.32-5.44,1.66-11.13,1.47-16.84-.2-5.72-.99-11.5-2.11-17.28-2.31-11.58-5.87-23.08-9.28-34.87-3.4-11.77-6.72-23.88-8.26-36.9-.23-1.61-.3-3.29-.45-4.93-.06-.83-.14-1.65-.18-2.48l-.06-2.52c-.02-1.69-.12-3.35,0-5.07.08-1.69.17-3.38.25-5.06.39-5.74.77-11.42,1.15-17.03.74-11.26,1.48-22.33,2.37-33.2.83-10.86,1.87-21.52,3.02-31.91,2.39-20.79,5.47-40.61,9.51-58.98,4-18.37,8.78-35.27,13.45-50.35"/>
        </g>
        <path class="cls-6" d="M177.12,601.92s-.8-4.19-2.27-11.93c-.78-3.83-1.74-8.54-2.85-14.06-1.13-5.46-2.42-11.71-3.86-18.68-2.78-13.86-6.1-30.42-8.32-49-.48-4.85-.98-9.85-1.49-14.98-.68-5.84-1.77-11.49-3.02-17.07-2.5-11.15-5.68-22.06-8.25-32.97-1.28-5.45-2.39-10.89-3.11-16.23-.73-5.35-.97-10.57-.52-15.43.18-2.46.68-4.74,1.24-6.99l.53-1.61.25-.81.34-.77.65-1.56.8-1.5c.47-1.05,1.2-1.93,1.8-2.92.29-.5.72-.9,1.07-1.37.38-.45.7-.93,1.11-1.36,1.66-1.74,3.45-3.47,5.6-5l1.61-1.16.41-.3.56-.38,1.12-.77c1.48-1.03,2.97-2.05,4.46-3.08.75-.49,1.47-1.07,2.18-1.65l2.15-1.73c1.43-1.17,2.89-2.26,4.23-3.59,1.36-1.28,2.72-2.57,4.09-3.85,1.3-1.39,2.56-2.82,3.83-4.23,1.31-1.36,2.4-2.99,3.57-4.51l1.72-2.32,1.54-2.48c4.12-6.58,7.14-13.96,8.74-21.53,1.63-7.57,1.9-15.22,1.33-22.59-.58-7.38-1.98-14.5-3.73-21.42-1.75-6.93-3.87-13.66-6.06-20.33-4.37-13.34-9.22-26.4-12.2-40.23-1.48-6.91-2.47-14.03-2.47-21.36-.04-1.87.01-3.6.05-5.33.03-1.74.06-3.48.09-5.22.06-3.48.11-6.95.17-10.42.21-13.88.39-27.7.8-41.47"/>
      </g>
    </g>
  </g>
  <path class="cls-5" d="M548.06,771.32c3.52,50.74-2.88,102.07-18.78,150.72"/>
  <path class="cls-5" d="M504.11,756c-1.6,16.34,13.87,29.26,21.04,44.25,5.25,10.98,6.01,23.32,6.11,35.33.28,32.93-3.78,65.9-12.06,97.92"/>
  <path class="cls-2" d="M120.44,537.81c392.56,335.19,1553.56,308.19,1763.63-214.7"/>
  <path class="cls-4" d="M118.1,537.85c250.9-195.85,1393.9-330.85,1780.9,380.15"/>
  <g>
    <path d="M582.3,903.78c-1.92,0-3.9-.87-5.94-2.61-2.04-1.74-3.06-3.21-3.06-4.41,0-1.08.66-1.62,1.98-1.62.12,0,.9.18,2.34.54-.48-2.52-.84-5.43-1.08-8.73-.24-3.3-.36-6.93-.36-10.89,0-6.84.27-14.25.81-22.23.54-7.98,1.32-15.99,2.34-24.03,1.02-8.04,2.13-15.66,3.33-22.86,1.2-7.2,2.4-13.38,3.6-18.54h-9.54c-2.64-.12-3.96-.6-3.96-1.44,0-.6.75-1.26,2.25-1.98,1.5-.72,3.27-1.08,5.31-1.08h7.02c.6-3.12,1.98-5.16,4.14-6.12,2.16-.96,4.44-1.44,6.84-1.44,1.8,0,2.7.6,2.7,1.8s-.54,2.4-1.62,3.6c-1.08,1.2-1.74,2.1-1.98,2.7,3,.24,6.66.69,10.98,1.35,4.32.66,8.73,1.62,13.23,2.88,4.5,1.26,8.7,2.97,12.6,5.13,3.9,2.16,7.08,4.83,9.54,8.01,2.46,3.18,3.69,7.05,3.69,11.61,0,3.6-.99,7.02-2.97,10.26-1.98,3.24-4.5,6.18-7.56,8.82-3.06,2.64-6.27,4.95-9.63,6.93-3.36,1.98-6.42,3.57-9.18,4.77,1.32-.12,2.73-.21,4.23-.27,1.5-.06,3.09-.09,4.77-.09,3.96,0,8.16.3,12.6.9,4.44.6,8.58,1.68,12.42,3.24,3.84,1.56,6.96,3.75,9.36,6.57,2.4,2.82,3.6,6.45,3.6,10.89,0,6.36-2.01,11.91-6.03,16.65-4.02,4.74-9.27,8.64-15.75,11.7-6.48,3.06-13.5,5.34-21.06,6.84-7.56,1.5-14.82,2.25-21.78,2.25-2.64,0-5.22-.09-7.74-.27-2.52-.18-4.86-.51-7.02-.99-.6,1.44-1.74,2.16-3.42,2.16ZM600.84,898.38c6.24,0,12.63-.54,19.17-1.62,6.54-1.08,12.6-2.82,18.18-5.22,5.58-2.4,10.08-5.61,13.5-9.63,3.42-4.02,5.13-8.91,5.13-14.67-.12-4.08-1.53-7.41-4.23-9.99-2.7-2.58-6.15-4.56-10.35-5.94-4.2-1.38-8.64-2.34-13.32-2.88-4.68-.54-9.06-.81-13.14-.81-5.52,0-10.77.33-15.75.99-4.98.66-10.17,1.41-15.57,2.25-.12,1.56-.24,3.81-.36,6.75-.12,2.94-.18,6.21-.18,9.81,0,5.16.09,10.44.27,15.84.18,5.4.45,9.96.81,13.68,4.56.96,9.84,1.44,15.84,1.44ZM588.96,845.28c1.2,0,3.69-.21,7.47-.63,3.78-.42,8.07-1.26,12.87-2.52,4.8-1.26,9.51-3,14.13-5.22,4.62-2.22,8.46-5.13,11.52-8.73,3.06-3.6,4.59-8.04,4.59-13.32,0-.6-.03-1.23-.09-1.89-.06-.66-.15-1.35-.27-2.07-1.2-3.84-3.51-7.08-6.93-9.72-3.42-2.64-7.35-4.8-11.79-6.48-4.44-1.68-8.85-3-13.23-3.96-4.38-.96-8.07-1.62-11.07-1.98h-.18c-.6,1.8-1.35,4.56-2.25,8.28-.9,3.72-1.83,7.86-2.79,12.42-.96,4.56-1.89,9.18-2.79,13.86s-1.65,8.94-2.25,12.78c-.6,3.84-.96,6.84-1.08,9,.12,0,.54.03,1.26.09.72.06,1.68.09,2.88.09Z"/>
    <path d="M660.6,960.3c-1.92,0-2.88-1.14-2.88-3.42,0-3,1.05-6.72,3.15-11.16,2.1-4.44,4.71-9.12,7.83-14.04,3.12-4.92,6.24-9.63,9.36-14.13,3.12-4.5,5.79-8.31,8.01-11.43,2.22-3.12,3.45-4.98,3.69-5.58.72-2.16,1.23-4.62,1.53-7.38.3-2.76.45-5.7.45-8.82,0-6-.39-11.82-1.17-17.46-.78-5.64-1.92-10.32-3.42-14.04-1.5-3.72-3.45-5.58-5.85-5.58-.48,0-.96.03-1.44.09-.48.06-.84.09-1.08.09-.48,0-.72-.3-.72-.9,0-.36.27-.9.81-1.62.54-.72,1.59-1.62,3.15-2.7.6-.48,1.29-1.32,2.07-2.52.78-1.2,1.59-2.34,2.43-3.42.84-1.08,1.62-1.62,2.34-1.62,1.8,0,3.42,1.83,4.86,5.49,1.44,3.66,2.61,8.34,3.51,14.04.9,5.7,1.35,11.67,1.35,17.91,0,1.44-.03,2.88-.09,4.32-.06,1.44-.09,2.88-.09,4.32,0,1.92.48,2.88,1.44,2.88,1.2,0,2.94-1.26,5.22-3.78,2.28-2.52,4.77-5.7,7.47-9.54,2.7-3.84,5.31-7.83,7.83-11.97,2.52-4.14,4.59-7.86,6.21-11.16,1.62-3.3,2.43-5.61,2.43-6.93,0-.72-.3-1.08-.9-1.08-.36,0-.78.12-1.26.36-.48.24-.96.36-1.44.36-.6,0-1.08-.3-1.44-.9,0-1.08.87-2.25,2.61-3.51,1.74-1.26,3.69-2.34,5.85-3.24s3.9-1.35,5.22-1.35c.6,0,1.02.06,1.26.18.36.48.54,1.14.54,1.98,0,1.8-.87,4.44-2.61,7.92-1.74,3.48-3.99,7.35-6.75,11.61-2.76,4.26-5.76,8.64-9,13.14-3.24,4.5-6.42,8.76-9.54,12.78-3.12,4.02-5.85,7.5-8.19,10.44-2.34,2.94-3.99,4.95-4.95,6.03,0-.84-.15-.63-.45.63-.3,1.26-.66,2.94-1.08,5.04-.42,2.1-.96,4.02-1.62,5.76-.66,1.74-1.35,2.61-2.07,2.61-.6,0-1.23-.15-1.89-.45-.66-.3-1.11-.45-1.35-.45-8.88,12-15.15,21.24-18.81,27.72-3.66,6.48-5.49,11.16-5.49,14.04,0,1.44.24,2.55.72,3.33.48.78.72,1.53.72,2.25,0,1.32-.75,2.46-2.25,3.42-1.5.96-2.91,1.44-4.23,1.44Z"/>
    <path d="M787.86,901.26c-1.32,0-2.31-.18-2.97-.54-.66-.36-.99-1.14-.99-2.34,0-3.24.27-7.95.81-14.13.54-6.18,1.26-13.11,2.16-20.79.9-7.68,1.92-15.57,3.06-23.67,1.14-8.1,2.31-15.84,3.51-23.22,1.2-7.38,2.34-13.71,3.42-18.99v-.36c0-.48-.09-.87-.27-1.17-.18-.3-.27-.69-.27-1.17,0-.72.18-1.92.54-3.6.36-1.68.66-2.94.9-3.78h-1.08c-1.2,0-2.43.06-3.69.18-1.26.12-2.37.18-3.33.18-2.64-.12-3.96-.6-3.96-1.44,0-1.2,1.47-2.01,4.41-2.43,2.94-.42,5.85-.63,8.73-.63.36-2.04,1.59-3.72,3.69-5.04,2.1-1.32,4.65-1.98,7.65-1.98,1.92,0,2.88.72,2.88,2.16-.6,1.44-1.11,2.37-1.53,2.79s-.87,1.35-1.35,2.79c3.12.24,6.81.69,11.07,1.35,4.26.66,8.61,1.59,13.05,2.79,4.44,1.2,8.58,2.82,12.42,4.86,3.84,2.04,6.96,4.62,9.36,7.74,2.4,3.12,3.6,6.9,3.6,11.34,0,4.08-.93,8.01-2.79,11.79-1.86,3.78-4.26,7.23-7.2,10.35-2.94,3.12-6.03,5.79-9.27,8.01-3.24,2.22-6.3,3.81-9.18,4.77-4.08,1.44-8.43,2.43-13.05,2.97-4.62.54-8.85.81-12.69.81-2.88,0-5.31-.09-7.29-.27-1.98-.18-3.27-.39-3.87-.63-.36,2.04-.75,5.1-1.17,9.18-.42,4.08-.75,8.61-.99,13.59-.24,4.98-.36,9.93-.36,14.85,0,3,.18,5.49.54,7.47.36,1.98.54,2.91.54,2.79,0,.6-.15.93-.45.99-.3.06-.51.27-.63.63-.24.6-.75,1.05-1.53,1.35-.78.3-1.59.45-2.43.45ZM806.76,846.36c1.68,0,3.36-.03,5.04-.09,1.68-.06,3.12-.15,4.32-.27,3.48-.36,7.29-1.38,11.43-3.06,4.14-1.68,8.04-3.93,11.7-6.75,3.66-2.82,6.66-6.15,9-9.99,2.34-3.84,3.51-8.16,3.51-12.96,0-4.2-1.5-7.8-4.5-10.8-3-3-6.78-5.49-11.34-7.47-4.56-1.98-9.27-3.51-14.13-4.59-4.86-1.08-9.21-1.8-13.05-2.16-.84,1.8-1.83,4.56-2.97,8.28-1.14,3.72-2.25,7.92-3.33,12.6-1.08,4.68-2.13,9.39-3.15,14.13-1.02,4.74-1.86,9.06-2.52,12.96-.66,3.9-1.11,6.93-1.35,9.09.36.36,1.68.63,3.96.81,2.28.18,4.74.27,7.38.27Z"/>
    <path d="M849.96,901.44c-2.88,0-4.32-2.16-4.32-6.48,0-3.36.66-7.53,1.98-12.51,1.32-4.98,3.06-10.17,5.22-15.57,2.16-5.4,4.53-10.47,7.11-15.21,2.58-4.74,5.22-8.61,7.92-11.61,2.7-3,5.19-4.5,7.47-4.5h.54l1.98-1.44c.6-.72,1.35-1.2,2.25-1.44.9-.24,1.83-.36,2.79-.36,2.4,0,4.92.48,7.56,1.44,2.64.96,4.44,1.44,5.4,1.44.84,0,1.47-.48,1.89-1.44.42-.96,1.35-1.44,2.79-1.44,1.68,0,2.85.36,3.51,1.08.66.72.99,1.68.99,2.88,0,1.68-.48,3.63-1.44,5.85-.96,2.22-1.74,4.05-2.34,5.49-.12.48-.66.87-1.62,1.17-.96.3-1.56.69-1.8,1.17-1.92,5.52-3.66,11.13-5.22,16.83-1.56,5.7-2.76,10.65-3.6,14.85-.84,4.2-1.26,6.78-1.26,7.74,0,3,.84,4.5,2.52,4.5,1.44,0,3-.63,4.68-1.89,1.68-1.26,3.33-2.67,4.95-4.23,1.62-1.56,2.97-2.97,4.05-4.23s1.68-1.89,1.8-1.89c.24,0,.36.24.36.72s-.18,1.2-.54,2.16c-.36.96-.78,1.62-1.26,1.98-1.2,1.08-3.06,2.73-5.58,4.95-2.52,2.22-5.22,4.29-8.1,6.21-2.88,1.92-5.4,2.88-7.56,2.88-2.52,0-4.02-1.5-4.5-4.5,0-2.16.36-4.95,1.08-8.37.72-3.42,1.53-6.93,2.43-10.53.9-3.6,1.71-6.6,2.43-9-1.8,2.4-4.11,5.46-6.93,9.18-2.82,3.72-5.88,7.41-9.18,11.07-3.3,3.66-6.57,6.75-9.81,9.27-3.24,2.52-6.12,3.78-8.64,3.78ZM855.72,892.98c1.2,0,2.79-.81,4.77-2.43,1.98-1.62,4.14-3.69,6.48-6.21,2.34-2.52,4.56-5.04,6.66-7.56,2.1-2.52,3.9-4.77,5.4-6.75,1.5-1.98,2.43-3.21,2.79-3.69,1.92-3.12,3.81-6.51,5.67-10.17,1.86-3.66,3.39-7.02,4.59-10.08,1.2-3.06,1.8-5.19,1.8-6.39,0-.72-.3-1.08-.9-1.08h-.54c-1.2,0-2.43-.12-3.69-.36-1.26-.24-2.73-.36-4.41-.36s-3.48.24-5.4.72c-1.08.24-2.61,1.71-4.59,4.41s-4.14,6.09-6.48,10.17c-2.34,4.08-4.56,8.43-6.66,13.05-2.1,4.62-3.84,9.03-5.22,13.23-1.38,4.2-2.07,7.68-2.07,10.44,0,2.04.6,3.06,1.8,3.06Z"/>
    <path d="M917.28,902.34c-3.12,0-5.73-1.02-7.83-3.06-2.1-2.04-3.15-5.28-3.15-9.72s.78-9.15,2.34-14.49c1.56-5.34,3.54-10.56,5.94-15.66,2.4-5.1,4.83-9.48,7.29-13.14,2.46-3.66,4.65-5.91,6.57-6.75,3.72-1.32,6.6-2.67,8.64-4.05,2.04-1.38,4.56-2.07,7.56-2.07,2.4,0,4.41.6,6.03,1.8,1.62,1.2,2.43,3.42,2.43,6.66v1.35c0,.42-.06.93-.18,1.53-.36,2.16-1.08,3.84-2.16,5.04-1.08,1.2-2.1,1.8-3.06,1.8-1.44,0-2.16-1.08-2.16-3.24,0-1.2.24-2.55.72-4.05.48-1.5.72-2.85.72-4.05,0-1.92-1.02-2.88-3.06-2.88-1.08,0-2.55.51-4.41,1.53-1.86,1.02-3.66,2.19-5.4,3.51-1.74,1.32-3.03,2.4-3.87,3.24-.96.96-2.34,3.18-4.14,6.66-1.8,3.48-3.63,7.56-5.49,12.24-1.86,4.68-3.45,9.33-4.77,13.95-1.32,4.62-1.98,8.55-1.98,11.79,0,4.44,1.74,6.66,5.22,6.66,3.84,0,7.38-1.05,10.62-3.15,3.24-2.1,6.15-4.5,8.73-7.2,2.58-2.7,4.65-5.1,6.21-7.2,1.56-2.1,2.52-3.21,2.88-3.33.6.24.9.66.9,1.26,0,1.2-.87,3.15-2.61,5.85-1.74,2.7-4.08,5.52-7.02,8.46-2.94,2.94-6.27,5.46-9.99,7.56-3.72,2.1-7.56,3.15-11.52,3.15Z"/>
    <path d="M955.62,901.98c-2.28,0-3.42-1.08-3.42-3.24,0-1.08.24-2.34.72-3.78,2.64-7.56,4.8-13.77,6.48-18.63,1.68-4.86,3-8.7,3.96-11.52.96-2.82,1.62-4.98,1.98-6.48.36-1.5.54-2.73.54-3.69,0-.6-.09-1.02-.27-1.26-.18-.24-.27-.6-.27-1.08s.18-1.26.54-2.34c2.52-7.32,4.8-12.3,6.84-14.94,2.04-2.64,5.1-3.96,9.18-3.96,1.68,0,2.58.54,2.7,1.62-1.2,2.28-3.15,6-5.85,11.16-2.7,5.16-5.55,11.55-8.55,19.17-3,7.62-5.64,16.35-7.92,26.19-.12.36-.18.84-.18,1.44,0,1.44.6,2.16,1.8,2.16.72,0,1.86-.45,3.42-1.35,1.56-.9,3.18-1.8,4.86-2.7,1.68-.9,2.94-1.35,3.78-1.35s1.32.24,1.44.72c0,.72-.9,1.83-2.7,3.33-1.8,1.5-3.96,3.06-6.48,4.68-2.52,1.62-4.95,3-7.29,4.14-2.34,1.14-4.11,1.71-5.31,1.71ZM982.08,820.08c-1.68,0-2.7-.63-3.06-1.89-.36-1.26-.54-2.61-.54-4.05,0-1.8.9-3.69,2.7-5.67,1.8-1.98,3.93-3.66,6.39-5.04,2.46-1.38,4.53-2.07,6.21-2.07.6,0,.96.18,1.08.54,0,1.32-.51,2.58-1.53,3.78-1.02,1.2-2.13,2.4-3.33,3.6s-2.16,2.58-2.88,4.14c-.48,1.2-1.08,2.52-1.8,3.96-.72,1.44-1.8,2.34-3.24,2.7Z"/>
    <path d="M962.46,938.16c-4.2,0-7.29-.78-9.27-2.34-1.98-1.56-3.24-3.48-3.78-5.76-.54-2.28-.81-4.38-.81-6.3,0-3.48.51-6.63,1.53-9.45,1.02-2.82,1.95-4.23,2.79-4.23.48,0,.78.36.9,1.08-.12.84-.21,1.68-.27,2.52-.06.84-.09,1.68-.09,2.52,0,5.64,1.11,10.11,3.33,13.41,2.22,3.3,4.83,4.95,7.83,4.95,2.76,0,5.64-1.47,8.64-4.41,3-2.94,5.82-7.65,8.46-14.13,1.56-3.84,3.33-8.67,5.31-14.49,1.98-5.82,3.96-11.97,5.94-18.45,1.98-6.48,3.87-12.69,5.67-18.63,1.8-5.94,3.33-11.07,4.59-15.39,1.26-4.32,2.07-7.14,2.43-8.46h-11.7c-2.88,0-4.32-.54-4.32-1.62,0-.84.78-1.74,2.34-2.7,1.56-.96,2.76-1.44,3.6-1.44h11.52c.36-1.08.99-3.09,1.89-6.03.9-2.94,1.92-6.21,3.06-9.81,1.14-3.6,2.25-6.96,3.33-10.08,1.08-3.12,1.86-5.4,2.34-6.84,2.52-6.96,6.09-12.06,10.71-15.3,4.62-3.24,10.59-4.86,17.91-4.86,4.68,0,8.37,1.11,11.07,3.33,2.7,2.22,4.65,4.86,5.85,7.92,1.2,3.06,1.8,5.91,1.8,8.55,0,3.12-.57,5.52-1.71,7.2-1.14,1.68-2.46,2.85-3.96,3.51-1.5.66-2.79.99-3.87.99-.72,0-1.47-.27-2.25-.81-.78-.54-1.17-1.47-1.17-2.79,0-1.56.48-3.27,1.44-5.13.96-1.86,1.89-3.51,2.79-4.95.9-1.44,1.35-2.4,1.35-2.88,0-1.32-.66-2.85-1.98-4.59-1.32-1.74-3-3.27-5.04-4.59-2.04-1.32-4.14-1.98-6.3-1.98-3.96,0-7.14.93-9.54,2.79-2.4,1.86-4.29,4.11-5.67,6.75-1.38,2.64-2.55,5.16-3.51,7.56-1.44,3.72-2.82,7.65-4.14,11.79-1.32,4.14-2.52,8.01-3.6,11.61-1.08,3.6-1.98,6.54-2.7,8.82,1.32,0,2.79.06,4.41.18,1.62.12,3.27.18,4.95.18,2.04,0,4.11-.27,6.21-.81,2.1-.54,3.51-.81,4.23-.81.48,0,.72.12.72.36,0,1.8-1.29,3.12-3.87,3.96-2.58.84-5.58,1.35-9,1.53s-6.45.27-9.09.27c-.36.84-1.05,3.03-2.07,6.57-1.02,3.54-2.25,7.83-3.69,12.87s-2.97,10.32-4.59,15.84c-1.62,5.52-3.21,10.8-4.77,15.84-1.56,5.04-2.88,9.3-3.96,12.78-2.88,9.12-6.21,16.17-9.99,21.15-3.78,4.98-7.62,8.43-11.52,10.35-3.9,1.92-7.47,2.88-10.71,2.88ZM1028.88,901.98c-2.28,0-3.42-1.08-3.42-3.24,0-1.08.24-2.34.72-3.78,2.64-7.56,4.8-13.77,6.48-18.63,1.68-4.86,3-8.7,3.96-11.52.96-2.82,1.62-4.98,1.98-6.48.36-1.5.54-2.73.54-3.69,0-.6-.09-1.02-.27-1.26-.18-.24-.27-.6-.27-1.08s.18-1.26.54-2.34c2.52-7.32,4.8-12.3,6.84-14.94,2.04-2.64,5.1-3.96,9.18-3.96,1.68,0,2.58.54,2.7,1.62-1.2,2.28-3.15,6-5.85,11.16-2.7,5.16-5.55,11.55-8.55,19.17-3,7.62-5.64,16.35-7.92,26.19-.12.36-.18.84-.18,1.44,0,1.44.6,2.16,1.8,2.16.72,0,1.86-.45,3.42-1.35,1.56-.9,3.18-1.8,4.86-2.7,1.68-.9,2.94-1.35,3.78-1.35s1.32.24,1.44.72c0,.72-.9,1.83-2.7,3.33-1.8,1.5-3.96,3.06-6.48,4.68-2.52,1.62-4.95,3-7.29,4.14-2.34,1.14-4.11,1.71-5.31,1.71Z"/>
    <path d="M1081.97,941.22c-2.4,0-3.78-1.5-4.14-4.5,0-2.4.54-5.82,1.62-10.26,1.08-4.44,2.49-9.36,4.23-14.76,1.74-5.4,3.6-10.83,5.58-16.29,1.98-5.46,3.84-10.5,5.58-15.12,1.74-4.62,3.15-8.37,4.23-11.25-1.92,2.4-4.47,5.46-7.65,9.18-3.18,3.72-6.63,7.41-10.35,11.07-3.72,3.66-7.35,6.75-10.89,9.27-3.54,2.52-6.57,3.78-9.09,3.78-2.76,0-4.14-1.86-4.14-5.58,0-3.24.81-7.38,2.43-12.42,1.62-5.04,3.75-10.38,6.39-16.02,2.64-5.64,5.52-10.95,8.64-15.93,3.12-4.98,6.21-9.03,9.27-12.15,3.06-3.12,5.79-4.68,8.19-4.68h.54l1.98-1.44c.6-.72,1.35-1.2,2.25-1.44.9-.24,1.83-.36,2.79-.36,2.4,0,4.92.48,7.56,1.44,2.64.96,4.38,1.44,5.22,1.44s1.53-.48,2.07-1.44c.54-.96,1.53-1.44,2.97-1.44,3.24,0,4.86,1.5,4.86,4.5,0,1.68-.42,3.57-1.26,5.67-.84,2.1-1.56,3.81-2.16,5.13-.12.48-.66.87-1.62,1.17-.96.3-1.56.69-1.8,1.17-5.28,12.6-10.29,24.99-15.03,37.17-4.74,12.18-8.67,24.99-11.79,38.43-.48,1.92-.72,3.6-.72,5.04,0,2.16.66,3.24,1.98,3.24,1.44,0,3.06-.63,4.86-1.89s3.57-2.76,5.31-4.5c1.74-1.74,3.27-3.24,4.59-4.5,1.32-1.26,2.22-1.89,2.7-1.89.6,0,.9.42.9,1.26,0,.72-.21,1.5-.63,2.34-.42.84-.75,1.32-.99,1.44-.96.84-2.43,2.07-4.41,3.69-1.98,1.62-4.2,3.3-6.66,5.04-2.46,1.74-4.86,3.24-7.2,4.5-2.34,1.26-4.41,1.89-6.21,1.89ZM1068.47,892.98c1.2,0,2.85-.81,4.95-2.43,2.1-1.62,4.38-3.69,6.84-6.21,2.46-2.52,4.83-5.04,7.11-7.56,2.28-2.52,4.26-4.77,5.94-6.75,1.68-1.98,2.7-3.21,3.06-3.69,2.16-3.24,4.29-6.72,6.39-10.44,2.1-3.72,3.84-7.08,5.22-10.08,1.38-3,2.07-5.1,2.07-6.3,0-.6-.24-.9-.72-.9h-.54c-1.2,0-2.43-.15-3.69-.45-1.26-.3-2.73-.45-4.41-.45-.84,0-1.68.06-2.52.18-.84.12-1.8.36-2.88.72-.84.12-2.37,1.56-4.59,4.32-2.22,2.76-4.68,6.24-7.38,10.44-2.7,4.2-5.31,8.64-7.83,13.32-2.52,4.68-4.59,9.12-6.21,13.32-1.62,4.2-2.43,7.68-2.43,10.44,0,1.68.54,2.52,1.62,2.52Z"/>
    <path d="M1143.53,912.24c-1.56,0-2.34-.66-2.34-1.98,0-1.2.9-2.43,2.7-3.69s3.12-2.85,3.96-4.77c.36-.96,1.08-3.27,2.16-6.93,1.08-3.66,2.31-7.86,3.69-12.6,1.38-4.74,2.64-9.27,3.78-13.59,1.14-4.32,2.01-7.62,2.61-9.9-1.32,2.04-3.33,4.83-6.03,8.37-2.7,3.54-5.73,7.32-9.09,11.34-3.36,4.02-6.81,7.86-10.35,11.52-3.54,3.66-6.87,6.66-9.99,9-3.12,2.34-5.76,3.51-7.92,3.51-1.68,0-2.52-1.08-2.52-3.24,0-1.8.66-4.38,1.98-7.74.72-1.68,1.83-4.14,3.33-7.38,1.5-3.24,3.06-6.75,4.68-10.53,1.62-3.78,3-7.32,4.14-10.62,1.14-3.3,1.71-5.85,1.71-7.65,0-.84-.12-1.41-.36-1.71-.24-.3-.36-.75-.36-1.35,0-.24.03-.51.09-.81.06-.3.15-.69.27-1.17,1.32-4.92,2.55-8.76,3.69-11.52,1.14-2.76,2.55-4.68,4.23-5.76,1.68-1.08,3.96-1.62,6.84-1.62,1.68,0,2.7.54,3.06,1.62-.48,1.2-1.5,3.69-3.06,7.47-1.56,3.78-3.39,8.22-5.49,13.32-2.1,5.1-4.14,10.14-6.12,15.12-1.98,4.98-3.63,9.3-4.95,12.96-1.32,3.66-1.98,5.91-1.98,6.75,0,.48.18.72.54.72.48,0,1.11-.3,1.89-.9.78-.6,1.59-1.26,2.43-1.98,7.08-5.4,13.2-11.49,18.36-18.27,5.16-6.78,9.6-13.65,13.32-20.61.12-1.8.57-4.08,1.35-6.84.78-2.76,2.13-5.22,4.05-7.38,1.92-2.16,4.44-3.24,7.56-3.24,1.32,0,2.04.54,2.16,1.62-.6,1.92-1.83,5.34-3.69,10.26-1.86,4.92-3.81,10.26-5.85,16.02-.96,2.88-2.04,6.27-3.24,10.17-1.2,3.9-2.37,7.83-3.51,11.79-1.14,3.96-2.07,7.44-2.79,10.44-.72,3-1.08,4.98-1.08,5.94,0,.36.12.54.36.54,1.08-.12,2.55-.9,4.41-2.34,1.86-1.44,3.81-2.91,5.85-4.41,2.04-1.5,3.72-2.25,5.04-2.25.24,0,.54.06.9.18.36.12.54.36.54.72,0,.72-.84,1.74-2.52,3.06-1.68,1.32-3.69,2.7-6.03,4.14-2.34,1.44-4.5,2.76-6.48,3.96-1.98,1.2-3.33,2.04-4.05,2.52-1.2.96-2.49,2.22-3.87,3.78-1.38,1.56-2.73,2.94-4.05,4.14-1.32,1.2-2.64,1.8-3.96,1.8Z"/>
    <path d="M1190.15,902.7c-1.44,0-3.09-.33-4.95-.99-1.86-.66-3.48-1.86-4.86-3.6-1.38-1.74-2.07-4.23-2.07-7.47,0-1.32.18-2.88.54-4.68,1.2-6,2.37-10.56,3.51-13.68,1.14-3.12,1.83-5.64,2.07-7.56-.36-.12-.9-.42-1.62-.9-.72-.48-1.08-1.14-1.08-1.98s.36-1.38,1.08-1.62c.72-.24,1.38-.36,1.98-.36h1.26c.96-2.04,2.01-4.26,3.15-6.66,1.14-2.4,2.85-5.64,5.13-9.72,2.04-3.84,4.71-6.39,8.01-7.65,3.3-1.26,7.05-1.89,11.25-1.89s6.9,3.66,8.46,10.98c.72,3.72,1.08,6.72,1.08,9,0,2.88-.93,5.16-2.79,6.84-1.86,1.68-4.14,2.94-6.84,3.78-2.7.84-5.37,1.41-8.01,1.71-2.64.3-4.74.45-6.3.45s-2.91-.03-4.05-.09c-1.14-.06-1.95-.09-2.43-.09-1.8,4.56-3.24,8.94-4.32,13.14-1.08,4.2-1.62,7.74-1.62,10.62,0,4.8,1.8,7.2,5.4,7.2,2.16,0,4.41-.96,6.75-2.88,2.34-1.92,4.59-4.14,6.75-6.66,2.16-2.52,4.02-4.74,5.58-6.66,1.56-1.92,2.58-2.88,3.06-2.88.84,0,1.26.48,1.26,1.44,0,1.68-.96,3.81-2.88,6.39-1.92,2.58-4.29,5.13-7.11,7.65-2.82,2.52-5.64,4.62-8.46,6.3-2.82,1.68-5.13,2.52-6.93,2.52ZM1201.49,861.84c4.56,0,8.01-.51,10.35-1.53,2.34-1.02,3.57-3.27,3.69-6.75,0-4.92-.63-8.4-1.89-10.44-1.26-2.04-2.43-3.06-3.51-3.06-1.44,0-2.97.87-4.59,2.61-1.62,1.74-3.18,3.81-4.68,6.21-1.5,2.4-2.85,4.77-4.05,7.11-1.2,2.34-2.04,4.17-2.52,5.49.6,0,1.56.06,2.88.18,1.32.12,2.76.18,4.32.18Z"/>
  </g>
</svg>