<?xml version="1.0" encoding="UTF-8"?>
<svg id="Layer_1" data-name="Layer 1" xmlns="http://www.w3.org/2000/svg" viewBox="0 0 2278.69 1334.78">
  <defs>
    <style>
      .cls-1, .cls-2, .cls-3, .cls-4 {
        fill: none;
      }

      .cls-1, .cls-2, .cls-3, .cls-4, .cls-5, .cls-6, .cls-7 {
        stroke-miterlimit: 10;
      }

      .cls-1, .cls-2, .cls-3, .cls-6, .cls-7 {
        stroke: #fff;
      }

      .cls-1, .cls-3 {
        isolation: isolate;
      }

      .cls-1, .cls-3, .cls-4, .cls-5, .cls-8, .cls-7 {
        stroke-width: 14px;
      }

      .cls-1, .cls-9 {
        opacity: .7;
      }

      .cls-2, .cls-6 {
        stroke-width: 9px;
      }

      .cls-3 {
        opacity: .66;
      }

      .cls-4 {
        stroke: #231f20;
        stroke-linecap: round;
      }

      .cls-10, .cls-8 {
        fill: #ed1c24;
      }

      .cls-5 {
        fill: red;
        stroke: red;
      }

      .cls-8 {
        stroke: #ef3940;
      }

      .cls-11 {
        opacity: .95;
      }

      .cls-7 {
        fill: #fff;
      }
    </style>
  </defs>
  <line class="cls-4" x1="1675.81" y1="535.53" x2="1702.62" y2="530.06"/>
  <g class="cls-11">
    <g class="cls-9">
      <g>
        <g>
          <path class="cls-10" d="M82.79,212.31c-.65,9.07-1.18,18.22-1.38,27.3-.11,4.54-.15,9.06-.15,13.53-.02,4.47-.06,8.9-.03,13.26.02,4.64-.14,9.18-.43,13.64-.14,2.23-.32,4.44-.53,6.63-.22,2.19-.49,4.36-.77,6.52-1.13,8.63-2.61,17.02-4.06,25.38-3.13,16.7-6.08,33.25-6.54,51.37-.12,5.68-.38,11.34-.87,16.97-.51,5.63-1.16,11.24-1.9,16.83-.76,5.59-1.55,11.19-2.52,16.76-.97,5.57-2,11.15-3.03,16.73-1.06,5.58-2.03,11.19-3.16,16.79-1.1,5.61-2.16,11.24-3.16,16.91-1.92,11.35-3.87,22.79-5.1,34.53-4.69,43.07-10.37,86.68-17.86,130.53-3.69,21.92-7.65,43.9-11.72,65.86-2.06,11-4.11,21.98-6.17,32.96l-1.55,8.24-1.49,8.37c-1.07,5.58-1.89,11.18-2.82,16.77-3.28,20.7-5.26,41.29-6.39,61.7-1.12,20.41-1.38,40.62-1.05,60.66.68,40.07,3.64,79.4,7.71,118.33,2.04,19.47,4.37,38.84,6.91,58.18l1.97,14.65,3.24,21.14c1.23,7.5,2.46,15,3.68,22.5,1.31,7.59,2.62,15.18,3.92,22.77,5.38,30.59,11.34,61.25,17.51,93.93,3.2,16.84,6.4,33.71,9.62,50.63.84,4.42,1.68,8.84,2.52,13.26l1.27,6.71.16.84.08.42c.03.13.06.31.08.36l.27.89.54,1.8c.72,2.42,1.44,4.91,2.16,7.49l.54,1.95.69,2.61,1.5,5.77c1.76-5.21,3.57-10.58,5.39-15.97,4.08-12.16,8.2-24.42,12.34-36.78,4.22-12.7,8.48-25.49,12.76-38.36,1.07-3.24,2.14-6.48,3.21-9.73l1.6-4.82,1.55-4.56c2.08-6.17,4.17-12.35,6.26-18.56l1.58-4.72c.26-.84.53-1.47.81-2.14l.82-2.01c1.09-2.7,2.19-5.41,3.28-8.11,1.1-2.73,2.2-5.47,3.31-8.21l1.66-4.14c.56-1.38,1.1-2.81,1.69-4.05,2.32-5.2,4.64-10.41,6.97-15.63,1.17-2.64,2.34-5.28,3.52-7.93,1.2-2.61,2.4-5.23,3.6-7.85,4.64-10.15,9.3-20.33,13.97-30.55,3.31-7.2,6.63-14.43,9.96-21.67,1.35-2.9,2.66-5.91,3.99-8.88,1.31-2.99,2.66-5.92,3.94-8.98,2.57-6.1,5.17-12.15,7.59-18.48,2.51-6.19,4.8-12.74,7.1-19.23,1.13-3.29,2.16-6.72,3.23-10.07l.79-2.53.4-1.27.2-.64.19-.73,1.51-5.82c2.02-7.75,3.36-15.92,4.29-24.1,1.68-16.41.56-32.86-1.18-46.21l-.65-4.98-.65-4.69c-.42-2.98-.83-5.95-1.24-8.91l-.54-4.15c-.17-1.36-.38-2.78-.5-4.06-.27-2.6-.62-5.27-.78-7.74-.36-3.71-.5-7.53-.58-11.56.03-4.86.06-9.96.1-15.26,0-3.08.06-6.23.03-9.4-.12-3.15-.24-6.35-.37-9.6-.06-1.62-.13-3.26-.19-4.91-.03-.82-.07-1.65-.1-2.48-.06-.82-.12-1.64-.19-2.46-.26-3.29-.53-6.61-.8-9.98-.14-1.68-.27-3.37-.41-5.07-.19-1.67-.38-3.35-.57-5.04-.39-3.37-.79-6.77-1.19-10.2-.18-1.73-.43-3.41-.68-5.1s-.5-3.39-.75-5.1c-.51-3.4-.99-6.86-1.55-10.26-2.28-13.56-4.85-27.21-7.67-40.33-2.78-13.23-5.7-25.97-8.55-38.24-2.79-12.02-5.49-23.67-8.04-34.67-5-21.65-8.98-40.14-12.45-53.87,2.25,18.59,5.6,37.74,9.44,57.47s8.14,40.02,12.1,60.88c3.96,20.85,7.57,42.28,9.89,64.13,2.32,21.84,3.3,44.13,2.04,66.27-.06-24.31-2.68-48.13-6.48-71.22-3.81-23.11-8.78-45.54-13.73-67.51-4.95-21.97-9.9-43.5-13.8-64.76-.96-5.31-1.8-10.59-2.71-15.89l-2.22-15.78-1.66-15.9c-.58-6.86-1.64-13.19-2.77-19.35-1.15-6.16-2.48-11.99-3.83-17.69-1.35-5.71-2.75-11.2-4.09-16.6-2.69-10.77-5.19-21.05-6.87-30.78-1.66-9.67-2.5-18.84-1.78-26.42.34-3.8.95-7.25,2.01-10.19,1.03-2.97,2.37-5.58,4.13-8.07.49-.6.96-1.21,1.41-1.84.54-.59,1.12-1.16,1.66-1.76.49-.63,1.21-1.16,1.84-1.73.67-.56,1.22-1.19,2.01-1.7.74-.54,1.48-1.09,2.21-1.65l.28-.21.5-.34,1-.67,1.99-1.35c1.33-.88,2.64-1.85,3.95-2.8,1.31-.94,2.61-1.91,3.9-2.93,10.29-7.98,20.06-17.65,27.79-29.28,7.75-11.57,13.15-25.01,15.56-38.34,2.46-13.35,2.32-26.37.94-38.46,1.05,10.27,1.24,21.11-.27,32.24-1.49,11.11-4.84,22.48-10.14,32.9-5.25,10.47-12.38,19.78-20.24,27.74-3.94,4-8.1,7.6-12.35,10.99-4.25,3.39-8.64,6.41-13.07,9.32-10.83,7.48-15.3,15.08-16.65,28.24l-.14,1.2-.05,1.27-.13,2.54.02,2.66v1.33l.07,1.38.13,2.77.25,2.86c.13,1.88.43,3.88.65,5.83,1.04,7.91,2.77,16.27,4.7,24.87,2.08,8.94,4.16,17.89,6.24,26.82,2.09,9.3,4.11,18.98,5.4,29.5.35,2.59.57,5.32.81,8.03l.58,6.65.55,6.46c.1,1.08.17,2.15.29,3.23l.39,3.25c.54,4.34.99,8.66,1.59,13.01l1.91,13.08c2.78,17.49,6.19,35.15,9.68,53.01,3.48,17.87,7.1,35.94,10.13,54.37,3.03,18.41,5.52,37.13,6.83,56.12l.75,14.28c.04,4.79.08,9.58.13,14.37.06,2.38-.08,4.8-.17,7.2l-.3,7.2-.32,6.88-.34,6.14c-.25,8.21.02,16.51.63,25.11.6,8.6,1.56,17.55,2.17,27.01.62,9.43.79,19.37-.13,29.28-.28,2.48-.52,4.95-.87,7.41l-1.26,7.33c-1.07,4.82-2.14,9.63-3.65,14.25l-1.06,3.49c-.35,1.17-.77,2.21-1.15,3.31l-2.36,6.53-1.19,3.25-1.28,3.19-2.56,6.36c-3.49,8.42-7.17,16.67-11,24.79-1.87,4.09-3.87,8.08-5.82,12.1-1.94,4.02-3.95,7.99-5.95,11.95-2.13,4.22-4.26,8.43-6.39,12.63-2.24,4.38-4.47,8.75-6.7,13.12-8.95,17.39-17.25,33.14-24.53,47.19-1.84,3.44-3.57,6.74-5.29,9.77-1.74,2.93-3.25,6.11-4.81,9.06-1.57,2.94-2.94,5.82-4.31,8.53-1.41,2.7-2.6,5.32-3.77,7.79l-1.46,3.08-1.27,2.97-1.22,2.81-.15.34-.07.17-.02.04s-.01.03-.02-.03l-.03-.21-.22-1.64-.43-3.26c-1.16-8.65-2.19-16.95-3.12-24.88-1.85-15.87-3.24-30.28-4.19-43.11,1.59,10.81,3.38,22.36,5.4,34.71,1.07,6.34,2.14,12.72,3.22,19.14l.43,2.48.21,1.25.05.31s.05-.11.07-.16l.14-.4c.38-1.09.76-2.18,1.14-3.28.39-1.12.78-2.23,1.17-3.35.41-1.12.88-2.24,1.32-3.38,5.04-12.93,11.67-27.02,19.22-42.56,3.97-8.1,7.97-16.25,11.98-24.43,2.13-4.37,4.27-8.76,6.41-13.16,1.1-2.3,2.21-4.6,3.32-6.9l1.69-3.54,1.75-3.73c2.33-4.97,4.67-9.96,6.93-15,1.14-2.51,2.27-5.03,3.41-7.55,1.1-2.54,2.2-5.07,3.31-7.61,2.26-5.07,4.28-10.23,6.41-15.38,1.09-2.57,2-5.2,3.01-7.8.96-2.62,2.03-5.21,2.91-7.86,1.78-5.3,3.7-10.58,5.13-16.04.85-2.7,1.36-5.48,2-8.24.69-2.76,1.01-5.58,1.49-8.39.1-.7.24-1.41.32-2.11l.21-2.13.42-4.26c.15-1.42.15-2.85.23-4.28.05-1.43.15-2.86.16-4.29.03-5.72-.12-11.47-.59-17.17-.84-11.42-2.32-22.7-3.03-33.91l-.26-4.21c-.09-1.4-.1-2.8-.16-4.2l-.14-4.2v-4.19c.02-1.4,0-2.79.04-4.19l.18-4.18.34-8.54c1.1-23.25-.45-46.62-3.38-69.71-5.85-46.22-17.05-91.3-23.67-136.12-1.63-11.2-3.06-22.39-3.99-33.54l-.66-8.36c-.22-2.64-.45-5.95-.75-8.96-.62-6.12-1.61-12.03-2.68-17.86-2.18-11.64-4.9-22.83-7.34-33.83-2.45-10.99-4.7-21.79-5.95-32.35-.66-5.28-.97-10.47-.95-15.53.03-5.06.4-10,1.41-14.61,1.94-9.27,5.96-17.38,12.56-23.78,1.54-1.69,3.44-3.08,5.2-4.61l2.93-2.04.73-.51c.26-.18.44-.32.79-.54l1.87-1.23c4.98-3.27,9.83-6.81,14.42-10.75,9.17-7.83,17.39-17.2,23.39-27.96,6-10.75,9.61-22.71,10.89-34.49,1.32-11.81.63-23.39-1-34.47-1.63-11.1-4.16-21.77-6.89-32.2-2.74-10.42-5.72-20.6-8.43-30.73s-5.18-20.21-6.84-30.37-2.5-20.43-1.77-30.69c1.3-20.5,2.42-40.7,3.81-60.63.5-6.56.91-13.34,1.47-20.14.28-3.4.46-6.83.78-10.23.28-3.41.57-6.81.85-10.18.23-3.38.62-6.71.91-10.01.32-3.29.55-6.56.9-9.73.33-3.19.64-6.31.95-9.33.14-1.52.29-3.01.43-4.48.17-1.47.33-2.91.49-4.33-3.3,21.81-5.61,43.82-7.4,66.05-1.79,22.23-3.14,44.66-4.66,67.34-.18,2.85-.42,5.64-.55,8.56-.16,2.89-.15,5.79-.09,8.67.17,5.77.74,11.5,1.56,17.2,1.66,11.39,4.37,22.59,7.32,33.8,2.96,11.21,6.2,22.43,9.05,33.91,2.84,11.47,5.35,23.22,6.52,35.4,1.17,12.14.95,24.82-2.05,37.28-1.47,6.22-3.7,12.32-6.55,18.14-2.84,5.83-6.43,11.28-10.46,16.33-8.1,10.11-18.1,18.4-28.73,25.28l-2,1.29-1.71,1.17-1.69,1.15c-.56.39-1.15.74-1.65,1.19l-3.13,2.55c-.99.89-1.91,1.86-2.87,2.77-3.68,3.81-6.71,8.13-8.97,12.9-2.26,4.76-3.76,9.96-4.63,15.4-.87,5.44-1.04,11.13-.86,16.88.2,5.76.79,11.59,1.63,17.46.87,5.87,1.95,11.78,3.15,17.72,2.4,11.88,5.27,23.85,7.67,36.13,1.19,6.14,2.29,12.36,3.08,18.69l.52,4.78c.17,1.59.25,3.22.38,4.82l.65,9.18c3.33,48.64,14.92,97.07,22.56,145.9,1.03,6.09,1.79,12.23,2.67,18.34.46,3.05.76,6.13,1.13,9.19l1.05,9.18.78,9.2.38,4.59c.14,1.53.25,3.06.31,4.6l.42,9.19.21,4.59.02,4.59.03,9.16v2.29l-.1,2.29-.21,4.56c-.29,6.13-.58,12.24-.87,18.36-.34,12.35.53,24.71,1.65,36.83,1.11,12.12,2.26,24.01,1.83,35.6-.44,11.58-2.42,22.85-5.83,33.72-3.55,11-7.68,22-12.29,32.74-4.5,10.78-9.41,21.41-14.34,31.97-1.26,2.64-2.51,5.27-3.77,7.9l-1.88,3.94-1.56,3.11c-1.01,1.99-2.01,3.98-3.01,5.96l-1.43,2.78-1.36,2.61c-3.4,6.46-6.78,12.88-10.13,19.26-6.29,11.89-11.51,21.97-15.27,30.62-.22.51-.44,1-.66,1.5-.42.97-.77,1.95-1.15,2.89l-.55,1.4-.27.69c-.03.14-.04-.11-.06-.19l-.05-.34-.1-.67-1.54-10.48c-.98-6.8-1.86-13.23-2.65-19.31-1.57-12.15-2.76-22.86-3.64-32.26-.43-4.77-.86-9.54-1.28-14.31-1.22-9.84-2.45-19.69-3.67-29.55-2.42-20.32-4.57-40.66-6.37-61-3.59-40.67-5.86-81.39-5.79-121.79.04-20.2.69-40.31,2.22-60.19.79-9.93,1.7-19.83,2.97-29.61l.94-7.34c.33-2.44.74-4.85,1.11-7.28l.56-3.64c.19-1.22.35-2.4.59-3.69l1.3-7.6c8.8-43.87,19.49-88.31,29.34-133.62,1.25-5.83,2.5-11.66,3.74-17.49,1.19-5.86,2.37-11.73,3.56-17.59,1.17-5.87,2.38-11.73,3.51-17.62l3.28-17.67c1.06-5.9,2.22-11.78,3.2-17.69l2.99-17.74c2.05-11.82,3.76-23.69,5.56-35.55,6.98-47.47,12.23-95.18,15.56-142.83.67-10.58,1.41-22.19,2.18-34.48.3-6.15.6-12.47.91-18.91.28-6.44.65-13,.8-19.65.36-13.29.79-26.89.72-40.46,0-6.78-.02-13.55-.08-20.26-.15-6.71-.34-13.37-.58-19.91-.4-13.1-1.29-25.78-2.32-37.68-.28-2.97-.55-5.9-.82-8.77-.3-2.87-.66-5.69-1.01-8.44-.71-5.51-1.47-10.78-2.3-15.76-1.6-9.96-3.7-18.78-5.99-26.08-2.3-7.3-4.88-13.1-7.77-17.03-.36,26.91,2.67,56.69.67,82.57-.96-4.91-2.03-10.17-3.01-15.65-1.04-5.48-2.03-11.17-2.73-16.95.04,5.5-.1,11.3-.13,17.01-.09,5.71-.02,11.32.57,16.45-1.1-8.51-2.36-17.18-4.7-20.45-.29,6.6.23,14.58,1.08,22.23.82,7.64,1.94,14.95,2.45,20.17.33,3.06,1.65,11.63,2.74,20.46.27,2.21.53,4.43.76,6.58.2,2.15.37,4.24.48,6.18.23,3.87.27,7.14-.03,9.14-.88-5.25-1.69-10.84-2.57-16.53-.92-5.68-1.86-11.48-2.78-17.15-.96-5.67-1.91-11.21-2.99-16.39-1.11-5.18-2.27-10.01-3.52-14.25-.13,3.58-.14,7.15-.18,10.69-.02,1.77-.05,3.54-.12,5.29-.09,1.76-.21,3.5-.37,5.24-.87-4.33-1.52-10.71-2.24-16.56-.72-5.85-1.53-11.16-2.85-13.36.03,8.89.4,17.27.66,25.74.18,8.46.3,17.01,0,26.23-.06,1.87-.13,3.71-.19,5.54-.09,1.82-.18,3.63-.27,5.42-.17,3.58-.33,7.11-.45,10.62-.26,7.01-.24,13.96-.03,21.13-1.26-17.17-1.77-40.14-5.32-52.01-.55,3.92-.74,7.96-.78,12.04-.02,4.08,0,8.18.09,12.25-.33-1-.73-1.6-1.17-1.82-.09,3.6-.83,8.33-.82,12.07-.63.07-1.26.87-1.87.12.44.12.88.18,1.33.26"/>
          <path class="cls-10" d="M126.97,188.79c-.17,8.97-.48,19.81-.93,30.46-.48,10.65-1.35,21.08-2.38,29.24"/>
          <path class="cls-8" d="M77.8,1154.68s.22-.54.66-1.6c.44-1.06,1.08-2.66,2.01-4.76,1.81-4.21,4.57-10.51,8.48-18.95,3.87-8.46,8.92-19.05,14.97-32.02,1.57-3.4,3.2-6.92,4.87-10.54.43-.94.86-1.88,1.3-2.84.47-1.03.94-2.07,1.41-3.12,1.03-2.33,2.08-4.69,3.14-7.08,4.26-9.58,8.55-19.72,12.88-30.39,1.04-2.68,2.08-5.39,3.14-8.13s2.14-5.51,3.1-8.33c1-2.82,2.01-5.67,3.03-8.54.92-2.89,1.84-5.82,2.78-8.77,1.01-2.97,1.7-5.89,2.49-8.87.2-.74.39-1.49.59-2.24.15-.75.3-1.51.45-2.27.3-1.52.61-3.04.91-4.57.31-1.53.45-3.09.69-4.64.19-1.56.5-3.11.57-4.7.12-1.58.25-3.17.38-4.77.15-1.59.1-3.21.17-4.83.15-3.23-.04-6.53-.1-9.84-.22-3.33-.39-6.68-.76-10.1-.63-6.82-1.57-13.81-2.41-21.01-.85-7.19-1.65-14.57-2.02-22.11-.27-3.76-.27-7.57-.36-11.39-.03-1.91.06-3.83.08-5.75.04-1.9.07-3.8.11-5.71.06-3.71.12-7.45.18-11.2l.04-2.82-.09-2.83c-.06-1.89-.13-3.79-.19-5.69s-.13-3.81-.19-5.72c-.02-1.91-.26-3.82-.38-5.74-.29-3.84-.59-7.69-.89-11.57-1.59-15.48-3.89-31.2-6.73-47.11-5.78-31.81-13.52-64.33-19.78-97.84-3.17-16.75-5.73-33.8-7.46-51.06-.4-4.29-.8-8.58-1.2-12.88-.36-4.17-1.01-8.36-1.68-12.54-1.44-8.37-3.35-16.75-5.34-25.15-3.96-16.81-8.41-33.78-10.47-51.5-1.03-8.84-1.35-17.92-.25-27.06,1.01-9.12,3.89-18.31,8.73-26.48,4.87-8.17,11.85-14.92,19.5-20.11,1.99-1.41,3.6-2.44,5.35-3.61,1.7-1.17,3.38-2.37,5.02-3.59,3.28-2.47,6.4-5.08,9.37-7.83,2.93-2.78,5.71-5.67,8.24-8.72,2.51-3.07,4.8-6.27,6.82-9.61,4.05-6.67,6.9-13.9,8.67-21.38,3.51-15.02,2.45-30.9-.3-46.46-2.78-15.62-7.17-31.07-11.3-46.69-4.11-15.64-8.1-31.53-9.8-48.27-.86-8.35-1.05-16.96-.3-25.59.61-7.58,1.21-15.07,1.81-22.48.61-7.44,1.2-14.8,1.79-22.05.67-7.29,1.23-14.48,1.96-21.61,1.3-14.24,2.9-28.17,4.62-41.71,3.57-27.08,8.05-52.66,13.68-76.15,5.61-23.5,12.21-44.88,18.68-63.75"/>
        </g>
        <path class="cls-8" d="M146.18,775.09s-1.03-5.54-2.94-15.78c-2.02-10.12-4.96-24.88-8.67-43.47-3.61-18.46-7.89-40.58-10.83-65.54-.38-3.12-.61-6.28-.93-9.49-.32-3.33-.64-6.7-.96-10.12-.72-7.54-1.99-14.94-3.5-22.28-3.02-14.68-7.02-29.24-10.32-43.98-1.64-7.36-3.11-14.77-4.08-22.14-.95-7.36-1.46-14.73-.91-21.75.2-1.72.27-3.52.61-5.19l.41-2.56.6-2.47.29-1.24c.1-.41.26-.8.38-1.2l.77-2.39c.27-.79.64-1.53.94-2.3.33-.76.6-1.56,1.02-2.27,2.99-5.89,7.27-11.26,13.05-15.71l2.23-1.62c.75-.55,1.41-1.06,2.47-1.77,1.94-1.32,3.87-2.63,5.76-4.05,3.81-2.78,7.51-5.81,11.07-9.06,3.58-3.22,6.95-6.76,10.13-10.5,3.17-3.75,6.12-7.75,8.7-12.02,5.2-8.5,8.98-17.97,11.05-27.67,2.1-9.71,2.55-19.57,1.97-29.16-.59-9.6-2.18-18.97-4.23-28.13-2.05-9.17-4.56-18.14-7.18-27.04-5.22-17.81-10.98-35.35-14.37-53.67-1.68-9.16-2.74-18.52-2.56-28.07.38-9.24.76-18.45,1.13-27.62.75-18.28,1.51-36.45,2.58-54.48"/>
      </g>
    </g>
  </g>
  <path class="cls-2" d="M542,955.06c5.29,76.53-4.34,153.94-28.3,227.32"/>
  <path class="cls-2" d="M475.8,931.94c-2.41,24.64,20.9,44.13,31.69,66.74,7.9,16.56,9.04,35.17,9.2,53.29.42,49.67-5.69,99.39-18.17,147.69"/>
  <path class="cls-3" d="M96.4,591.55c383.72,478.96,2082.82,528.95,2172.29-421.2"/>
  <path class="cls-1" d="M93.4,598.07C421.98,273.19,1793.19,76.61,2278.69,965.67"/>
  <g>
    <path class="cls-5" d="M232.3,811.56c-5.47,0-8.2-3.55-8.2-10.62v-3.12c6.64-50.82,14.84-105.06,24.61-162.76,9.76-57.69,22.07-114.86,36.91-171.51,0-1.25.59-3.12,1.76-5.62-2.74-2.49-4.11-7.28-4.11-14.37,0-18.74,3.02-31.02,9.08-36.87,6.06-5.82,11.62-8.74,16.7-8.74,2.73,0,4.69.22,5.87.63l4.11-1.25c2.35-.84,4.88-1.25,7.61-1.25,1.95,0,3.81.42,5.57,1.25,1.76.84,2.63,2.29,2.63,4.37,0,2.49-1.17,6.25-3.52,11.25s-4.79,10-7.33,14.99c-2.55,5-4.39,8.96-5.57,11.87l-7.03,18.74c1.17,24.99,3.6,50.92,7.33,77.78,3.71,26.87,9.08,51.86,16.11,74.97,7.03,23.11,15.91,41.97,26.67,56.55,10.74,14.59,23.74,21.87,38.97,21.87,10.93,0,24.99-6.56,42.19-19.68,17.19-13.12,35.94-34.36,56.26-63.73,20.31-29.36,40.23-68.62,59.78-117.78l1.76-18.74v-3.12c0-3.33-.3-6.66-.87-10-.59-3.33-.87-6.45-.87-9.37,0-13.33,2.82-25.2,8.5-35.61,5.66-10.4,16.3-15.62,31.93-15.62,2.35,0,4.49.53,6.45,1.57,1.95,1.04,2.93,2.81,2.93,5.31,0,4.17-1.57,10.21-4.69,18.11-3.14,7.92-5.09,14.17-5.87,18.74-4.69,17.92-8.59,38.33-11.72,61.23-3.14,22.91-5.57,46.55-7.33,70.92s-3.03,48.32-3.81,71.85c-.79,23.54-1.17,45.09-1.17,64.67,0,15.41.1,29.05.29,40.92.19,11.88.68,21.15,1.46,27.8.78,6.25,1.76,9.9,2.93,10.93,1.17,1.04,1.76,3.03,1.76,5.94,0,5.84-1.66,10.21-4.98,13.12-3.33,2.91-7.13,4.37-11.43,4.37-3.91,0-7.33-1.04-10.26-3.12s-4.39-5-4.39-8.74c.38-47.49.97-93.72,1.76-138.7.78-44.98,2.35-88.93,4.69-131.83-21.1,47.07-41.91,84.56-62.41,112.47-20.52,27.91-39.37,47.91-56.54,59.98-17.2,12.08-31.85,18.11-43.95,18.11-15.24,0-28.52-6.35-39.85-19.05-11.34-12.7-21.01-29.36-29-49.98-8.01-20.62-14.55-42.79-19.63-66.54-5.09-23.74-8.79-46.86-11.13-69.35-7.03,23.74-13.38,48.01-19.04,72.78-5.67,24.78-10.65,48.85-14.94,72.17-4.31,23.33-7.82,44.67-10.55,64.04-2.74,19.37-4.5,35.3-5.28,47.79,0,5.41.38,9.47,1.17,12.19.78,2.71,1.17,5.53,1.17,8.43,0,6.67-1.66,11.56-4.98,14.68-3.33,3.12-6.15,4.69-8.5,4.69h-.04.03Z"/>
    <path class="cls-5" d="M651.87,808.43c-9.37,0-14.06-7.49-14.06-22.5,0-11.66,2.14-26.13,6.45-43.42,4.3-17.28,9.96-35.3,17-54.04,7.03-18.74,14.75-36.34,23.15-52.79,8.4-16.45,17-29.89,25.78-40.3,8.79-10.41,16.89-15.62,24.32-15.62h1.76l6.45-5c1.95-2.49,4.39-4.15,7.33-5,2.93-.84,5.95-1.25,9.08-1.25,7.8,0,16.02,1.67,24.61,5,8.59,3.34,14.45,5,17.58,5,2.73,0,4.78-1.66,6.15-5,1.36-3.33,4.39-5,9.08-5,5.47,0,9.28,1.25,11.43,3.75,2.14,2.49,3.22,5.84,3.22,10,0,5.84-1.57,12.6-4.69,20.31-3.14,7.71-5.66,14.06-7.61,19.06-.4,1.67-2.15,3.03-5.28,4.06-3.14,1.04-5.09,2.4-5.87,4.06-6.25,19.17-11.92,38.64-17,58.41-5.09,19.78-8.99,36.97-11.72,51.55-2.74,14.59-4.11,23.54-4.11,26.87,0,10.41,2.73,15.62,8.2,15.62,4.69,0,9.76-2.19,15.24-6.56,5.47-4.37,10.84-9.27,16.11-14.68,5.28-5.41,9.67-10.31,13.19-14.68s5.47-6.56,5.87-6.56c.78,0,1.17.84,1.17,2.49s-.59,4.17-1.76,7.49c-1.17,3.34-2.55,5.62-4.11,6.88-3.91,3.75-9.96,9.47-18.17,17.19-8.2,7.71-17,14.9-26.37,21.56-9.37,6.67-17.58,10-24.61,10-8.2,0-13.09-5.21-14.65-15.62,0-7.49,1.17-17.19,3.52-29.05,2.35-11.87,4.98-24.05,7.91-36.55s5.57-22.9,7.91-31.24c-5.87,8.34-13.38,18.96-22.56,31.87-9.18,12.92-19.15,25.72-29.89,38.42-10.75,12.71-21.39,23.43-31.93,32.18-10.55,8.74-19.93,13.12-28.13,13.12v-.05.02ZM670.62,779.07c3.9,0,9.08-2.81,15.52-8.43s13.48-12.8,21.09-21.56c7.62-8.74,14.84-17.5,21.69-26.24,6.83-8.74,12.69-16.56,17.58-23.43,4.88-6.88,7.91-11.13,9.08-12.8,6.25-10.82,12.4-22.59,18.46-35.3,6.06-12.7,11.04-24.37,14.94-34.99s5.87-18.01,5.87-22.18c0-2.49-.98-3.75-2.93-3.75h-1.76c-3.91,0-7.91-.41-12.02-1.25-4.11-.84-8.89-1.25-14.35-1.25s-11.34.84-17.58,2.49c-3.52.84-8.5,5.94-14.94,15.31-6.45,9.37-13.48,21.15-21.1,35.3-7.61,14.17-14.85,29.27-21.68,45.3-6.83,16.04-12.51,31.35-17,45.92-4.5,14.59-6.74,26.66-6.74,36.24,0,7.08,1.95,10.62,5.87,10.62h0Z"/>
    <path class="cls-5" d="M848.76,810.31c-7.42,0-11.13-3.75-11.13-11.25,0-3.75.78-8.12,2.35-13.12,8.59-26.24,15.62-47.79,21.09-64.67,5.47-16.87,9.76-30.2,12.89-39.99,3.12-9.78,5.28-17.28,6.45-22.5,1.17-5.21,1.76-9.47,1.76-12.8,0-2.08-.3-3.54-.87-4.37-.59-.84-.87-2.08-.87-3.75s.59-4.37,1.76-8.12c8.2-25.4,15.62-42.69,22.26-51.86,6.64-9.15,16.6-13.74,29.89-13.74,5.47,0,8.4,1.88,8.79,5.62-3.91,7.92-10.26,20.84-19.04,38.73-8.79,17.92-18.07,40.09-27.84,66.54-9.77,26.45-18.37,56.75-25.78,90.91-.4,1.25-.59,2.92-.59,5,0,5,1.95,7.49,5.87,7.49,2.35,0,6.06-1.57,11.13-4.69,5.08-3.12,10.34-6.25,15.82-9.37,5.47-3.12,9.56-4.69,12.3-4.69s4.3.84,4.69,2.49c0,2.49-2.93,6.35-8.79,11.56-5.87,5.22-12.89,10.62-21.09,16.25-8.2,5.62-16.11,10.41-23.74,14.37-7.61,3.95-13.38,5.94-17.28,5.94l-.02.03h0ZM934.91,526.04c-5.47,0-8.79-2.19-9.96-6.56s-1.76-9.06-1.76-14.06c0-6.25,2.93-12.8,8.79-19.68,5.87-6.88,12.8-12.7,20.8-17.5,8.01-4.78,14.75-7.19,20.22-7.19,1.95,0,3.12.63,3.52,1.88,0,4.59-1.66,8.96-4.98,13.12-3.33,4.17-6.94,8.34-10.84,12.5-3.91,4.17-7.03,8.96-9.37,14.37-1.57,4.17-3.52,8.74-5.87,13.74s-5.87,8.12-10.55,9.37h0Z"/>
    <path class="cls-7" d="M1049.76,817.19c-18.37,0-32.14-2.29-41.32-6.88-9.18-4.58-15.33-10.31-18.46-17.19-3.14-6.88-4.69-13.64-4.69-20.31v-4.37c0-3.33.97-7.82,2.93-13.43,1.95-5.62,6.25-8.43,12.89-8.43,3.12,0,4.88,2.61,5.28,7.82.38,5.22,2.14,10.73,5.28,16.56,6.25,10.84,14.26,17.92,24.02,21.25,9.76,3.34,22.07,5,36.91,5,12.89,0,26.67-2.29,41.32-6.88,14.65-4.58,28.42-11.03,41.32-19.37,12.89-8.33,23.34-18.32,31.35-29.99,8.01-11.66,12.02-24.77,12.02-39.36,0-13.33-4.39-24.37-13.19-33.11-8.79-8.74-20.22-16.45-34.28-23.11s-28.81-13.01-44.24-19.05c-15.44-6.03-30.18-13.22-44.24-21.56-14.06-8.33-25.5-18.53-34.28-30.62-8.79-12.07-13.19-27.28-13.19-45.61s4.78-34.99,14.35-51.23c9.56-16.25,22.66-30.71,39.26-43.42,16.6-12.7,35.36-22.7,56.26-29.99,20.9-7.28,42.68-10.94,65.34-10.94,16.79,0,29.3,3.23,37.5,9.68,8.2,6.46,13.78,14.37,16.7,23.74,2.93,9.37,4.39,18.85,4.39,28.42,0,2.09-.59,5.62-1.76,10.62s-3.03,9.47-5.57,13.43c-2.55,3.96-5.57,5.94-9.08,5.94-2.74,0-4.11-2.7-4.11-8.12v-12.5c0-19.15-5.37-31.96-16.11-38.42-10.75-6.45-24.13-9.68-40.15-9.68-10.55,0-23.35,1.98-38.39,5.94-15.05,3.96-29.79,10-44.24,18.12-14.46,8.12-26.48,18.02-36.04,29.68-9.58,11.67-14.35,25.41-14.35,41.24,0,.84.1,1.77.3,2.81.19,1.04.29,1.98.29,2.81,1.95,17.5,7.91,31.97,17.87,43.42,9.96,11.47,22.17,20.93,36.63,28.42,14.45,7.49,29.59,14.17,45.41,19.99,15.82,5.84,30.56,11.87,44.24,18.11,13.67,6.25,24.8,13.65,33.41,22.18,8.59,8.55,12.89,19.68,12.89,33.42,0,16.25-4.88,32.39-14.65,48.42-9.77,16.04-23.05,30.62-39.85,43.73-16.81,13.12-36.04,23.54-57.72,31.24-21.69,7.7-44.44,11.56-68.27,11.56h.01v.02Z"/>
    <path class="cls-7" d="M1366.21,845.93c-5.09,0-7.62-2.29-7.62-6.88,0-4.17,2.93-8.43,8.79-12.8,5.87-4.37,10.15-9.9,12.89-16.56,1.17-3.33,3.52-11.34,7.03-24.05,3.52-12.7,7.52-27.28,12.02-43.73,4.49-16.45,8.58-32.18,12.3-47.18,3.71-14.99,6.54-26.44,8.5-34.36-4.31,7.08-10.84,16.77-19.63,29.05-8.79,12.29-18.66,25.41-29.59,39.36-10.94,13.96-22.18,27.29-33.69,39.99-11.53,12.71-22.37,23.11-32.52,31.24-10.16,8.12-18.76,12.19-25.78,12.19-5.47,0-8.2-3.75-8.2-11.25,0-6.25,2.14-15.2,6.44-26.87,2.35-5.82,5.95-14.37,10.84-25.62,4.88-11.25,9.96-23.43,15.24-36.55s9.76-25.4,13.48-36.87c3.71-11.45,5.57-20.31,5.57-26.56,0-2.91-.39-4.89-1.17-5.94-.79-1.04-1.17-2.6-1.17-4.69,0-.84.1-1.76.3-2.81.19-1.04.49-2.39.87-4.06,4.3-17.07,8.29-30.4,12.02-39.99,3.71-9.58,8.29-16.25,13.76-19.99,5.47-3.75,12.89-5.62,22.26-5.62,5.47,0,8.79,1.88,9.96,5.62-1.57,4.17-4.88,12.8-9.96,25.93-5.09,13.12-11.05,28.54-17.87,46.24-6.83,17.71-13.48,35.21-19.93,52.49-6.44,17.29-11.81,32.28-16.11,44.98-4.31,12.71-6.45,20.52-6.45,23.43,0,1.67.59,2.49,1.76,2.49,1.56,0,3.6-1.04,6.15-3.12,2.54-2.08,5.17-4.37,7.91-6.88,23.04-18.74,42.97-39.88,59.78-63.41,16.79-23.53,31.25-47.38,43.37-71.54.38-6.25,1.86-14.15,4.39-23.74,2.54-9.58,6.93-18.11,13.19-25.62,6.25-7.49,14.45-11.25,24.61-11.25,4.3,0,6.64,1.88,7.03,5.62-1.96,6.67-5.96,18.54-12.02,35.61-6.06,17.08-12.41,35.61-19.04,55.61-3.14,10-6.64,21.77-10.55,35.3-3.91,13.54-7.72,27.18-11.43,40.92-3.72,13.74-6.74,25.83-9.08,36.24-2.35,10.41-3.52,17.29-3.52,20.62,0,1.25.38,1.88,1.17,1.88,3.52-.41,8.29-3.12,14.35-8.12,6.06-5,12.4-10.09,19.04-15.31,6.64-5.21,12.1-7.82,16.41-7.82.78,0,1.76.22,2.93.63,1.17.42,1.76,1.25,1.76,2.49,0,2.49-2.74,6.04-8.2,10.62-5.47,4.59-12.02,9.37-19.63,14.37-7.62,5-14.65,9.59-21.09,13.74-6.45,4.15-10.84,7.07-13.19,8.74-3.91,3.33-8.12,7.7-12.6,13.12-4.5,5.41-8.89,10.21-13.19,14.37-4.31,4.15-8.59,6.25-12.89,6.25l.02.05h-.02Z"/>
    <path class="cls-7" d="M1480.47,817.19c-3.14,0-5.67-1.36-7.61-4.06-1.96-2.71-2.93-5.53-2.93-8.43,0-5,2.14-7.49,6.45-7.49,4.69,0,11.81-1.03,21.39-3.12,9.56-2.08,19.53-4.9,29.89-8.43,10.34-3.54,19.23-7.82,26.67-12.8,7.42-5,11.13-10.4,11.13-16.25,0-5.41-2.84-10.94-8.5-16.56s-12.6-11.34-20.8-17.19c-8.2-5.82-16.51-11.88-24.91-18.11-8.4-6.25-15.44-12.8-21.09-19.68-5.67-6.88-8.5-14.26-8.5-22.18,0-3.33.49-6.66,1.46-10,.97-3.33,2.82-6.66,5.57-10,11.72-15.82,24.51-28.63,38.39-38.42,13.86-9.78,26.86-17.28,38.97-22.5,12.1-5.21,21.29-9.06,27.54-11.56,1.95-.84,4.3-1.56,7.03-2.19s5.47-.94,8.2-.94c5.47,0,10.34,1.77,14.65,5.31,4.3,3.55,6.45,10.1,6.45,19.68-.39,4.17-1.96,9.47-4.69,15.93-2.74,6.46-6.15,13.02-10.26,19.68-4.11,6.67-8.12,12.19-12.02,16.56-3.91,4.37-7.23,6.56-9.96,6.56-1.57,0-2.35-1.25-2.35-3.75,0-3.75,1.07-8.54,3.22-14.37,2.14-5.82,4.3-11.56,6.45-17.19,2.14-5.62,3.22-10.09,3.22-13.43,0-6.25-3.52-9.37-10.55-9.37-2.74,0-5.77.31-9.08.94-3.33.63-6.74,1.36-10.26,2.19-2.35.42-6.83,2.19-13.48,5.31-6.64,3.12-13.68,7.19-21.09,12.19-7.42,5-13.87,10.73-19.34,17.19s-8.2,13.43-8.2,20.93c0,4.59.97,8.75,2.93,12.5,4.69,10,11.13,17.8,19.34,23.43,8.2,5.62,16.41,10.62,24.61,14.99s15.14,9.17,20.8,14.37c5.66,5.22,8.5,12.6,8.5,22.18s-3.91,19.68-11.72,29.05c-7.82,9.37-17.68,17.71-29.59,24.99-11.92,7.29-23.83,13.12-35.74,17.5-11.92,4.37-21.98,6.56-30.18,6.56l-.02.02v-.04Z"/>
    <path class="cls-7" d="M1715.45,835.3c-4.3,0-7.82-1.67-10.55-5-2.74-3.34-4.11-9.37-4.11-18.11,0-12.07,2.24-26.56,6.74-43.42,4.49-16.87,9.96-34.36,16.41-52.49,6.45-18.11,12.89-35.3,19.34-51.55,6.44-16.25,11.91-30.08,16.41-41.55,4.49-11.45,6.74-18.64,6.74-21.56,0-.84-.2-1.25-.59-1.25-1.57,0-5.09,3.12-10.55,9.37-22.26,26.66-40.15,50.61-53.62,71.85-13.48,21.25-24.02,39.99-31.65,56.23-7.62,16.25-13.68,29.68-18.17,40.3-4.5,10.62-8.99,18.64-13.48,24.05s-10.46,8.12-17.87,8.12c-3.52,0-5.28-2.09-5.28-6.25,0-3.75.97-7.91,2.93-12.5,17.97-49.14,33.41-96.73,46.3-142.77,12.89-46.02,27.15-94.03,42.78-144.01.78-2.91,1.27-5.21,1.46-6.88.19-1.66.3-3.12.3-4.37,0-2.08-.2-3.54-.59-4.37-.39-.84-.59-2.08-.59-3.75s.59-4.37,1.76-8.12c5.87-17.07,10.93-30.4,15.24-39.99,4.3-9.58,9.18-16.25,14.65-19.99,5.47-3.75,12.69-5.62,21.68-5.62,5.47,0,8.4,1.88,8.79,5.62-21.49,46.65-41.22,95.7-59.19,147.14-17.98,51.44-32.82,99.87-44.54,145.26,4.3-7.08,10.15-16.66,17.58-28.74,7.42-12.07,15.91-24.77,25.5-38.11,9.56-13.33,19.53-26.03,29.89-38.11,10.34-12.07,20.6-21.87,30.76-29.36,10.15-7.49,19.53-11.25,28.13-11.25s12.3,2.92,12.3,8.74c0,3.75-1.38,7.92-4.11,12.5-8.59,14.99-17.87,32.48-27.83,52.49-9.96,19.99-19.34,40.61-28.13,61.86-8.79,21.24-16.03,41.44-21.69,60.6-5.67,19.17-8.5,35.61-8.5,49.36,0,5.82,1.56,8.75,4.69,8.75,1.95,0,5.47-1.88,10.55-5.62,5.08-3.75,8.4-5.62,9.96-5.62,1.95,0,2.93,1.25,2.93,3.75,0,5-3.61,10.31-10.84,15.93s-14.55,8.43-21.98,8.43h.04Z"/>
    <path class="cls-7" d="M1813.9,810.31c-7.42,0-11.13-3.75-11.13-11.25,0-3.75.78-8.12,2.35-13.12,8.58-26.24,15.62-47.79,21.09-64.67,5.47-16.87,9.77-30.2,12.89-39.99,3.12-9.78,5.28-17.28,6.45-22.5,1.17-5.21,1.76-9.47,1.76-12.8,0-2.08-.29-3.54-.87-4.37s-.87-2.08-.87-3.75.59-4.37,1.76-8.12c8.2-25.4,15.62-42.69,22.28-51.86,6.64-9.15,16.6-13.74,29.89-13.74,5.47,0,8.39,1.88,8.79,5.62-3.91,7.92-10.26,20.84-19.04,38.73-8.79,17.92-18.07,40.09-27.84,66.54-9.77,26.45-18.36,56.75-25.78,90.91-.39,1.25-.59,2.92-.59,5,0,5,1.95,7.49,5.87,7.49,2.35,0,6.06-1.57,11.13-4.69,5.08-3.12,10.34-6.25,15.82-9.37,5.47-3.12,9.56-4.69,12.3-4.69s4.3.84,4.69,2.49c0,2.49-2.93,6.35-8.79,11.56-5.87,5.22-12.89,10.62-21.09,16.25s-16.11,10.41-23.74,14.37c-7.62,3.95-13.38,5.94-17.28,5.94l-.04.03h0ZM1900.05,526.04c-5.47,0-8.79-2.19-9.96-6.56s-1.76-9.06-1.76-14.06c0-6.25,2.93-12.8,8.79-19.68,5.87-6.88,12.8-12.7,20.8-17.5,8-4.78,14.75-7.19,20.22-7.19,1.95,0,3.12.63,3.52,1.88,0,4.59-1.66,8.96-4.98,13.12-3.33,4.17-6.94,8.34-10.84,12.5-3.91,4.17-7.03,8.96-9.37,14.37-1.57,4.17-3.52,8.74-5.87,13.74s-5.87,8.12-10.55,9.37h0Z"/>
  </g>
  <g>
    <path class="cls-6" d="M594.02,1144.91c-3.43,0-6.97-1.02-10.61-3.05s-5.47-3.75-5.47-5.16c0-1.26,1.17-1.89,3.53-1.89.21,0,1.6.21,4.18.63-.86-2.95-1.51-6.35-1.92-10.22-.43-3.86-.64-8.11-.64-12.74,0-8.01.48-16.67,1.44-26.01s2.36-18.71,4.18-28.12c1.81-9.41,3.8-18.33,5.95-26.75,2.13-8.43,4.28-15.66,6.43-21.69h-17.04c-4.71-.14-7.07-.7-7.07-1.69,0-.7,1.33-1.48,4.02-2.32,2.68-.84,5.84-1.26,9.47-1.26h12.53c1.07-3.65,3.54-6.04,7.39-7.16,3.86-1.13,7.92-1.69,12.21-1.69,3.21,0,4.82.71,4.82,2.11s-.96,2.81-2.89,4.21c-1.92,1.41-3.11,2.46-3.53,3.16,5.35.28,11.89.81,19.6,1.58,7.71.78,15.58,1.89,23.63,3.37,8.03,1.48,15.53,3.48,22.49,6,6.96,2.52,12.63,5.65,17.04,9.37,4.39,3.72,6.59,8.25,6.59,13.58,0,4.21-1.76,8.21-5.3,12.01s-8.03,7.23-13.5,10.32-11.2,5.79-17.2,8.11-11.46,4.18-16.38,5.59c2.36-.14,4.87-.25,7.55-.32s5.51-.1,8.51-.1c7.07,0,14.57.35,22.49,1.05,7.92.71,15.31,1.97,22.17,3.79,6.86,1.82,12.42,4.39,16.72,7.69,4.28,3.3,6.43,7.55,6.43,12.74,0,7.44-3.59,13.93-10.77,19.49s-16.54,10.11-28.12,13.69c-11.57,3.58-24.11,6.25-37.6,8.01-13.5,1.76-26.46,2.64-38.89,2.64-4.71,0-9.31-.1-13.82-.32s-8.67-.6-12.53-1.16c-1.07,1.69-3.11,2.52-6.11,2.52h.02ZM627.12,1138.59c11.14,0,22.54-.63,34.22-1.89,11.67-1.26,22.49-3.3,32.46-6.11s18-6.57,24.11-11.27c6.11-4.7,9.15-10.43,9.15-17.17-.21-4.78-2.73-8.67-7.55-11.69-4.82-3.02-10.98-5.34-18.48-6.95s-15.42-2.74-23.79-3.37c-8.36-.63-16.17-.95-23.46-.95-9.86,0-19.23.38-28.12,1.16s-18.16,1.65-27.8,2.64c-.22,1.82-.43,4.46-.64,7.9-.22,3.45-.32,7.27-.32,11.48,0,6.04.16,12.21.48,18.53s.8,11.66,1.44,16.01c8.14,1.13,17.57,1.69,28.28,1.69h.02ZM605.91,1076.46c2.13,0,6.59-.25,13.34-.73s14.41-1.48,22.97-2.95,16.98-3.5,25.23-6.11c8.24-2.59,15.1-6,20.57-10.22s8.19-9.41,8.19-15.59c0-.7-.05-1.44-.16-2.21s-.27-1.58-.48-2.42c-2.15-4.49-6.27-8.28-12.37-11.38-6.11-3.09-13.13-5.61-21.05-7.58-7.93-1.96-15.8-3.5-23.63-4.63s-14.41-1.89-19.76-2.32h-.32c-1.07,2.11-2.41,5.34-4.02,9.69-1.6,4.36-3.27,9.2-4.98,14.53-1.71,5.34-3.38,10.75-4.98,16.22s-2.95,10.46-4.02,14.96c-1.07,4.49-1.71,8.01-1.92,10.53.21,0,.96.03,2.25.1s3,.1,5.14.1h.02-.02Z"/>
    <path class="cls-6" d="M733.82,1211.05c-3.43,0-5.14-1.34-5.14-4,0-3.51,1.88-7.86,5.63-13.06,3.75-5.19,8.41-10.68,13.98-16.42,5.58-5.76,11.14-11.27,16.72-16.54,5.56-5.26,10.34-9.72,14.3-13.37s6.16-5.83,6.59-6.53c1.28-2.52,2.2-5.41,2.73-8.64s.8-6.67.8-10.32c0-7.02-.7-13.83-2.08-20.43-1.39-6.6-3.43-12.08-6.11-16.43-2.68-4.35-6.16-6.53-10.45-6.53-.86,0-1.71.03-2.57.1s-1.51.1-1.92.1c-.86,0-1.28-.35-1.28-1.05,0-.42.48-1.05,1.44-1.89s2.84-1.89,5.63-3.16c1.07-.56,2.29-1.54,3.7-2.95,1.39-1.4,2.84-2.74,4.34-4,1.49-1.26,2.89-1.89,4.18-1.89,3.21,0,6.11,2.14,8.67,6.42s4.66,9.76,6.27,16.43c1.6,6.67,2.41,13.66,2.41,20.96,0,1.69-.06,3.37-.16,5.06-.11,1.69-.16,3.37-.16,5.06,0,2.25.85,3.37,2.57,3.37,2.13,0,5.24-1.48,9.31-4.43s8.51-6.67,13.34-11.16,9.47-9.16,13.98-14,8.19-9.19,11.09-13.06c2.89-3.86,4.34-6.57,4.34-8.11,0-.84-.54-1.26-1.6-1.26-.64,0-1.39.15-2.25.42-.86.28-1.71.42-2.57.42-1.07,0-1.92-.35-2.57-1.05,0-1.26,1.55-2.64,4.66-4.11,3.11-1.48,6.59-2.74,10.45-3.79s6.96-1.58,9.31-1.58c1.07,0,1.81.08,2.25.21.64.56.96,1.34.96,2.32,0,2.11-1.55,5.19-4.66,9.27s-7.13,8.6-12.05,13.58c-4.93,4.99-10.29,10.11-16.06,15.38-5.79,5.26-11.46,10.25-17.04,14.96s-10.45,8.78-14.62,12.22c-4.18,3.45-7.13,5.79-8.83,7.05,0-.98-.27-.73-.8.73-.54,1.48-1.18,3.45-1.92,5.9-.75,2.46-1.71,4.7-2.89,6.74-1.18,2.03-2.41,3.05-3.7,3.05-1.07,0-2.2-.18-3.38-.53s-1.99-.53-2.41-.53c-15.85,14.04-27.05,24.86-33.58,32.44s-9.8,13.06-9.8,16.43c0,1.69.43,2.98,1.28,3.9.86.91,1.28,1.79,1.28,2.64,0,1.54-1.33,2.87-4.02,4-2.68,1.13-5.19,1.69-7.55,1.69l-.02-.03h-.02Z"/>
    <path class="cls-6" d="M961.02,1141.97c-2.36,0-4.13-.21-5.3-.63-1.18-.42-1.76-1.33-1.76-2.74,0-3.79.48-9.3,1.44-16.54.96-7.23,2.25-15.34,3.86-24.33,1.6-8.99,3.43-18.22,5.47-27.7,2.04-9.47,4.12-18.54,6.27-27.17,2.13-8.64,4.18-16.04,6.11-22.22v-.42c0-.56-.16-1.01-.48-1.37-.32-.35-.48-.81-.48-1.37,0-.84.32-2.24.96-4.21.64-1.96,1.17-3.44,1.6-4.43h-1.92c-2.15,0-4.34.07-6.59.21s-4.23.21-5.95.21c-4.71-.14-7.07-.7-7.07-1.69,0-1.4,2.62-2.35,7.87-2.84,5.24-.49,10.45-.73,15.58-.73.64-2.39,2.84-4.35,6.59-5.9,3.75-1.54,8.3-2.32,13.66-2.32,3.43,0,5.14.84,5.14,2.52-1.07,1.69-1.99,2.77-2.73,3.27-.75.49-1.55,1.58-2.41,3.27,5.56.28,12.15.81,19.76,1.58,7.6.78,15.37,1.86,23.3,3.27,7.92,1.41,15.31,3.3,22.17,5.69s12.42,5.41,16.72,9.06c4.28,3.65,6.43,8.08,6.43,13.27,0,4.78-1.67,9.37-4.98,13.8s-7.61,8.46-12.86,12.11c-5.26,3.65-10.77,6.78-16.54,9.37-5.79,2.6-11.25,4.46-16.38,5.59-7.29,1.69-15.05,2.84-23.29,3.48-8.25.63-15.8.95-22.65.95-5.14,0-9.47-.1-13.02-.32s-5.84-.45-6.91-.73c-.64,2.39-1.34,5.97-2.08,10.75-.75,4.78-1.34,10.08-1.76,15.9-.43,5.83-.64,11.62-.64,17.38,0,3.51.32,6.42.96,8.74s.96,3.4.96,3.27c0,.71-.27,1.09-.8,1.16-.54.08-.91.32-1.12.73-.43.71-1.34,1.23-2.73,1.58-1.39.35-2.84.53-4.34.53h-.05v-.03ZM994.76,1077.72c3,0,6-.03,8.99-.1s5.56-.17,7.71-.32c6.21-.42,13.02-1.61,20.41-3.58,7.39-1.96,14.35-4.6,20.89-7.9,6.53-3.3,11.89-7.2,16.06-11.69,4.18-4.49,6.27-9.55,6.27-15.16,0-4.91-2.68-9.12-8.03-12.64-5.35-3.5-12.1-6.42-20.24-8.74s-16.54-4.11-25.23-5.37c-8.67-1.26-16.45-2.11-23.29-2.52-1.51,2.11-3.27,5.34-5.3,9.69-2.04,4.36-4.02,9.27-5.95,14.74s-3.81,10.99-5.63,16.54c-1.83,5.55-3.32,10.61-4.5,15.16-1.18,4.56-1.99,8.11-2.41,10.63.64.42,3,.73,7.07.95s8.46.32,13.18.32h.01-.01Z"/>
    <path class="cls-6" d="M1071.88,1142.18c-5.14,0-7.71-2.52-7.71-7.58,0-3.93,1.17-8.81,3.54-14.64,2.36-5.82,5.47-11.9,9.31-18.22,3.86-6.32,8.08-12.25,12.69-17.8,4.6-5.54,9.31-10.07,14.14-13.58,4.82-3.5,9.27-5.26,13.34-5.26h.96l3.54-1.69c1.07-.84,2.41-1.4,4.02-1.69,1.6-.28,3.27-.42,4.98-.42,4.28,0,8.78.56,13.5,1.69s7.92,1.69,9.64,1.69c1.49,0,2.62-.56,3.37-1.69s2.41-1.69,4.98-1.69c3,0,5.08.42,6.27,1.26,1.17.84,1.76,1.97,1.76,3.37,0,1.97-.86,4.25-2.57,6.85s-3.11,4.74-4.18,6.42c-.22.56-1.18,1.02-2.89,1.37s-2.79.81-3.21,1.37c-3.43,6.46-6.54,13.02-9.33,19.69-2.79,6.67-4.93,12.46-6.43,17.38-1.51,4.92-2.25,7.94-2.25,9.06,0,3.51,1.49,5.26,4.5,5.26,2.57,0,5.35-.73,8.35-2.21s5.95-3.12,8.83-4.95c2.89-1.82,5.3-3.48,7.23-4.95s3-2.21,3.21-2.21c.43,0,.64.28.64.84s-.32,1.41-.96,2.52c-.64,1.13-1.39,1.89-2.25,2.32-2.15,1.26-5.47,3.2-9.96,5.79-4.5,2.6-9.31,5.02-14.46,7.27-5.14,2.25-9.64,3.37-13.5,3.37-4.5,0-7.18-1.76-8.03-5.26,0-2.52.64-5.79,1.92-9.8,1.28-4,2.73-8.11,4.34-12.32,1.6-4.21,3.05-7.72,4.34-10.53-3.21,2.81-7.34,6.39-12.37,10.75s-10.5,8.67-16.38,12.95c-5.9,4.29-11.73,7.9-17.52,10.85s-10.93,4.43-15.42,4.43l-.03-.02h.05ZM1082.16,1132.27c2.13,0,4.98-.95,8.51-2.84,3.54-1.89,7.39-4.32,11.57-7.27s8.14-5.9,11.89-8.84c3.75-2.95,6.96-5.59,9.64-7.9,2.68-2.32,4.34-3.75,4.98-4.32,3.43-3.65,6.8-7.62,10.13-11.9,3.32-4.28,6.05-8.21,8.19-11.79,2.13-3.58,3.21-6.07,3.21-7.48,0-.84-.54-1.26-1.6-1.26h-.96c-2.15,0-4.34-.14-6.59-.42s-4.87-.42-7.87-.42-6.22.28-9.64.84c-1.92.28-4.66,2-8.19,5.16s-7.39,7.13-11.57,11.9-8.14,9.87-11.89,15.27c-3.75,5.41-6.86,10.57-9.31,15.48-2.47,4.92-3.7,8.99-3.7,12.22,0,2.39,1.07,3.58,3.21,3.58v-.03.02Z"/>
    <path class="cls-6" d="M1192.07,1143.23c-5.58,0-10.23-1.19-13.98-3.58s-5.63-6.17-5.63-11.38,1.39-10.7,4.18-16.95c2.78-6.24,6.32-12.36,10.61-18.33,4.28-5.97,8.62-11.09,13.02-15.38s8.3-6.92,11.73-7.9c6.64-1.54,11.78-3.12,15.42-4.74,3.64-1.61,8.14-2.42,13.5-2.42,4.28,0,7.87.71,10.77,2.11,2.89,1.41,4.34,4,4.34,7.79v1.58c0,.49-.11,1.09-.32,1.79-.64,2.52-1.92,4.49-3.86,5.9-1.92,1.41-3.75,2.11-5.47,2.11-2.57,0-3.86-1.26-3.86-3.79,0-1.4.43-2.98,1.28-4.74s1.28-3.33,1.28-4.74c0-2.24-1.83-3.37-5.47-3.37-1.92,0-4.55.6-7.87,1.79-3.32,1.19-6.54,2.57-9.64,4.11-3.11,1.54-5.42,2.81-6.91,3.79-1.71,1.13-4.18,3.73-7.39,7.79-3.21,4.08-6.48,8.84-9.8,14.33-3.32,5.47-6.16,10.92-8.51,16.32-2.36,5.41-3.54,10-3.54,13.8,0,5.19,3.11,7.79,9.31,7.79,6.86,0,13.18-1.23,18.96-3.68s10.98-5.26,15.58-8.43c4.6-3.16,8.3-5.97,11.09-8.43,2.78-2.46,4.5-3.75,5.14-3.9,1.07.28,1.6.78,1.6,1.48,0,1.41-1.55,3.68-4.66,6.85-3.11,3.16-7.29,6.46-12.53,9.9-5.26,3.45-11.2,6.4-17.84,8.84-6.65,2.46-13.5,3.68-20.57,3.68h.04Z"/>
    <path class="cls-6" d="M1260.52,1142.81c-4.07,0-6.11-1.26-6.11-3.79,0-1.26.43-2.74,1.28-4.43,4.71-8.84,8.56-16.12,11.57-21.8,3-5.69,5.35-10.18,7.07-13.48,1.71-3.3,2.89-5.82,3.54-7.58.64-1.76.96-3.19.96-4.32,0-.7-.16-1.19-.48-1.48s-.48-.7-.48-1.26.32-1.48.96-2.74c4.5-8.56,8.56-14.39,12.21-17.48,3.64-3.09,9.1-4.63,16.38-4.63,3,0,4.6.63,4.82,1.89-2.15,2.67-5.63,7.03-10.45,13.06-4.82,6.04-9.92,13.52-15.26,22.44-5.35,8.92-10.07,19.14-14.14,30.65-.22.42-.32.98-.32,1.69,0,1.69,1.07,2.52,3.21,2.52,1.28,0,3.32-.53,6.11-1.58,2.78-1.05,5.67-2.11,8.67-3.16s5.24-1.58,6.75-1.58,2.36.28,2.57.84c0,.84-1.6,2.14-4.82,3.9s-7.07,3.58-11.57,5.47-8.83,3.51-13.02,4.84c-4.18,1.33-7.34,2-9.47,2v-.02l.02.03ZM1307.76,1046.97c-3,0-4.82-.73-5.47-2.21-.64-1.48-.96-3.05-.96-4.74,0-2.11,1.6-4.32,4.82-6.63,3.22-2.32,7.02-4.28,11.41-5.9,4.39-1.61,8.08-2.42,11.09-2.42,1.07,0,1.71.21,1.92.63,0,1.54-.91,3.02-2.73,4.43-1.83,1.41-3.81,2.81-5.95,4.21-2.15,1.41-3.86,3.02-5.14,4.84-.86,1.41-1.92,2.95-3.21,4.63-1.28,1.69-3.22,2.74-5.79,3.16h-.01.02Z"/>
    <path class="cls-6" d="M1272.72,1185.15c-7.5,0-13.02-.91-16.54-2.74-3.54-1.82-5.79-4.08-6.75-6.74-.96-2.67-1.44-5.13-1.44-7.37,0-4.08.91-7.76,2.73-11.06,1.83-3.3,3.48-4.95,4.98-4.95.86,0,1.39.42,1.6,1.26-.21.98-.37,1.96-.48,2.95-.1.98-.16,1.96-.16,2.95,0,6.6,1.99,11.83,5.95,15.69s8.62,5.79,13.98,5.79c4.93,0,10.07-1.72,15.42-5.16,5.35-3.45,10.39-8.95,15.1-16.54,2.78-4.49,5.95-10.15,9.47-16.95,3.54-6.81,7.07-14.01,10.61-21.59s6.91-14.85,10.12-21.8c3.22-6.95,5.95-12.95,8.19-18.01,2.25-5.06,3.7-8.36,4.34-9.9h-20.89c-5.14,0-7.71-.63-7.71-1.89,0-.98,1.39-2.03,4.18-3.16s4.92-1.69,6.43-1.69h20.57c.64-1.26,1.76-3.62,3.37-7.05,1.6-3.44,3.43-7.27,5.47-11.48s4.02-8.14,5.95-11.79c1.92-3.65,3.32-6.32,4.18-8.01,4.5-8.14,10.87-14.11,19.12-17.9,8.24-3.79,18.9-5.69,31.98-5.69,8.35,0,14.94,1.3,19.76,3.9s8.3,5.69,10.45,9.27c2.13,3.58,3.21,6.92,3.21,10,0,3.65-1.02,6.46-3.05,8.43-2.04,1.97-4.39,3.33-7.07,4.11-2.68.78-4.98,1.16-6.91,1.16-1.28,0-2.63-.32-4.02-.95s-2.08-1.71-2.08-3.27c0-1.82.85-3.82,2.57-6,1.71-2.17,3.37-4.11,4.98-5.79,1.6-1.69,2.41-2.81,2.41-3.37,0-1.54-1.18-3.33-3.54-5.37s-5.35-3.83-8.99-5.37c-3.65-1.54-7.39-2.32-11.25-2.32-7.07,0-12.74,1.09-17.04,3.27-4.29,2.17-7.66,4.81-10.12,7.9-2.47,3.09-4.55,6.04-6.27,8.84-2.57,4.36-5.03,8.95-7.39,13.8s-4.5,9.37-6.43,13.58c-1.92,4.21-3.54,7.66-4.82,10.32,2.36,0,4.98.08,7.87.21,2.89.14,5.84.21,8.83.21,3.64,0,7.34-.32,11.09-.95s6.27-.95,7.55-.95c.85,0,1.28.14,1.28.42,0,2.11-2.31,3.65-6.91,4.63-4.61.98-9.96,1.58-16.06,1.79-6.11.21-11.52.32-16.22.32-.64.98-1.88,3.55-3.7,7.69s-4.02,9.16-6.59,15.06-5.3,12.08-8.19,18.53c-2.89,6.46-5.74,12.64-8.51,18.54-2.79,5.9-5.14,10.88-7.07,14.96-5.14,10.67-11.09,18.92-17.84,24.75-6.75,5.82-13.61,9.87-20.57,12.11s-13.34,3.37-19.12,3.37v-.02.02ZM1391.3,1142.81c-4.07,0-6.11-1.26-6.11-3.79,0-1.26.43-2.74,1.28-4.43,4.71-8.84,8.56-16.12,11.57-21.8,3-5.69,5.35-10.18,7.07-13.48,1.71-3.3,2.89-5.82,3.54-7.58.64-1.76.96-3.19.96-4.32,0-.7-.16-1.19-.48-1.48s-.48-.7-.48-1.26.32-1.48.96-2.74c4.5-8.56,8.56-14.39,12.21-17.48,3.64-3.09,9.1-4.63,16.38-4.63,3,0,4.6.63,4.82,1.89-2.15,2.67-5.63,7.03-10.45,13.06-4.82,6.04-9.91,13.52-15.26,22.44-5.35,8.92-10.07,19.14-14.14,30.65-.22.42-.32.98-.32,1.69,0,1.69,1.07,2.52,3.22,2.52,1.28,0,3.32-.53,6.11-1.58,2.78-1.05,5.67-2.11,8.67-3.16s5.24-1.58,6.75-1.58,2.36.28,2.57.84c0,.84-1.6,2.14-4.82,3.9-3.21,1.76-7.07,3.58-11.57,5.47s-8.83,3.51-13.02,4.84-7.34,2-9.47,2v-.02.03Z"/>
    <path class="cls-6" d="M1486.1,1188.73c-4.29,0-6.75-1.76-7.39-5.26,0-2.81.96-6.81,2.89-12.01,1.92-5.19,4.44-10.95,7.55-17.27s6.43-12.67,9.97-19.06c3.54-6.39,6.86-12.29,9.96-17.7,3.11-5.41,5.63-9.8,7.55-13.17-3.43,2.81-7.98,6.4-13.66,10.75-5.67,4.36-11.84,8.67-18.48,12.95-6.64,4.29-13.13,7.9-19.44,10.85-6.32,2.95-11.73,4.43-16.22,4.43-4.93,0-7.39-2.17-7.39-6.53,0-3.79,1.44-8.64,4.34-14.53,2.89-5.9,6.69-12.14,11.41-18.74,4.71-6.6,9.86-12.82,15.42-18.64,5.56-5.82,11.09-10.57,16.54-14.22,5.47-3.65,10.34-5.47,14.62-5.47h.96l3.54-1.69c1.07-.84,2.41-1.4,4.02-1.69,1.6-.28,3.27-.42,4.98-.42,4.28,0,8.78.56,13.5,1.69s7.82,1.69,9.31,1.69,2.73-.56,3.7-1.69c.96-1.13,2.73-1.69,5.3-1.69,5.79,0,8.67,1.76,8.67,5.26,0,1.97-.75,4.18-2.25,6.63-1.51,2.46-2.79,4.46-3.86,6-.22.56-1.18,1.02-2.89,1.37s-2.79.81-3.22,1.37c-9.43,14.74-18.37,29.24-26.83,43.49s-15.48,29.24-21.05,44.97c-.86,2.24-1.28,4.21-1.28,5.9,0,2.52,1.17,3.79,3.54,3.79,2.57,0,5.47-.73,8.67-2.21,3.22-1.48,6.38-3.23,9.47-5.26,3.11-2.04,5.84-3.79,8.19-5.26,2.36-1.48,3.96-2.21,4.82-2.21,1.07,0,1.6.49,1.6,1.48,0,.84-.37,1.76-1.12,2.74s-1.34,1.54-1.76,1.69c-1.71.98-4.34,2.42-7.87,4.32s-7.5,3.86-11.89,5.9-8.67,3.79-12.86,5.26-7.87,2.21-11.09,2.21v-.03h.03ZM1462.01,1132.27c2.13,0,5.08-.95,8.83-2.84s7.82-4.32,12.21-7.27,8.62-5.9,12.69-8.84c4.07-2.95,7.6-5.59,10.61-7.9,3-2.32,4.82-3.75,5.47-4.32,3.86-3.79,7.66-7.86,11.41-12.22,3.75-4.35,6.86-8.28,9.31-11.79,2.46-3.5,3.7-5.97,3.7-7.37,0-.7-.43-1.05-1.28-1.05h-.96c-2.15,0-4.34-.17-6.59-.53-2.25-.35-4.87-.53-7.87-.53-1.51,0-3,.08-4.5.21-1.51.15-3.21.42-5.14.84-1.51.15-4.23,1.82-8.19,5.06-3.97,3.23-8.35,7.3-13.18,12.22-4.82,4.92-9.47,10.11-13.98,15.59-4.5,5.47-8.19,10.68-11.09,15.59-2.89,4.92-4.34,8.99-4.34,12.22,0,1.97.96,2.95,2.89,2.95v-.03h0Z"/>
    <path class="cls-6" d="M1596.01,1154.81c-2.79,0-4.18-.78-4.18-2.32,0-1.41,1.6-2.84,4.82-4.32,3.21-1.48,5.56-3.33,7.07-5.59.64-1.13,1.92-3.82,3.86-8.11,1.92-4.28,4.12-9.19,6.59-14.74,2.46-5.54,4.71-10.85,6.75-15.9s3.59-8.91,4.66-11.58c-2.36,2.39-5.95,5.65-10.77,9.8s-10.23,8.57-16.22,13.27c-6,4.71-12.16,9.2-18.48,13.48-6.32,4.29-12.26,7.79-17.84,10.53s-10.29,4.11-14.14,4.11c-3,0-4.5-1.26-4.5-3.79,0-2.11,1.17-5.13,3.54-9.06,1.28-1.96,3.27-4.84,5.95-8.64,2.68-3.79,5.47-7.9,8.35-12.32s5.35-8.56,7.39-12.42,3.05-6.85,3.05-8.95c0-.98-.22-1.65-.64-2-.43-.35-.64-.88-.64-1.58,0-.28.05-.6.16-.95s.27-.81.48-1.37c2.36-5.76,4.55-10.25,6.59-13.48s4.55-5.47,7.55-6.74c3-1.26,7.07-1.89,12.21-1.89,3,0,4.82.63,5.47,1.89-.86,1.41-2.68,4.32-5.47,8.74-2.79,4.43-6.06,9.62-9.8,15.59-3.75,5.97-7.39,11.87-10.93,17.7s-6.48,10.88-8.83,15.16c-2.36,4.29-3.54,6.92-3.54,7.9,0,.56.32.84.96.84.85,0,1.97-.35,3.38-1.05,1.39-.7,2.84-1.48,4.34-2.32,12.63-6.32,23.56-13.45,32.78-21.38,9.2-7.93,17.14-15.97,23.79-24.12.21-2.11,1.01-4.78,2.41-8.01s3.8-6.11,7.23-8.64c3.43-2.52,7.92-3.79,13.5-3.79,2.36,0,3.64.63,3.86,1.89-1.07,2.25-3.27,6.25-6.59,12.01s-6.81,12.01-10.45,18.74c-1.71,3.37-3.64,7.34-5.79,11.9s-4.23,9.16-6.27,13.8c-2.04,4.63-3.7,8.71-4.98,12.22s-1.92,5.83-1.92,6.95c0,.42.21.63.64.63,1.92-.14,4.55-1.05,7.87-2.74s6.8-3.4,10.45-5.16c3.64-1.76,6.64-2.64,8.99-2.64.43,0,.96.08,1.6.21.64.15.96.42.96.84,0,.84-1.51,2.04-4.5,3.58-3,1.54-6.59,3.16-10.77,4.84s-8.03,3.23-11.57,4.63-5.95,2.39-7.23,2.95c-2.15,1.13-4.45,2.59-6.91,4.43-2.47,1.82-4.87,3.44-7.23,4.84s-4.71,2.11-7.07,2.11h.01v.02Z"/>
    <path class="cls-6" d="M1679.23,1143.65c-2.57,0-5.51-.39-8.83-1.16-3.32-.78-6.22-2.17-8.67-4.21-2.47-2.03-3.7-4.95-3.7-8.74,0-1.54.32-3.37.96-5.47,2.13-7.02,4.23-12.36,6.27-16.01s3.27-6.6,3.7-8.84c-.64-.14-1.6-.49-2.89-1.05-1.28-.56-1.92-1.33-1.92-2.32s.64-1.61,1.92-1.89,2.46-.42,3.54-.42h2.25c1.71-2.39,3.59-4.98,5.63-7.79s5.08-6.6,9.15-11.38c3.64-4.49,8.4-7.48,14.3-8.95,5.88-1.48,12.58-2.21,20.08-2.21s12.31,4.29,15.1,12.85c1.28,4.36,1.92,7.86,1.92,10.53,0,3.37-1.67,6.04-4.98,8.01-3.32,1.97-7.39,3.45-12.21,4.43-4.82.98-9.59,1.65-14.3,2s-8.46.53-11.25.53-5.19-.03-7.23-.1-3.48-.1-4.34-.1c-3.22,5.34-5.79,10.46-7.71,15.38-1.92,4.92-2.89,9.06-2.89,12.42,0,5.62,3.21,8.43,9.64,8.43,3.86,0,7.87-1.13,12.05-3.37s8.19-4.84,12.05-7.79,7.18-5.54,9.96-7.79c2.79-2.24,4.6-3.37,5.47-3.37,1.49,0,2.25.56,2.25,1.69,0,1.97-1.71,4.46-5.14,7.48s-7.66,6-12.69,8.95c-5.03,2.95-10.07,5.41-15.1,7.37s-9.15,2.95-12.37,2.95v-.03l-.02-.03ZM1699.48,1095.84c8.14,0,14.3-.6,18.48-1.79s6.38-3.83,6.59-7.9c0-5.76-1.12-9.82-3.37-12.22-2.25-2.39-4.34-3.58-6.27-3.58-2.57,0-5.3,1.02-8.19,3.05-2.89,2.04-5.67,4.46-8.35,7.27-2.68,2.81-5.1,5.59-7.23,8.32-2.15,2.74-3.64,4.88-4.5,6.42,1.07,0,2.79.07,5.14.21s4.92.21,7.71.21h-.01Z"/>
  </g>
</svg>