<?xml version="1.0" encoding="UTF-8"?>
<svg id="Layer_1" data-name="Layer 1" xmlns="http://www.w3.org/2000/svg" viewBox="0 0 1920 1080">
  <defs>
    <style>
      .cls-1 {
        fill: #ef3940;
      }

      .cls-2 {
        opacity: .66;
      }

      .cls-2, .cls-3, .cls-4, .cls-5 {
        stroke-miterlimit: 10;
      }

      .cls-2, .cls-3, .cls-4, .cls-5, .cls-6 {
        fill: none;
      }

      .cls-2, .cls-4 {
        stroke-width: 6px;
      }

      .cls-2, .cls-4, .cls-5 {
        stroke: #000;
      }

      .cls-3 {
        stroke: #231f20;
        stroke-linecap: round;
        stroke-width: 3px;
      }

      .cls-4 {
        opacity: .7;
      }

      .cls-7 {
        opacity: .7;
      }

      .cls-8 {
        fill: red;
      }

      .cls-5 {
        stroke-width: 5px;
      }

      .cls-6 {
        stroke: #ef3940;
      }
    </style>
  </defs>
  <g>
    <path class="cls-8" d="M266.68,725.15c-3.79,0-5.68-2.25-5.68-6.75v-1.99c4.59-32.31,10.27-66.8,17.02-103.48,6.75-36.68,15.26-73.02,25.54-109.04,0-.79.41-1.99,1.22-3.58-1.89-1.59-2.84-4.63-2.84-9.14,0-11.92,2.09-19.73,6.28-23.44,4.19-3.71,8.04-5.56,11.55-5.56,1.89,0,3.24.14,4.05.4l2.84-.79c1.62-.53,3.38-.79,5.27-.79,1.35,0,2.63.27,3.85.79,1.22.53,1.82,1.46,1.82,2.78,0,1.59-.81,3.97-2.43,7.15s-3.31,6.36-5.07,9.53c-1.76,3.18-3.04,5.7-3.85,7.55l-4.86,11.92c.81,15.89,2.5,32.38,5.07,49.46,2.57,17.08,6.28,32.97,11.15,47.67,4.86,14.7,11.01,26.68,18.44,35.95,7.43,9.27,16.42,13.9,26.95,13.9,7.56,0,17.29-4.17,29.18-12.51,11.89-8.34,24.86-21.85,38.91-40.52,14.05-18.67,27.83-43.63,41.34-74.88l1.22-11.92v-1.99c0-2.12-.2-4.23-.61-6.36-.41-2.12-.61-4.1-.61-5.96,0-8.47,1.96-16.02,5.88-22.64,3.91-6.62,11.28-9.93,22.09-9.93,1.62,0,3.1.34,4.46.99,1.35.66,2.03,1.79,2.03,3.38,0,2.65-1.08,6.49-3.24,11.52-2.17,5.03-3.51,9.01-4.05,11.92-3.24,11.39-5.95,24.37-8.11,38.93-2.17,14.57-3.85,29.59-5.07,45.09-1.22,15.49-2.1,30.72-2.63,45.68-.54,14.97-.81,28.67-.81,41.11,0,9.8.06,18.47.2,26.02.13,7.55.47,13.44,1.01,17.68.54,3.97,1.22,6.29,2.03,6.95.81.66,1.22,1.92,1.22,3.77,0,3.71-1.15,6.49-3.45,8.34-2.3,1.85-4.93,2.78-7.9,2.78-2.7,0-5.07-.66-7.09-1.99s-3.04-3.18-3.04-5.56c.27-30.19.67-59.59,1.22-88.19.54-28.6,1.62-56.54,3.24-83.82-14.59,29.93-28.98,53.76-43.17,71.5-14.19,17.74-27.23,30.46-39.11,38.14-11.89,7.68-22.03,11.52-30.4,11.52-10.54,0-19.73-4.03-27.56-12.12-7.84-8.08-14.53-18.67-20.06-31.78-5.54-13.11-10.07-27.21-13.58-42.31-3.51-15.09-6.08-29.79-7.7-44.09-4.86,15.09-9.26,30.53-13.17,46.28-3.92,15.76-7.37,31.05-10.34,45.88-2.98,14.84-5.41,28.4-7.3,40.72-1.89,12.31-3.11,22.44-3.65,30.39,0,3.44.27,6.03.81,7.75.54,1.72.81,3.51.81,5.36,0,4.24-1.15,7.35-3.45,9.33-2.3,1.99-4.26,2.98-5.88,2.98Z"/>
    <path class="cls-8" d="M556.89,723.17c-6.49,0-9.73-4.77-9.73-14.3,0-7.41,1.48-16.62,4.46-27.61,2.97-10.99,6.89-22.44,11.75-34.36s10.2-23.1,16.01-33.57c5.81-10.46,11.75-19,17.83-25.62,6.08-6.62,11.69-9.93,16.82-9.93h1.22l4.46-3.18c1.35-1.59,3.04-2.64,5.07-3.18,2.03-.53,4.12-.8,6.28-.8,5.4,0,11.08,1.06,17.02,3.18,5.94,2.12,9.99,3.18,12.16,3.18,1.89,0,3.31-1.06,4.26-3.18.94-2.12,3.04-3.18,6.28-3.18,3.78,0,6.42.8,7.9,2.38,1.48,1.59,2.23,3.71,2.23,6.36,0,3.71-1.08,8.01-3.24,12.91-2.17,4.9-3.92,8.94-5.27,12.12-.27,1.06-1.49,1.92-3.65,2.58-2.17.66-3.51,1.53-4.05,2.58-4.33,12.18-8.25,24.57-11.75,37.14-3.52,12.58-6.22,23.51-8.11,32.77-1.89,9.27-2.84,14.97-2.84,17.08,0,6.62,1.89,9.93,5.67,9.93,3.24,0,6.75-1.39,10.54-4.17,3.78-2.78,7.5-5.89,11.15-9.33,3.65-3.44,6.69-6.55,9.12-9.34,2.43-2.78,3.78-4.17,4.05-4.17.54,0,.81.53.81,1.59s-.41,2.65-1.22,4.77c-.81,2.12-1.76,3.58-2.84,4.37-2.7,2.38-6.89,6.03-12.57,10.92-5.67,4.9-11.75,9.47-18.24,13.7-6.49,4.24-12.16,6.36-17.02,6.36-5.67,0-9.06-3.31-10.13-9.93,0-4.77.81-10.92,2.43-18.47,1.62-7.55,3.45-15.29,5.47-23.24,2.03-7.94,3.85-14.56,5.47-19.86-4.05,5.3-9.26,12.05-15.61,20.26-6.35,8.21-13.24,16.35-20.67,24.43-7.44,8.08-14.79,14.9-22.09,20.46-7.3,5.56-13.78,8.34-19.46,8.34ZM569.86,704.5c2.7,0,6.28-1.79,10.74-5.36s9.32-8.14,14.59-13.7c5.27-5.56,10.27-11.12,15-16.68,4.72-5.56,8.78-10.53,12.16-14.9,3.38-4.37,5.47-7.08,6.28-8.14,4.32-6.88,8.58-14.36,12.77-22.44,4.19-8.08,7.63-15.49,10.34-22.25,2.7-6.75,4.05-11.45,4.05-14.1,0-1.59-.68-2.38-2.03-2.38h-1.22c-2.7,0-5.47-.26-8.31-.79-2.84-.53-6.15-.79-9.93-.79s-7.84.53-12.16,1.59c-2.43.53-5.88,3.77-10.34,9.73s-9.32,13.44-14.59,22.44c-5.27,9.01-10.27,18.61-15,28.8-4.73,10.2-8.65,19.93-11.75,29.2-3.11,9.27-4.66,16.95-4.66,23.04,0,4.51,1.35,6.75,4.05,6.75Z"/>
    <path class="cls-8" d="M693.07,724.36c-5.14,0-7.7-2.38-7.7-7.15,0-2.38.54-5.16,1.62-8.34,5.94-16.68,10.8-30.39,14.59-41.11,3.78-10.72,6.75-19.2,8.92-25.42,2.16-6.22,3.65-10.99,4.46-14.3.81-3.31,1.22-6.02,1.22-8.14,0-1.32-.2-2.25-.61-2.78-.41-.53-.61-1.32-.61-2.38s.41-2.78,1.22-5.16c5.67-16.15,10.8-27.14,15.4-32.97,4.59-5.82,11.48-8.74,20.67-8.74,3.78,0,5.81,1.19,6.08,3.58-2.7,5.03-7.09,13.24-13.17,24.63-6.08,11.39-12.5,25.49-19.25,42.31-6.76,16.82-12.7,36.09-17.83,57.8-.27.79-.41,1.86-.41,3.18,0,3.18,1.35,4.77,4.05,4.77,1.62,0,4.19-.99,7.7-2.98,3.51-1.99,7.16-3.97,10.94-5.96,3.78-1.99,6.62-2.98,8.51-2.98s2.97.53,3.24,1.59c0,1.59-2.03,4.04-6.08,7.35-4.05,3.31-8.92,6.75-14.59,10.33s-11.15,6.62-16.42,9.14c-5.27,2.51-9.26,3.77-11.96,3.77ZM752.66,543.61c-3.79,0-6.08-1.39-6.89-4.17-.81-2.78-1.22-5.76-1.22-8.94,0-3.97,2.03-8.14,6.08-12.51,4.05-4.37,8.85-8.08,14.39-11.12,5.54-3.04,10.2-4.57,13.98-4.57,1.35,0,2.16.4,2.43,1.19,0,2.92-1.15,5.7-3.45,8.34-2.3,2.65-4.8,5.3-7.5,7.95-2.7,2.65-4.86,5.7-6.49,9.14-1.08,2.65-2.43,5.56-4.05,8.74-1.62,3.18-4.05,5.16-7.3,5.96Z"/>
    <path d="M832.1,728.73c-12.7,0-22.23-1.46-28.58-4.37-6.35-2.91-10.61-6.55-12.77-10.92-2.17-4.37-3.24-8.67-3.24-12.91v-2.78c0-2.12.67-4.97,2.03-8.54,1.35-3.58,4.32-5.36,8.92-5.36,2.16,0,3.38,1.66,3.65,4.97.27,3.31,1.48,6.82,3.65,10.53,4.32,6.89,9.86,11.39,16.62,13.51,6.75,2.12,15.26,3.18,25.54,3.18,8.92,0,18.44-1.45,28.58-4.37,10.13-2.91,19.66-7.01,28.58-12.31,8.92-5.29,16.14-11.65,21.68-19.07,5.54-7.41,8.31-15.75,8.31-25.03,0-8.47-3.04-15.49-9.12-21.05-6.08-5.56-13.98-10.46-23.71-14.7-9.73-4.23-19.93-8.27-30.6-12.12-10.68-3.84-20.87-8.4-30.6-13.7-9.73-5.29-17.63-11.78-23.71-19.47-6.08-7.68-9.12-17.34-9.12-29s3.31-22.25,9.93-32.57c6.62-10.33,15.67-19.53,27.16-27.61,11.48-8.08,24.45-14.43,38.91-19.07,14.45-4.63,29.52-6.95,45.19-6.95,11.62,0,20.27,2.05,25.94,6.16,5.67,4.11,9.53,9.14,11.55,15.1,2.03,5.96,3.04,11.99,3.04,18.07,0,1.33-.4,3.58-1.22,6.75-.81,3.18-2.1,6.03-3.85,8.54-1.76,2.52-3.85,3.77-6.28,3.77-1.89,0-2.84-1.72-2.84-5.16v-7.94c0-12.18-3.72-20.32-11.15-24.43-7.44-4.1-16.69-6.16-27.76-6.16-7.3,0-16.15,1.26-26.55,3.77-10.41,2.52-20.61,6.36-30.6,11.52-10,5.16-18.31,11.46-24.93,18.87-6.62,7.42-9.93,16.16-9.93,26.22,0,.53.06,1.13.2,1.79.13.66.2,1.26.2,1.79,1.35,11.12,5.47,20.33,12.36,27.61,6.89,7.29,15.33,13.31,25.33,18.07,9.99,4.77,20.47,9.01,31.41,12.71,10.94,3.71,21.14,7.55,30.6,11.52,9.46,3.97,17.16,8.68,23.1,14.1,5.94,5.43,8.92,12.51,8.92,21.25,0,10.33-3.38,20.59-10.13,30.79-6.76,10.2-15.95,19.47-27.56,27.81-11.62,8.34-24.93,14.97-39.92,19.86-15,4.9-30.74,7.35-47.22,7.35Z"/>
    <path d="M1050.97,747c-3.52,0-5.27-1.46-5.27-4.37,0-2.65,2.03-5.36,6.08-8.14s7.02-6.29,8.92-10.53c.81-2.12,2.43-7.21,4.86-15.29,2.43-8.08,5.2-17.34,8.31-27.81,3.1-10.46,5.94-20.46,8.51-29.99,2.56-9.53,4.52-16.81,5.88-21.85-2.98,4.51-7.5,10.66-13.58,18.47-6.08,7.81-12.91,16.16-20.47,25.03-7.57,8.88-15.34,17.35-23.31,25.42-7.97,8.08-15.47,14.7-22.5,19.86-7.03,5.16-12.97,7.75-17.83,7.75-3.79,0-5.67-2.38-5.67-7.15,0-3.97,1.48-9.66,4.46-17.08,1.62-3.71,4.12-9.14,7.5-16.29,3.38-7.15,6.89-14.9,10.54-23.24,3.65-8.34,6.75-16.15,9.32-23.44,2.56-7.28,3.85-12.91,3.85-16.88,0-1.85-.27-3.11-.81-3.77-.55-.66-.81-1.65-.81-2.98,0-.53.06-1.12.2-1.79.13-.66.34-1.52.61-2.58,2.97-10.86,5.74-19.33,8.31-25.42,2.56-6.09,5.74-10.33,9.52-12.71,3.78-2.38,8.92-3.58,15.4-3.58,3.78,0,6.08,1.19,6.89,3.58-1.08,2.65-3.38,8.14-6.89,16.48-3.51,8.34-7.64,18.14-12.36,29.4-4.73,11.26-9.32,22.38-13.78,33.37-4.46,10.99-8.18,20.53-11.15,28.6-2.98,8.08-4.46,13.05-4.46,14.9,0,1.06.41,1.59,1.22,1.59,1.08,0,2.49-.66,4.26-1.99,1.75-1.32,3.58-2.78,5.47-4.37,15.94-11.92,29.72-25.36,41.34-40.32,11.62-14.96,21.62-30.12,30-45.48.27-3.97,1.28-9,3.04-15.1,1.75-6.09,4.79-11.52,9.12-16.29,4.32-4.77,9.99-7.15,17.02-7.15,2.97,0,4.59,1.19,4.86,3.58-1.36,4.24-4.12,11.79-8.31,22.64-4.19,10.86-8.58,22.64-13.17,35.35-2.17,6.36-4.6,13.84-7.3,22.44-2.7,8.61-5.34,17.28-7.9,26.02-2.57,8.74-4.66,16.42-6.28,23.04-1.62,6.62-2.43,10.99-2.43,13.11,0,.8.27,1.19.81,1.19,2.43-.26,5.74-1.99,9.93-5.16,4.19-3.18,8.58-6.42,13.17-9.73,4.59-3.31,8.37-4.97,11.35-4.97.54,0,1.22.14,2.03.4.81.27,1.22.79,1.22,1.59,0,1.59-1.89,3.84-5.67,6.75-3.79,2.92-8.31,5.96-13.58,9.14-5.27,3.18-10.13,6.1-14.59,8.74-4.46,2.64-7.5,4.5-9.12,5.56-2.7,2.12-5.61,4.9-8.71,8.34-3.11,3.44-6.15,6.49-9.12,9.14-2.98,2.64-5.95,3.97-8.92,3.97Z"/>
    <path d="M1130.01,728.73c-2.17,0-3.92-.86-5.27-2.58-1.36-1.73-2.03-3.51-2.03-5.36,0-3.18,1.48-4.77,4.46-4.77,3.24,0,8.17-.66,14.79-1.99,6.62-1.32,13.51-3.11,20.67-5.36,7.16-2.25,13.31-4.97,18.44-8.14,5.13-3.18,7.7-6.62,7.7-10.33,0-3.44-1.96-6.95-5.88-10.53-3.92-3.58-8.71-7.21-14.39-10.92-5.67-3.71-11.42-7.55-17.23-11.52-5.81-3.97-10.68-8.14-14.59-12.51-3.92-4.37-5.88-9.07-5.88-14.1,0-2.12.34-4.23,1.01-6.36.67-2.12,1.96-4.23,3.85-6.36,8.11-10.06,16.95-18.2,26.55-24.43,9.59-6.22,18.57-10.99,26.95-14.3,8.37-3.31,14.72-5.76,19.05-7.35,1.35-.53,2.97-.99,4.86-1.39,1.89-.4,3.78-.6,5.67-.6,3.78,0,7.16,1.13,10.13,3.38,2.97,2.25,4.46,6.42,4.46,12.51-.27,2.65-1.36,6.03-3.24,10.13-1.89,4.11-4.26,8.28-7.09,12.51-2.84,4.24-5.61,7.75-8.31,10.53-2.7,2.78-5,4.17-6.89,4.17-1.08,0-1.62-.8-1.62-2.38,0-2.38.74-5.43,2.23-9.14,1.48-3.71,2.97-7.35,4.46-10.92,1.48-3.58,2.23-6.42,2.23-8.54,0-3.97-2.43-5.96-7.3-5.96-1.89,0-3.99.2-6.28.6-2.3.4-4.66.86-7.09,1.39-1.62.27-4.73,1.39-9.32,3.38-4.6,1.99-9.46,4.57-14.59,7.75-5.14,3.18-9.59,6.82-13.38,10.92-3.79,4.11-5.67,8.54-5.67,13.31,0,2.92.67,5.56,2.03,7.95,3.24,6.36,7.7,11.32,13.38,14.9s11.35,6.75,17.02,9.53c5.67,2.78,10.47,5.83,14.39,9.14,3.91,3.31,5.88,8.01,5.88,14.1s-2.7,12.51-8.11,18.47c-5.41,5.96-12.23,11.26-20.47,15.89-8.25,4.64-16.48,8.34-24.72,11.12-8.25,2.78-15.2,4.17-20.88,4.17Z"/>
    <path d="M1292.54,740.25c-2.98,0-5.41-1.06-7.3-3.18-1.89-2.12-2.84-5.96-2.84-11.52,0-7.68,1.55-16.88,4.66-27.61,3.1-10.73,6.89-21.85,11.35-33.37s8.92-22.44,13.38-32.77c4.46-10.33,8.24-19.13,11.35-26.42,3.1-7.28,4.66-11.85,4.66-13.7,0-.53-.14-.79-.4-.79-1.08,0-3.52,1.99-7.3,5.96-15.4,16.95-27.76,32.18-37.09,45.68-9.32,13.51-16.62,25.42-21.89,35.75-5.27,10.33-9.46,18.87-12.57,25.62-3.11,6.75-6.22,11.85-9.32,15.29-3.11,3.44-7.23,5.16-12.36,5.16-2.43,0-3.65-1.33-3.65-3.97,0-2.38.67-5.03,2.03-7.94,12.43-31.24,23.1-61.5,32.02-90.77,8.92-29.26,18.78-59.78,29.59-91.56.54-1.85.87-3.31,1.01-4.37.13-1.06.2-1.99.2-2.78,0-1.32-.14-2.25-.41-2.78-.27-.53-.4-1.32-.4-2.38s.4-2.78,1.22-5.16c4.05-10.86,7.56-19.33,10.54-25.42,2.97-6.09,6.35-10.33,10.13-12.71,3.78-2.38,8.78-3.58,15-3.58,3.78,0,5.81,1.19,6.08,3.58-14.86,29.66-28.51,60.85-40.94,93.55-12.43,32.71-22.7,63.5-30.8,92.36,2.97-4.5,7.02-10.59,12.16-18.27,5.13-7.68,11.01-15.75,17.63-24.23,6.62-8.47,13.51-16.55,20.67-24.23,7.16-7.68,14.25-13.9,21.28-18.67,7.02-4.77,13.51-7.15,19.46-7.15s8.51,1.86,8.51,5.56c0,2.38-.95,5.03-2.84,7.94-5.95,9.53-12.36,20.66-19.25,33.37-6.89,12.71-13.38,25.82-19.46,39.33-6.08,13.51-11.08,26.35-15,38.53-3.92,12.18-5.88,22.64-5.88,31.38,0,3.71,1.08,5.56,3.24,5.56,1.35,0,3.78-1.19,7.3-3.58,3.51-2.38,5.81-3.58,6.89-3.58,1.35,0,2.03.79,2.03,2.38,0,3.18-2.5,6.55-7.5,10.13-5,3.58-10.07,5.36-15.2,5.36Z"/>
    <path d="M1360.64,724.36c-5.14,0-7.7-2.38-7.7-7.15,0-2.38.54-5.16,1.62-8.34,5.94-16.68,10.81-30.39,14.59-41.11,3.78-10.72,6.75-19.2,8.92-25.42,2.16-6.22,3.65-10.99,4.46-14.3.81-3.31,1.22-6.02,1.22-8.14,0-1.32-.2-2.25-.61-2.78-.4-.53-.61-1.32-.61-2.38s.4-2.78,1.22-5.16c5.67-16.15,10.81-27.14,15.4-32.97,4.59-5.82,11.48-8.74,20.67-8.74,3.78,0,5.81,1.19,6.08,3.58-2.7,5.03-7.09,13.24-13.17,24.63-6.08,11.39-12.5,25.49-19.25,42.31-6.76,16.82-12.7,36.09-17.83,57.8-.27.79-.4,1.86-.4,3.18,0,3.18,1.35,4.77,4.05,4.77,1.62,0,4.19-.99,7.7-2.98,3.51-1.99,7.16-3.97,10.94-5.96,3.78-1.99,6.62-2.98,8.51-2.98s2.97.53,3.24,1.59c0,1.59-2.03,4.04-6.08,7.35-4.05,3.31-8.92,6.75-14.59,10.33s-11.15,6.62-16.42,9.14c-5.27,2.51-9.26,3.77-11.96,3.77ZM1420.22,543.61c-3.79,0-6.08-1.39-6.89-4.17-.81-2.78-1.22-5.76-1.22-8.94,0-3.97,2.03-8.14,6.08-12.51,4.05-4.37,8.85-8.08,14.39-11.12,5.53-3.04,10.2-4.57,13.98-4.57,1.35,0,2.16.4,2.43,1.19,0,2.92-1.15,5.7-3.44,8.34-2.3,2.65-4.8,5.3-7.5,7.95-2.7,2.65-4.86,5.7-6.49,9.14-1.08,2.65-2.43,5.56-4.05,8.74-1.62,3.18-4.05,5.16-7.3,5.96Z"/>
  </g>
  <g>
    <path d="M590.8,974.87c-2.23,0-4.53-1.07-6.9-3.19-2.37-2.13-3.55-3.93-3.55-5.39,0-1.32.76-1.98,2.3-1.98.14,0,1.04.22,2.72.66-.56-3.08-.98-6.64-1.25-10.68-.28-4.04-.42-8.48-.42-13.32,0-8.37.31-17.43.94-27.19.63-9.76,1.53-19.56,2.72-29.39,1.18-9.83,2.47-19.15,3.87-27.96,1.39-8.81,2.79-16.36,4.18-22.68h-11.08c-3.07-.14-4.6-.73-4.6-1.76,0-.73.87-1.54,2.61-2.42,1.74-.88,3.79-1.32,6.17-1.32h8.15c.7-3.81,2.3-6.31,4.81-7.48,2.51-1.17,5.15-1.76,7.94-1.76,2.09,0,3.14.74,3.14,2.2s-.63,2.94-1.88,4.4c-1.25,1.47-2.02,2.57-2.3,3.3,3.48.3,7.73.85,12.75,1.65,5.02.81,10.14,1.98,15.36,3.52,5.23,1.54,10.1,3.63,14.63,6.27,4.53,2.64,8.22,5.91,11.08,9.8,2.85,3.89,4.28,8.62,4.28,14.2,0,4.4-1.15,8.59-3.45,12.55-2.3,3.96-5.23,7.56-8.78,10.79-3.55,3.23-7.28,6.05-11.18,8.48-3.9,2.42-7.46,4.37-10.66,5.83,1.53-.15,3.17-.26,4.91-.33,1.74-.07,3.59-.11,5.54-.11,4.6,0,9.47.37,14.63,1.1,5.15.74,9.96,2.06,14.42,3.96,4.46,1.91,8.08,4.59,10.87,8.04,2.79,3.45,4.18,7.89,4.18,13.32,0,7.78-2.33,14.57-7,20.36-4.67,5.8-10.76,10.57-18.29,14.31-7.52,3.74-15.68,6.53-24.46,8.37-8.78,1.83-17.21,2.75-25.29,2.75-3.07,0-6.06-.11-8.99-.33s-5.64-.63-8.15-1.21c-.7,1.76-2.02,2.64-3.97,2.64ZM612.33,968.27c7.24,0,14.66-.66,22.26-1.98,7.59-1.32,14.63-3.45,21.11-6.38,6.48-2.93,11.71-6.86,15.68-11.78,3.97-4.92,5.96-10.9,5.96-17.94-.14-4.99-1.78-9.06-4.91-12.22-3.14-3.15-7.14-5.58-12.02-7.26-4.88-1.69-10.03-2.86-15.47-3.52s-10.52-.99-15.26-.99c-6.41,0-12.51.41-18.29,1.21-5.78.81-11.81,1.73-18.08,2.75-.14,1.91-.28,4.66-.42,8.26-.14,3.6-.21,7.6-.21,12,0,6.31.1,12.77.31,19.37.21,6.61.52,12.19.94,16.73,5.29,1.18,11.42,1.76,18.39,1.76ZM598.54,903.32c1.39,0,4.28-.25,8.67-.77,4.39-.51,9.37-1.54,14.95-3.08,5.57-1.54,11.04-3.67,16.41-6.38,5.36-2.72,9.82-6.27,13.38-10.68,3.55-4.4,5.33-9.83,5.33-16.29,0-.73-.04-1.5-.1-2.31-.07-.8-.18-1.65-.31-2.53-1.39-4.7-4.08-8.66-8.05-11.89-3.97-3.23-8.54-5.87-13.69-7.93-5.16-2.05-10.28-3.67-15.36-4.84-5.09-1.17-9.37-1.98-12.85-2.42h-.21c-.7,2.2-1.57,5.58-2.61,10.13-1.05,4.55-2.13,9.62-3.24,15.19-1.12,5.58-2.19,11.23-3.24,16.95-1.04,5.73-1.92,10.94-2.61,15.63-.7,4.7-1.12,8.37-1.25,11.01.14,0,.63.04,1.46.11.84.08,1.95.11,3.34.11Z"/>
    <path d="M679.64,1044c-2.23,0-3.34-1.4-3.34-4.18,0-3.67,1.22-8.22,3.66-13.65,2.44-5.43,5.47-11.16,9.09-17.17,3.62-6.02,7.24-11.78,10.87-17.28,3.62-5.5,6.72-10.16,9.3-13.98,2.58-3.82,4-6.09,4.28-6.83.84-2.64,1.43-5.65,1.78-9.03.35-3.37.52-6.97.52-10.79,0-7.34-.45-14.46-1.36-21.36-.91-6.9-2.23-12.62-3.97-17.17-1.74-4.55-4.01-6.83-6.79-6.83-.56,0-1.12.04-1.67.11-.56.08-.98.11-1.25.11-.56,0-.84-.36-.84-1.1,0-.44.31-1.1.94-1.98.63-.88,1.85-1.98,3.66-3.3.7-.59,1.5-1.61,2.4-3.08.9-1.47,1.85-2.86,2.82-4.18.97-1.32,1.88-1.98,2.72-1.98,2.09,0,3.97,2.24,5.64,6.71,1.67,4.48,3.03,10.2,4.08,17.17,1.05,6.97,1.57,14.27,1.57,21.9,0,1.76-.04,3.52-.1,5.28-.07,1.76-.1,3.52-.1,5.28,0,2.35.56,3.52,1.67,3.52,1.39,0,3.41-1.54,6.06-4.62,2.65-3.08,5.54-6.97,8.67-11.67,3.14-4.7,6.17-9.58,9.09-14.64s5.33-9.61,7.21-13.65c1.88-4.03,2.82-6.86,2.82-8.48,0-.88-.35-1.32-1.05-1.32-.42,0-.91.15-1.46.44-.56.3-1.12.44-1.67.44-.7,0-1.25-.37-1.67-1.1,0-1.32,1.01-2.75,3.03-4.29,2.02-1.54,4.28-2.86,6.79-3.96,2.51-1.1,4.53-1.65,6.06-1.65.7,0,1.18.08,1.46.22.42.59.63,1.4.63,2.42,0,2.2-1.01,5.43-3.03,9.69-2.02,4.26-4.63,8.99-7.84,14.2-3.21,5.21-6.69,10.57-10.45,16.07s-7.46,10.72-11.08,15.63c-3.63,4.92-6.79,9.18-9.51,12.77-2.72,3.6-4.63,6.05-5.75,7.37,0-1.02-.18-.77-.52.77-.35,1.54-.77,3.6-1.25,6.16-.49,2.57-1.12,4.92-1.88,7.05-.77,2.13-1.57,3.19-2.4,3.19-.7,0-1.43-.19-2.19-.55-.77-.37-1.29-.55-1.57-.55-10.31,14.68-17.59,25.98-21.84,33.9-4.25,7.93-6.38,13.65-6.38,17.17,0,1.76.28,3.12.84,4.07.56.95.84,1.87.84,2.75,0,1.61-.87,3.01-2.61,4.18-1.74,1.17-3.38,1.76-4.91,1.76Z"/>
    <path d="M823.23,971.79c-1.53,0-2.68-.22-3.45-.66-.77-.44-1.15-1.39-1.15-2.86,0-3.96.31-9.72.94-17.28.63-7.56,1.46-16.03,2.51-25.43,1.04-9.39,2.23-19.04,3.55-28.95,1.32-9.91,2.68-19.37,4.08-28.4,1.39-9.03,2.72-16.77,3.97-23.23v-.44c0-.58-.1-1.06-.31-1.43-.21-.37-.31-.84-.31-1.43,0-.88.21-2.34.63-4.4.42-2.05.76-3.59,1.05-4.62h-1.25c-1.39,0-2.82.08-4.28.22-1.46.15-2.75.22-3.87.22-3.07-.14-4.6-.73-4.6-1.76,0-1.47,1.7-2.46,5.12-2.97,3.41-.51,6.79-.77,10.14-.77.42-2.49,1.85-4.55,4.28-6.16,2.44-1.61,5.4-2.42,8.88-2.42,2.23,0,3.34.88,3.34,2.64-.7,1.76-1.29,2.9-1.78,3.41-.49.52-1.01,1.65-1.57,3.41,3.62.3,7.91.85,12.85,1.65,4.95.81,10,1.95,15.15,3.41,5.15,1.47,9.96,3.45,14.42,5.94,4.46,2.5,8.08,5.65,10.87,9.47,2.79,3.82,4.18,8.44,4.18,13.87,0,4.99-1.08,9.8-3.24,14.42-2.16,4.62-4.95,8.84-8.36,12.66-3.42,3.82-7,7.08-10.76,9.8-3.76,2.72-7.32,4.66-10.66,5.83-4.74,1.76-9.79,2.97-15.15,3.63-5.37.66-10.28.99-14.74.99-3.34,0-6.17-.11-8.47-.33-2.3-.22-3.8-.47-4.49-.77-.42,2.5-.87,6.24-1.36,11.23-.49,4.99-.87,10.53-1.15,16.62-.28,6.09-.42,12.15-.42,18.16,0,3.67.21,6.71.63,9.14.42,2.42.63,3.56.63,3.41,0,.74-.18,1.14-.52,1.21-.35.08-.59.33-.73.77-.28.74-.87,1.29-1.78,1.65-.91.36-1.85.55-2.82.55ZM845.18,904.64c1.95,0,3.9-.04,5.85-.11,1.95-.07,3.62-.18,5.02-.33,4.04-.44,8.47-1.69,13.27-3.74,4.81-2.05,9.33-4.8,13.59-8.26,4.25-3.45,7.73-7.52,10.45-12.22,2.72-4.69,4.08-9.98,4.08-15.85,0-5.14-1.74-9.54-5.23-13.21-3.48-3.67-7.87-6.71-13.17-9.14-5.3-2.42-10.76-4.29-16.41-5.61-5.64-1.32-10.7-2.2-15.15-2.64-.98,2.2-2.13,5.58-3.45,10.13-1.33,4.55-2.61,9.69-3.87,15.41-1.25,5.72-2.48,11.49-3.66,17.28-1.19,5.8-2.16,11.08-2.93,15.85-.77,4.77-1.29,8.48-1.57,11.12.42.44,1.95.77,4.6.99,2.65.22,5.5.33,8.57.33Z"/>
    <path d="M893.25,972.01c-3.34,0-5.02-2.64-5.02-7.93,0-4.11.76-9.21,2.3-15.3,1.53-6.09,3.55-12.44,6.06-19.04,2.51-6.61,5.26-12.8,8.26-18.6,3-5.8,6.06-10.53,9.2-14.2,3.14-3.67,6.03-5.5,8.67-5.5h.63l2.3-1.76c.7-.88,1.57-1.47,2.61-1.76,1.05-.29,2.12-.44,3.24-.44,2.79,0,5.71.59,8.78,1.76,3.06,1.18,5.15,1.76,6.27,1.76.97,0,1.7-.58,2.19-1.76.49-1.17,1.57-1.76,3.24-1.76,1.95,0,3.31.44,4.08,1.32.76.88,1.15,2.06,1.15,3.52,0,2.06-.56,4.44-1.67,7.16-1.12,2.72-2.02,4.95-2.72,6.71-.14.59-.77,1.07-1.88,1.43-1.12.37-1.81.85-2.09,1.43-2.23,6.75-4.25,13.62-6.06,20.58-1.81,6.97-3.21,13.03-4.18,18.16-.98,5.14-1.46,8.29-1.46,9.47,0,3.67.97,5.5,2.93,5.5,1.67,0,3.48-.77,5.43-2.31,1.95-1.54,3.87-3.26,5.75-5.17,1.88-1.9,3.45-3.63,4.7-5.17,1.25-1.54,1.95-2.31,2.09-2.31.28,0,.42.3.42.88s-.21,1.47-.63,2.64c-.42,1.18-.91,1.98-1.46,2.42-1.39,1.32-3.55,3.34-6.48,6.05-2.93,2.72-6.06,5.25-9.41,7.59-3.34,2.35-6.27,3.52-8.78,3.52-2.93,0-4.67-1.83-5.23-5.5,0-2.64.42-6.05,1.25-10.24.84-4.18,1.78-8.48,2.82-12.88,1.05-4.4,1.99-8.07,2.82-11.01-2.09,2.94-4.77,6.68-8.05,11.23-3.28,4.55-6.83,9.06-10.66,13.54-3.83,4.48-7.63,8.26-11.39,11.34-3.76,3.08-7.11,4.62-10.03,4.62ZM899.94,961.66c1.39,0,3.24-.99,5.54-2.97,2.3-1.98,4.81-4.51,7.52-7.59,2.72-3.08,5.29-6.16,7.73-9.25,2.44-3.08,4.53-5.83,6.27-8.26,1.74-2.42,2.82-3.93,3.24-4.51,2.23-3.81,4.42-7.96,6.58-12.44,2.16-4.48,3.94-8.59,5.33-12.33,1.39-3.74,2.09-6.35,2.09-7.82,0-.88-.35-1.32-1.05-1.32h-.63c-1.39,0-2.82-.14-4.28-.44-1.46-.29-3.17-.44-5.12-.44s-4.04.3-6.27.88c-1.25.3-3.03,2.09-5.33,5.39s-4.81,7.45-7.52,12.44c-2.72,4.99-5.3,10.31-7.73,15.96-2.44,5.65-4.46,11.04-6.06,16.18-1.6,5.14-2.4,9.39-2.4,12.77,0,2.5.7,3.74,2.09,3.74Z"/>
    <path d="M969.33,973.11c-3.62,0-6.66-1.25-9.09-3.74-2.44-2.49-3.66-6.46-3.66-11.89s.9-11.19,2.72-17.72c1.81-6.53,4.11-12.91,6.9-19.15,2.79-6.24,5.61-11.59,8.47-16.07,2.85-4.48,5.4-7.23,7.63-8.26,4.32-1.61,7.66-3.26,10.03-4.95,2.37-1.69,5.29-2.53,8.78-2.53,2.79,0,5.12.74,7,2.2,1.88,1.47,2.82,4.18,2.82,8.15v1.65c0,.52-.07,1.14-.21,1.87-.42,2.64-1.25,4.7-2.51,6.16-1.25,1.47-2.44,2.2-3.55,2.2-1.67,0-2.51-1.32-2.51-3.96,0-1.47.28-3.12.84-4.95.56-1.83.84-3.48.84-4.95,0-2.34-1.19-3.52-3.55-3.52-1.25,0-2.96.63-5.12,1.87-2.16,1.25-4.25,2.68-6.27,4.29-2.02,1.62-3.52,2.94-4.49,3.96-1.12,1.18-2.72,3.89-4.81,8.15-2.09,4.26-4.22,9.25-6.38,14.97-2.16,5.72-4.01,11.41-5.54,17.06-1.53,5.65-2.3,10.46-2.3,14.42,0,5.43,2.02,8.15,6.06,8.15,4.46,0,8.57-1.28,12.33-3.85,3.76-2.57,7.14-5.5,10.14-8.81,3-3.3,5.4-6.24,7.21-8.81,1.81-2.57,2.93-3.93,3.34-4.07.7.3,1.05.81,1.05,1.54,0,1.47-1.01,3.85-3.03,7.15-2.02,3.3-4.74,6.75-8.15,10.35-3.42,3.6-7.28,6.68-11.6,9.25-4.32,2.57-8.78,3.85-13.38,3.85Z"/>
    <path d="M1011.76,972.67c-2.65,0-3.97-1.32-3.97-3.96,0-1.32.28-2.86.84-4.62,3.06-9.25,5.57-16.84,7.52-22.79,1.95-5.94,3.48-10.64,4.6-14.09,1.11-3.45,1.88-6.09,2.3-7.93.42-1.83.63-3.34.63-4.51,0-.73-.1-1.25-.31-1.54-.21-.29-.31-.73-.31-1.32s.21-1.54.63-2.86c2.93-8.95,5.57-15.04,7.94-18.27,2.37-3.23,5.92-4.84,10.66-4.84,1.95,0,2.99.66,3.14,1.98-1.39,2.79-3.66,7.34-6.79,13.65-3.14,6.31-6.45,14.13-9.93,23.45-3.48,9.32-6.55,20-9.2,32.03-.14.44-.21,1.03-.21,1.76,0,1.76.7,2.64,2.09,2.64.84,0,2.16-.55,3.97-1.65,1.81-1.1,3.69-2.2,5.64-3.3,1.95-1.1,3.41-1.65,4.39-1.65s1.53.3,1.67.88c0,.88-1.05,2.24-3.14,4.07-2.09,1.84-4.6,3.74-7.52,5.72-2.93,1.98-5.75,3.67-8.47,5.06-2.72,1.39-4.77,2.09-6.17,2.09ZM1042.49,872.5c-1.95,0-3.13-.77-3.55-2.31-.42-1.54-.63-3.19-.63-4.95,0-2.2,1.05-4.51,3.14-6.93,2.09-2.42,4.56-4.48,7.42-6.16,2.85-1.69,5.26-2.53,7.21-2.53.7,0,1.11.22,1.25.66,0,1.62-.59,3.16-1.78,4.62-1.19,1.47-2.48,2.94-3.87,4.4-1.39,1.47-2.51,3.16-3.34,5.06-.56,1.47-1.25,3.08-2.09,4.84-.84,1.76-2.09,2.86-3.76,3.3Z"/>
    <path d="M1017.61,1016.92c-4.88,0-8.47-.96-10.76-2.86-2.3-1.91-3.76-4.26-4.39-7.04-.63-2.79-.94-5.36-.94-7.71,0-4.26.59-8.11,1.78-11.56,1.19-3.45,2.27-5.17,3.24-5.17.56,0,.91.44,1.04,1.32-.14,1.02-.24,2.05-.31,3.08-.07,1.02-.1,2.05-.1,3.08,0,6.9,1.29,12.36,3.87,16.4,2.58,4.04,5.61,6.05,9.09,6.05,3.21,0,6.55-1.8,10.03-5.39,3.48-3.6,6.76-9.36,9.82-17.28,1.81-4.7,3.87-10.61,6.17-17.72s4.6-14.64,6.9-22.57c2.3-7.93,4.49-15.52,6.58-22.79,2.09-7.26,3.87-13.54,5.33-18.82,1.46-5.28,2.4-8.73,2.82-10.35h-13.59c-3.34,0-5.02-.66-5.02-1.98,0-1.02.9-2.13,2.72-3.3,1.81-1.17,3.2-1.76,4.18-1.76h13.38c.42-1.32,1.15-3.78,2.19-7.38,1.04-3.59,2.23-7.59,3.55-12,1.32-4.4,2.61-8.51,3.87-12.33,1.25-3.81,2.16-6.6,2.72-8.37,2.93-8.51,7.07-14.75,12.44-18.71,5.36-3.96,12.3-5.94,20.8-5.94,5.44,0,9.72,1.36,12.85,4.07,3.14,2.72,5.4,5.94,6.79,9.69,1.39,3.74,2.09,7.23,2.09,10.46,0,3.82-.66,6.75-1.99,8.8-1.32,2.06-2.86,3.49-4.6,4.29-1.74.81-3.24,1.21-4.49,1.21-.83,0-1.71-.33-2.61-.99-.91-.66-1.36-1.8-1.36-3.41,0-1.91.56-4,1.67-6.27,1.12-2.27,2.19-4.29,3.24-6.05,1.05-1.76,1.57-2.93,1.57-3.52,0-1.61-.77-3.49-2.3-5.62-1.53-2.12-3.48-4-5.85-5.61-2.37-1.61-4.81-2.42-7.31-2.42-4.6,0-8.29,1.14-11.08,3.41-2.79,2.28-4.98,5.03-6.58,8.26-1.6,3.23-2.96,6.31-4.08,9.25-1.67,4.55-3.28,9.36-4.81,14.42-1.53,5.06-2.93,9.8-4.18,14.2-1.25,4.4-2.3,8-3.14,10.79,1.53,0,3.24.08,5.12.22,1.88.15,3.79.22,5.75.22,2.37,0,4.77-.33,7.21-.99,2.44-.66,4.08-.99,4.91-.99.56,0,.84.15.84.44,0,2.2-1.5,3.82-4.49,4.84-3,1.03-6.48,1.65-10.45,1.87-3.97.22-7.49.33-10.56.33-.42,1.03-1.22,3.71-2.4,8.04-1.19,4.33-2.61,9.58-4.28,15.74-1.67,6.16-3.45,12.63-5.33,19.37-1.88,6.75-3.73,13.21-5.54,19.37-1.81,6.16-3.34,11.38-4.6,15.63-3.34,11.15-7.21,19.78-11.6,25.87-4.39,6.09-8.85,10.31-13.38,12.66-4.53,2.34-8.67,3.52-12.44,3.52ZM1094.74,972.67c-2.65,0-3.97-1.32-3.97-3.96,0-1.32.28-2.86.84-4.62,3.06-9.25,5.57-16.84,7.52-22.79,1.95-5.94,3.48-10.64,4.6-14.09,1.12-3.45,1.88-6.09,2.3-7.93.42-1.83.63-3.34.63-4.51,0-.73-.1-1.25-.31-1.54-.21-.29-.32-.73-.32-1.32s.21-1.54.63-2.86c2.92-8.95,5.57-15.04,7.94-18.27,2.37-3.23,5.92-4.84,10.66-4.84,1.95,0,3,.66,3.14,1.98-1.39,2.79-3.66,7.34-6.79,13.65-3.14,6.31-6.45,14.13-9.93,23.45-3.49,9.32-6.55,20-9.2,32.03-.14.44-.21,1.03-.21,1.76,0,1.76.7,2.64,2.09,2.64.84,0,2.16-.55,3.97-1.65,1.81-1.1,3.69-2.2,5.64-3.3,1.95-1.1,3.41-1.65,4.39-1.65s1.53.3,1.67.88c0,.88-1.04,2.24-3.13,4.07-2.09,1.84-4.6,3.74-7.53,5.72-2.92,1.98-5.75,3.67-8.47,5.06-2.72,1.39-4.77,2.09-6.17,2.09Z"/>
    <path d="M1154.31,1020.66c-2.79,0-4.39-1.84-4.81-5.5,0-2.94.63-7.12,1.88-12.55,1.25-5.43,2.89-11.45,4.91-18.05,2.02-6.6,4.18-13.24,6.48-19.92,2.3-6.68,4.46-12.84,6.48-18.49,2.02-5.65,3.66-10.24,4.91-13.76-2.23,2.94-5.19,6.68-8.88,11.23-3.69,4.55-7.7,9.06-12.02,13.54-4.32,4.48-8.54,8.26-12.65,11.34-4.11,3.08-7.63,4.62-10.56,4.62-3.21,0-4.81-2.27-4.81-6.82,0-3.96.94-9.03,2.82-15.19,1.88-6.16,4.35-12.69,7.42-19.59,3.06-6.9,6.41-13.39,10.03-19.48,3.62-6.09,7.21-11.04,10.76-14.86,3.55-3.81,6.72-5.72,9.51-5.72h.63l2.3-1.76c.7-.88,1.57-1.47,2.61-1.76,1.04-.29,2.12-.44,3.24-.44,2.79,0,5.71.59,8.78,1.76,3.06,1.18,5.09,1.76,6.06,1.76s1.78-.58,2.4-1.76c.63-1.17,1.78-1.76,3.45-1.76,3.76,0,5.64,1.84,5.64,5.5,0,2.06-.49,4.37-1.46,6.93-.98,2.57-1.81,4.66-2.51,6.27-.14.59-.77,1.07-1.88,1.43-1.12.37-1.81.85-2.09,1.43-6.13,15.41-11.95,30.57-17.45,45.46-5.51,14.9-10.07,30.56-13.69,47-.56,2.34-.84,4.4-.84,6.16,0,2.64.76,3.96,2.3,3.96,1.67,0,3.55-.77,5.64-2.31,2.09-1.54,4.14-3.38,6.17-5.5,2.02-2.13,3.8-3.96,5.33-5.5,1.53-1.54,2.58-2.31,3.14-2.31.7,0,1.05.51,1.05,1.54,0,.88-.25,1.83-.73,2.86-.49,1.02-.87,1.61-1.15,1.76-1.12,1.03-2.82,2.53-5.12,4.51s-4.88,4.04-7.73,6.16c-2.86,2.13-5.64,3.96-8.36,5.5-2.72,1.54-5.12,2.31-7.21,2.31ZM1138.64,961.66c1.39,0,3.31-.99,5.75-2.97,2.44-1.98,5.08-4.51,7.94-7.59,2.85-3.08,5.61-6.16,8.26-9.25,2.65-3.08,4.95-5.83,6.9-8.26,1.95-2.42,3.13-3.93,3.55-4.51,2.51-3.96,4.98-8.22,7.42-12.77,2.44-4.55,4.46-8.66,6.06-12.33,1.6-3.67,2.4-6.24,2.4-7.7,0-.73-.28-1.1-.84-1.1h-.63c-1.39,0-2.82-.18-4.28-.55-1.46-.36-3.17-.55-5.12-.55-.98,0-1.95.08-2.93.22-.98.15-2.09.44-3.34.88-.98.15-2.75,1.91-5.33,5.28-2.58,3.38-5.44,7.63-8.57,12.77-3.14,5.14-6.17,10.57-9.09,16.29-2.93,5.72-5.33,11.16-7.21,16.29-1.88,5.14-2.82,9.39-2.82,12.77,0,2.06.63,3.08,1.88,3.08Z"/>
    <path d="M1223.7,985.22c-1.81,0-2.72-.81-2.72-2.42,0-1.47,1.05-2.97,3.13-4.51,2.09-1.54,3.62-3.49,4.6-5.83.42-1.17,1.26-4,2.51-8.48,1.25-4.48,2.68-9.61,4.28-15.41,1.6-5.8,3.06-11.34,4.39-16.62,1.32-5.28,2.33-9.32,3.03-12.11-1.54,2.5-3.87,5.91-7,10.24-3.14,4.33-6.66,8.95-10.56,13.87-3.9,4.92-7.91,9.62-12.02,14.09-4.11,4.48-7.98,8.15-11.6,11.01-3.63,2.86-6.69,4.29-9.2,4.29-1.95,0-2.93-1.32-2.93-3.96,0-2.2.76-5.36,2.3-9.47.84-2.05,2.12-5.06,3.87-9.03,1.74-3.96,3.55-8.26,5.44-12.88,1.88-4.62,3.48-8.95,4.81-12.99,1.32-4.04,1.99-7.16,1.99-9.36,0-1.02-.14-1.72-.42-2.09-.28-.37-.42-.91-.42-1.65,0-.29.03-.62.1-.99.07-.37.17-.84.31-1.43,1.53-6.02,2.96-10.71,4.28-14.09,1.32-3.37,2.96-5.72,4.91-7.05,1.95-1.32,4.6-1.98,7.94-1.98,1.95,0,3.14.66,3.55,1.98-.56,1.47-1.74,4.51-3.55,9.14-1.81,4.62-3.94,10.06-6.38,16.29-2.44,6.24-4.81,12.4-7.11,18.49-2.3,6.09-4.22,11.38-5.75,15.85-1.53,4.48-2.3,7.23-2.3,8.26,0,.59.21.88.63.88.56,0,1.29-.37,2.19-1.1.9-.73,1.85-1.54,2.82-2.42,8.22-6.61,15.33-14.05,21.32-22.35,5.99-8.29,11.15-16.69,15.47-25.21.14-2.2.66-4.99,1.57-8.37.91-3.37,2.47-6.38,4.7-9.03,2.23-2.64,5.15-3.96,8.78-3.96,1.53,0,2.37.66,2.51,1.98-.7,2.35-2.13,6.53-4.28,12.55-2.16,6.02-4.43,12.55-6.79,19.59-1.12,3.52-2.37,7.67-3.76,12.44-1.39,4.77-2.75,9.58-4.08,14.42-1.33,4.84-2.4,9.1-3.24,12.77-.84,3.67-1.25,6.09-1.25,7.27,0,.44.14.66.42.66,1.25-.15,2.96-1.1,5.12-2.86,2.16-1.76,4.42-3.56,6.79-5.4,2.37-1.83,4.32-2.75,5.85-2.75.28,0,.63.08,1.05.22.42.15.63.44.63.88,0,.88-.98,2.13-2.93,3.74-1.95,1.62-4.29,3.3-7,5.06-2.72,1.76-5.23,3.38-7.52,4.84s-3.87,2.49-4.7,3.08c-1.39,1.17-2.89,2.72-4.49,4.62-1.6,1.91-3.17,3.59-4.7,5.06-1.54,1.47-3.07,2.2-4.6,2.2Z"/>
    <path d="M1275.75,973.55c-1.67,0-3.59-.41-5.75-1.21-2.16-.81-4.04-2.27-5.64-4.4-1.6-2.13-2.4-5.17-2.4-9.14,0-1.61.21-3.52.63-5.72,1.39-7.34,2.75-12.91,4.08-16.73,1.32-3.81,2.12-6.9,2.4-9.25-.42-.14-1.05-.51-1.88-1.1-.84-.59-1.25-1.39-1.25-2.42s.42-1.69,1.25-1.98c.84-.29,1.6-.44,2.3-.44h1.46c1.11-2.49,2.33-5.21,3.66-8.15,1.32-2.93,3.31-6.9,5.96-11.89,2.37-4.7,5.47-7.82,9.3-9.36,3.83-1.54,8.18-2.31,13.06-2.31s8.01,4.48,9.82,13.43c.84,4.55,1.26,8.22,1.26,11.01,0,3.52-1.08,6.31-3.24,8.37-2.16,2.06-4.81,3.6-7.94,4.62-3.13,1.03-6.24,1.73-9.3,2.09-3.07.37-5.51.55-7.32.55s-3.38-.03-4.7-.11c-1.33-.07-2.27-.11-2.82-.11-2.09,5.58-3.76,10.94-5.02,16.07-1.26,5.14-1.88,9.47-1.88,12.99,0,5.87,2.09,8.81,6.27,8.81,2.51,0,5.12-1.17,7.84-3.52,2.72-2.35,5.33-5.06,7.84-8.15,2.51-3.08,4.67-5.8,6.48-8.15,1.81-2.35,2.99-3.52,3.55-3.52.97,0,1.46.59,1.46,1.76,0,2.06-1.12,4.66-3.34,7.82-2.23,3.16-4.98,6.27-8.26,9.36-3.28,3.08-6.55,5.65-9.82,7.7-3.28,2.05-5.96,3.08-8.05,3.08ZM1288.92,923.57c5.29,0,9.3-.62,12.02-1.87,2.72-1.25,4.14-4,4.28-8.26,0-6.02-.73-10.27-2.19-12.77-1.46-2.49-2.82-3.74-4.08-3.74-1.67,0-3.45,1.07-5.33,3.19-1.88,2.13-3.69,4.66-5.43,7.6-1.74,2.94-3.31,5.83-4.7,8.7-1.39,2.86-2.37,5.1-2.93,6.71.69,0,1.81.08,3.34.22,1.53.15,3.2.22,5.02.22Z"/>
  </g>
  <line class="cls-3" x1="1420.05" y1="547.16" x2="1441.47" y2="543.54"/>
  <g class="cls-7">
    <g>
      <g>
        <path class="cls-1" d="M120.85,104.35c-.58,7.48-.98,15.03-1.08,22.52-.05,3.75-.05,7.47,0,11.17.04,3.69.07,7.35.16,10.95.15,7.67-.31,14.99-1.31,22.11-.98,7.12-2.31,14.03-3.62,20.92-2.79,13.77-5.41,27.4-5.43,42.38.01,4.7-.13,9.37-.46,14.02-.36,4.65-.86,9.28-1.46,13.9-.61,4.62-1.27,9.23-2.06,13.83-.81,4.6-1.67,9.2-2.54,13.8-.89,4.6-1.73,9.22-2.65,13.85-.92,4.63-1.8,9.27-2.62,13.95-1.58,9.36-3.08,18.82-3.92,28.52-3.17,35.62-7,71.72-12.53,108.05-2.71,18.16-5.71,36.37-8.89,54.56-1.59,9.1-3.22,18.19-4.9,27.28-.82,4.55-1.69,9.07-2.49,13.74l-1.24,6.95-1.13,6.95c-5.67,34.94-7.18,69.39-6.9,103.13.32,33.76,2.53,66.89,5.6,99.7.37,4.1.77,8.2,1.2,12.29.41,4.09.82,8.19,1.27,12.27.16,1.6.59,5.19.96,8.15l1.2,9.21c.82,6.15,1.59,12.39,2.51,18.58,3.48,24.9,7.5,50.17,11.86,75.83,4.61,26.7,9.23,53.47,13.88,80.37,2.53,14.66,5.07,29.35,7.62,44.08l.99,5.75.5,2.89.12.7.1.36.2.72c.52,1.94,1.05,3.94,1.57,6.01l.8,3.23,1.12,4.7c.75,3.26,1.5,6.53,2.24,9.8.04.18.08.35.12.54,3.27-9.97,6.58-20.02,9.9-30.14,3.49-10.8,7.01-21.68,10.56-32.63,7.22-22.5,14.17-44.26,21.02-66.03l.33-1.03.32-.89.65-1.78,1.3-3.57c.87-2.4,1.75-4.79,2.62-7.2,1.76-4.76,3.49-9.94,5.36-14.08,1.85-4.41,3.69-8.83,5.55-13.25l1.4-3.35,1.42-3.25c.95-2.17,1.9-4.35,2.86-6.52,3.85-8.81,7.72-17.64,11.59-26.5,1.97-4.45,3.88-8.99,5.81-13.56,1.93-4.59,3.86-9.18,5.79-13.77.94-2.34,1.91-4.61,2.84-7.03l1.4-3.59,1.16-2.94c1.05-2.52,2.05-5.15,3.05-7.78.99-2.64,2.02-5.21,2.97-7.93l2.83-8.16.7-2.05.66-2.13,1.3-4.26,1.29-4.26c.11-.33.21-.76.32-1.18l.32-1.24.62-2.49c.41-1.66.83-3.31,1.2-4.99l.97-5.14c.7-3.4,1.08-6.93,1.51-10.42,1.62-14.06.71-28.07-.62-39.49-1.35-11.36-2.85-20.52-3.54-28.55-.11-1.47-.26-3-.35-4.55-.06-1.53-.12-3.09-.18-4.7.02-3.85.05-7.89.08-12.09.02-2.59.03-5.22.05-7.91-.02-2.67-.16-5.33-.25-8.07-.1-2.72-.18-5.5-.32-8.28-.2-2.75-.41-5.54-.62-8.36-.81-11.3-2.29-22.69-3.95-34.15-.46-2.82-.92-5.65-1.39-8.49-.47-2.83-.93-5.71-1.46-8.48-1.03-5.58-2.06-11.23-3.19-16.65-4.42-21.92-9.3-42.54-13.41-60.29-4.13-17.77-7.7-32.85-10.92-43.98,2.01,15.14,4.76,30.81,7.82,47.04,3.05,16.23,6.4,33.01,9.43,50.34,3.03,17.33,5.73,35.2,7.35,53.47,1.62,18.25,2.14,36.92.83,55.46-.01-20.37-2.09-40.28-5.11-59.54-3.02-19.27-6.98-37.93-10.93-56.14-3.96-18.21-7.91-35.99-11.06-53.46-.43-2.2-.77-4.37-1.13-6.53l-1.07-6.51c-.39-2.18-.63-4.32-.94-6.47l-.88-6.46c-.53-4.29-.9-8.54-1.37-12.81l-.4-4.04-.22-2.13-.27-2.06c-.34-2.78-.8-5.39-1.23-8.04-.93-5.18-1.98-10.12-3.06-14.92-1.09-4.76-2.21-9.37-3.3-13.86-2.18-8.93-4.22-17.42-5.64-25.34-.68-3.94-1.27-7.78-1.59-11.36-.31-3.57-.42-6.92-.29-9.96.15-3.01.57-5.61,1.17-7.87.62-2.25,1.33-4.18,2.44-5.9,1.09-1.74,2.47-3.43,4.29-5.12l1.53-1.22.38-.32.19-.16.1-.08.21-.15,1.67-1.23c2.22-1.66,4.45-3.23,6.62-5,8.69-6.97,16.88-15.58,23.3-25.73l2.26-3.91,1.11-1.96c.38-.65.73-1.31,1.04-2l1.89-4.1.92-2.05c.28-.69.52-1.4.78-2.1,1.01-2.82,2.06-5.62,2.73-8.48l1.1-4.27.77-4.27c1.94-11.39,1.75-22.4.52-32.53.89,8.54,1.11,17.57-.03,26.93-1.12,9.33-3.71,18.98-7.95,27.95-4.21,8.99-9.96,17.16-16.44,24.19-6.54,6.95-13.74,12.71-21.08,17.84-.43.36-.87.7-1.31,1.04-.43.34-.93.65-1.26,1.03-.73.72-1.56,1.37-2.13,2.13-1.36,1.39-2.25,2.92-3.15,4.46-.19.41-.38.82-.59,1.22-.23.38-.33.88-.52,1.3-.4.82-.59,1.85-.93,2.78-.13.5-.22,1.05-.34,1.56l-.19.78-.12.85-.27,1.7-.16,1.84-.09.92-.03.98-.08,1.97.03,2.08v1.04s.07,1.09.07,1.09l.11,2.18.2,2.26c.1,1.49.33,3.08.51,4.63.8,6.3,2.15,13.05,3.65,20.03,1.63,7.3,3.26,14.6,4.9,21.9,1.64,7.66,3.28,15.6,4.34,24.32l.38,3.28.29,3.39.47,5.68.42,5.23c.14,1.74.25,3.48.48,5.25l1.18,10.55,1.47,10.63c2.08,14.22,4.65,28.62,7.3,43.22,2.66,14.59,5.41,29.44,7.73,44.54,2.32,15.11,4.31,30.45,5.3,46.08.41,7.84.8,15.67.68,23.59,0,1.97,0,3.94-.03,5.91l-.28,5.95c-.19,3.89-.39,8.2-.61,11.2-.43,6.59-.49,13.2-.17,20.1.29,6.89.9,14.07,1.38,21.71.48,7.62.76,15.74.23,23.96-.52,8.22-1.79,16.48-3.88,24.34-.5,1.97-1.13,3.89-1.7,5.82-.3.96-.58,1.94-.89,2.87l-.97,2.7c-1.3,3.58-2.54,7.2-3.98,10.66-1.4,3.49-2.76,6.99-4.28,10.38-1.49,3.41-2.93,6.84-4.51,10.17l-2.72,6.07c-.91,2.03-1.84,4.04-2.78,6.01-1.87,3.95-3.68,7.83-5.53,11.6-3.68,7.52-7.28,14.72-10.78,21.55-3.37,6.59-6.72,13.17-10.08,19.74-1.58,3.08-3.15,6.15-4.73,9.22l-2.29,4.33-2.22,4.14c-2.93,5.32-5.66,10-8.12,13.82-1.2,2.24-2.42,4.38-3.5,6.43-1.03,1.94-2.07,3.88-3.1,5.82-.87,1.75-1.72,3.39-2.52,4.93-.72,1.56-1.41,3.02-2.07,4.36l-.03.06-.02.03s0-.06-.01-.09l-.05-.41-.09-.81-.18-1.61-.35-3.2c-.23-2.1-.45-4.21-.67-6.31-.41-4.09-.82-8.16-1.22-12.24-1.52-15.97-2.6-30.55-3.25-43.6,1.31,10.33,2.8,21.42,4.53,33.33.86,5.94,1.78,12.15,2.76,18.44.65-1.87,1.31-3.74,1.96-5.63.76-1.94,1.53-3.89,2.29-5.84,8.34-20.28,21.32-44.54,35.2-74.54,1.75-3.74,3.44-7.6,5.21-11.52.86-1.99,1.72-3.98,2.58-5.98.84-1.99,1.79-4.14,2.63-6.23.85-2.11,1.7-4.22,2.55-6.34l1.27-3.18,1.19-3.21c.8-2.14,1.59-4.29,2.39-6.44.73-2.17,1.46-4.35,2.19-6.52,2.94-8.7,5.12-17.8,6.04-27.14.52-4.66.62-9.37.62-14.08-.05-2.35-.12-4.7-.23-7.05-.15-2.34-.26-4.7-.46-7.02-.72-9.34-1.7-18.55-2.01-27.71-.04-2.29-.13-4.57-.12-6.86.05-2.28.01-4.56.12-6.84l.34-6.86.31-7.15c.74-19.1-.53-38.29-2.82-57.24-4.59-37.94-13.11-74.94-17.97-111.59-.59-4.58-1.23-9.15-1.65-13.71l-.72-6.84c-.22-2.28-.34-4.55-.52-6.82l-.5-6.81c-.18-2.53-.36-5.12-.67-7.6-.57-5-1.33-9.89-2.22-14.65-1.76-9.53-3.88-18.7-5.76-27.68-.94-4.49-1.85-8.93-2.61-13.31-.77-4.38-1.44-8.73-1.87-12.98-.93-8.52-.92-16.75.57-24.1.79-3.65,1.98-7.04,3.58-10.14,1.61-3.1,3.6-5.96,6.17-8.46.57-.68,1.29-1.25,1.97-1.85.69-.59,1.32-1.24,2.1-1.76l2.24-1.66,2.98-2.14c4.08-2.81,7.95-6.04,11.67-9.43,7.39-6.85,13.85-15.09,18.35-24.32,4.54-9.21,7.04-19.23,7.84-28.98.83-9.78,0-19.27-1.41-28.36-2.92-18.2-8.3-34.95-12.73-51.52-2.23-8.28-4.27-16.51-5.69-24.82-.36-2.08-.62-4.16-.94-6.24-.24-2.08-.43-4.17-.65-6.27-.09-2.09-.23-4.19-.28-6.29.03-2.09,0-4.21.09-6.31.63-16.87,1.25-33.48,1.87-49.79.23-5.46.47-11.08.71-16.72.12-2.83.24-5.67.36-8.5.14-2.84.27-5.67.41-8.47.3-5.64.58-11.18.86-16.46.16-2.67.32-5.27.47-7.8.06-1.27.13-2.52.19-3.75.08-1.23.16-2.44.24-3.63-4.12,36.19-5.08,72.68-6.73,109.92-.09,2.34-.25,4.63-.29,7.02-.02,2.39-.15,4.76.02,7.13l.15,3.55.33,3.53c.17,2.35.54,4.69.86,7.03,1.36,9.33,3.6,18.51,6.01,27.68,2.42,9.18,5.06,18.37,7.43,27.76,2.38,9.39,4.45,19.01,5.59,28.98.61,4.98.82,10.06.82,15.19-.19,5.14-.51,10.35-1.61,15.52l-.37,1.94-.19.97-.26.96-1.06,3.84c-.31,1.3-.83,2.53-1.28,3.79-.47,1.25-.92,2.52-1.43,3.76-2.22,4.88-4.75,9.69-7.95,14.01-6.26,8.77-14.24,16.09-22.84,22.13l-3.21,2.27-2.63,1.9-.66.47-.6.53-1.21,1.04c-.4.35-.82.68-1.21,1.04l-1.09,1.14c-2.95,3-5.37,6.4-7.2,10.17-3.66,7.55-4.85,16.53-4.7,25.81.05,4.64.49,9.39,1.1,14.17.61,4.78,1.39,9.6,2.31,14.45,1.81,9.71,4.01,19.53,5.91,29.59.96,5.03,1.82,10.14,2.49,15.33.35,2.59.6,5.22.82,7.86l.49,7.69c1.1,19.85,3.79,39.78,6.93,59.71,3.15,19.93,6.77,39.91,9.66,59.97,2.9,20.05,5.09,40.22,5.44,60.3.02,2.51-.03,5.02-.04,7.52l-.03,3.75c0,1.25,0,2.5-.1,3.75-.28,5-.56,9.99-.84,14.97-.64,10.11-.35,20.3.36,30.31.68,10,1.68,19.84,1.56,29.37-.09,9.53-1.26,18.78-3.65,27.73-.66,2.22-1.32,4.44-1.98,6.66-.78,2.25-1.57,4.51-2.35,6.76-.75,2.25-1.62,4.48-2.48,6.71-.87,2.23-1.69,4.46-2.59,6.67-.92,2.21-1.83,4.42-2.75,6.63-.46,1.1-.9,2.2-1.38,3.3l-1.41,3.2c-.76,1.65-1.52,3.3-2.28,4.95-.77,1.6-1.54,3.2-2.31,4.79-6.1,12.57-11.92,23.32-16.92,32.56-5,9.24-9.24,16.96-12.35,23.5-.56,1.24-1.1,2.44-1.64,3.63l-.85,2.09-.42,1.01c0,.05-.02-.03-.02-.07l-.02-.15-.04-.3-.08-.6-.15-1.19-1.14-9.23c-.73-6-1.37-11.69-1.94-17.08-1.14-10.77-1.99-20.33-2.59-28.77-.6-8.44-.95-15.77-1.11-22.14l-.03-1.19v-.59c-.02-.12,0-.15-.03-.34l-.08-.79-.63-6.29-1.17-12.59-1.08-12.58-.99-12.58c-2.5-33.53-4-67.05-3.74-100.23.15-16.58.76-33.07,2.02-49.35.36-4.06.61-8.14,1.07-12.16l.61-6.05c.2-2.02.49-4,.72-6.01l.74-6,.88-5.94c.54-3.87,1.27-8.14,1.94-12.3,7.2-36.12,15.76-72.84,23.65-110.4,8.06-38.65,15.08-77.83,20.55-117.14,5.49-39.33,9.55-78.85,11.97-118.31.49-8.76,1.02-18.38,1.59-28.55.21-5.09.42-10.32.64-15.65.2-5.33.44-10.76.53-16.27.21-11.01.46-22.26.29-33.49-.05-5.61-.14-11.21-.26-16.77-.19-5.56-.42-11.06-.69-16.48-.49-10.84-1.4-21.33-2.47-31.18-.27-2.46-.55-4.88-.85-7.26-.31-2.37-.66-4.7-1.01-6.98-.71-4.56-1.48-8.92-2.3-13.04-1.62-8.24-3.67-15.53-5.94-21.56-2.28-6.04-4.84-10.82-7.72-14.06-.45,22.23,2.52,46.84.62,68.23-.97-4.06-2.06-8.41-3.06-12.93-1.05-4.53-2.04-9.23-2.74-14,.05,4.54-.11,9.34-.13,14.05-.07,4.71.01,9.35.61,13.59-1.12-7.03-2.42-14.19-4.75-16.9-.28,5.45.26,12.04,1.13,18.36.85,6.31,1.98,12.35,2.53,16.67.35,2.52,1.72,9.61,2.86,16.91,1.19,7.3,1.93,14.8,1.38,18.1-.92-4.34-1.79-8.96-2.71-13.67-.95-4.7-1.93-9.49-2.88-14.18-.99-4.69-1.97-9.26-3.08-13.55-1.12-4.28-2.3-8.27-3.56-11.78-.27,5.91.08,11.78-.6,17.52-1.83-7.16-2.57-21.07-5.2-24.71.06,7.34.44,14.26.74,21.25.23,6.99.4,14.05.16,21.65-.16,6.17-.58,12.01-.73,17.81-.19,5.79-.14,11.52.17,17.45-1.44-14.18-2.15-33.15-5.75-42.96-1.04,6.47-.68,13.33-.52,20.04-.34-.83-.75-1.32-1.19-1.5-.06,2.97-.76,6.87-.71,9.96-.63.06-1.25.71-1.87.09.44.1.89.15,1.33.22"/>
        <path class="cls-1" d="M164.82,85.12c-.1,7.42-.31,16.39-.67,25.2-.38,8.81-1.11,17.44-2.05,24.18"/>
        <path class="cls-6" d="M121.34,876.82s.71-1.73,2.06-5.01c.73-1.69,1.62-3.78,2.68-6.25,1.12-2.49,2.39-5.43,3.92-8.79,3.02-6.73,6.98-15.2,11.73-25.61,2.37-5.2,4.96-10.89,7.67-17.09,1.37-3.1,2.75-6.33,4.17-9.7.71-1.68,1.44-3.39,2.14-5.15.76-1.89,1.52-3.8,2.3-5.73,3.37-8.85,6.86-18.14,9.73-27.9.37-1.22.74-2.44,1.11-3.67.31-1.21.62-2.42.93-3.64.69-2.43,1.13-4.92,1.62-7.43.28-1.25.45-2.52.61-3.8.17-1.28.35-2.56.52-3.85.1-1.3.21-2.6.31-3.9.05-.65.12-1.31.15-1.97l.05-1.99c.43-10.61-.95-21.79-2.28-33.68-1.39-11.86-2.28-24.49-1.75-37.27.39-12.22.11-24.78-.97-37.56-1.17-12.77-2.87-25.77-5.1-38.91-4.44-26.3-10.52-53.23-15.52-80.95-2.48-13.87-4.58-27.96-6.02-42.23-.32-3.56-.64-7.13-.96-10.71-.16-1.72-.28-3.43-.53-5.15l-.32-2.58-.4-2.59c-1.07-6.9-2.55-13.82-4.13-20.77-1.57-6.95-3.24-13.93-4.75-21.01-1.52-7.07-2.89-14.24-3.78-21.57-.23-1.83-.43-3.67-.57-5.52-.18-1.84-.26-3.71-.34-5.58-.11-1.86-.04-3.76-.06-5.64l.13-2.84c.05-.95.08-1.9.2-2.85.7-7.58,2.5-15.37,6.28-22.42,1.78-3.57,4.18-6.8,6.72-9.86,2.68-2.93,5.56-5.7,8.74-7.98,2.84-2.08,5.68-4.15,8.51-6.22,1.29-1.06,2.55-2.16,3.82-3.23.63-.54,1.28-1.07,1.89-1.62l1.75-1.75,1.74-1.74c.58-.58,1.18-1.14,1.68-1.78l3.14-3.71c1.89-2.6,3.82-5.16,5.3-7.96,3.13-5.5,5.36-11.39,6.68-17.5,1.35-6.11,1.71-12.45,1.53-18.81-.19-6.37-.97-12.78-2.09-19.18-2.31-12.83-5.87-25.55-9.28-38.49-1.7-6.47-3.39-12.99-4.82-19.67-1.42-6.67-2.72-13.43-3.44-20.44-.73-6.99-1.03-14.17-.55-21.48.38-6.28.76-12.5,1.13-18.64,1.44-24.59,2.97-48.34,5.23-70.94,2.31-22.59,5.31-44.04,9.2-63.92,3.89-19.88,8.57-38.15,13.18-54.45"/>
      </g>
      <path class="cls-6" d="M177.71,571.75s-.17-1.17-.55-3.37c-.38-2.21-.95-5.48-1.69-9.72-1.49-8.45-3.85-20.75-6.72-36-2.83-15.27-6.2-33.52-8.58-54.04-.36-2.57-.53-5.16-.78-7.8-.25-2.67-.5-5.38-.75-8.12-.51-6.37-1.49-12.59-2.67-18.74-2.37-12.29-5.58-24.37-8.28-36.54-1.35-6.08-2.57-12.16-3.42-18.2-.85-6.03-1.32-12.02-1.09-17.75.18-5.75,1.26-11.09,3.22-15.93.2-.64.55-1.18.82-1.77.3-.57.53-1.2.88-1.74.71-1.09,1.28-2.28,2.13-3.29l1.18-1.6,1.36-1.51c.84-1.06,1.97-1.93,2.96-2.92.48-.51,1.11-.9,1.66-1.36l1.71-1.35c1.57-1.18,3.14-2.36,4.72-3.55l2.37-1.79,2.28-1.98c1.5-1.34,3.05-2.61,4.51-4.02,5.85-5.63,11.13-12.15,15.33-19.42,4.2-7.26,7.18-15.29,8.76-23.44,1.6-8.16,1.87-16.39,1.31-24.37-.58-7.99-1.95-15.75-3.68-23.34-1.74-7.59-3.84-15.01-6.04-22.36-4.38-14.71-9.23-29.16-12.24-44.3-1.49-7.56-2.51-15.31-2.56-23.25l-.02-2.98.05-2.85c.03-1.9.06-3.8.09-5.7.05-3.8.1-7.59.16-11.38.19-15.15.36-30.23.73-45.22"/>
    </g>
  </g>
  <path class="cls-5" d="M521.06,829.61c3.52,50.74-2.88,102.07-18.78,150.72"/>
  <path class="cls-5" d="M477.11,814.29c-1.6,16.34,13.87,29.26,21.04,44.25,5.25,10.98,6.01,23.32,6.11,35.33.28,32.93-3.78,65.9-12.06,97.92"/>
  <path class="cls-2" d="M120.44,591.81c186.91,328.41,1544.56,281.19,1763.63-214.7"/>
  <path class="cls-4" d="M118.1,591.85c250.9-195.85,1447.9-384.85,1780.9,380.15"/>
</svg>