<?xml version="1.0" encoding="UTF-8"?>
<svg id="Layer_1" data-name="Layer 1" xmlns="http://www.w3.org/2000/svg" viewBox="0 0 2307 1368">
  <defs>
    <style>
      .cls-1 {
        fill: #ef3940;
      }

      .cls-2 {
        stroke: #231f20;
        stroke-linecap: round;
        stroke-width: 3px;
      }

      .cls-2, .cls-3, .cls-4, .cls-5 {
        stroke-miterlimit: 10;
      }

      .cls-2, .cls-3, .cls-4, .cls-5, .cls-6 {
        fill: none;
      }

      .cls-3 {
        opacity: .7;
      }

      .cls-3, .cls-4 {
        stroke-width: 8px;
      }

      .cls-3, .cls-4, .cls-5 {
        stroke: #000;
      }

      .cls-4 {
        opacity: .66;
      }

      .cls-7 {
        opacity: .85;
      }

      .cls-8 {
        opacity: .7;
      }

      .cls-9 {
        fill: red;
      }

      .cls-5 {
        stroke-width: 7px;
      }

      .cls-6 {
        stroke: #ef3940;
      }
    </style>
  </defs>
  <g>
    <path class="cls-9" d="M293.35,782.84c-4.57,0-6.85-3.1-6.85-9.28v-2.73c5.55-44.41,12.4-91.82,20.56-142.24,8.15-50.42,18.44-100.38,30.84-149.89,0-1.09.49-2.73,1.47-4.91-2.29-2.18-3.43-6.36-3.43-12.56,0-16.38,2.52-27.11,7.59-32.22,5.06-5.09,9.71-7.64,13.95-7.64,2.28,0,3.92.19,4.9.55l3.43-1.09c1.96-.73,4.08-1.09,6.36-1.09,1.63,0,3.18.37,4.65,1.09,1.47.73,2.2,2,2.2,3.82,0,2.18-.98,5.46-2.94,9.83s-4,8.74-6.12,13.1c-2.13,4.37-3.67,7.83-4.65,10.37l-5.87,16.38c.98,21.84,3.01,44.5,6.12,67.98,3.1,23.48,7.59,45.32,13.46,65.52,5.87,20.2,13.29,36.68,22.28,49.42,8.97,12.75,19.83,19.11,32.56,19.11,9.13,0,20.88-5.73,35.25-17.2,14.36-11.47,30.03-30.03,47-55.7,16.97-25.66,33.61-59.97,49.94-102.93l1.47-16.38v-2.73c0-2.91-.25-5.82-.73-8.74-.49-2.91-.73-5.64-.73-8.19,0-11.65,2.36-22.02,7.1-31.12,4.73-9.09,13.62-13.65,26.68-13.65,1.96,0,3.75.46,5.39,1.37,1.63.91,2.45,2.46,2.45,4.64,0,3.64-1.31,8.92-3.92,15.83-2.62,6.92-4.25,12.38-4.9,16.38-3.92,15.66-7.18,33.5-9.79,53.51-2.62,20.02-4.65,40.68-6.12,61.98-1.47,21.3-2.53,42.23-3.18,62.79-.66,20.57-.98,39.41-.98,56.52,0,13.47.08,25.39.24,35.76.16,10.38.57,18.48,1.22,24.3.65,5.46,1.47,8.65,2.45,9.55.98.91,1.47,2.65,1.47,5.19,0,5.1-1.39,8.92-4.16,11.47-2.78,2.54-5.96,3.82-9.55,3.82-3.27,0-6.12-.91-8.57-2.73s-3.67-4.37-3.67-7.64c.32-41.5.81-81.91,1.47-121.22.65-39.31,1.96-77.72,3.92-115.21-17.63,41.14-35.01,73.9-52.14,98.29-17.14,24.39-32.89,41.87-47.24,52.42-14.37,10.56-26.61,15.83-36.72,15.83-12.73,0-23.83-5.55-33.29-16.65-9.47-11.1-17.55-25.66-24.23-43.68-6.69-18.02-12.16-37.4-16.4-58.15-4.25-20.75-7.34-40.95-9.3-60.61-5.87,20.75-11.18,41.96-15.91,63.61-4.74,21.66-8.9,42.69-12.48,63.07-3.6,20.39-6.53,39.04-8.81,55.97-2.29,16.93-3.76,30.85-4.41,41.77,0,4.73.32,8.28.98,10.65.65,2.37.98,4.83.98,7.37,0,5.83-1.39,10.1-4.16,12.83-2.78,2.73-5.14,4.1-7.1,4.1Z"/>
    <path class="cls-9" d="M643.89,780.11c-7.83,0-11.75-6.55-11.75-19.66,0-10.19,1.79-22.84,5.39-37.95,3.59-15.1,8.32-30.85,14.2-47.23,5.87-16.38,12.32-31.76,19.34-46.14,7.02-14.38,14.2-26.12,21.54-35.22,7.34-9.1,14.11-13.65,20.32-13.65h1.47l5.39-4.37c1.63-2.18,3.67-3.63,6.12-4.37,2.45-.73,4.97-1.09,7.59-1.09,6.52,0,13.38,1.46,20.56,4.37,7.18,2.92,12.07,4.37,14.69,4.37,2.28,0,3.99-1.45,5.14-4.37,1.14-2.91,3.67-4.37,7.59-4.37,4.57,0,7.75,1.09,9.55,3.28,1.79,2.18,2.69,5.1,2.69,8.74,0,5.1-1.31,11.01-3.92,17.75-2.62,6.74-4.73,12.29-6.36,16.66-.33,1.46-1.8,2.65-4.41,3.55-2.62.91-4.25,2.1-4.9,3.55-5.22,16.75-9.96,33.77-14.2,51.05-4.25,17.29-7.51,32.31-9.79,45.05-2.29,12.75-3.43,20.57-3.43,23.48,0,9.1,2.28,13.65,6.85,13.65,3.92,0,8.15-1.91,12.73-5.73,4.57-3.82,9.06-8.1,13.46-12.83,4.41-4.73,8.08-9.01,11.02-12.83,2.94-3.82,4.57-5.73,4.9-5.73.65,0,.98.73.98,2.18s-.49,3.64-1.47,6.55c-.98,2.92-2.13,4.91-3.43,6.01-3.27,3.28-8.32,8.28-15.18,15.02-6.85,6.74-14.2,13.02-22.03,18.84-7.83,5.83-14.69,8.74-20.56,8.74-6.85,0-10.94-4.55-12.24-13.65,0-6.55.98-15.02,2.94-25.39,1.96-10.37,4.16-21.02,6.61-31.94,2.45-10.92,4.65-20.01,6.61-27.3-4.9,7.29-11.18,16.57-18.85,27.85-7.67,11.29-16,22.48-24.97,33.58-8.98,11.11-17.87,20.48-26.68,28.12-8.81,7.64-16.65,11.47-23.5,11.47ZM659.56,754.45c3.26,0,7.59-2.46,12.97-7.37s11.26-11.19,17.62-18.84c6.37-7.64,12.4-15.29,18.12-22.93,5.71-7.64,10.6-14.47,14.69-20.48,4.08-6.01,6.61-9.73,7.59-11.19,5.22-9.46,10.36-19.74,15.42-30.85,5.06-11.1,9.22-21.3,12.48-30.58,3.26-9.28,4.9-15.74,4.9-19.38,0-2.18-.82-3.28-2.45-3.28h-1.47c-3.27,0-6.61-.36-10.04-1.09-3.43-.73-7.43-1.09-11.99-1.09s-9.47.73-14.69,2.18c-2.94.73-7.1,5.19-12.48,13.38-5.39,8.19-11.26,18.48-17.63,30.85-6.36,12.38-12.41,25.58-18.11,39.59-5.71,14.02-10.45,27.4-14.2,40.13-3.76,12.75-5.63,23.3-5.63,31.67,0,6.19,1.63,9.28,4.9,9.28Z"/>
    <path class="cls-9" d="M808.39,781.75c-6.2,0-9.3-3.28-9.3-9.83,0-3.28.65-7.1,1.96-11.47,7.18-22.93,13.05-41.77,17.62-56.52,4.57-14.74,8.15-26.39,10.77-34.95,2.61-8.55,4.41-15.1,5.39-19.66.98-4.55,1.47-8.28,1.47-11.19,0-1.82-.25-3.09-.73-3.82-.49-.73-.73-1.82-.73-3.28s.49-3.82,1.47-7.1c6.85-22.2,13.05-37.31,18.6-45.32,5.55-8,13.87-12.01,24.97-12.01,4.57,0,7.02,1.64,7.34,4.91-3.27,6.92-8.57,18.21-15.91,33.85-7.34,15.66-15.1,35.04-23.26,58.15-8.16,23.12-15.35,49.6-21.54,79.45-.33,1.09-.49,2.55-.49,4.37,0,4.37,1.63,6.55,4.9,6.55,1.96,0,5.06-1.37,9.3-4.1,4.24-2.73,8.64-5.46,13.22-8.19,4.57-2.73,7.99-4.1,10.28-4.1s3.59.73,3.92,2.18c0,2.18-2.45,5.55-7.34,10.1-4.9,4.56-10.77,9.28-17.62,14.2-6.85,4.91-13.46,9.1-19.83,12.56-6.36,3.45-11.18,5.19-14.44,5.19ZM880.36,533.3c-4.57,0-7.34-1.91-8.32-5.73-.98-3.82-1.47-7.92-1.47-12.29,0-5.46,2.45-11.19,7.34-17.2,4.9-6.01,10.69-11.1,17.38-15.29,6.69-4.18,12.32-6.28,16.89-6.28,1.63,0,2.61.55,2.94,1.64,0,4.01-1.39,7.83-4.16,11.47-2.78,3.64-5.8,7.29-9.06,10.92-3.27,3.64-5.87,7.83-7.83,12.56-1.31,3.64-2.94,7.64-4.9,12.01-1.96,4.37-4.9,7.1-8.81,8.19Z"/>
    <path d="M976.31,787.76c-15.35,0-26.85-2-34.52-6.01-7.67-4-12.81-9.01-15.42-15.02-2.62-6.01-3.92-11.92-3.92-17.75v-3.82c0-2.91.81-6.83,2.45-11.74,1.63-4.91,5.22-7.37,10.77-7.37,2.61,0,4.08,2.28,4.41,6.83.32,4.56,1.79,9.38,4.41,14.47,5.22,9.47,11.91,15.66,20.07,18.57,8.15,2.92,18.44,4.37,30.84,4.37,10.77,0,22.28-2,34.52-6.01,12.24-4,23.74-9.64,34.52-16.93,10.77-7.28,19.5-16.01,26.19-26.21,6.69-10.19,10.04-21.65,10.04-34.4,0-11.65-3.67-21.3-11.02-28.94-7.34-7.64-16.89-14.38-28.64-20.2-11.75-5.82-24.07-11.37-36.96-16.65-12.9-5.27-25.21-11.55-36.96-18.84-11.75-7.28-21.3-16.19-28.64-26.76-7.34-10.55-11.02-23.84-11.02-39.86s3.99-30.58,11.99-44.77c7.99-14.2,18.93-26.84,32.8-37.95,13.87-11.1,29.54-19.84,47-26.21,17.46-6.36,35.66-9.56,54.59-9.56,14.03,0,24.48,2.82,31.33,8.46,6.85,5.65,11.51,12.56,13.95,20.75,2.45,8.19,3.67,16.47,3.67,24.84,0,1.83-.49,4.91-1.47,9.28-.98,4.37-2.53,8.28-4.65,11.74-2.13,3.46-4.65,5.19-7.59,5.19-2.29,0-3.43-2.36-3.43-7.1v-10.92c0-16.74-4.49-27.93-13.46-33.58-8.98-5.64-20.16-8.46-33.54-8.46-8.81,0-19.51,1.73-32.07,5.19-12.57,3.46-24.89,8.74-36.96,15.84-12.08,7.1-22.12,15.75-30.11,25.94-8,10.2-11.99,22.21-11.99,36.04,0,.73.08,1.55.25,2.46.16.91.24,1.73.24,2.46,1.63,15.29,6.61,27.94,14.93,37.95,8.32,10.02,18.52,18.29,30.6,24.84,12.07,6.55,24.72,12.38,37.94,17.47,13.22,5.1,25.53,10.37,36.96,15.83,11.42,5.46,20.72,11.93,27.91,19.38,7.18,7.47,10.77,17.2,10.77,29.21,0,14.2-4.08,28.31-12.24,42.32-8.16,14.02-19.26,26.76-33.29,38.22-14.04,11.47-30.11,20.57-48.22,27.3-18.12,6.73-37.13,10.1-57.04,10.1Z"/>
    <path d="M1240.68,812.88c-4.25,0-6.37-2-6.37-6.01,0-3.64,2.45-7.37,7.34-11.19,4.9-3.82,8.48-8.65,10.77-14.47.98-2.91,2.94-9.91,5.87-21.02,2.94-11.1,6.28-23.84,10.04-38.22,3.75-14.38,7.17-28.12,10.28-41.23,3.1-13.1,5.46-23.11,7.1-30.03-3.6,6.19-9.06,14.66-16.4,25.39-7.34,10.74-15.59,22.21-24.72,34.4-9.14,12.2-18.53,23.85-28.15,34.95-9.63,11.11-18.69,20.2-27.17,27.3-8.49,7.1-15.67,10.65-21.54,10.65-4.57,0-6.85-3.28-6.85-9.83,0-5.46,1.79-13.28,5.38-23.48,1.96-5.09,4.97-12.56,9.06-22.39,4.08-9.83,8.32-20.48,12.73-31.94,4.41-11.47,8.15-22.2,11.26-32.22,3.1-10.01,4.65-17.75,4.65-23.21,0-2.54-.33-4.27-.98-5.19-.66-.91-.98-2.27-.98-4.1,0-.73.08-1.54.25-2.46.16-.91.41-2.09.73-3.55,3.59-14.92,6.93-26.57,10.04-34.95,3.1-8.37,6.93-14.2,11.5-17.47,4.57-3.28,10.77-4.91,18.6-4.91,4.57,0,7.34,1.64,8.32,4.91-1.31,3.64-4.08,11.19-8.32,22.66-4.25,11.47-9.23,24.94-14.93,40.41-5.71,15.48-11.26,30.77-16.65,45.87-5.38,15.11-9.87,28.21-13.46,39.31-3.6,11.11-5.39,17.93-5.39,20.48,0,1.46.49,2.18,1.47,2.18,1.3,0,3.01-.91,5.14-2.73,2.12-1.82,4.32-3.82,6.61-6.01,19.25-16.38,35.9-34.85,49.94-55.42,14.03-20.56,26.11-41.41,36.23-62.52.32-5.46,1.55-12.37,3.67-20.75,2.12-8.37,5.79-15.83,11.02-22.39,5.22-6.55,12.07-9.83,20.56-9.83,3.59,0,5.55,1.64,5.87,4.91-1.64,5.83-4.98,16.2-10.04,31.12-5.06,14.93-10.37,31.12-15.91,48.6-2.62,8.74-5.55,19.03-8.81,30.85-3.27,11.83-6.45,23.75-9.55,35.76-3.11,12.01-5.63,22.57-7.59,31.67-1.96,9.1-2.94,15.11-2.94,18.02,0,1.09.32,1.64.98,1.64,2.94-.36,6.93-2.73,11.99-7.1,5.06-4.37,10.36-8.82,15.91-13.38,5.55-4.55,10.11-6.83,13.71-6.83.65,0,1.47.19,2.45.55.98.37,1.47,1.09,1.47,2.18,0,2.18-2.29,5.28-6.85,9.28-4.57,4.01-10.04,8.19-16.4,12.56-6.37,4.37-12.24,8.38-17.62,12.01-5.39,3.63-9.06,6.18-11.02,7.64-3.27,2.91-6.78,6.73-10.53,11.47-3.76,4.73-7.43,8.92-11.02,12.56-3.6,3.63-7.18,5.46-10.77,5.46Z"/>
    <path d="M1336.15,787.76c-2.62,0-4.74-1.19-6.36-3.55-1.64-2.37-2.45-4.83-2.45-7.37,0-4.37,1.79-6.55,5.39-6.55,3.92,0,9.87-.9,17.87-2.73,7.99-1.82,16.32-4.28,24.97-7.37,8.64-3.09,16.07-6.83,22.28-11.19,6.2-4.37,9.3-9.09,9.3-14.2,0-4.73-2.37-9.56-7.1-14.47-4.73-4.91-10.53-9.91-17.38-15.02-6.85-5.09-13.79-10.38-20.81-15.83-7.02-5.46-12.9-11.19-17.62-17.2-4.74-6.01-7.1-12.46-7.1-19.38,0-2.91.41-5.82,1.22-8.74.81-2.91,2.36-5.82,4.65-8.74,9.79-13.83,20.48-25.02,32.07-33.58,11.58-8.55,22.44-15.1,32.56-19.66,10.11-4.55,17.79-7.92,23.01-10.1,1.63-.73,3.59-1.36,5.87-1.91,2.28-.55,4.57-.82,6.85-.82,4.57,0,8.64,1.55,12.24,4.64,3.59,3.1,5.39,8.83,5.39,17.2-.33,3.64-1.64,8.28-3.92,13.92-2.29,5.65-5.14,11.38-8.57,17.2-3.43,5.83-6.78,10.65-10.04,14.47-3.27,3.82-6.04,5.73-8.32,5.73-1.31,0-1.96-1.09-1.96-3.28,0-3.28.89-7.46,2.69-12.56,1.79-5.09,3.59-10.1,5.39-15.02,1.79-4.91,2.69-8.82,2.69-11.74,0-5.46-2.94-8.19-8.81-8.19-2.29,0-4.82.27-7.59.82-2.78.55-5.63,1.19-8.57,1.91-1.96.37-5.71,1.91-11.26,4.64-5.55,2.73-11.43,6.28-17.62,10.65-6.2,4.37-11.59,9.38-16.16,15.02-4.57,5.65-6.85,11.74-6.85,18.29,0,4.01.81,7.65,2.45,10.92,3.92,8.74,9.3,15.56,16.16,20.48,6.85,4.91,13.71,9.28,20.56,13.1,6.85,3.82,12.65,8.01,17.38,12.56,4.73,4.56,7.1,11.01,7.1,19.38s-3.27,17.2-9.79,25.39c-6.53,8.19-14.77,15.48-24.72,21.84-9.96,6.37-19.91,11.47-29.86,15.29-9.96,3.82-18.36,5.73-25.21,5.73Z"/>
    <path d="M1532.47,803.59c-3.59,0-6.53-1.46-8.81-4.37-2.29-2.92-3.43-8.19-3.43-15.83,0-10.55,1.87-23.21,5.63-37.95,3.75-14.74,8.32-30.03,13.71-45.87,5.39-15.83,10.77-30.85,16.16-45.05,5.38-14.2,9.95-26.29,13.71-36.31,3.75-10.01,5.63-16.29,5.63-18.84,0-.73-.17-1.09-.49-1.09-1.31,0-4.25,2.73-8.81,8.19-18.6,23.3-33.54,44.23-44.8,62.79-11.26,18.57-20.07,34.95-26.44,49.14-6.37,14.2-11.43,25.94-15.18,35.22-3.76,9.28-7.51,16.29-11.26,21.02-3.75,4.73-8.74,7.1-14.93,7.1-2.94,0-4.41-1.83-4.41-5.46,0-3.28.81-6.91,2.45-10.92,15.01-42.95,27.91-84.54,38.68-124.77,10.77-40.22,22.68-82.18,35.74-125.86.65-2.54,1.06-4.55,1.22-6.01.16-1.45.25-2.73.25-3.82,0-1.82-.17-3.09-.49-3.82-.33-.73-.49-1.82-.49-3.28s.49-3.82,1.47-7.1c4.9-14.92,9.13-26.57,12.73-34.95,3.59-8.37,7.67-14.2,12.24-17.47,4.57-3.28,10.6-4.91,18.11-4.91,4.57,0,7.02,1.64,7.34,4.91-17.95,40.77-34.44,83.64-49.45,128.59-15.02,44.96-27.42,87.28-37.21,126.95,3.59-6.19,8.48-14.56,14.69-25.12,6.2-10.55,13.29-21.65,21.3-33.31,7.99-11.65,16.32-22.75,24.97-33.31,8.64-10.55,17.21-19.11,25.7-25.66,8.48-6.55,16.32-9.83,23.5-9.83s10.28,2.55,10.28,7.64c0,3.28-1.15,6.92-3.43,10.92-7.18,13.1-14.93,28.39-23.25,45.87-8.32,17.47-16.16,35.49-23.5,54.06-7.34,18.56-13.39,36.22-18.12,52.96-4.74,16.75-7.1,31.12-7.1,43.14,0,5.09,1.3,7.65,3.92,7.65,1.63,0,4.57-1.64,8.81-4.91,4.24-3.28,7.02-4.91,8.32-4.91,1.63,0,2.45,1.09,2.45,3.28,0,4.37-3.02,9.01-9.06,13.92-6.04,4.91-12.16,7.37-18.36,7.37Z"/>
    <path d="M1614.72,781.75c-6.2,0-9.3-3.28-9.3-9.83,0-3.28.65-7.1,1.96-11.47,7.17-22.93,13.05-41.77,17.62-56.52,4.57-14.74,8.16-26.39,10.77-34.95,2.61-8.55,4.41-15.1,5.39-19.66.98-4.55,1.47-8.28,1.47-11.19,0-1.82-.24-3.09-.73-3.82-.49-.73-.73-1.82-.73-3.28s.49-3.82,1.47-7.1c6.85-22.2,13.05-37.31,18.61-45.32,5.55-8,13.87-12.01,24.97-12.01,4.57,0,7.01,1.64,7.34,4.91-3.27,6.92-8.57,18.21-15.91,33.85-7.34,15.66-15.1,35.04-23.26,58.15-8.16,23.12-15.34,49.6-21.54,79.45-.33,1.09-.49,2.55-.49,4.37,0,4.37,1.63,6.55,4.9,6.55,1.96,0,5.06-1.37,9.3-4.1,4.24-2.73,8.64-5.46,13.22-8.19,4.57-2.73,7.99-4.1,10.28-4.1s3.59.73,3.92,2.18c0,2.18-2.45,5.55-7.34,10.1-4.9,4.56-10.77,9.28-17.62,14.2s-13.46,9.1-19.83,12.56c-6.37,3.45-11.18,5.19-14.44,5.19ZM1686.69,533.3c-4.57,0-7.34-1.91-8.32-5.73-.98-3.82-1.47-7.92-1.47-12.29,0-5.46,2.45-11.19,7.34-17.2,4.9-6.01,10.69-11.1,17.38-15.29,6.68-4.18,12.32-6.28,16.89-6.28,1.63,0,2.61.55,2.94,1.64,0,4.01-1.39,7.83-4.16,11.47-2.78,3.64-5.8,7.29-9.06,10.92-3.27,3.64-5.87,7.83-7.83,12.56-1.31,3.64-2.94,7.64-4.9,12.01-1.96,4.37-4.9,7.1-8.81,8.19Z"/>
  </g>
  <line class="cls-2" x1="1694.22" y1="502.48" x2="1721.03" y2="497.01"/>
  <g class="cls-7">
    <g class="cls-8">
      <g>
        <g>
          <path class="cls-1" d="M101.2,199.26c-.65,9.07-1.18,18.22-1.38,27.3-.11,4.54-.15,9.06-.15,13.53-.02,4.47-.06,8.9-.03,13.26.02,4.64-.14,9.18-.43,13.64-.14,2.23-.32,4.44-.53,6.63-.22,2.19-.49,4.36-.77,6.52-1.13,8.63-2.61,17.02-4.06,25.38-3.13,16.7-6.08,33.25-6.54,51.37-.12,5.68-.38,11.34-.87,16.97-.51,5.63-1.16,11.24-1.9,16.83-.76,5.59-1.55,11.19-2.52,16.76-.97,5.57-2,11.15-3.03,16.73-1.06,5.58-2.03,11.19-3.16,16.79-1.1,5.61-2.16,11.24-3.16,16.91-1.92,11.35-3.87,22.79-5.1,34.53-4.69,43.07-10.37,86.68-17.86,130.53-3.69,21.92-7.65,43.9-11.72,65.86-2.06,11-4.11,21.98-6.17,32.96l-1.55,8.24-1.49,8.37c-1.07,5.58-1.89,11.18-2.82,16.77-3.28,20.7-5.26,41.29-6.39,61.7-1.12,20.41-1.38,40.62-1.05,60.66.68,40.07,3.64,79.4,7.71,118.33,2.04,19.47,4.37,38.84,6.91,58.18l1.97,14.65,3.24,21.14c1.23,7.5,2.46,15,3.68,22.5,1.31,7.59,2.62,15.18,3.92,22.77,5.38,30.59,11.34,61.25,17.51,93.93,3.2,16.84,6.4,33.71,9.62,50.63.84,4.42,1.68,8.84,2.52,13.26l1.27,6.71.16.84.08.42c.03.13.06.31.08.36l.27.89.54,1.8c.72,2.42,1.44,4.91,2.16,7.49l.54,1.95.69,2.61,1.5,5.77c1.76-5.21,3.57-10.58,5.39-15.97,4.08-12.16,8.2-24.42,12.34-36.78,4.22-12.7,8.48-25.49,12.76-38.36,1.07-3.24,2.14-6.48,3.21-9.73l1.6-4.82,1.55-4.56c2.08-6.17,4.17-12.35,6.26-18.56l1.58-4.72c.26-.84.53-1.47.81-2.14l.82-2.01c1.09-2.7,2.19-5.41,3.28-8.11,1.1-2.73,2.2-5.47,3.31-8.21l1.66-4.14c.56-1.38,1.1-2.81,1.69-4.05,2.32-5.2,4.64-10.41,6.97-15.63,1.17-2.64,2.34-5.28,3.52-7.93,1.2-2.61,2.4-5.23,3.6-7.85,4.64-10.15,9.3-20.33,13.97-30.55,3.31-7.2,6.63-14.43,9.96-21.67,1.35-2.9,2.66-5.91,3.99-8.88,1.31-2.99,2.66-5.92,3.94-8.98,2.57-6.1,5.17-12.15,7.59-18.48,2.51-6.19,4.8-12.74,7.1-19.23,1.13-3.29,2.16-6.72,3.23-10.07l.79-2.53.4-1.27.2-.64.19-.73,1.51-5.82c2.02-7.75,3.36-15.92,4.29-24.1,1.68-16.41.56-32.86-1.18-46.21l-.65-4.98-.65-4.69c-.42-2.98-.83-5.95-1.24-8.91l-.54-4.15c-.17-1.36-.38-2.78-.5-4.06-.27-2.6-.62-5.27-.78-7.74-.36-3.71-.5-7.53-.58-11.56.03-4.86.06-9.96.1-15.26,0-3.08.06-6.23.03-9.4-.12-3.15-.24-6.35-.37-9.6-.06-1.62-.13-3.26-.19-4.91-.03-.82-.07-1.65-.1-2.48-.06-.82-.12-1.64-.19-2.46-.26-3.29-.53-6.61-.8-9.98-.14-1.68-.27-3.37-.41-5.07-.19-1.67-.38-3.35-.57-5.04-.39-3.37-.79-6.77-1.19-10.2-.18-1.73-.43-3.41-.68-5.1-.25-1.69-.5-3.39-.75-5.1-.51-3.4-.99-6.86-1.55-10.26-2.28-13.56-4.85-27.21-7.67-40.33-2.78-13.23-5.7-25.97-8.55-38.24-2.79-12.02-5.49-23.67-8.04-34.67-5-21.65-8.98-40.14-12.45-53.87,2.25,18.59,5.6,37.74,9.44,57.47,3.84,19.73,8.14,40.02,12.1,60.88,3.96,20.85,7.57,42.28,9.89,64.13,2.32,21.84,3.3,44.13,2.04,66.27-.06-24.31-2.68-48.13-6.48-71.22-3.81-23.11-8.78-45.54-13.73-67.51-4.95-21.97-9.9-43.5-13.8-64.76-.96-5.31-1.8-10.59-2.71-15.89l-2.22-15.78-1.66-15.9c-.58-6.86-1.64-13.19-2.77-19.35-1.15-6.16-2.48-11.99-3.83-17.69-1.35-5.71-2.75-11.2-4.09-16.6-2.69-10.77-5.19-21.05-6.87-30.78-1.66-9.67-2.5-18.84-1.78-26.42.34-3.8.95-7.25,2.01-10.19,1.03-2.97,2.37-5.58,4.13-8.07.49-.6.96-1.21,1.41-1.84.54-.59,1.12-1.16,1.66-1.76.49-.63,1.21-1.16,1.84-1.73.67-.56,1.22-1.19,2.01-1.7.74-.54,1.48-1.09,2.21-1.65l.28-.21.5-.34,1-.67,1.99-1.35c1.33-.88,2.64-1.85,3.95-2.8,1.31-.94,2.61-1.91,3.9-2.93,10.29-7.98,20.06-17.65,27.79-29.28,7.75-11.57,13.15-25.01,15.56-38.34,2.46-13.35,2.32-26.37.94-38.46,1.05,10.27,1.24,21.11-.27,32.24-1.49,11.11-4.84,22.48-10.14,32.9-5.25,10.47-12.38,19.78-20.24,27.74-3.94,4-8.1,7.6-12.35,10.99-4.25,3.39-8.64,6.41-13.07,9.32-10.83,7.48-15.3,15.08-16.65,28.24l-.14,1.2-.05,1.27-.13,2.54.02,2.66v1.33s.07,1.38.07,1.38l.13,2.77.25,2.86c.13,1.88.43,3.88.65,5.83,1.04,7.91,2.77,16.27,4.7,24.87,2.08,8.94,4.16,17.89,6.24,26.82,2.09,9.3,4.11,18.98,5.4,29.5.35,2.59.57,5.32.81,8.03l.58,6.65.55,6.46c.1,1.08.17,2.15.29,3.23l.39,3.25c.54,4.34.99,8.66,1.59,13.01l1.91,13.08c2.78,17.49,6.19,35.15,9.68,53.01,3.48,17.87,7.1,35.94,10.13,54.37,3.03,18.41,5.52,37.13,6.83,56.12.25,4.76.5,9.52.75,14.28.04,4.79.08,9.58.13,14.37.06,2.38-.08,4.8-.17,7.2l-.3,7.2-.32,6.88-.34,6.14c-.25,8.21.02,16.51.63,25.11.6,8.6,1.56,17.55,2.17,27.01.62,9.43.79,19.37-.13,29.28-.28,2.48-.52,4.95-.87,7.41l-1.26,7.33c-1.07,4.82-2.14,9.63-3.65,14.25l-1.06,3.49c-.35,1.17-.77,2.21-1.15,3.31l-2.36,6.53-1.19,3.25-1.28,3.19-2.56,6.36c-3.49,8.42-7.17,16.67-11,24.79-1.87,4.09-3.87,8.08-5.82,12.1-1.94,4.02-3.95,7.99-5.95,11.95-2.13,4.22-4.26,8.43-6.39,12.63-2.24,4.38-4.47,8.75-6.7,13.12-8.95,17.39-17.25,33.14-24.53,47.19-1.84,3.44-3.57,6.74-5.29,9.77-1.74,2.93-3.25,6.11-4.81,9.06-1.57,2.94-2.94,5.82-4.31,8.53-1.41,2.7-2.6,5.32-3.77,7.79l-1.46,3.08-1.27,2.97-1.22,2.81-.15.34-.07.17-.02.04s-.01.03-.02-.03l-.03-.21-.22-1.64-.43-3.26c-1.16-8.65-2.19-16.95-3.12-24.88-1.85-15.87-3.24-30.28-4.19-43.11,1.59,10.81,3.38,22.36,5.4,34.71,1.07,6.34,2.14,12.72,3.22,19.14l.43,2.48.21,1.25.05.31s.05-.11.07-.16l.14-.4c.38-1.09.76-2.18,1.14-3.28.39-1.12.78-2.23,1.17-3.35.41-1.12.88-2.24,1.32-3.38,5.04-12.93,11.67-27.02,19.22-42.56,3.97-8.1,7.97-16.25,11.98-24.43,2.13-4.37,4.27-8.76,6.41-13.16,1.1-2.3,2.21-4.6,3.32-6.9l1.69-3.54,1.75-3.73c2.33-4.97,4.67-9.96,6.93-15,1.14-2.51,2.27-5.03,3.41-7.55,1.1-2.54,2.2-5.07,3.31-7.61,2.26-5.07,4.28-10.23,6.41-15.38,1.09-2.57,2-5.2,3.01-7.8.96-2.62,2.03-5.21,2.91-7.86,1.78-5.3,3.7-10.58,5.13-16.04.85-2.7,1.36-5.48,2-8.24.69-2.76,1.01-5.58,1.49-8.39.1-.7.24-1.41.32-2.11l.21-2.13.42-4.26c.15-1.42.15-2.85.23-4.28.05-1.43.15-2.86.16-4.29.03-5.72-.12-11.47-.59-17.17-.84-11.42-2.32-22.7-3.03-33.91l-.26-4.21c-.09-1.4-.1-2.8-.16-4.2l-.14-4.2v-4.19c.02-1.4,0-2.79.04-4.19l.18-4.18.34-8.54c1.1-23.25-.45-46.62-3.38-69.71-5.85-46.22-17.05-91.3-23.67-136.12-1.63-11.2-3.06-22.39-3.99-33.54l-.66-8.36c-.22-2.64-.45-5.95-.75-8.96-.62-6.12-1.61-12.03-2.68-17.86-2.18-11.64-4.9-22.83-7.34-33.83-2.45-10.99-4.7-21.79-5.95-32.35-.66-5.28-.97-10.47-.95-15.53.03-5.06.4-10,1.41-14.61,1.94-9.27,5.96-17.38,12.56-23.78,1.54-1.69,3.44-3.08,5.2-4.61l2.93-2.04.73-.51c.26-.18.44-.32.79-.54l1.87-1.23c4.98-3.27,9.83-6.81,14.42-10.75,9.17-7.83,17.39-17.2,23.39-27.96,6-10.75,9.61-22.71,10.89-34.49,1.32-11.81.63-23.39-1-34.47-1.63-11.1-4.16-21.77-6.89-32.2-2.74-10.42-5.72-20.6-8.43-30.73-2.71-10.13-5.18-20.21-6.84-30.37-1.66-10.16-2.5-20.43-1.77-30.69,1.3-20.5,2.42-40.7,3.81-60.63.5-6.56.91-13.34,1.47-20.14.28-3.4.46-6.83.78-10.23.28-3.41.57-6.81.85-10.18.23-3.38.62-6.71.91-10.01.32-3.29.55-6.56.9-9.73.33-3.19.64-6.31.95-9.33.14-1.52.29-3.01.43-4.48.17-1.47.33-2.91.49-4.33-3.3,21.81-5.61,43.82-7.4,66.05-1.79,22.23-3.14,44.66-4.66,67.34-.18,2.85-.42,5.64-.55,8.56-.16,2.89-.15,5.79-.09,8.67.17,5.77.74,11.5,1.56,17.2,1.66,11.39,4.37,22.59,7.32,33.8,2.96,11.21,6.2,22.43,9.05,33.91,2.84,11.47,5.35,23.22,6.52,35.4,1.17,12.14.95,24.82-2.05,37.28-1.47,6.22-3.7,12.32-6.55,18.14-2.84,5.83-6.43,11.28-10.46,16.33-8.1,10.11-18.1,18.4-28.73,25.28l-2,1.29-1.71,1.17-1.69,1.15c-.56.39-1.15.74-1.65,1.19l-3.13,2.55c-.99.89-1.91,1.86-2.87,2.77-3.68,3.81-6.71,8.13-8.97,12.9-2.26,4.76-3.76,9.96-4.63,15.4-.87,5.44-1.04,11.13-.86,16.88.2,5.76.79,11.59,1.63,17.46.87,5.87,1.95,11.78,3.15,17.72,2.4,11.88,5.27,23.85,7.67,36.13,1.19,6.14,2.29,12.36,3.08,18.69l.52,4.78c.17,1.59.25,3.22.38,4.82l.65,9.18c3.33,48.64,14.92,97.07,22.56,145.9,1.03,6.09,1.79,12.23,2.67,18.34.46,3.05.76,6.13,1.13,9.19l1.05,9.18.78,9.2.38,4.59c.14,1.53.25,3.06.31,4.6l.42,9.19.21,4.59.02,4.59.03,9.16v2.29s-.1,2.29-.1,2.29l-.21,4.56c-.29,6.13-.58,12.24-.87,18.36-.34,12.35.53,24.71,1.65,36.83,1.11,12.12,2.26,24.01,1.83,35.6-.44,11.58-2.42,22.85-5.83,33.72-3.55,11-7.68,22-12.29,32.74-4.5,10.78-9.41,21.41-14.34,31.97-1.26,2.64-2.51,5.27-3.77,7.9l-1.88,3.94-1.56,3.11c-1.01,1.99-2.01,3.98-3.01,5.96l-1.43,2.78-1.36,2.61c-3.4,6.46-6.78,12.88-10.13,19.26-6.29,11.89-11.51,21.97-15.27,30.62-.22.51-.44,1-.66,1.5-.42.97-.77,1.95-1.15,2.89l-.55,1.4-.27.69c-.03.14-.04-.11-.06-.19l-.05-.34-.1-.67-1.54-10.48c-.98-6.8-1.86-13.23-2.65-19.31-1.57-12.15-2.76-22.86-3.64-32.26-.43-4.77-.86-9.54-1.28-14.31-1.22-9.84-2.45-19.69-3.67-29.55-2.42-20.32-4.57-40.66-6.37-61-3.59-40.67-5.86-81.39-5.79-121.79.04-20.2.69-40.31,2.22-60.19.79-9.93,1.7-19.83,2.97-29.61l.94-7.34c.33-2.44.74-4.85,1.11-7.28l.56-3.64c.19-1.22.35-2.4.59-3.69l1.3-7.6c8.8-43.87,19.49-88.31,29.34-133.62,1.25-5.83,2.5-11.66,3.74-17.49,1.19-5.86,2.37-11.73,3.56-17.59,1.17-5.87,2.38-11.73,3.51-17.62l3.28-17.67c1.06-5.9,2.22-11.78,3.2-17.69l2.99-17.74c2.05-11.82,3.76-23.69,5.56-35.55,6.98-47.47,12.23-95.18,15.56-142.83.67-10.58,1.41-22.19,2.18-34.48.3-6.15.6-12.47.91-18.91.28-6.44.65-13,.8-19.65.36-13.29.79-26.89.72-40.46,0-6.78-.02-13.55-.08-20.26-.15-6.71-.34-13.37-.58-19.91-.4-13.1-1.29-25.78-2.32-37.68-.28-2.97-.55-5.9-.82-8.77-.3-2.87-.66-5.69-1.01-8.44-.71-5.51-1.47-10.78-2.3-15.76-1.6-9.96-3.7-18.78-5.99-26.08-2.3-7.3-4.88-13.1-7.77-17.03-.36,26.91,2.67,56.69.67,82.57-.96-4.91-2.03-10.17-3.01-15.65-1.04-5.48-2.03-11.17-2.73-16.95.04,5.5-.1,11.3-.13,17.01-.09,5.71-.02,11.32.57,16.45-1.1-8.51-2.36-17.18-4.7-20.45-.29,6.6.23,14.58,1.08,22.23.82,7.64,1.94,14.95,2.45,20.17.33,3.06,1.65,11.63,2.74,20.46.27,2.21.53,4.43.76,6.58.2,2.15.37,4.24.48,6.18.23,3.87.27,7.14-.03,9.14-.88-5.25-1.69-10.84-2.57-16.53-.92-5.68-1.86-11.48-2.78-17.15-.96-5.67-1.91-11.21-2.99-16.39-1.11-5.18-2.27-10.01-3.52-14.25-.13,3.58-.14,7.15-.18,10.69-.02,1.77-.05,3.54-.12,5.29-.09,1.76-.21,3.5-.37,5.24-.87-4.33-1.52-10.71-2.24-16.56-.72-5.85-1.53-11.16-2.85-13.36.03,8.89.4,17.27.66,25.74.18,8.46.3,17.01,0,26.23-.06,1.87-.13,3.71-.19,5.54-.09,1.82-.18,3.63-.27,5.42-.17,3.58-.33,7.11-.45,10.62-.26,7.01-.24,13.96-.03,21.13-1.26-17.17-1.77-40.14-5.32-52.01-.55,3.92-.74,7.96-.78,12.04-.02,4.08,0,8.18.09,12.25-.33-1-.73-1.6-1.17-1.82-.09,3.6-.83,8.33-.82,12.07-.63.07-1.26.87-1.87.12.44.12.88.18,1.33.26"/>
          <path class="cls-1" d="M145.38,175.74c-.17,8.97-.48,19.81-.93,30.46-.48,10.65-1.35,21.08-2.38,29.24"/>
          <path class="cls-6" d="M96.2,1141.63s.22-.54.66-1.6c.44-1.06,1.08-2.66,2.01-4.76,1.81-4.21,4.57-10.51,8.48-18.95,3.87-8.46,8.92-19.05,14.97-32.02,1.57-3.4,3.2-6.92,4.87-10.54.43-.94.86-1.88,1.3-2.84.47-1.03.94-2.07,1.41-3.12,1.03-2.33,2.08-4.69,3.14-7.08,4.26-9.58,8.55-19.72,12.88-30.39,1.04-2.68,2.08-5.39,3.14-8.13,1.06-2.74,2.14-5.51,3.1-8.33,1-2.82,2.01-5.67,3.03-8.54.92-2.89,1.84-5.82,2.78-8.77,1.01-2.97,1.7-5.89,2.49-8.87.2-.74.39-1.49.59-2.24.15-.75.3-1.51.45-2.27.3-1.52.61-3.04.91-4.57.31-1.53.45-3.09.69-4.64.19-1.56.5-3.11.57-4.7.12-1.58.25-3.17.38-4.77.15-1.59.1-3.21.17-4.83.15-3.23-.04-6.53-.1-9.84-.22-3.33-.39-6.68-.76-10.1-.63-6.82-1.57-13.81-2.41-21.01-.85-7.19-1.65-14.57-2.02-22.11-.27-3.76-.27-7.57-.36-11.39-.03-1.91.06-3.83.08-5.75.04-1.9.07-3.8.11-5.71.06-3.71.12-7.45.18-11.2l.04-2.82-.09-2.83c-.06-1.89-.13-3.79-.19-5.69-.06-1.9-.13-3.81-.19-5.72-.02-1.91-.26-3.82-.38-5.74-.29-3.84-.59-7.69-.89-11.57-1.59-15.48-3.89-31.2-6.73-47.11-5.78-31.81-13.52-64.33-19.78-97.84-3.17-16.75-5.73-33.8-7.46-51.06-.4-4.29-.8-8.58-1.2-12.88-.36-4.17-1.01-8.36-1.68-12.54-1.44-8.37-3.35-16.75-5.34-25.15-3.96-16.81-8.41-33.78-10.47-51.5-1.03-8.84-1.35-17.92-.25-27.06,1.01-9.12,3.89-18.31,8.73-26.48,4.87-8.17,11.85-14.92,19.5-20.11,1.99-1.41,3.6-2.44,5.35-3.61,1.7-1.17,3.38-2.37,5.02-3.59,3.28-2.47,6.4-5.08,9.37-7.83,2.93-2.78,5.71-5.67,8.24-8.72,2.51-3.07,4.8-6.27,6.82-9.61,4.05-6.67,6.9-13.9,8.67-21.38,3.51-15.02,2.45-30.9-.3-46.46-2.78-15.62-7.17-31.07-11.3-46.69-4.11-15.64-8.1-31.53-9.8-48.27-.86-8.35-1.05-16.96-.3-25.59.61-7.58,1.21-15.07,1.81-22.48.61-7.44,1.2-14.8,1.79-22.05.67-7.29,1.23-14.48,1.96-21.61,1.3-14.24,2.9-28.17,4.62-41.71,3.57-27.08,8.05-52.66,13.68-76.15,5.61-23.5,12.21-44.88,18.68-63.75"/>
        </g>
        <path class="cls-6" d="M164.59,762.04s-1.03-5.54-2.94-15.78c-2.02-10.12-4.96-24.88-8.67-43.47-3.61-18.46-7.89-40.58-10.83-65.54-.38-3.12-.61-6.28-.93-9.49-.32-3.33-.64-6.7-.96-10.12-.72-7.54-1.99-14.94-3.5-22.28-3.02-14.68-7.02-29.24-10.32-43.98-1.64-7.36-3.11-14.77-4.08-22.14-.95-7.36-1.46-14.73-.91-21.75.2-1.72.27-3.52.61-5.19l.41-2.56.6-2.47.29-1.24c.1-.41.26-.8.38-1.2l.77-2.39c.27-.79.64-1.53.94-2.3.33-.76.6-1.56,1.02-2.27,2.99-5.89,7.27-11.26,13.05-15.71l2.23-1.62c.75-.55,1.41-1.06,2.47-1.77,1.94-1.32,3.87-2.63,5.76-4.05,3.81-2.78,7.51-5.81,11.07-9.06,3.58-3.22,6.95-6.76,10.13-10.5,3.17-3.75,6.12-7.75,8.7-12.02,5.2-8.5,8.98-17.97,11.05-27.67,2.1-9.71,2.55-19.57,1.97-29.16-.59-9.6-2.18-18.97-4.23-28.13-2.05-9.17-4.56-18.14-7.18-27.04-5.22-17.81-10.98-35.35-14.37-53.67-1.68-9.16-2.74-18.52-2.56-28.07.38-9.24.76-18.45,1.13-27.62.75-18.28,1.51-36.45,2.58-54.48"/>
      </g>
    </g>
  </g>
  <path class="cls-5" d="M553.85,922.01c4.77,76.53-3.91,153.94-25.5,227.32"/>
  <path class="cls-5" d="M494.19,898.89c-2.17,24.64,18.83,44.13,28.56,66.74,7.12,16.56,8.15,35.17,8.29,53.29.38,49.67-5.13,99.39-16.37,147.69"/>
  <path class="cls-4" d="M115.5,651c504,432,1764,270,2115-243"/>
  <path class="cls-3" d="M115.5,651c378-378,1701-495,2178,492.23"/>
  <g>
    <path d="M601.18,1104.44c-2.78,0-5.65-1.2-8.6-3.58-2.95-2.38-4.43-4.4-4.43-6.05,0-1.48.95-2.22,2.86-2.22.17,0,1.3.25,3.39.74-.7-3.46-1.22-7.45-1.56-11.98-.35-4.53-.52-9.51-.52-14.94,0-9.39.39-19.55,1.17-30.5.78-10.95,1.91-21.94,3.39-32.97,1.47-11.03,3.08-21.49,4.82-31.37,1.73-9.88,3.47-18.36,5.21-25.44h-13.81c-3.82-.16-5.73-.82-5.73-1.98,0-.82,1.08-1.73,3.26-2.72,2.17-.99,4.73-1.48,7.68-1.48h10.16c.87-4.28,2.87-7.08,5.99-8.4,3.13-1.32,6.42-1.98,9.9-1.98,2.6,0,3.91.83,3.91,2.47s-.78,3.3-2.34,4.94c-1.56,1.65-2.52,2.88-2.86,3.7,4.34.33,9.64.95,15.89,1.85,6.25.91,12.63,2.22,19.15,3.95,6.51,1.73,12.59,4.08,18.23,7.04,5.64,2.96,10.24,6.63,13.81,10.99,3.56,4.36,5.34,9.67,5.34,15.93,0,4.94-1.43,9.63-4.3,14.08-2.87,4.45-6.51,8.48-10.94,12.1-4.43,3.62-9.08,6.79-13.94,9.51-4.86,2.72-9.29,4.9-13.28,6.55,1.91-.16,3.95-.29,6.12-.37,2.17-.08,4.47-.12,6.9-.12,5.73,0,11.81.41,18.23,1.23,6.42.83,12.41,2.31,17.97,4.45,5.56,2.14,10.07,5.15,13.55,9.02,3.47,3.87,5.21,8.85,5.21,14.94,0,8.73-2.91,16.34-8.73,22.85-5.82,6.51-13.41,11.86-22.79,16.05-9.38,4.2-19.54,7.33-30.48,9.39-10.94,2.06-21.45,3.09-31.52,3.09-3.82,0-7.55-.12-11.2-.37s-7.03-.7-10.16-1.36c-.87,1.98-2.52,2.96-4.95,2.96ZM628.01,1097.03c9.03,0,18.27-.74,27.74-2.22,9.46-1.48,18.23-3.87,26.31-7.16,8.08-3.29,14.59-7.7,19.54-13.21,4.95-5.51,7.42-12.23,7.42-20.13-.17-5.6-2.21-10.17-6.12-13.71-3.91-3.54-8.9-6.26-14.98-8.15-6.08-1.89-12.5-3.21-19.28-3.95s-13.11-1.11-19.02-1.11c-7.99,0-15.59.45-22.79,1.36-7.21.91-14.72,1.94-22.53,3.09-.18,2.14-.35,5.23-.52,9.26-.18,4.04-.26,8.52-.26,13.46,0,7.08.13,14.32.39,21.73.26,7.41.65,13.67,1.17,18.77,6.6,1.32,14.24,1.98,22.92,1.98ZM610.82,1024.17c1.73,0,5.34-.29,10.81-.86,5.47-.57,11.68-1.73,18.62-3.46,6.94-1.73,13.76-4.11,20.45-7.16,6.68-3.04,12.24-7.04,16.67-11.98s6.64-11.03,6.64-18.28c0-.82-.04-1.69-.13-2.59-.09-.9-.22-1.85-.39-2.84-1.74-5.27-5.08-9.71-10.03-13.34-4.95-3.62-10.64-6.58-17.06-8.89-6.43-2.3-12.81-4.11-19.15-5.43-6.34-1.32-11.68-2.22-16.02-2.72h-.26c-.87,2.47-1.95,6.26-3.26,11.36-1.3,5.11-2.65,10.79-4.04,17.04-1.39,6.26-2.74,12.6-4.04,19.02s-2.39,12.27-3.26,17.54c-.87,5.27-1.39,9.39-1.56,12.35.17,0,.78.04,1.82.12,1.04.08,2.43.12,4.17.12Z"/>
    <path d="M714.49,1182c-2.78,0-4.17-1.57-4.17-4.69,0-4.12,1.52-9.22,4.56-15.31,3.04-6.09,6.82-12.52,11.33-19.26,4.52-6.75,9.03-13.21,13.55-19.39,4.51-6.17,8.38-11.4,11.59-15.68,3.21-4.28,4.99-6.84,5.34-7.66,1.04-2.96,1.78-6.34,2.21-10.13.43-3.79.65-7.82.65-12.1,0-8.23-.57-16.22-1.69-23.96-1.13-7.74-2.78-14.16-4.95-19.27-2.17-5.1-4.99-7.66-8.47-7.66-.7,0-1.39.04-2.08.12-.7.08-1.22.12-1.56.12-.7,0-1.04-.41-1.04-1.23,0-.49.39-1.23,1.17-2.22s2.3-2.22,4.56-3.7c.87-.66,1.86-1.81,3-3.46,1.13-1.64,2.3-3.21,3.52-4.69,1.21-1.48,2.34-2.22,3.39-2.22,2.6,0,4.95,2.51,7.03,7.53,2.08,5.02,3.78,11.45,5.08,19.27,1.3,7.82,1.95,16.02,1.95,24.58,0,1.98-.05,3.95-.13,5.93-.09,1.98-.13,3.95-.13,5.93,0,2.64.69,3.95,2.08,3.95,1.73,0,4.25-1.73,7.55-5.19,3.3-3.46,6.9-7.82,10.81-13.09,3.91-5.27,7.68-10.74,11.33-16.42,3.65-5.68,6.64-10.78,8.99-15.31,2.34-4.53,3.52-7.7,3.52-9.51,0-.99-.44-1.48-1.3-1.48-.52,0-1.13.17-1.82.49-.7.33-1.39.49-2.08.49-.87,0-1.56-.41-2.08-1.23,0-1.48,1.26-3.09,3.78-4.82,2.52-1.73,5.34-3.21,8.47-4.45s5.64-1.85,7.55-1.85c.87,0,1.47.09,1.82.25.52.66.78,1.57.78,2.72,0,2.47-1.26,6.09-3.78,10.87-2.52,4.78-5.78,10.09-9.77,15.93-4,5.85-8.34,11.86-13.02,18.03-4.69,6.17-9.29,12.02-13.81,17.54-4.52,5.52-8.47,10.29-11.85,14.33-3.39,4.04-5.78,6.79-7.16,8.27,0-1.15-.22-.86-.65.86-.44,1.73-.96,4.04-1.56,6.92-.61,2.88-1.39,5.51-2.34,7.9-.96,2.38-1.95,3.58-3,3.58-.87,0-1.78-.21-2.74-.62-.96-.41-1.61-.62-1.95-.62-12.85,16.46-21.93,29.15-27.22,38.04-5.29,8.89-7.94,15.31-7.94,19.27,0,1.98.35,3.5,1.04,4.57.7,1.07,1.04,2.1,1.04,3.09,0,1.81-1.08,3.37-3.26,4.69-2.17,1.32-4.21,1.98-6.12,1.98Z"/>
    <path d="M898.65,1100.99c-1.91,0-3.35-.25-4.3-.74-.96-.49-1.43-1.56-1.43-3.21,0-4.45.39-10.91,1.17-19.39.78-8.48,1.82-17.99,3.13-28.53,1.3-10.54,2.78-21.37,4.43-32.48,1.65-11.11,3.34-21.74,5.08-31.86,1.73-10.13,3.39-18.81,4.95-26.06v-.49c0-.66-.13-1.19-.39-1.61-.26-.41-.39-.95-.39-1.61,0-.99.26-2.63.78-4.94.52-2.3.95-4.03,1.3-5.19h-1.56c-1.74,0-3.52.08-5.34.25-1.82.17-3.43.25-4.82.25-3.82-.16-5.73-.82-5.73-1.98,0-1.64,2.12-2.76,6.38-3.33,4.25-.57,8.47-.86,12.63-.86.52-2.8,2.3-5.1,5.34-6.92,3.04-1.81,6.73-2.72,11.07-2.72,2.78,0,4.17.99,4.17,2.96-.87,1.98-1.61,3.25-2.21,3.83-.61.58-1.26,1.85-1.95,3.83,4.51.33,9.85.95,16.02,1.85,6.16.91,12.46,2.18,18.89,3.83,6.42,1.65,12.41,3.87,17.97,6.67,5.56,2.8,10.07,6.34,13.55,10.62,3.47,4.28,5.21,9.47,5.21,15.56,0,5.6-1.35,10.99-4.04,16.18-2.69,5.19-6.17,9.92-10.42,14.2-4.26,4.28-8.73,7.95-13.41,10.99-4.69,3.05-9.12,5.23-13.28,6.55-5.91,1.98-12.2,3.33-18.88,4.08-6.69.74-12.81,1.11-18.36,1.11-4.17,0-7.68-.12-10.55-.37s-4.73-.53-5.6-.86c-.52,2.8-1.09,7-1.69,12.6-.61,5.6-1.09,11.82-1.43,18.65-.35,6.84-.52,13.63-.52,20.38,0,4.12.26,7.53.78,10.25.52,2.72.78,3.99.78,3.83,0,.83-.22,1.28-.65,1.36-.44.09-.74.37-.91.86-.35.83-1.09,1.44-2.21,1.85-1.13.41-2.3.62-3.52.62ZM926,1025.65c2.43,0,4.86-.04,7.29-.12,2.43-.08,4.51-.2,6.25-.37,5.03-.49,10.55-1.89,16.54-4.2,5.99-2.3,11.63-5.39,16.93-9.26,5.29-3.87,9.64-8.44,13.02-13.71,3.39-5.27,5.08-11.2,5.08-17.78,0-5.76-2.17-10.7-6.51-14.82-4.34-4.11-9.81-7.53-16.41-10.25-6.6-2.72-13.41-4.82-20.45-6.3-7.03-1.48-13.33-2.47-18.88-2.96-1.22,2.47-2.65,6.26-4.3,11.36-1.65,5.11-3.26,10.87-4.82,17.29-1.56,6.42-3.09,12.89-4.56,19.39-1.48,6.51-2.69,12.44-3.65,17.78-.96,5.35-1.61,9.51-1.95,12.47.52.49,2.43.86,5.73,1.11,3.3.25,6.86.37,10.68.37Z"/>
    <path d="M988.52,1101.23c-4.17,0-6.25-2.96-6.25-8.89,0-4.61.95-10.33,2.87-17.17,1.91-6.83,4.43-13.96,7.55-21.36,3.13-7.41,6.55-14.36,10.29-20.87,3.73-6.5,7.55-11.81,11.46-15.93,3.91-4.11,7.51-6.17,10.81-6.17h.78l2.87-1.98c.87-.99,1.95-1.64,3.26-1.98,1.3-.33,2.65-.49,4.04-.49,3.47,0,7.12.66,10.94,1.98,3.82,1.32,6.42,1.98,7.81,1.98,1.21,0,2.12-.66,2.73-1.98.61-1.32,1.95-1.98,4.04-1.98,2.43,0,4.12.49,5.08,1.48.95.99,1.43,2.31,1.43,3.95,0,2.31-.7,4.98-2.08,8.03-1.39,3.05-2.52,5.56-3.39,7.53-.18.66-.96,1.2-2.34,1.61-1.39.41-2.26.95-2.6,1.61-2.78,7.58-5.3,15.27-7.56,23.09-2.26,7.82-4,14.61-5.21,20.38-1.22,5.77-1.82,9.31-1.82,10.62,0,4.12,1.21,6.17,3.65,6.17,2.08,0,4.34-.86,6.77-2.59,2.43-1.73,4.82-3.66,7.16-5.8,2.34-2.14,4.3-4.08,5.86-5.8s2.43-2.59,2.6-2.59c.35,0,.52.33.52.99s-.26,1.65-.78,2.96c-.52,1.32-1.13,2.22-1.82,2.72-1.74,1.48-4.43,3.75-8.07,6.79-3.65,3.05-7.55,5.89-11.72,8.52-4.17,2.64-7.81,3.95-10.94,3.95-3.65,0-5.82-2.06-6.51-6.17,0-2.96.52-6.79,1.56-11.49,1.04-4.69,2.21-9.51,3.52-14.45,1.3-4.94,2.47-9.05,3.52-12.35-2.6,3.3-5.95,7.49-10.03,12.6-4.08,5.11-8.51,10.17-13.28,15.19-4.78,5.03-9.51,9.26-14.2,12.72s-8.86,5.19-12.5,5.19ZM996.86,1089.62c1.73,0,4.04-1.11,6.9-3.33,2.87-2.22,5.99-5.06,9.38-8.52s6.6-6.92,9.64-10.37c3.04-3.46,5.64-6.55,7.81-9.26,2.17-2.72,3.52-4.4,4.04-5.06,2.78-4.28,5.51-8.93,8.21-13.96,2.69-5.02,4.9-9.63,6.64-13.83,1.73-4.2,2.6-7.12,2.6-8.77,0-.99-.44-1.48-1.3-1.48h-.78c-1.74,0-3.52-.16-5.34-.49-1.82-.33-3.95-.49-6.38-.49s-5.04.33-7.81.99c-1.56.33-3.78,2.35-6.64,6.05s-5.99,8.36-9.38,13.96c-3.39,5.6-6.6,11.57-9.64,17.91-3.04,6.34-5.56,12.39-7.55,18.15-2,5.77-3,10.54-3,14.33,0,2.8.87,4.2,2.6,4.2Z"/>
    <path d="M1085.94,1102.47c-4.52,0-8.29-1.4-11.33-4.2-3.04-2.8-4.56-7.24-4.56-13.34s1.13-12.55,3.39-19.88c2.25-7.32,5.12-14.49,8.6-21.49,3.47-7,6.99-13.01,10.55-18.03,3.56-5.02,6.73-8.11,9.51-9.26,5.38-1.81,9.55-3.66,12.5-5.56,2.95-1.89,6.6-2.84,10.94-2.84,3.47,0,6.38.83,8.73,2.47,2.34,1.65,3.52,4.69,3.52,9.14v1.85c0,.58-.09,1.28-.26,2.1-.52,2.96-1.56,5.27-3.13,6.92-1.56,1.65-3.04,2.47-4.43,2.47-2.08,0-3.13-1.48-3.13-4.45,0-1.64.35-3.5,1.04-5.56.69-2.06,1.04-3.91,1.04-5.56,0-2.63-1.48-3.95-4.43-3.95-1.56,0-3.69.7-6.38,2.1-2.69,1.4-5.3,3.01-7.81,4.82-2.52,1.81-4.39,3.3-5.6,4.45-1.39,1.32-3.39,4.37-5.99,9.14-2.6,4.78-5.25,10.37-7.94,16.8-2.69,6.42-4.99,12.8-6.9,19.14-1.91,6.34-2.87,11.73-2.87,16.18,0,6.09,2.52,9.14,7.55,9.14,5.56,0,10.68-1.44,15.37-4.32,4.69-2.88,8.9-6.17,12.63-9.88,3.73-3.7,6.73-7,8.99-9.88,2.25-2.88,3.65-4.4,4.17-4.57.87.33,1.3.91,1.3,1.73,0,1.65-1.26,4.32-3.78,8.03-2.52,3.7-5.91,7.58-10.16,11.61-4.26,4.04-9.08,7.5-14.46,10.37-5.39,2.88-10.94,4.32-16.67,4.32Z"/>
    <path d="M1141.42,1101.97c-3.3,0-4.95-1.48-4.95-4.45,0-1.48.35-3.21,1.04-5.19,3.82-10.37,6.94-18.9,9.38-25.56,2.43-6.67,4.34-11.94,5.73-15.81,1.39-3.87,2.34-6.83,2.87-8.89.52-2.06.78-3.74.78-5.06,0-.82-.13-1.4-.39-1.73-.26-.33-.39-.82-.39-1.48s.26-1.73.78-3.21c3.65-10.04,6.94-16.88,9.9-20.5,2.95-3.62,7.38-5.43,13.28-5.43,2.43,0,3.73.74,3.91,2.22-1.74,3.13-4.56,8.24-8.47,15.31-3.91,7.08-8.04,15.85-12.37,26.31-4.34,10.46-8.16,22.44-11.46,35.94-.18.49-.26,1.15-.26,1.98,0,1.98.87,2.96,2.6,2.96,1.04,0,2.69-.62,4.95-1.85,2.25-1.23,4.6-2.47,7.03-3.7,2.43-1.23,4.25-1.85,5.47-1.85s1.91.33,2.08.99c0,.99-1.3,2.51-3.91,4.57-2.61,2.06-5.73,4.2-9.38,6.42s-7.16,4.12-10.55,5.68-5.95,2.35-7.68,2.35ZM1179.71,989.59c-2.43,0-3.91-.86-4.43-2.59-.52-1.73-.78-3.58-.78-5.56,0-2.47,1.3-5.06,3.91-7.78,2.61-2.72,5.69-5.02,9.25-6.92,3.56-1.89,6.55-2.84,8.99-2.84.87,0,1.39.25,1.56.74,0,1.81-.74,3.54-2.21,5.19-1.48,1.65-3.09,3.3-4.82,4.94-1.74,1.65-3.13,3.54-4.17,5.68-.7,1.65-1.56,3.46-2.6,5.43-1.04,1.98-2.61,3.21-4.69,3.7Z"/>
    <path d="M1151.32,1151.62c-6.08,0-10.55-1.07-13.41-3.21-2.87-2.14-4.69-4.78-5.47-7.9-.78-3.13-1.17-6.01-1.17-8.64,0-4.78.74-9.1,2.21-12.97,1.48-3.87,2.82-5.8,4.04-5.8.7,0,1.13.49,1.3,1.48-.17,1.15-.3,2.3-.39,3.46-.08,1.15-.13,2.3-.13,3.46,0,7.74,1.61,13.87,4.82,18.4,3.21,4.53,6.99,6.79,11.33,6.79,4,0,8.16-2.02,12.5-6.05,4.34-4.04,8.42-10.5,12.24-19.39,2.25-5.27,4.82-11.9,7.68-19.88,2.87-7.98,5.73-16.43,8.6-25.32,2.87-8.89,5.6-17.41,8.2-25.56,2.61-8.15,4.82-15.19,6.64-21.12,1.82-5.93,3-9.8,3.52-11.61h-16.93c-4.17,0-6.25-.74-6.25-2.22,0-1.15,1.13-2.38,3.39-3.7,2.26-1.32,3.99-1.98,5.21-1.98h16.67c.52-1.48,1.43-4.24,2.73-8.27,1.3-4.03,2.78-8.52,4.43-13.46,1.65-4.94,3.26-9.55,4.82-13.83,1.56-4.28,2.69-7.41,3.39-9.39,3.65-9.55,8.81-16.55,15.5-20.99,6.68-4.45,15.32-6.67,25.92-6.67,6.77,0,12.11,1.52,16.02,4.57,3.91,3.05,6.73,6.67,8.47,10.87,1.73,4.2,2.6,8.11,2.6,11.73,0,4.28-.83,7.58-2.47,9.88-1.65,2.31-3.56,3.91-5.73,4.82-2.17.91-4.04,1.36-5.6,1.36-1.04,0-2.13-.37-3.26-1.11-1.13-.74-1.69-2.01-1.69-3.83,0-2.14.69-4.48,2.08-7.04,1.39-2.55,2.73-4.82,4.04-6.79,1.3-1.98,1.95-3.29,1.95-3.95,0-1.81-.96-3.91-2.87-6.3-1.91-2.39-4.34-4.49-7.29-6.3-2.96-1.81-5.99-2.72-9.12-2.72-5.73,0-10.33,1.28-13.81,3.83-3.48,2.55-6.21,5.64-8.2,9.26-2,3.62-3.69,7.08-5.08,10.37-2.08,5.11-4.08,10.5-5.99,16.18-1.91,5.68-3.65,10.99-5.21,15.93-1.56,4.94-2.87,8.98-3.91,12.1,1.91,0,4.04.09,6.38.25,2.34.17,4.73.25,7.16.25,2.95,0,5.95-.37,8.99-1.11,3.04-.74,5.08-1.11,6.12-1.11.69,0,1.04.17,1.04.49,0,2.47-1.87,4.28-5.6,5.43-3.74,1.15-8.07,1.85-13.02,2.1s-9.34.37-13.15.37c-.52,1.15-1.52,4.16-3,9.02-1.48,4.86-3.26,10.74-5.34,17.66s-4.3,14.16-6.64,21.73c-2.34,7.58-4.65,14.82-6.9,21.74-2.26,6.92-4.17,12.76-5.73,17.54-4.17,12.51-8.99,22.19-14.46,29.02-5.47,6.83-11.03,11.57-16.67,14.2-5.64,2.63-10.81,3.95-15.5,3.95ZM1247.44,1101.97c-3.3,0-4.95-1.48-4.95-4.45,0-1.48.35-3.21,1.04-5.19,3.82-10.37,6.94-18.9,9.38-25.56,2.43-6.67,4.34-11.94,5.73-15.81,1.39-3.87,2.34-6.83,2.87-8.89.52-2.06.78-3.74.78-5.06,0-.82-.13-1.4-.39-1.73-.26-.33-.39-.82-.39-1.48s.26-1.73.78-3.21c3.65-10.04,6.94-16.88,9.9-20.5,2.95-3.62,7.38-5.43,13.28-5.43,2.43,0,3.73.74,3.91,2.22-1.74,3.13-4.56,8.24-8.47,15.31-3.91,7.08-8.03,15.85-12.37,26.31-4.34,10.46-8.16,22.44-11.46,35.94-.18.49-.26,1.15-.26,1.98,0,1.98.87,2.96,2.61,2.96,1.04,0,2.69-.62,4.95-1.85,2.25-1.23,4.6-2.47,7.03-3.7,2.43-1.23,4.25-1.85,5.47-1.85s1.91.33,2.08.99c0,.99-1.3,2.51-3.91,4.57-2.6,2.06-5.73,4.2-9.38,6.42-3.65,2.22-7.16,4.12-10.55,5.68s-5.95,2.35-7.68,2.35Z"/>
    <path d="M1324.28,1155.82c-3.48,0-5.47-2.06-5.99-6.17,0-3.3.78-7.99,2.34-14.08,1.56-6.09,3.6-12.84,6.12-20.25,2.52-7.41,5.21-14.86,8.08-22.35,2.87-7.49,5.56-14.41,8.07-20.75,2.52-6.34,4.56-11.49,6.12-15.44-2.78,3.3-6.47,7.5-11.07,12.6-4.6,5.11-9.6,10.17-14.98,15.19-5.38,5.03-10.64,9.26-15.76,12.72-5.12,3.46-9.51,5.19-13.15,5.19-4,0-5.99-2.55-5.99-7.66,0-4.45,1.17-10.13,3.52-17.04,2.34-6.92,5.42-14.24,9.25-21.98,3.82-7.74,7.99-15.03,12.5-21.86,4.51-6.83,8.99-12.39,13.41-16.67,4.43-4.28,8.38-6.42,11.85-6.42h.78l2.87-1.98c.87-.99,1.95-1.64,3.26-1.98,1.3-.33,2.65-.49,4.04-.49,3.47,0,7.12.66,10.94,1.98,3.82,1.32,6.34,1.98,7.55,1.98s2.21-.66,3-1.98c.78-1.32,2.21-1.98,4.3-1.98,4.69,0,7.03,2.06,7.03,6.17,0,2.31-.61,4.9-1.82,7.78-1.22,2.88-2.26,5.23-3.13,7.04-.18.66-.96,1.2-2.34,1.61-1.39.41-2.26.95-2.61,1.61-7.64,17.29-14.89,34.29-21.75,51-6.86,16.71-12.55,34.29-17.06,52.73-.7,2.63-1.04,4.94-1.04,6.92,0,2.96.95,4.45,2.87,4.45,2.08,0,4.43-.86,7.03-2.59,2.61-1.73,5.17-3.79,7.68-6.17,2.52-2.39,4.73-4.45,6.64-6.17,1.91-1.73,3.21-2.59,3.91-2.59.87,0,1.3.57,1.3,1.73,0,.99-.3,2.06-.91,3.21-.61,1.15-1.09,1.81-1.43,1.98-1.39,1.15-3.52,2.84-6.38,5.06s-6.08,4.53-9.64,6.92c-3.56,2.39-7.03,4.45-10.42,6.17s-6.38,2.59-8.99,2.59ZM1304.74,1089.62c1.73,0,4.12-1.11,7.16-3.33,3.04-2.22,6.34-5.06,9.9-8.52,3.56-3.46,6.99-6.92,10.29-10.37,3.3-3.46,6.16-6.55,8.6-9.26,2.43-2.72,3.91-4.4,4.43-5.06,3.13-4.45,6.21-9.22,9.25-14.33,3.04-5.1,5.56-9.71,7.55-13.83,1.99-4.11,3-7,3-8.64,0-.82-.35-1.23-1.04-1.23h-.78c-1.74,0-3.52-.2-5.34-.62-1.82-.41-3.95-.62-6.38-.62-1.22,0-2.43.09-3.65.25-1.22.17-2.6.49-4.17.99-1.22.17-3.43,2.14-6.64,5.93-3.22,3.79-6.77,8.56-10.68,14.33-3.91,5.77-7.68,11.86-11.33,18.28-3.65,6.42-6.64,12.52-8.99,18.28-2.34,5.77-3.52,10.54-3.52,14.33,0,2.31.78,3.46,2.34,3.46Z"/>
    <path d="M1413.37,1116.05c-2.26,0-3.39-.91-3.39-2.72,0-1.65,1.3-3.33,3.91-5.06,2.6-1.73,4.51-3.91,5.73-6.55.52-1.32,1.56-4.48,3.13-9.51,1.56-5.02,3.34-10.78,5.34-17.29,1.99-6.5,3.82-12.72,5.47-18.65,1.65-5.93,2.91-10.45,3.78-13.58-1.91,2.8-4.82,6.63-8.73,11.49-3.91,4.86-8.29,10.05-13.15,15.56-4.86,5.52-9.86,10.79-14.98,15.81-5.12,5.03-9.94,9.14-14.46,12.35-4.52,3.21-8.34,4.82-11.46,4.82-2.43,0-3.65-1.48-3.65-4.45,0-2.47.95-6.01,2.87-10.62,1.04-2.3,2.65-5.68,4.82-10.13,2.17-4.45,4.43-9.26,6.77-14.45,2.34-5.19,4.34-10.04,5.99-14.57,1.65-4.53,2.47-8.03,2.47-10.5,0-1.15-.18-1.93-.52-2.35-.35-.41-.52-1.03-.52-1.85,0-.33.04-.7.13-1.11.09-.41.22-.95.39-1.61,1.91-6.75,3.69-12.02,5.34-15.81,1.65-3.79,3.69-6.42,6.12-7.9,2.43-1.48,5.73-2.22,9.9-2.22,2.43,0,3.91.74,4.43,2.22-.7,1.65-2.17,5.06-4.43,10.25-2.26,5.19-4.91,11.28-7.94,18.28-3.04,7-5.99,13.92-8.86,20.75-2.87,6.84-5.25,12.76-7.16,17.78-1.91,5.03-2.87,8.11-2.87,9.26,0,.66.26.99.78.99.69,0,1.6-.41,2.74-1.23,1.13-.82,2.3-1.73,3.52-2.72,10.24-7.41,19.1-15.77,26.57-25.07,7.46-9.3,13.89-18.73,19.28-28.28.17-2.47.82-5.6,1.95-9.39,1.13-3.79,3.08-7.16,5.86-10.13,2.78-2.96,6.42-4.45,10.94-4.45,1.91,0,2.95.74,3.13,2.22-.87,2.64-2.65,7.33-5.34,14.08-2.69,6.75-5.52,14.08-8.47,21.98-1.39,3.95-2.95,8.61-4.69,13.96-1.74,5.35-3.43,10.74-5.08,16.18-1.65,5.43-3,10.21-4.04,14.33-1.04,4.12-1.56,6.84-1.56,8.15,0,.49.17.74.52.74,1.56-.16,3.69-1.23,6.38-3.21,2.69-1.98,5.51-3.99,8.47-6.05,2.95-2.06,5.38-3.09,7.29-3.09.35,0,.78.09,1.3.25.52.17.78.49.78.99,0,.99-1.22,2.39-3.65,4.2-2.43,1.81-5.34,3.7-8.73,5.68s-6.51,3.79-9.38,5.43-4.82,2.8-5.86,3.46c-1.74,1.32-3.61,3.04-5.6,5.19-2,2.14-3.95,4.03-5.86,5.68-1.91,1.64-3.82,2.47-5.73,2.47Z"/>
    <path d="M1480.83,1102.96c-2.08,0-4.47-.46-7.16-1.36-2.69-.91-5.04-2.55-7.03-4.94-2-2.38-3-5.8-3-10.25,0-1.81.26-3.95.78-6.42,1.73-8.23,3.43-14.49,5.08-18.77,1.65-4.28,2.65-7.74,3-10.37-.52-.16-1.3-.58-2.34-1.23-1.04-.66-1.56-1.56-1.56-2.72s.52-1.89,1.56-2.22c1.04-.33,1.99-.49,2.87-.49h1.82c1.39-2.8,2.91-5.84,4.56-9.14,1.65-3.29,4.12-7.74,7.42-13.34,2.95-5.27,6.81-8.77,11.59-10.5,4.77-1.73,10.2-2.59,16.28-2.59s9.98,5.03,12.24,15.07c1.04,5.11,1.56,9.22,1.56,12.35,0,3.95-1.35,7.08-4.04,9.39-2.69,2.31-5.99,4.04-9.9,5.19-3.91,1.15-7.77,1.94-11.59,2.35-3.82.41-6.86.62-9.12.62s-4.21-.04-5.86-.12c-1.65-.08-2.82-.12-3.52-.12-2.61,6.26-4.69,12.27-6.25,18.03-1.56,5.77-2.34,10.62-2.34,14.57,0,6.59,2.6,9.88,7.81,9.88,3.13,0,6.38-1.32,9.77-3.95,3.39-2.63,6.64-5.68,9.77-9.14,3.13-3.46,5.82-6.5,8.07-9.14,2.26-2.63,3.73-3.95,4.43-3.95,1.21,0,1.82.66,1.82,1.98,0,2.31-1.39,5.23-4.17,8.77-2.78,3.54-6.21,7.04-10.29,10.5-4.08,3.46-8.16,6.34-12.24,8.64-4.08,2.3-7.42,3.46-10.03,3.46ZM1497.24,1046.89c6.6,0,11.59-.7,14.98-2.1,3.39-1.4,5.17-4.49,5.34-9.26,0-6.75-.91-11.52-2.73-14.33-1.82-2.8-3.52-4.2-5.08-4.2-2.08,0-4.3,1.2-6.64,3.58-2.34,2.39-4.6,5.23-6.77,8.52-2.17,3.3-4.13,6.55-5.86,9.76-1.74,3.21-2.95,5.72-3.65,7.53.87,0,2.26.08,4.17.25,1.91.17,3.99.25,6.25.25Z"/>
  </g>
</svg>