<?xml version="1.0" encoding="UTF-8"?><svg id="a" xmlns="http://www.w3.org/2000/svg" xmlns:xlink="http://www.w3.org/1999/xlink" viewBox="0 0 1452.64 546.75"><defs><clipPath id="b"><path d="M235.09,300.55c-.42,30.63-29.86,103.53-52.99,171-10.85,31.66-37.84-81.59-52.99-171-16.58-97.89,40.37-160.93,52.99-171,24.14-19.27,54.31,76.57,52.99,171Z" fill="none"/></clipPath><clipPath id="c"><path d="M185.86,19.02C135.1-44.76,29.67,65.96,5.46,202.47c-28.96,163.33,76.41,315.57,119.22,339.93,14.89,11.12,61.17,0,37.13-58.12-18.99-45.93-22.56-74.8-35.18-151.15-9.13-55.19-21.71-159.06,17.59-231.82,29.96-55.47,51.4-70.02,41.63-82.3h0Z" fill="none"/></clipPath></defs><g isolation="isolate" opacity=".45"><path d="M222.89,383.98c104.76,88.5,607.74,224.04,1006.47,84.51" fill="none" stroke="#000" stroke-miterlimit="10" stroke-width="5"/></g><g isolation="isolate" opacity=".45"><path d="M231.13,170.77c218.8-136.97,646.17-225.46,1114.95,1.65" fill="none" stroke="#000" stroke-miterlimit="10" stroke-width="5"/></g><g isolation="isolate"><g isolation="isolate"><path d="M702.93,403.76h16.88c2.13,0,4.29.23,6.48.68,2.19.45,4.15,1.23,5.88,2.32,1.73,1.09,3.15,2.57,4.24,4.44,1.09,1.87,1.64,4.21,1.64,7.04,0,2.99-.91,5.59-2.73,7.8-1.82,2.21-4.26,3.67-7.32,4.36v.16c3.67.43,6.72,1.85,9.14,4.28s3.63,5.72,3.63,9.88c0,2.35-.49,4.49-1.48,6.44-.98,1.95-2.38,3.6-4.19,4.96-1.81,1.36-4.02,2.41-6.63,3.16-2.61.75-5.54,1.12-8.78,1.12h-16.76v-56.64ZM708.69,428.56h11.6c1.39,0,2.79-.16,4.2-.48,1.41-.32,2.71-.87,3.88-1.64,1.17-.77,2.12-1.8,2.84-3.08.72-1.28,1.08-2.85,1.08-4.72s-.36-3.35-1.08-4.6c-.72-1.25-1.69-2.28-2.92-3.08-1.23-.8-2.67-1.37-4.32-1.72-1.65-.35-3.41-.52-5.28-.52h-10v19.84ZM708.69,455.44h10.72c2.08,0,4.07-.2,5.96-.6,1.89-.4,3.55-1.04,4.96-1.92,1.41-.88,2.55-2.03,3.4-3.44.85-1.41,1.28-3.11,1.28-5.08,0-3.73-1.27-6.52-3.8-8.36-2.53-1.84-6.12-2.76-10.76-2.76h-11.76v22.16Z" fill="#5a5b5d"/><path d="M789.25,460.4h-5.76v-24.4l-21.2-32.24h7.2l17.04,27.44,17.2-27.44h6.72l-21.2,32.24v24.4Z" fill="#5a5b5d"/><path d="M868.05,403.76h16c2.88,0,5.49.31,7.84.92,2.35.61,4.36,1.55,6.04,2.8,1.68,1.25,2.97,2.83,3.88,4.72.91,1.89,1.36,4.12,1.36,6.68s-.47,4.79-1.4,6.68c-.93,1.89-2.24,3.47-3.92,4.72-1.68,1.25-3.71,2.2-6.08,2.84-2.37.64-5,.96-7.88.96h-10.08v26.32h-5.76v-56.64ZM873.81,429.2h9.76c4.53,0,7.97-.88,10.32-2.64,2.35-1.76,3.52-4.32,3.52-7.68s-1.21-6.09-3.64-7.72c-2.43-1.63-5.83-2.44-10.2-2.44h-9.76v20.48Z" fill="#5a5b5d"/><path d="M925.25,460.4h-6.32l24.48-56.64h5.6l24.32,56.64h-6.4l-6.24-14.88h-29.28l-6.16,14.88ZM933.57,440.24h24.96l-12.48-30.08-12.48,30.08Z" fill="#5a5b5d"/><path d="M1043.89,451.2c-.96,1.44-2.12,2.8-3.48,4.08-1.36,1.28-2.93,2.41-4.72,3.39-1.79.97-3.76,1.75-5.92,2.32-2.16.57-4.52.85-7.08.85-4.27,0-8.21-.75-11.84-2.24-3.63-1.49-6.75-3.56-9.36-6.2-2.61-2.64-4.65-5.77-6.12-9.4-1.47-3.63-2.2-7.6-2.2-11.92s.75-8.29,2.24-11.92c1.49-3.63,3.56-6.76,6.2-9.4s5.76-4.71,9.36-6.2c3.6-1.49,7.51-2.24,11.72-2.24,2.08,0,4.12.22,6.12.65,2,.43,3.88,1.04,5.64,1.83,1.76.79,3.36,1.73,4.8,2.83,1.44,1.1,2.64,2.35,3.6,3.73l-4.8,3.52c-.59-.91-1.37-1.81-2.36-2.72-.99-.91-2.15-1.71-3.48-2.4-1.33-.69-2.79-1.25-4.36-1.68-1.57-.43-3.27-.64-5.08-.64-3.68,0-6.97.67-9.88,1.99-2.91,1.33-5.38,3.12-7.4,5.38-2.03,2.26-3.57,4.88-4.64,7.86-1.07,2.98-1.6,6.11-1.6,9.41s.55,6.43,1.64,9.41c1.09,2.98,2.65,5.59,4.68,7.85,2.03,2.26,4.49,4.05,7.4,5.38,2.91,1.33,6.17,1.99,9.8,1.99,3.25,0,6.35-.67,9.28-2,2.93-1.33,5.39-3.47,7.36-6.4l4.48,2.88Z" fill="#5a5b5d"/><path d="M1075.57,460.4h-5.76v-56.64h5.76v56.64Z" fill="#5a5b5d"/><path d="M1112.37,460.4h-5.76v-56.64h34.16v5.12h-28.4v19.6h26.4v5.12h-26.4v26.8Z" fill="#5a5b5d"/><path d="M1173.33,460.4h-5.76v-56.64h5.76v56.64Z" fill="#5a5b5d"/><path d="M1262.37,460.4h-32.4c-4.11,0-7.91-.72-11.4-2.16-3.49-1.44-6.52-3.45-9.08-6.04-2.56-2.59-4.56-5.65-6-9.2-1.44-3.55-2.16-7.43-2.16-11.64s.72-8.09,2.16-11.64c1.44-3.55,3.44-6.61,6-9.2,2.56-2.59,5.59-4.6,9.08-6.04,3.49-1.44,7.29-2.16,11.4-2.16s7.83.72,11.32,2.16,6.52,3.45,9.08,6.03c2.56,2.58,4.56,5.65,6,9.19,1.44,3.54,2.16,7.42,2.16,11.62,0,5.01-1.11,9.57-3.32,13.7s-5.53,7.47-9.96,10.02v.16h17.12v5.2ZM1207.41,431.36c0,3.19.52,6.22,1.56,9.09s2.52,5.41,4.44,7.61c1.92,2.21,4.28,3.96,7.08,5.26,2.8,1.3,5.96,1.95,9.48,1.95s6.6-.65,9.4-1.95c2.8-1.3,5.17-3.06,7.12-5.26,1.95-2.21,3.45-4.74,4.52-7.61,1.07-2.87,1.6-5.9,1.6-9.09s-.53-6.22-1.6-9.09c-1.07-2.87-2.57-5.41-4.52-7.62-1.95-2.21-4.32-3.96-7.12-5.26-2.8-1.3-5.93-1.95-9.4-1.95s-6.68.65-9.48,1.95c-2.8,1.3-5.16,3.06-7.08,5.26-1.92,2.21-3.4,4.75-4.44,7.62s-1.56,5.9-1.56,9.09Z" fill="#5a5b5d"/><path d="M1308.69,461.84c-4.27,0-7.76-.73-10.48-2.2-2.72-1.47-4.88-3.32-6.48-5.56-1.6-2.24-2.71-4.68-3.32-7.32-.61-2.64-.92-5.13-.92-7.48v-35.52h5.76v34.88c0,2.29.27,4.52.8,6.68s1.4,4.08,2.6,5.76c1.2,1.68,2.79,3.04,4.76,4.08,1.97,1.04,4.4,1.56,7.28,1.56s5.31-.52,7.28-1.56c1.97-1.04,3.56-2.4,4.76-4.08,1.2-1.68,2.07-3.6,2.6-5.76.53-2.16.8-4.39.8-6.68v-34.88h5.76v35.52c0,2.35-.31,4.84-.92,7.48-.61,2.64-1.72,5.08-3.32,7.32-1.6,2.24-3.77,4.09-6.52,5.56-2.75,1.47-6.23,2.2-10.44,2.2Z" fill="#5a5b5d"/><path d="M1366.37,455.28h30.32v5.12h-36.08v-56.64h35.12v5.12h-29.36v19.44h27.44v5.12h-27.44v21.84Z" fill="#5a5b5d"/></g></g><g isolation="isolate"><path d="M372.24,337.39s30.8-42.4,68.8-90c62.4-78.4,98-115.2,109.2-125.6,11.6-10.8,27.2-2,28.8,9.6-20.8,31.2-91.6,178.8-98.8,224.8-1.2,6.4-5.6,37.2,6.4,37.2,4,3.6-.8,10-8.8,8.8-22-3.2-30-23.6-24.4-52.4,12.8-64.4,63.6-155.6,74-179.6-10,8-52,53.6-77.6,89.6-35.2,49.2-72,95.6-74.8,103.6-6.8,8.8-33.2,12-33.6-6.4-.4-17.6,20.8-136.4,20.8-198.8-12,21.6-31.6,58.8-49.6,96.8-29.6,60.4-59.6,126-60,134.4-7.2,5.2-20.8,1.2-16.8-12.8,7.2-24.8,43.6-96.4,58.8-127.2,12.8-27.2,55.6-112.4,65.2-131.2,0-5.2,30-4,33.6,16.8s-21.2,202.4-21.2,202.4Z" fill="#e9876a"/><path d="M663.44,246.19c4.8,5.2,8.4,12,5.2,16-6,8-8.8,14-18.4,33.6-10.4,23.2-11.2,45.2,3.2,43.2,18.8-2.4,69.2-68,78.8-84,3.2-3.2,8.8-.8,9.2,3.6-8.4,16-47.2,72.4-70.4,88.4-19.6,13.6-37.2,3.2-48.4-8-7.2-7.2-5.2-30,2-44.8-11.2,16.8-40,50.4-57.6,59.2-11.2,5.2-34.4-8-36.8-22-3.2-18.4,13.2-59.2,41.6-90.8,29.6-32.8,52.8-42.4,71.2-46.4,20.8-4.4,52.4,16.8,47.2,30.4-4.8,10.4-20.4,20.8-26.8,21.6ZM660.64,243.79c1.2-7.2,16-29.2,6-34.8-11.2-6-51.6,18-72.4,46.8-34,46.8-43.6,80-34.8,81.6,14.8,2.8,74-66.4,89.2-94,2.4-4,7.2-2.8,12,.4Z" fill="#e9876a"/><path d="M776.63,225.79c-2.4,8.8-9.6,16.8-22.8,42.4-22.4,43.2-28.4,73.6-12.8,70.8,21.2-4,70.4-68.4,80.8-85.2,5.6-3.2,8.8,1.6,8.8,4.8-8.4,23.2-50.4,76.4-69.6,88-20,12-38,4.4-47.2-5.2-9.2-10-10-31.6,8-68.8,15.6-32.4,29.6-48,30.8-58.8,4.8-6.4,26.4,1.2,24,12ZM775.83,157.39c9.6-6.8,24.4-8,32.4-1.2,5.6,4.4,2,12.8-3.6,17.2-6,4.8-17.2,7.2-27.2,6-9.6-1.2-11.6-14.8-1.6-22Z" fill="#e9876a"/></g><path d="M869.7,375.97h-8.77l-2.55-64.8h8.77c3.4,13.8,7.36,24.35,11.88,31.65s10.14,12.3,16.83,15,14.85,4.05,24.47,4.05c7.17,0,13.3-1.05,18.39-3.15s9.05-5.5,11.88-10.2,4.24-10.85,4.24-18.45c0-8.8-2.31-16.1-6.93-21.9-4.62-5.8-10.52-10.95-17.68-15.45s-14.62-9.05-22.35-13.65c-7.55-4.6-14.81-9.5-21.79-14.7-6.98-5.2-12.69-11.4-17.12-18.6s-6.65-16-6.65-26.4,2.45-19.45,7.36-26.55,11.41-12.55,19.52-16.35c8.11-3.8,17.07-5.7,26.88-5.7,8.68,0,15.37.75,20.09,2.25s8.44,3.05,11.18,4.65c2.74,1.6,5.23,2.4,7.5,2.4s4.1-.65,5.52-1.95,2.5-3.55,3.25-6.75h7.36l1.98,60h-8.49c-3.96-16.6-9.24-28.9-15.84-36.9-6.6-8-17.07-11.9-31.41-11.7-9.62,0-17.07,2.35-22.35,7.05-5.28,4.7-7.92,11.75-7.92,21.15,0,7.4,1.98,13.75,5.94,19.05s9.15,10.05,15.56,14.25c6.41,4.2,13.11,8.5,20.09,12.9,6.22,3.8,12.5,7.6,18.82,11.4s12.07,8.1,17.26,12.9,9.34,10.4,12.45,16.8,4.67,14.1,4.67,23.1c0,11.6-2.5,21.4-7.5,29.4s-11.84,14.05-20.51,18.15-18.49,6.15-29.43,6.15c-9.81,0-17.78-.75-23.91-2.25s-10.94-3-14.43-4.5-6.37-2.25-8.63-2.25c-1.89,0-3.58.9-5.09,2.7-1.51,1.8-2.36,4.2-2.55,7.2h0Z" fill="#2b2b2b"/><path d="M1038.05,376.12c-11.69,0-20.8-4.05-27.3-12.15-6.51-8.1-9.76-22.35-9.76-42.75v-60.9c0-5.4-.52-9.35-1.56-11.85s-2.97-4.1-5.8-4.8c-2.83-.7-6.79-1.05-11.88-1.05v-8.4l36.5-4.5h6.22v87.6c0,10.2,1.08,18.15,3.25,23.85,2.17,5.7,5.19,9.75,9.05,12.15s8.25,3.6,13.16,3.6c7.17,0,13.35-1.7,18.53-5.1s10.61-7.7,16.27-12.9v-78.9c0-5.4-.66-9.3-1.98-11.7-1.32-2.4-3.63-3.95-6.93-4.65-3.3-.7-7.97-1.05-14.01-1.05v-8.4l39.61-4.5h6.79v110.1c0,8.8,1.13,14.3,3.4,16.5s6.79,3.3,13.58,3.3h2.83v8.1l-35.93,6.9h-6.22v-23.1h-1.41c-4.9,5.2-9.76,9.65-14.57,13.35s-9.81,6.5-15,8.4-10.8,2.85-16.83,2.85h0Z" fill="#2b2b2b"/><path d="M1139.43,375.52l-.85-51.6h7.36c3.02,15.4,7.45,26.15,13.3,32.25s13.96,9.15,24.33,9.15c7.17,0,13.02-1.55,17.54-4.65,4.53-3.1,6.79-8.15,6.79-15.15,0-4.8-.8-8.8-2.41-12-1.6-3.2-4.67-6.45-9.2-9.75s-11.22-7.25-20.09-11.85c-8.68-4.6-15.75-9.05-21.22-13.35-5.47-4.3-9.53-9.05-12.17-14.25s-3.96-11.5-3.96-18.9c0-12.4,4.2-21.8,12.59-28.2,8.39-6.4,18.63-9.6,30.7-9.6,7.17,0,13.02.85,17.54,2.55,4.53,1.7,8.58,3.45,12.17,5.25h.28l4.81-6.3h5.66l.85,45.9h-7.64c-3.02-14.2-7.26-23.95-12.73-29.25s-12.54-7.95-21.22-7.95c-6.41,0-11.84,1.6-16.27,4.8s-6.65,8.2-6.65,15c0,5.8,2.55,11,7.64,15.6s13.58,10.1,25.46,16.5c8.68,4.8,15.94,9.45,21.79,13.95s10.28,9.4,13.3,14.7c3.02,5.3,4.53,11.65,4.53,19.05,0,9.4-2.17,16.95-6.51,22.65-4.34,5.7-10.14,9.85-17.4,12.45s-15.14,3.9-23.63,3.9-14.57-.9-19.38-2.7c-4.81-1.8-9.1-3.5-12.87-5.1h-.57l-5.94,6.9h-5.94,0Z" fill="#2b2b2b"/><path d="M1298.16,374.32h-64.23v-8.7c7.36,0,12.5-1.1,15.42-3.3,2.92-2.2,4.39-7.5,4.39-15.9v-153.6c0-5.2-1.37-8.5-4.1-9.9s-5.99-2.1-9.76-2.1c-2.26,0-5,.2-8.21.6v-8.4l37.91-10.5h7.64v182.7c0,5.2.38,9.3,1.13,12.3.75,3,2.64,5.1,5.66,6.3,3.02,1.2,7.73,1.8,14.15,1.8v8.7h0ZM1382.76,374.32h-65.08v-8.7c6.6,0,11.32-.7,14.15-2.1s4.62-3.6,5.38-6.6c.75-3,1.13-6.9,1.13-11.7v-51.9c0-8.2-.57-15.75-1.7-22.65-1.13-6.9-3.54-12.4-7.22-16.5s-9.38-6.15-17.12-6.15c-5.85,0-11.79,1.65-17.83,4.95-6.04,3.3-12.92,8.95-20.65,16.95l.28-16.5h3.96c8.87-8.8,16.83-15.1,23.91-18.9,7.07-3.8,14.38-5.7,21.93-5.7,8.11,0,14.67,1.7,19.66,5.1,5,3.4,8.82,7.85,11.46,13.35s4.43,11.5,5.38,18,1.41,12.85,1.41,19.05v59.7c0,8,1.27,13.6,3.82,16.8,2.55,3.2,8.25,4.8,17.12,4.8v8.7h0Z" fill="#2b2b2b"/><path d="M1452.63,374.32h-63.66v-8.4c6.41,0,10.99-.65,13.72-1.95,2.74-1.3,4.43-3.55,5.09-6.75.66-3.2.99-7.6.99-13.2v-83.7c0-6.4-1.04-10.35-3.11-11.85-2.07-1.5-5.19-2.25-9.34-2.25-1.89,0-4.24.2-7.07.6v-8.7l35.65-8.4h7.36v114.3c0,5.8.38,10.3,1.13,13.5.75,3.2,2.59,5.4,5.52,6.6s7.5,1.8,13.72,1.8v8.4h0ZM1420.95,206.32c-4.72,0-8.58-1.7-11.6-5.1-3.02-3.4-4.53-7.4-4.53-12s1.46-8.55,4.39-11.85,6.84-4.95,11.74-4.95,8.82,1.65,11.74,4.95,4.39,7.25,4.39,11.85-1.46,8.6-4.39,12-6.84,5.1-11.74,5.1h0Z" fill="#2b2b2b"/><g opacity=".7"><g clip-path="url(#b)"><polygon points="208.78 110.28 236.41 145.4 236.41 240.26 112.53 337.71 112.53 110.28 208.78 110.28" fill="#e8a670"/><polygon points="236.41 241.36 112.53 338.82 112.53 337.71 236.41 240.26 236.41 241.36" fill="#e8a670"/><polygon points="236.41 242.47 112.53 339.92 112.53 338.82 236.41 241.36 236.41 242.47" fill="#e8a771"/><polygon points="236.41 243.57 112.53 341.02 112.53 339.92 236.41 242.47 236.41 243.57" fill="#e8a872"/><polygon points="236.41 244.67 112.53 342.12 112.53 341.02 236.41 243.57 236.41 244.67" fill="#e9a973"/><polygon points="236.41 245.77 112.53 343.23 112.53 342.12 236.41 244.67 236.41 245.77" fill="#e9aa74"/><polygon points="236.41 246.88 112.53 344.33 112.53 343.23 236.41 245.77 236.41 246.88" fill="#e9ab75"/><polygon points="236.41 247.98 112.53 345.43 112.53 344.33 236.41 246.88 236.41 247.98" fill="#e9ac76"/><polygon points="236.41 249.08 112.53 346.54 112.53 345.43 236.41 247.98 236.41 249.08" fill="#e9ad77"/><polygon points="236.41 250.19 112.53 347.64 112.53 346.54 236.41 249.08 236.41 250.19" fill="#eaae78"/><polygon points="236.41 251.29 112.53 348.74 112.53 347.64 236.41 250.19 236.41 251.29" fill="#eaaf79"/><polygon points="236.41 252.39 112.53 349.85 112.53 348.74 236.41 251.29 236.41 252.39" fill="#eab07a"/><polygon points="236.41 253.5 112.53 350.95 112.53 349.85 236.41 252.39 236.41 253.5" fill="#eab17b"/><polygon points="236.41 254.6 112.53 352.05 112.53 350.95 236.41 253.5 236.41 254.6" fill="#eab27c"/><polygon points="236.41 255.7 112.53 353.16 112.53 352.05 236.41 254.6 236.41 255.7" fill="#ebb47d"/><polygon points="236.41 256.8 112.53 354.26 112.53 353.16 236.41 255.7 236.41 256.8" fill="#ebb57d"/><polygon points="236.41 257.91 112.53 355.36 112.53 354.26 236.41 256.8 236.41 257.91" fill="#ebb67e"/><polygon points="236.41 259.01 112.53 356.46 112.53 355.36 236.41 257.91 236.41 259.01" fill="#ebb77f"/><polygon points="236.41 260.11 112.53 357.57 112.53 356.46 236.41 259.01 236.41 260.11" fill="#ebb880"/><polygon points="236.41 261.22 112.53 358.67 112.53 357.57 236.41 260.11 236.41 261.22" fill="#ebb981"/><polygon points="236.41 262.32 112.53 359.77 112.53 358.67 236.41 261.22 236.41 262.32" fill="#ecba82"/><polygon points="236.41 263.42 112.53 360.88 112.53 359.77 236.41 262.32 236.41 263.42" fill="#ecbb83"/><polygon points="236.41 264.53 112.53 361.98 112.53 360.88 236.41 263.42 236.41 264.53" fill="#ecbc84"/><polygon points="236.41 265.63 112.53 363.08 112.53 361.98 236.41 264.53 236.41 265.63" fill="#ecbd85"/><polygon points="236.41 266.73 112.53 364.19 112.53 363.08 236.41 265.63 236.41 266.73" fill="#ecbe86"/><polygon points="236.41 267.84 112.53 365.29 112.53 364.19 236.41 266.73 236.41 267.84" fill="#edbf87"/><polygon points="236.41 268.94 112.53 366.39 112.53 365.29 236.41 267.84 236.41 268.94" fill="#edc088"/><polygon points="236.41 270.04 112.53 367.49 112.53 366.39 236.41 268.94 236.41 270.04" fill="#edc189"/><polygon points="236.41 271.21 112.53 368.67 112.53 367.49 236.41 270.04 236.41 271.21" fill="#edc189"/><polygon points="236.41 272.39 112.53 369.84 112.53 368.67 236.41 271.21 236.41 272.39" fill="#edc088"/><polygon points="236.41 273.56 112.53 371.01 112.53 369.84 236.41 272.39 236.41 273.56" fill="#edbf87"/><polygon points="236.41 274.73 112.53 372.18 112.53 371.01 236.41 273.56 236.41 274.73" fill="#ecbe86"/><polygon points="236.41 275.9 112.53 373.35 112.53 372.18 236.41 274.73 236.41 275.9" fill="#ecbd85"/><polygon points="236.41 277.07 112.53 374.53 112.53 373.35 236.41 275.9 236.41 277.07" fill="#ecbc84"/><polygon points="236.41 278.25 112.53 375.7 112.53 374.53 236.41 277.07 236.41 278.25" fill="#ecbb83"/><polygon points="236.41 279.42 112.53 376.87 112.53 375.7 236.41 278.25 236.41 279.42" fill="#ecba82"/><polygon points="236.41 280.59 112.53 378.04 112.53 376.87 236.41 279.42 236.41 280.59" fill="#ebb981"/><polygon points="236.41 281.76 112.53 379.21 112.53 378.04 236.41 280.59 236.41 281.76" fill="#ebb880"/><polygon points="236.41 282.93 112.53 380.39 112.53 379.21 236.41 281.76 236.41 282.93" fill="#ebb77f"/><polygon points="236.41 284.11 112.53 381.56 112.53 380.39 236.41 282.93 236.41 284.11" fill="#ebb67e"/><polygon points="236.41 285.28 112.53 382.73 112.53 381.56 236.41 284.11 236.41 285.28" fill="#ebb57d"/><polygon points="236.41 286.45 112.53 383.9 112.53 382.73 236.41 285.28 236.41 286.45" fill="#ebb47d"/><polygon points="236.41 287.62 112.53 385.07 112.53 383.9 236.41 286.45 236.41 287.62" fill="#eab27c"/><polygon points="236.41 288.79 112.53 386.25 112.53 385.07 236.41 287.62 236.41 288.79" fill="#eab17b"/><polygon points="236.41 289.97 112.53 387.42 112.53 386.25 236.41 288.79 236.41 289.97" fill="#eab07a"/><polygon points="236.41 291.14 112.53 388.59 112.53 387.42 236.41 289.97 236.41 291.14" fill="#eaaf79"/><polygon points="236.41 292.31 112.53 389.76 112.53 388.59 236.41 291.14 236.41 292.31" fill="#eaae78"/><polygon points="236.41 293.48 112.53 390.93 112.53 389.76 236.41 292.31 236.41 293.48" fill="#e9ad77"/><polygon points="236.41 294.65 112.53 392.11 112.53 390.93 236.41 293.48 236.41 294.65" fill="#e9ac76"/><polygon points="236.41 295.83 112.53 393.28 112.53 392.11 236.41 294.65 236.41 295.83" fill="#e9ab75"/><polygon points="236.41 297 112.53 394.45 112.53 393.28 236.41 295.83 236.41 297" fill="#e9aa74"/><polygon points="236.41 298.17 112.53 395.62 112.53 394.45 236.41 297 236.41 298.17" fill="#e9a973"/><polygon points="236.41 299.34 112.53 396.79 112.53 395.62 236.41 298.17 236.41 299.34" fill="#e8a872"/><polygon points="236.41 300.51 112.53 397.97 112.53 396.79 236.41 299.34 236.41 300.51" fill="#e8a771"/><polygon points="236.41 301.69 112.53 399.14 112.53 397.97 236.41 300.51 236.41 301.69" fill="#e8a670"/><polygon points="236.41 302.27 112.53 399.73 112.53 399.14 236.41 301.69 236.41 302.27" fill="#e8a670"/><polygon points="236.41 302.86 112.53 400.31 112.53 399.73 236.41 302.27 236.41 302.86" fill="#e8a771"/><polygon points="236.41 303.45 112.53 400.9 112.53 400.31 236.41 302.86 236.41 303.45" fill="#e8a872"/><polygon points="236.41 304.03 112.53 401.49 112.53 400.9 236.41 303.45 236.41 304.03" fill="#e8a873"/><polygon points="236.41 304.62 112.53 402.07 112.53 401.49 236.41 304.03 236.41 304.62" fill="#e9a974"/><polygon points="236.41 305.21 112.53 402.66 112.53 402.07 236.41 304.62 236.41 305.21" fill="#e9aa75"/><polygon points="236.41 305.8 112.53 403.25 112.53 402.66 236.41 305.21 236.41 305.8" fill="#e9ab76"/><polygon points="236.41 306.38 112.53 403.84 112.53 403.25 236.41 305.8 236.41 306.38" fill="#e9ab77"/><polygon points="236.41 306.97 112.53 404.42 112.53 403.84 236.41 306.38 236.41 306.97" fill="#e9ac78"/><polygon points="236.41 307.56 112.53 405.01 112.53 404.42 236.41 306.97 236.41 307.56" fill="#e9ad79"/><polygon points="236.41 308.15 112.53 405.6 112.53 405.01 236.41 307.56 236.41 308.15" fill="#e9ae7a"/><polygon points="236.41 308.73 112.53 406.19 112.53 405.6 236.41 308.15 236.41 308.73" fill="#eaaf7b"/><polygon points="236.41 309.32 112.53 406.77 112.53 406.19 236.41 308.73 236.41 309.32" fill="#eaaf7c"/><polygon points="236.41 309.91 112.53 407.36 112.53 406.77 236.41 309.32 236.41 309.91" fill="#eab07d"/><polygon points="236.41 310.49 112.53 407.95 112.53 407.36 236.41 309.91 236.41 310.49" fill="#eab17e"/><polygon points="236.41 311.08 112.53 408.54 112.53 407.95 236.41 310.49 236.41 311.08" fill="#eab27f"/><polygon points="236.41 311.67 112.53 409.12 112.53 408.54 236.41 311.08 236.41 311.67" fill="#eab280"/><polygon points="236.41 312.26 112.53 409.71 112.53 409.12 236.41 311.67 236.41 312.26" fill="#eab381"/><polygon points="236.41 312.84 112.53 410.3 112.53 409.71 236.41 312.26 236.41 312.84" fill="#eab482"/><polygon points="236.41 313.43 112.53 410.88 112.53 410.3 236.41 312.84 236.41 313.43" fill="#ebb583"/><polygon points="236.41 314.02 112.53 411.47 112.53 410.88 236.41 313.43 236.41 314.02" fill="#ebb684"/><polygon points="236.41 314.61 112.53 412.06 112.53 411.47 236.41 314.02 236.41 314.61" fill="#ebb685"/><polygon points="236.41 315.19 112.53 412.65 112.53 412.06 236.41 314.61 236.41 315.19" fill="#ebb786"/><polygon points="236.41 315.78 112.53 413.23 112.53 412.65 236.41 315.19 236.41 315.78" fill="#ebb887"/><polygon points="236.41 316.37 112.53 413.82 112.53 413.23 236.41 315.78 236.41 316.37" fill="#ebb988"/><polygon points="236.41 316.96 112.53 414.41 112.53 413.82 236.41 316.37 236.41 316.96" fill="#ebb989"/><polygon points="236.41 317.54 112.53 415 112.53 414.41 236.41 316.96 236.41 317.54" fill="#ecba8a"/><polygon points="236.41 318.13 112.53 415.58 112.53 415 236.41 317.54 236.41 318.13" fill="#ecbb8b"/><polygon points="236.41 318.72 112.53 416.17 112.53 415.58 236.41 318.13 236.41 318.72" fill="#ecbc8c"/><polygon points="236.41 319.3 112.53 416.76 112.53 416.17 236.41 318.72 236.41 319.3" fill="#ecbd8e"/><polygon points="236.41 319.89 112.53 417.34 112.53 416.76 236.41 319.3 236.41 319.89" fill="#ecbd8f"/><polygon points="236.41 320.48 112.53 417.93 112.53 417.34 236.41 319.89 236.41 320.48" fill="#ecbe90"/><polygon points="236.41 321.07 112.53 418.52 112.53 417.93 236.41 320.48 236.41 321.07" fill="#ecbf91"/><polygon points="236.41 321.65 112.53 419.11 112.53 418.52 236.41 321.07 236.41 321.65" fill="#edc092"/><polygon points="236.41 322.24 112.53 419.69 112.53 419.11 236.41 321.65 236.41 322.24" fill="#edc093"/><polygon points="236.41 322.83 112.53 420.28 112.53 419.69 236.41 322.24 236.41 322.83" fill="#edc194"/><polygon points="236.41 323.42 112.53 420.87 112.53 420.28 236.41 322.83 236.41 323.42" fill="#edc295"/><polygon points="236.41 324 112.53 421.46 112.53 420.87 236.41 323.42 236.41 324" fill="#edc396"/><polygon points="236.41 324.59 112.53 422.04 112.53 421.46 236.41 324 236.41 324.59" fill="#edc397"/><polygon points="236.41 325.18 112.53 422.63 112.53 422.04 236.41 324.59 236.41 325.18" fill="#edc498"/><polygon points="236.41 325.76 112.53 423.22 112.53 422.63 236.41 325.18 236.41 325.76" fill="#eec599"/><polygon points="236.41 326.35 112.53 423.81 112.53 423.22 236.41 325.76 236.41 326.35" fill="#eec69a"/><polygon points="236.41 326.94 112.53 424.39 112.53 423.81 236.41 326.35 236.41 326.94" fill="#eec79b"/><polygon points="236.41 327.53 112.53 424.98 112.53 424.39 236.41 326.94 236.41 327.53" fill="#eec79c"/><polygon points="236.41 328.11 112.53 425.57 112.53 424.98 236.41 327.53 236.41 328.11" fill="#eec89d"/><polygon points="236.41 328.7 112.53 426.15 112.53 425.57 236.41 328.11 236.41 328.7" fill="#eec99e"/><polygon points="236.41 329.29 112.53 426.74 112.53 426.15 236.41 328.7 236.41 329.29" fill="#eeca9f"/><polygon points="236.41 329.88 112.53 427.33 112.53 426.74 236.41 329.29 236.41 329.88" fill="#eecaa0"/><polygon points="236.41 330.46 112.53 427.92 112.53 427.33 236.41 329.88 236.41 330.46" fill="#efcba1"/><polygon points="236.41 331.05 112.53 428.5 112.53 427.92 236.41 330.46 236.41 331.05" fill="#efcca2"/><polygon points="236.41 331.64 112.53 429.09 112.53 428.5 236.41 331.05 236.41 331.64" fill="#efcda3"/><polygon points="236.41 332.22 112.53 429.68 112.53 429.09 236.41 331.64 236.41 332.22" fill="#efcea4"/><polygon points="236.41 332.81 112.53 430.27 112.53 429.68 236.41 332.22 236.41 332.81" fill="#efcea5"/><polygon points="236.41 333.4 112.53 430.85 112.53 430.27 236.41 332.81 236.41 333.4" fill="#efcfa6"/><polygon points="236.41 333.99 112.53 431.44 112.53 430.85 236.41 333.4 236.41 333.99" fill="#efd0a7"/><polygon points="236.41 334.57 112.64 431.95 112.53 431.81 112.53 431.44 236.41 333.99 236.41 334.57" fill="#f0d1a8"/><polygon points="236.41 335.16 112.92 432.31 112.64 431.95 236.41 334.57 236.41 335.16" fill="#f0d1a9"/><polygon points="236.41 335.75 113.21 432.67 112.92 432.31 236.41 335.16 236.41 335.75" fill="#f0d2aa"/><polygon points="236.41 336.34 113.49 433.03 113.21 432.67 236.41 335.75 236.41 336.34" fill="#f0d3ab"/><polygon points="236.41 336.82 113.73 433.33 113.49 433.03 236.41 336.34 236.41 336.82" fill="#f0d3ab"/><polygon points="236.41 337.31 113.96 433.63 113.73 433.33 236.41 336.82 236.41 337.31" fill="#f0d2aa"/><polygon points="236.41 337.79 114.2 433.93 113.96 433.63 236.41 337.31 236.41 337.79" fill="#f0d1a9"/><polygon points="236.41 338.28 114.44 434.23 114.2 433.93 236.41 337.79 236.41 338.28" fill="#f0d1a8"/><polygon points="236.41 338.76 114.67 434.53 114.44 434.23 236.41 338.28 236.41 338.76" fill="#efd0a7"/><polygon points="236.41 339.25 114.91 434.83 114.67 434.53 236.41 338.76 236.41 339.25" fill="#efcfa6"/><polygon points="236.41 339.73 115.14 435.13 114.91 434.83 236.41 339.25 236.41 339.73" fill="#efcea5"/><polygon points="236.41 340.22 115.38 435.43 115.14 435.13 236.41 339.73 236.41 340.22" fill="#efcea4"/><polygon points="236.41 340.7 115.62 435.73 115.38 435.43 236.41 340.22 236.41 340.7" fill="#efcda3"/><polygon points="236.41 341.19 115.85 436.03 115.62 435.73 236.41 340.7 236.41 341.19" fill="#efcca2"/><polygon points="236.41 341.68 116.09 436.33 115.85 436.03 236.41 341.19 236.41 341.68" fill="#efcba1"/><polygon points="236.41 342.16 116.32 436.63 116.09 436.33 236.41 341.68 236.41 342.16" fill="#eecaa0"/><polygon points="236.41 342.65 116.56 436.93 116.32 436.63 236.41 342.16 236.41 342.65" fill="#eeca9f"/><polygon points="236.41 343.13 116.79 437.23 116.56 436.93 236.41 342.65 236.41 343.13" fill="#eec99e"/><polygon points="236.41 343.62 117.03 437.53 116.79 437.23 236.41 343.13 236.41 343.62" fill="#eec89d"/><polygon points="236.41 344.1 117.27 437.83 117.03 437.53 236.41 343.62 236.41 344.1" fill="#eec79c"/><polygon points="236.41 344.59 117.5 438.13 117.27 437.83 236.41 344.1 236.41 344.59" fill="#eec79b"/><polygon points="236.41 345.07 117.74 438.43 117.5 438.13 236.41 344.59 236.41 345.07" fill="#eec69a"/><polygon points="236.41 345.56 117.97 438.73 117.74 438.43 236.41 345.07 236.41 345.56" fill="#eec599"/><polygon points="236.41 346.04 118.21 439.03 117.97 438.73 236.41 345.56 236.41 346.04" fill="#edc498"/><polygon points="236.41 346.53 118.45 439.33 118.21 439.03 236.41 346.04 236.41 346.53" fill="#edc397"/><polygon points="236.41 347.01 118.68 439.63 118.45 439.33 236.41 346.53 236.41 347.01" fill="#edc396"/><polygon points="236.41 347.5 118.92 439.93 118.68 439.63 236.41 347.01 236.41 347.5" fill="#edc295"/><polygon points="236.41 347.98 119.15 440.23 118.92 439.93 236.41 347.5 236.41 347.98" fill="#edc194"/><polygon points="236.41 348.47 119.39 440.53 119.15 440.23 236.41 347.98 236.41 348.47" fill="#edc093"/><polygon points="236.41 348.96 119.63 440.83 119.39 440.53 236.41 348.47 236.41 348.96" fill="#edc092"/><polygon points="236.41 349.44 119.86 441.13 119.63 440.83 236.41 348.96 236.41 349.44" fill="#ecbf91"/><polygon points="236.41 349.93 120.1 441.43 119.86 441.13 236.41 349.44 236.41 349.93" fill="#ecbe90"/><polygon points="236.41 350.41 120.33 441.73 120.1 441.43 236.41 349.93 236.41 350.41" fill="#ecbd8f"/><polygon points="236.41 350.9 120.57 442.03 120.33 441.73 236.41 350.41 236.41 350.9" fill="#ecbd8e"/><polygon points="236.41 351.38 120.8 442.33 120.57 442.03 236.41 350.9 236.41 351.38" fill="#ecbc8c"/><polygon points="236.41 351.87 121.04 442.63 120.8 442.33 236.41 351.38 236.41 351.87" fill="#ecbb8b"/><polygon points="236.41 352.35 121.28 442.93 121.04 442.63 236.41 351.87 236.41 352.35" fill="#ecba8a"/><polygon points="236.41 352.84 121.51 443.23 121.28 442.93 236.41 352.35 236.41 352.84" fill="#ebb989"/><polygon points="236.41 353.32 121.75 443.53 121.51 443.23 236.41 352.84 236.41 353.32" fill="#ebb988"/><polygon points="236.41 353.81 121.98 443.83 121.75 443.53 236.41 353.32 236.41 353.81" fill="#ebb887"/><polygon points="236.41 354.29 122.22 444.13 121.98 443.83 236.41 353.81 236.41 354.29" fill="#ebb786"/><polygon points="236.41 354.78 122.46 444.43 122.22 444.13 236.41 354.29 236.41 354.78" fill="#ebb685"/><polygon points="236.41 355.27 122.69 444.73 122.46 444.43 236.41 354.78 236.41 355.27" fill="#ebb684"/><polygon points="236.41 355.75 122.93 445.03 122.69 444.73 236.41 355.27 236.41 355.75" fill="#ebb583"/><polygon points="236.41 356.24 123.16 445.33 122.93 445.03 236.41 355.75 236.41 356.24" fill="#eab482"/><polygon points="236.41 356.72 123.4 445.63 123.16 445.33 236.41 356.24 236.41 356.72" fill="#eab381"/><polygon points="236.41 357.21 123.63 445.93 123.4 445.63 236.41 356.72 236.41 357.21" fill="#eab280"/><polygon points="236.41 357.69 123.87 446.23 123.63 445.93 236.41 357.21 236.41 357.69" fill="#eab27f"/><polygon points="236.41 358.18 124.11 446.53 123.87 446.23 236.41 357.69 236.41 358.18" fill="#eab17e"/><polygon points="236.41 358.66 124.34 446.83 124.11 446.53 236.41 358.18 236.41 358.66" fill="#eab07d"/><polygon points="236.41 359.15 124.58 447.13 124.34 446.83 236.41 358.66 236.41 359.15" fill="#eaaf7c"/><polygon points="236.41 359.63 124.81 447.43 124.58 447.13 236.41 359.15 236.41 359.63" fill="#eaaf7b"/><polygon points="236.41 360.12 125.05 447.73 124.81 447.43 236.41 359.63 236.41 360.12" fill="#e9ae7a"/><polygon points="236.41 360.6 125.29 448.02 125.05 447.73 236.41 360.12 236.41 360.6" fill="#e9ad79"/><polygon points="236.41 361.09 125.52 448.32 125.29 448.02 236.41 360.6 236.41 361.09" fill="#e9ac78"/><polygon points="236.41 361.58 125.76 448.62 125.52 448.32 236.41 361.09 236.41 361.58" fill="#e9ab77"/><polygon points="236.41 362.06 125.99 448.92 125.76 448.62 236.41 361.58 236.41 362.06" fill="#e9ab76"/><polygon points="236.41 362.55 126.23 449.22 125.99 448.92 236.41 362.06 236.41 362.55" fill="#e9aa75"/><polygon points="236.41 363.03 126.47 449.52 126.23 449.22 236.41 362.55 236.41 363.03" fill="#e9a974"/><polygon points="236.41 363.52 126.7 449.82 126.47 449.52 236.41 363.03 236.41 363.52" fill="#e8a873"/><polygon points="236.41 364 126.94 450.12 126.7 449.82 236.41 363.52 236.41 364" fill="#e8a872"/><polygon points="236.41 364.49 127.17 450.42 126.94 450.12 236.41 364 236.41 364.49" fill="#e8a771"/><polygon points="236.41 364.97 127.41 450.72 127.17 450.42 236.41 364.49 236.41 364.97" fill="#e8a670"/><polygon points="236.41 365.37 127.6 450.97 127.41 450.72 236.41 364.97 236.41 365.37" fill="#e8a670"/><polygon points="236.41 365.76 127.79 451.21 127.6 450.97 236.41 365.37 236.41 365.76" fill="#e8a771"/><polygon points="236.41 366.16 127.99 451.46 127.79 451.21 236.41 365.76 236.41 366.16" fill="#e8a872"/><polygon points="236.41 366.56 128.18 451.7 127.99 451.46 236.41 366.16 236.41 366.56" fill="#e8a873"/><polygon points="236.41 366.95 128.37 451.95 128.18 451.7 236.41 366.56 236.41 366.95" fill="#e8a974"/><polygon points="236.41 367.35 128.56 452.19 128.37 451.95 236.41 366.95 236.41 367.35" fill="#e8aa75"/><polygon points="236.41 367.75 128.76 452.44 128.56 452.19 236.41 367.35 236.41 367.75" fill="#e7ab76"/><polygon points="236.41 368.14 128.95 452.68 128.76 452.44 236.41 367.75 236.41 368.14" fill="#e7ac77"/><polygon points="236.41 368.54 129.14 452.92 128.95 452.68 236.41 368.14 236.41 368.54" fill="#e7ac78"/><polygon points="236.41 368.93 129.33 453.17 129.14 452.92 236.41 368.54 236.41 368.93" fill="#e7ad79"/><polygon points="236.41 369.33 129.53 453.41 129.33 453.17 236.41 368.93 236.41 369.33" fill="#e7ae7a"/><polygon points="236.41 369.73 129.72 453.66 129.53 453.41 236.41 369.33 236.41 369.73" fill="#e7af7b"/><polygon points="236.41 370.12 129.91 453.9 129.72 453.66 236.41 369.73 236.41 370.12" fill="#e7b07c"/><polygon points="236.41 370.52 130.1 454.15 129.91 453.9 236.41 370.12 236.41 370.52" fill="#e7b07d"/><polygon points="236.41 370.91 130.3 454.39 130.1 454.15 236.41 370.52 236.41 370.91" fill="#e7b17e"/><polygon points="236.41 371.31 130.49 454.64 130.3 454.39 236.41 370.91 236.41 371.31" fill="#e7b27f"/><polygon points="236.41 371.71 130.68 454.88 130.49 454.64 236.41 371.31 236.41 371.71" fill="#e7b380"/><polygon points="236.41 372.1 130.87 455.13 130.68 454.88 236.41 371.71 236.41 372.1" fill="#e7b481"/><polygon points="236.41 372.5 131.07 455.37 130.87 455.13 236.41 372.1 236.41 372.5" fill="#e6b482"/><polygon points="236.41 372.89 131.26 455.62 131.07 455.37 236.41 372.5 236.41 372.89" fill="#e6b583"/><polygon points="236.41 373.29 131.45 455.86 131.26 455.62 236.41 372.89 236.41 373.29" fill="#e6b684"/><polygon points="236.41 373.69 131.64 456.11 131.45 455.86 236.41 373.29 236.41 373.69" fill="#e6b785"/><polygon points="236.41 374.08 131.84 456.35 131.64 456.11 236.41 373.69 236.41 374.08" fill="#e6b886"/><polygon points="236.41 374.48 132.03 456.59 131.84 456.35 236.41 374.08 236.41 374.48" fill="#e6b988"/><polygon points="236.41 374.87 132.22 456.84 132.03 456.59 236.41 374.48 236.41 374.87" fill="#e6b989"/><polygon points="236.41 375.27 132.41 457.08 132.22 456.84 236.41 374.87 236.41 375.27" fill="#e6ba8a"/><polygon points="236.41 375.67 132.6 457.33 132.41 457.08 236.41 375.27 236.41 375.67" fill="#e6bb8b"/><polygon points="236.41 376.06 132.8 457.57 132.6 457.33 236.41 375.67 236.41 376.06" fill="#e6bc8c"/><polygon points="236.41 376.46 132.99 457.82 132.8 457.57 236.41 376.06 236.41 376.46" fill="#e6bd8d"/><polygon points="236.41 376.85 133.18 458.06 132.99 457.82 236.41 376.46 236.41 376.85" fill="#e5bd8e"/><polygon points="236.41 377.25 133.37 458.31 133.18 458.06 236.41 376.85 236.41 377.25" fill="#e5be8f"/><polygon points="236.41 377.65 133.57 458.55 133.37 458.31 236.41 377.25 236.41 377.65" fill="#e5bf90"/><polygon points="236.41 378.04 133.76 458.8 133.57 458.55 236.41 377.65 236.41 378.04" fill="#e5c091"/><polygon points="236.41 378.44 133.95 459.04 133.76 458.8 236.41 378.04 236.41 378.44" fill="#e5c192"/><polygon points="236.41 378.83 134.14 459.29 133.95 459.04 236.41 378.44 236.41 378.83" fill="#e5c193"/><polygon points="236.41 379.23 134.34 459.53 134.14 459.29 236.41 378.83 236.41 379.23" fill="#e5c294"/><polygon points="236.41 379.63 134.53 459.77 134.34 459.53 236.41 379.23 236.41 379.63" fill="#e5c395"/><polygon points="236.41 380.02 134.72 460.02 134.53 459.77 236.41 379.63 236.41 380.02" fill="#e5c496"/><polygon points="236.41 380.42 134.91 460.26 134.72 460.02 236.41 380.02 236.41 380.42" fill="#e5c597"/><polygon points="236.41 380.81 135.11 460.51 134.91 460.26 236.41 380.42 236.41 380.81" fill="#e5c598"/><polygon points="236.41 381.21 135.3 460.75 135.11 460.51 236.41 380.81 236.41 381.21" fill="#e5c699"/><polygon points="236.41 381.61 135.49 461 135.3 460.75 236.41 381.21 236.41 381.61" fill="#e4c79a"/><polygon points="236.41 382 135.68 461.24 135.49 461 236.41 381.61 236.41 382" fill="#e4c89b"/><polygon points="236.41 382.4 135.88 461.49 135.68 461.24 236.41 382 236.41 382.4" fill="#e4c99c"/><polygon points="236.41 382.79 136.07 461.73 135.88 461.49 236.41 382.4 236.41 382.79" fill="#e4c99d"/><polygon points="236.41 383.19 136.26 461.98 136.07 461.73 236.41 382.79 236.41 383.19" fill="#e4ca9e"/><polygon points="236.41 383.59 136.45 462.22 136.26 461.98 236.41 383.19 236.41 383.59" fill="#e4cb9f"/><polygon points="236.41 384.38 136.84 462.71 136.45 462.22 236.41 383.59 236.41 384.38" fill="#e4cb9f"/><polygon points="236.41 385.17 137.22 463.2 136.84 462.71 236.41 384.38 236.41 385.17" fill="#e4ca9e"/><polygon points="236.41 385.96 137.61 463.69 137.22 463.2 236.41 385.17 236.41 385.96" fill="#e4c99d"/><polygon points="236.41 386.76 137.99 464.18 137.61 463.69 236.41 385.96 236.41 386.76" fill="#e4c99c"/><polygon points="236.41 387.55 138.38 464.67 137.99 464.18 236.41 386.76 236.41 387.55" fill="#e4c89b"/><polygon points="236.41 388.34 138.76 465.16 138.38 464.67 236.41 387.55 236.41 388.34" fill="#e4c79a"/><polygon points="236.41 389.13 139.15 465.65 138.76 465.16 236.41 388.34 236.41 389.13" fill="#e5c699"/><polygon points="236.41 389.92 139.53 466.14 139.15 465.65 236.41 389.13 236.41 389.92" fill="#e5c598"/><polygon points="236.41 390.72 139.92 466.62 139.53 466.14 236.41 389.92 236.41 390.72" fill="#e5c597"/><polygon points="236.41 391.51 140.3 467.11 139.92 466.62 236.41 390.72 236.41 391.51" fill="#e5c496"/><polygon points="236.41 392.3 140.69 467.6 140.3 467.11 236.41 391.51 236.41 392.3" fill="#e5c395"/><polygon points="236.41 393.09 141.07 468.09 140.69 467.6 236.41 392.3 236.41 393.09" fill="#e5c294"/><polygon points="236.41 393.88 141.46 468.58 141.07 468.09 236.41 393.09 236.41 393.88" fill="#e5c193"/><polygon points="236.41 394.68 141.84 469.07 141.46 468.58 236.41 393.88 236.41 394.68" fill="#e5c192"/><polygon points="236.41 395.47 142.23 469.56 141.84 469.07 236.41 394.68 236.41 395.47" fill="#e5c091"/><polygon points="236.41 396.26 142.61 470.05 142.23 469.56 236.41 395.47 236.41 396.26" fill="#e5bf90"/><polygon points="236.41 397.05 143 470.54 142.61 470.05 236.41 396.26 236.41 397.05" fill="#e5be8f"/><polygon points="236.41 397.84 143.38 471.03 143 470.54 236.41 397.05 236.41 397.84" fill="#e5bd8e"/><polygon points="236.41 398.64 143.77 471.52 143.38 471.03 236.41 397.84 236.41 398.64" fill="#e6bd8d"/><polygon points="236.41 399.43 144.15 472.01 143.77 471.52 236.41 398.64 236.41 399.43" fill="#e6bc8c"/><polygon points="236.41 400.22 144.54 472.5 144.15 472.01 236.41 399.43 236.41 400.22" fill="#e6bb8b"/><polygon points="236.41 401.01 144.92 472.98 144.54 472.5 236.41 400.22 236.41 401.01" fill="#e6ba8a"/><polygon points="236.41 401.8 145.31 473.47 144.92 472.98 236.41 401.01 236.41 401.8" fill="#e6b989"/><polygon points="236.41 402.6 145.69 473.96 145.31 473.47 236.41 401.8 236.41 402.6" fill="#e6b988"/><polygon points="236.41 403.39 146.08 474.45 145.69 473.96 236.41 402.6 236.41 403.39" fill="#e6b886"/><polygon points="236.41 404.18 146.46 474.94 146.08 474.45 236.41 403.39 236.41 404.18" fill="#e6b785"/><polygon points="236.41 404.97 146.85 475.43 146.46 474.94 236.41 404.18 236.41 404.97" fill="#e6b684"/><polygon points="236.41 405.77 147.23 475.92 146.85 475.43 236.41 404.97 236.41 405.77" fill="#e6b583"/><polygon points="236.41 406.56 147.62 476.41 147.23 475.92 236.41 405.77 236.41 406.56" fill="#e6b482"/><polygon points="236.41 407.35 148 476.9 147.62 476.41 236.41 406.56 236.41 407.35" fill="#e7b481"/><polygon points="236.41 408.14 148.39 477.39 148 476.9 236.41 407.35 236.41 408.14" fill="#e7b380"/><polygon points="236.41 408.93 148.77 477.88 148.39 477.39 236.41 408.14 236.41 408.93" fill="#e7b27f"/><polygon points="236.41 409.73 149.16 478.37 148.77 477.88 236.41 408.93 236.41 409.73" fill="#e7b17e"/><polygon points="236.41 410.52 149.54 478.86 149.16 478.37 236.41 409.73 236.41 410.52" fill="#e7b07d"/><polygon points="236.41 411.31 149.93 479.35 149.54 478.86 236.41 410.52 236.41 411.31" fill="#e7b07c"/><polygon points="236.41 412.1 150.31 479.83 149.93 479.35 236.41 411.31 236.41 412.1" fill="#e7af7b"/><polygon points="236.41 412.89 150.7 480.32 150.31 479.83 236.41 412.1 236.41 412.89" fill="#e7ae7a"/><polygon points="236.41 413.69 151.08 480.81 150.7 480.32 236.41 412.89 236.41 413.69" fill="#e7ad79"/><polygon points="236.41 414.48 151.47 481.3 151.08 480.81 236.41 413.69 236.41 414.48" fill="#e7ac78"/><polygon points="236.41 415.27 151.85 481.79 151.47 481.3 236.41 414.48 236.41 415.27" fill="#e7ac77"/><polygon points="236.41 416.06 152.24 482.28 151.85 481.79 236.41 415.27 236.41 416.06" fill="#e7ab76"/><polygon points="236.41 416.85 152.62 482.77 152.24 482.28 236.41 416.06 236.41 416.85" fill="#e8aa75"/><polygon points="236.41 417.65 153.01 483.26 152.62 482.77 236.41 416.85 236.41 417.65" fill="#e8a974"/><polygon points="236.41 418.44 153.39 483.75 153.01 483.26 236.41 417.65 236.41 418.44" fill="#e8a873"/><polygon points="236.41 419.23 153.78 484.24 153.39 483.75 236.41 418.44 236.41 419.23" fill="#e8a872"/><polygon points="236.41 420.02 154.16 484.73 153.78 484.24 236.41 419.23 236.41 420.02" fill="#e8a771"/><polygon points="236.41 420.81 154.55 485.22 154.16 484.73 236.41 420.02 236.41 420.81" fill="#e8a670"/><polygon points="168.7 503.21 154.55 485.22 236.41 420.81 236.41 503.21 168.7 503.21" fill="#e8a670"/></g><path d="M235.09,300.55c-.42,30.63-29.86,103.53-52.99,171-10.85,31.66-37.84-81.59-52.99-171-16.58-97.89,40.37-160.93,52.99-171,24.14-19.27,54.31,76.57,52.99,171Z" fill="none" stroke="#221f20" stroke-linecap="round" stroke-miterlimit="10"/></g><g opacity=".7"><g clip-path="url(#c)"><polygon points="138.03 -44.76 195.62 9.04 195.62 32.62 -23.5 267.15 -23.5 -44.76 138.03 -44.76" fill="#f5a381"/><polygon points="195.62 33.38 -23.5 267.91 -23.5 267.15 195.62 32.62 195.62 33.38" fill="#f5a381"/><polygon points="195.62 34.14 -23.5 268.68 -23.5 267.91 195.62 33.38 195.62 34.14" fill="#f5a17e"/><polygon points="195.62 34.91 -23.5 269.44 -23.5 268.68 195.62 34.14 195.62 34.91" fill="#f59f7a"/><polygon points="195.62 35.67 -23.5 270.21 -23.5 269.44 195.62 34.91 195.62 35.67" fill="#f49c77"/><polygon points="195.62 36.44 -23.5 270.97 -23.5 270.21 195.62 35.67 195.62 36.44" fill="#f49a74"/><polygon points="195.62 37.2 -23.5 271.73 -23.5 270.97 195.62 36.44 195.62 37.2" fill="#f49871"/><polygon points="195.62 37.97 -23.5 272.5 -23.5 271.73 195.62 37.2 195.62 37.97" fill="#f4966e"/><polygon points="195.62 38.73 -23.5 273.26 -23.5 272.5 195.62 37.97 195.62 38.73" fill="#f3956b"/><polygon points="195.62 39.49 -23.5 274.03 -23.5 273.26 195.62 38.73 195.62 39.49" fill="#f39368"/><polygon points="195.62 40.26 -23.5 274.79 -23.5 274.03 195.62 39.49 195.62 40.26" fill="#f39165"/><polygon points="195.62 41.02 -23.5 275.56 -23.5 274.79 195.62 40.26 195.62 41.02" fill="#f38f63"/><polygon points="195.62 41.79 -23.5 276.32 -23.5 275.56 195.62 41.02 195.62 41.79" fill="#f38e60"/><polygon points="195.62 42.55 -23.5 277.08 -23.5 276.32 195.62 41.79 195.62 42.55" fill="#f28c5e"/><polygon points="195.62 43.32 -23.5 277.85 -23.5 277.08 195.62 42.55 195.62 43.32" fill="#f28b5b"/><polygon points="195.62 44.08 -23.5 278.61 -23.5 277.85 195.62 43.32 195.62 44.08" fill="#f28959"/><polygon points="195.62 44.84 -23.5 279.38 -23.5 278.61 195.62 44.08 195.62 44.84" fill="#f28857"/><polygon points="195.62 45.61 -23.5 280.14 -23.5 279.38 195.62 44.84 195.62 45.61" fill="#f28755"/><polygon points="195.62 46.37 -23.5 280.91 -23.5 280.14 195.62 45.61 195.62 46.37" fill="#f18552"/><polygon points="195.62 47.14 -23.5 281.67 -23.5 280.91 195.62 46.37 195.62 47.14" fill="#f18450"/><polygon points="195.62 47.9 -23.5 282.43 -23.5 281.67 195.62 47.14 195.62 47.9" fill="#f1834f"/><polygon points="195.62 48.66 -23.5 283.2 -23.5 282.43 195.62 47.9 195.62 48.66" fill="#f1824d"/><polygon points="195.62 49.43 -23.5 283.96 -23.5 283.2 195.62 48.66 195.62 49.43" fill="#f1814b"/><polygon points="195.62 50.19 -23.5 284.73 -23.5 283.96 195.62 49.43 195.62 50.19" fill="#f18049"/><polygon points="195.62 50.96 -23.5 285.49 -23.5 284.73 195.62 50.19 195.62 50.96" fill="#f07f47"/><polygon points="195.62 51.72 -23.5 286.26 -23.5 285.49 195.62 50.96 195.62 51.72" fill="#f07e46"/><polygon points="195.62 52.49 -23.5 287.02 -23.5 286.26 195.62 51.72 195.62 52.49" fill="#f07d44"/><polygon points="195.62 53.25 -23.5 287.78 -23.5 287.02 195.62 52.49 195.62 53.25" fill="#f07c43"/><polygon points="195.62 54.01 -23.5 288.55 -23.5 287.78 195.62 53.25 195.62 54.01" fill="#f07b41"/><polygon points="195.62 54.78 -23.5 289.31 -23.5 288.55 195.62 54.01 195.62 54.78" fill="#f07a40"/><polygon points="195.62 55.54 -23.5 290.08 -23.5 289.31 195.62 54.78 195.62 55.54" fill="#f07a3f"/><polygon points="195.62 56.31 -23.5 290.84 -23.5 290.08 195.62 55.54 195.62 56.31" fill="#f0793d"/><polygon points="195.62 57.07 -23.5 291.61 -23.5 290.84 195.62 56.31 195.62 57.07" fill="#ef783c"/><polygon points="195.62 57.84 -23.5 292.37 -23.5 291.61 195.62 57.07 195.62 57.84" fill="#ef783b"/><polygon points="195.62 58.6 -23.5 293.13 -23.5 292.37 195.62 57.84 195.62 58.6" fill="#ef773a"/><polygon points="195.62 59.36 -23.5 293.9 -23.5 293.13 195.62 58.6 195.62 59.36" fill="#ef7739"/><polygon points="195.62 60.13 -23.5 294.66 -23.5 293.9 195.62 59.36 195.62 60.13" fill="#ef7638"/><polygon points="195.62 60.89 -23.5 295.43 -23.5 294.66 195.62 60.13 195.62 60.89" fill="#ef7637"/><polygon points="195.62 61.66 -23.5 296.19 -23.5 295.43 195.62 60.89 195.62 61.66" fill="#ef7536"/><polygon points="195.62 62.42 -23.5 296.95 -23.5 296.19 195.62 61.66 195.62 62.42" fill="#ef7535"/><polygon points="195.62 63.19 -23.5 297.72 -23.5 296.95 195.62 62.42 195.62 63.19" fill="#ef7434"/><polygon points="195.62 63.95 -23.5 298.48 -23.5 297.72 195.62 63.19 195.62 63.95" fill="#ef7434"/><polygon points="195.62 64.71 -23.5 299.25 -23.5 298.48 195.62 63.95 195.62 64.71" fill="#ef7433"/><polygon points="195.62 65.48 -23.5 300.01 -23.5 299.25 195.62 64.71 195.62 65.48" fill="#ef7332"/><polygon points="195.62 66.24 -23.5 300.78 -23.5 300.01 195.62 65.48 195.62 66.24" fill="#ef7332"/><polygon points="195.62 67.01 -23.5 301.54 -23.5 300.78 195.62 66.24 195.62 67.01" fill="#ee7331"/><polygon points="195.62 67.77 -23.5 302.3 -23.5 301.54 195.62 67.01 195.62 67.77" fill="#ee7230"/><polygon points="195.62 68.54 -23.5 303.07 -23.5 302.3 195.62 67.77 195.62 68.54" fill="#ee7230"/><polygon points="195.62 69.3 -23.5 303.83 -23.5 303.07 195.62 68.54 195.62 69.3" fill="#ee722f"/><polygon points="195.62 70.06 -23.5 304.6 -23.5 303.83 195.62 69.3 195.62 70.06" fill="#ee722f"/><polygon points="195.62 70.83 -23.5 305.36 -23.5 304.6 195.62 70.06 195.62 70.83" fill="#ee722f"/><polygon points="195.62 71.59 -23.5 306.13 -23.5 305.36 195.62 70.83 195.62 71.59" fill="#ee712e"/><polygon points="195.62 72.36 -23.5 306.89 -23.5 306.13 195.62 71.59 195.62 72.36" fill="#ee712e"/><polygon points="195.62 73.12 -23.5 307.65 -23.5 306.89 195.62 72.36 195.62 73.12" fill="#ee712e"/><polygon points="195.62 73.88 -23.5 308.42 -23.5 307.65 195.62 73.12 195.62 73.88" fill="#ee712d"/><polygon points="195.62 74.65 -23.5 309.18 -23.5 308.42 195.62 73.88 195.62 74.65" fill="#ee712d"/><polygon points="195.62 75.41 -23.5 309.95 -23.5 309.18 195.62 74.65 195.62 75.41" fill="#ee712d"/><polygon points="195.62 76.18 -23.5 310.71 -23.5 309.95 195.62 75.41 195.62 76.18" fill="#ee712c"/><polygon points="195.62 76.94 -23.5 311.48 -23.5 310.71 195.62 76.18 195.62 76.94" fill="#ee712c"/><polygon points="195.62 77.71 -23.5 312.24 -23.5 311.48 195.62 76.94 195.62 77.71" fill="#ee702c"/><polygon points="195.62 78.47 -23.5 313 -23.5 312.24 195.62 77.71 195.62 78.47" fill="#ee702c"/><polygon points="195.62 79.23 -23.5 313.77 -23.5 313 195.62 78.47 195.62 79.23" fill="#ee702c"/><polygon points="195.62 80 -23.5 314.53 -23.5 313.77 195.62 79.23 195.62 80" fill="#ee702c"/><polygon points="195.62 80.76 -23.5 315.3 -23.5 314.53 195.62 80 195.62 80.76" fill="#ee702c"/><polygon points="195.62 81.53 -23.5 316.06 -23.5 315.3 195.62 80.76 195.62 81.53" fill="#ee702b"/><polygon points="195.62 82.29 -23.5 316.83 -23.5 316.06 195.62 81.53 195.62 82.29" fill="#ee702b"/><polygon points="195.62 83.06 -23.5 317.59 -23.5 316.83 195.62 82.29 195.62 83.06" fill="#ee702b"/><polygon points="195.62 83.82 -23.5 318.35 -23.5 317.59 195.62 83.06 195.62 83.82" fill="#ee702b"/><polygon points="195.62 84.58 -23.5 319.12 -23.5 318.35 195.62 83.82 195.62 84.58" fill="#ee702b"/><polygon points="195.62 85.35 -23.5 319.88 -23.5 319.12 195.62 84.58 195.62 85.35" fill="#ee702b"/><polygon points="195.62 86.11 -23.5 320.65 -23.5 319.88 195.62 85.35 195.62 86.11" fill="#ee702b"/><polygon points="195.62 86.88 -23.5 321.41 -23.5 320.65 195.62 86.11 195.62 86.88" fill="#ee702b"/><polygon points="195.62 87.64 -23.5 322.17 -23.5 321.41 195.62 86.88 195.62 87.64" fill="#ee702b"/><polygon points="195.62 88.41 -23.5 322.94 -23.5 322.17 195.62 87.64 195.62 88.41" fill="#ee702b"/><polygon points="195.62 89.17 -23.5 323.7 -23.5 322.94 195.62 88.41 195.62 89.17" fill="#ee702b"/><polygon points="195.62 89.93 -23.5 324.47 -23.5 323.7 195.62 89.17 195.62 89.93" fill="#ee702b"/><polygon points="195.62 90.7 -23.5 325.23 -23.5 324.47 195.62 89.93 195.62 90.7" fill="#ee702b"/><polygon points="195.62 91.46 -23.5 326 -23.5 325.23 195.62 90.7 195.62 91.46" fill="#ee702b"/><polygon points="195.62 92.23 -23.5 326.76 -23.5 326 195.62 91.46 195.62 92.23" fill="#ee702b"/><polygon points="195.62 92.99 -23.5 327.52 -23.5 326.76 195.62 92.23 195.62 92.99" fill="#ee702b"/><polygon points="195.62 93.75 -23.5 328.29 -23.5 327.52 195.62 92.99 195.62 93.75" fill="#ee702b"/><polygon points="195.62 94.52 -23.5 329.05 -23.5 328.29 195.62 93.75 195.62 94.52" fill="#ee702b"/><polygon points="195.62 95.28 -23.5 329.82 -23.5 329.05 195.62 94.52 195.62 95.28" fill="#ee702b"/><polygon points="195.62 96.05 -23.5 330.58 -23.5 329.82 195.62 95.28 195.62 96.05" fill="#ee702b"/><polygon points="195.62 96.81 -23.5 331.35 -23.5 330.58 195.62 96.05 195.62 96.81" fill="#ee702b"/><polygon points="195.62 97.58 -23.5 332.11 -23.5 331.35 195.62 96.81 195.62 97.58" fill="#ee702b"/><polygon points="195.62 98.34 -23.5 332.87 -23.5 332.11 195.62 97.58 195.62 98.34" fill="#ee702b"/><polygon points="195.62 99.1 -23.5 333.63 -23.5 332.87 195.62 98.34 195.62 99.1" fill="#ee702b"/><polygon points="195.62 99.85 -23.5 334.39 -23.5 333.63 195.62 99.1 195.62 99.85" fill="#ee712d"/><polygon points="195.62 100.61 -23.5 335.14 -23.5 334.39 195.62 99.85 195.62 100.61" fill="#ee7230"/><polygon points="195.62 101.37 -23.5 335.9 -23.5 335.14 195.62 100.61 195.62 101.37" fill="#ef7332"/><polygon points="195.62 102.13 -23.5 336.66 -23.5 335.9 195.62 101.37 195.62 102.13" fill="#ef7434"/><polygon points="195.62 102.88 -23.5 337.42 -23.5 336.66 195.62 102.13 195.62 102.88" fill="#ef7536"/><polygon points="195.62 103.64 -23.5 338.17 -23.5 337.42 195.62 102.88 195.62 103.64" fill="#ef7638"/><polygon points="195.62 104.4 -23.5 338.93 -23.5 338.17 195.62 103.64 195.62 104.4" fill="#ef773a"/><polygon points="195.62 105.15 -23.5 339.69 -23.5 338.93 195.62 104.4 195.62 105.15" fill="#ef783c"/><polygon points="195.62 105.91 -23.5 340.44 -23.5 339.69 195.62 105.15 195.62 105.91" fill="#f0793e"/><polygon points="195.62 106.67 -23.5 341.2 -23.5 340.44 195.62 105.91 195.62 106.67" fill="#f07a3f"/><polygon points="195.62 107.42 -23.5 341.96 -23.5 341.2 195.62 106.67 195.62 107.42" fill="#f07b41"/><polygon points="195.62 108.18 -23.5 342.71 -23.5 341.96 195.62 107.42 195.62 108.18" fill="#f07c43"/><polygon points="195.62 108.94 -23.5 343.47 -23.5 342.71 195.62 108.18 195.62 108.94" fill="#f07d44"/><polygon points="195.62 109.69 -23.5 344.23 -23.5 343.47 195.62 108.94 195.62 109.69" fill="#f07e46"/><polygon points="195.62 110.45 -23.5 344.99 -23.5 344.23 195.62 109.69 195.62 110.45" fill="#f07f48"/><polygon points="195.62 111.21 -23.5 345.74 -23.5 344.99 195.62 110.45 195.62 111.21" fill="#f18049"/><polygon points="195.62 111.97 -23.5 346.5 -23.5 345.74 195.62 111.21 195.62 111.97" fill="#f1814b"/><polygon points="195.62 112.72 -23.5 347.26 -23.5 346.5 195.62 111.97 195.62 112.72" fill="#f1814c"/><polygon points="195.62 113.48 -23.5 348.01 -23.5 347.26 195.62 112.72 195.62 113.48" fill="#f1824e"/><polygon points="195.62 114.24 -23.5 348.77 -23.5 348.01 195.62 113.48 195.62 114.24" fill="#f1834f"/><polygon points="195.62 114.99 -23.5 349.53 -23.5 348.77 195.62 114.24 195.62 114.99" fill="#f18450"/><polygon points="195.62 115.75 -23.5 350.28 -23.5 349.53 195.62 114.99 195.62 115.75" fill="#f18552"/><polygon points="195.62 116.51 -23.5 351.04 -23.5 350.28 195.62 115.75 195.62 116.51" fill="#f18653"/><polygon points="195.62 117.26 -23.5 351.8 -23.5 351.04 195.62 116.51 195.62 117.26" fill="#f28654"/><polygon points="195.62 118.02 -23.5 352.55 -23.5 351.8 195.62 117.26 195.62 118.02" fill="#f28756"/><polygon points="195.62 118.78 -23.5 353.31 -23.5 352.55 195.62 118.02 195.62 118.78" fill="#f28857"/><polygon points="195.62 119.53 -23.5 354.07 -23.5 353.31 195.62 118.78 195.62 119.53" fill="#f28958"/><polygon points="195.62 120.29 -23.5 354.83 -23.5 354.07 195.62 119.53 195.62 120.29" fill="#f28a5a"/><polygon points="195.62 121.05 -23.5 355.58 -23.5 354.83 195.62 120.29 195.62 121.05" fill="#f28a5b"/><polygon points="195.62 121.81 -23.5 356.34 -23.5 355.58 195.62 121.05 195.62 121.81" fill="#f28b5c"/><polygon points="195.62 122.56 -23.5 357.1 -23.5 356.34 195.62 121.81 195.62 122.56" fill="#f28c5d"/><polygon points="195.62 123.32 -23.5 357.85 -23.5 357.1 195.62 122.56 195.62 123.32" fill="#f28d5e"/><polygon points="195.62 124.08 -23.5 358.61 -23.5 357.85 195.62 123.32 195.62 124.08" fill="#f38d5f"/><polygon points="195.62 124.83 -23.5 359.37 -23.5 358.61 195.62 124.08 195.62 124.83" fill="#f38e61"/><polygon points="195.62 125.59 -23.5 360.12 -23.5 359.37 195.62 124.83 195.62 125.59" fill="#f38f62"/><polygon points="195.62 126.35 -23.5 360.88 -23.5 360.12 195.62 125.59 195.62 126.35" fill="#f38f63"/><polygon points="195.62 127.1 -23.5 361.64 -23.5 360.88 195.62 126.35 195.62 127.1" fill="#f39064"/><polygon points="195.62 127.86 -23.5 362.39 -23.5 361.64 195.62 127.1 195.62 127.86" fill="#f39165"/><polygon points="195.62 128.62 -23.5 363.15 -23.5 362.39 195.62 127.86 195.62 128.62" fill="#f39166"/><polygon points="195.62 129.37 -23.5 363.91 -23.5 363.15 195.62 128.62 195.62 129.37" fill="#f39267"/><polygon points="195.62 130.13 -23.5 364.67 -23.5 363.91 195.62 129.37 195.62 130.13" fill="#f39368"/><polygon points="195.62 130.89 -23.5 365.42 -23.5 364.67 195.62 130.13 195.62 130.89" fill="#f39369"/><polygon points="195.62 131.65 -23.5 366.18 -23.5 365.42 195.62 130.89 195.62 131.65" fill="#f3946a"/><polygon points="195.62 132.4 -23.5 366.94 -23.5 366.18 195.62 131.65 195.62 132.4" fill="#f3946b"/><polygon points="195.62 133.16 -23.5 367.69 -23.5 366.94 195.62 132.4 195.62 133.16" fill="#f4956c"/><polygon points="195.62 133.92 -23.5 368.45 -23.5 367.69 195.62 133.16 195.62 133.92" fill="#f4966c"/><polygon points="195.62 134.67 -23.5 369.21 -23.5 368.45 195.62 133.92 195.62 134.67" fill="#f4966d"/><polygon points="195.62 135.43 -23.5 369.96 -23.5 369.21 195.62 134.67 195.62 135.43" fill="#f4976e"/><polygon points="195.62 136.19 -23.5 370.72 -23.5 369.96 195.62 135.43 195.62 136.19" fill="#f4976f"/><polygon points="195.62 136.94 -23.5 371.48 -23.5 370.72 195.62 136.19 195.62 136.94" fill="#f49870"/><polygon points="195.62 137.7 -23.5 372.23 -23.5 371.48 195.62 136.94 195.62 137.7" fill="#f49871"/><polygon points="195.62 138.46 -23.5 372.99 -23.5 372.23 195.62 137.7 195.62 138.46" fill="#f49972"/><polygon points="195.62 139.21 -23.5 373.75 -23.5 372.99 195.62 138.46 195.62 139.21" fill="#f49972"/><polygon points="195.62 139.97 -23.5 374.51 -23.5 373.75 195.62 139.21 195.62 139.97" fill="#f49a73"/><polygon points="195.62 140.73 -23.5 375.26 -23.5 374.51 195.62 139.97 195.62 140.73" fill="#f49a74"/><polygon points="195.62 141.49 -23.5 376.02 -23.5 375.26 195.62 140.73 195.62 141.49" fill="#f49b75"/><polygon points="195.62 142.24 -23.5 376.78 -23.5 376.02 195.62 141.49 195.62 142.24" fill="#f49b75"/><polygon points="195.62 143 -23.5 377.53 -23.5 376.78 195.62 142.24 195.62 143" fill="#f49c76"/><polygon points="195.62 143.76 -23.5 378.29 -23.5 377.53 195.62 143 195.62 143.76" fill="#f49c77"/><polygon points="195.62 144.51 -23.5 379.05 -23.5 378.29 195.62 143.76 195.62 144.51" fill="#f49d77"/><polygon points="195.62 145.27 -23.5 379.8 -23.5 379.05 195.62 144.51 195.62 145.27" fill="#f49d78"/><polygon points="195.62 146.03 -23.5 380.56 -23.5 379.8 195.62 145.27 195.62 146.03" fill="#f49d79"/><polygon points="195.62 146.78 -23.5 381.32 -23.5 380.56 195.62 146.03 195.62 146.78" fill="#f59e79"/><polygon points="195.62 147.54 -23.5 382.07 -23.5 381.32 195.62 146.78 195.62 147.54" fill="#f59e7a"/><polygon points="195.62 148.3 -23.5 382.83 -23.5 382.07 195.62 147.54 195.62 148.3" fill="#f59f7a"/><polygon points="195.62 149.05 -23.5 383.59 -23.5 382.83 195.62 148.3 195.62 149.05" fill="#f59f7b"/><polygon points="195.62 149.81 -23.5 384.35 -23.5 383.59 195.62 149.05 195.62 149.81" fill="#f59f7b"/><polygon points="195.62 150.57 -23.5 385.1 -23.5 384.35 195.62 149.81 195.62 150.57" fill="#f5a07c"/><polygon points="195.62 151.33 -23.5 385.86 -23.5 385.1 195.62 150.57 195.62 151.33" fill="#f5a07c"/><polygon points="195.62 152.08 -23.5 386.62 -23.5 385.86 195.62 151.33 195.62 152.08" fill="#f5a07d"/><polygon points="195.62 152.84 -23.5 387.37 -23.5 386.62 195.62 152.08 195.62 152.84" fill="#f5a17d"/><polygon points="195.62 153.6 -23.5 388.13 -23.5 387.37 195.62 152.84 195.62 153.6" fill="#f5a17e"/><polygon points="195.62 154.35 -23.5 388.89 -23.5 388.13 195.62 153.6 195.62 154.35" fill="#f5a17e"/><polygon points="195.62 155.11 -23.5 389.64 -23.5 388.89 195.62 154.35 195.62 155.11" fill="#f5a17f"/><polygon points="195.62 155.87 -23.5 390.4 -23.5 389.64 195.62 155.11 195.62 155.87" fill="#f5a27f"/><polygon points="195.62 156.62 -23.5 391.16 -23.5 390.4 195.62 155.87 195.62 156.62" fill="#f5a27f"/><polygon points="195.62 157.38 -23.5 391.91 -23.5 391.16 195.62 156.62 195.62 157.38" fill="#f5a280"/><polygon points="195.62 158.14 -23.5 392.67 -23.5 391.91 195.62 157.38 195.62 158.14" fill="#f5a280"/><polygon points="195.62 158.89 -23.5 393.43 -23.5 392.67 195.62 158.14 195.62 158.89" fill="#f5a280"/><polygon points="195.62 159.65 -23.5 394.19 -23.5 393.43 195.62 158.89 195.62 159.65" fill="#f5a380"/><polygon points="195.62 160.41 -23.5 394.94 -23.5 394.19 195.62 159.65 195.62 160.41" fill="#f5a381"/><polygon points="195.62 161.17 -23.5 395.7 -23.5 394.94 195.62 160.41 195.62 161.17" fill="#f5a381"/><polygon points="195.62 161.92 -23.5 396.46 -23.5 395.7 195.62 161.17 195.62 161.92" fill="#f5a381"/><polygon points="195.62 162.68 -23.5 397.21 -23.5 396.46 195.62 161.92 195.62 162.68" fill="#f5a381"/><polygon points="195.62 163.44 -23.5 397.97 -23.5 397.21 195.62 162.68 195.62 163.44" fill="#f5a381"/><polygon points="195.62 164.44 -23.5 398.97 -23.5 397.97 195.62 163.44 195.62 164.44" fill="#f5a381"/><polygon points="195.62 165.44 -23.5 399.97 -23.5 398.97 195.62 164.44 195.62 165.44" fill="#f5a280"/><polygon points="195.62 166.44 -23.5 400.97 -23.5 399.97 195.62 165.44 195.62 166.44" fill="#f5a27f"/><polygon points="195.62 167.44 -23.5 401.97 -23.5 400.97 195.62 166.44 195.62 167.44" fill="#f5a17e"/><polygon points="195.62 168.44 -23.5 402.97 -23.5 401.97 195.62 167.44 195.62 168.44" fill="#f5a17e"/><polygon points="195.62 169.44 -23.5 403.98 -23.5 402.97 195.62 168.44 195.62 169.44" fill="#f5a07d"/><polygon points="195.62 170.44 -23.5 404.98 -23.5 403.98 195.62 169.44 195.62 170.44" fill="#f5a07c"/><polygon points="195.62 171.44 -23.5 405.98 -23.5 404.98 195.62 170.44 195.62 171.44" fill="#f59f7b"/><polygon points="195.62 172.44 -23.5 406.98 -23.5 405.98 195.62 171.44 195.62 172.44" fill="#f59e7a"/><polygon points="195.62 173.45 -23.5 407.98 -23.5 406.98 195.62 172.44 195.62 173.45" fill="#f59e79"/><polygon points="195.62 174.45 -23.5 408.98 -23.5 407.98 195.62 173.45 195.62 174.45" fill="#f49d78"/><polygon points="195.62 175.45 -23.5 409.98 -23.5 408.98 195.62 174.45 195.62 175.45" fill="#f49d77"/><polygon points="195.62 176.45 -23.5 410.98 -23.5 409.98 195.62 175.45 195.62 176.45" fill="#f49c77"/><polygon points="195.62 177.45 -23.5 411.98 -23.5 410.98 195.62 176.45 195.62 177.45" fill="#f49c76"/><polygon points="195.62 178.45 -23.5 412.98 -23.5 411.98 195.62 177.45 195.62 178.45" fill="#f49b75"/><polygon points="195.62 179.45 -23.5 413.99 -23.5 412.98 195.62 178.45 195.62 179.45" fill="#f49a74"/><polygon points="195.62 180.45 -23.5 414.99 -23.5 413.99 195.62 179.45 195.62 180.45" fill="#f49a73"/><polygon points="195.62 181.45 -23.5 415.99 -23.5 414.99 195.62 180.45 195.62 181.45" fill="#f49972"/><polygon points="195.62 182.45 -23.5 416.99 -23.5 415.99 195.62 181.45 195.62 182.45" fill="#f49971"/><polygon points="195.62 183.46 -23.5 417.99 -23.5 416.99 195.62 182.45 195.62 183.46" fill="#f49870"/><polygon points="195.62 184.46 -23.5 418.99 -23.5 417.99 195.62 183.46 195.62 184.46" fill="#f4986f"/><polygon points="195.62 185.46 -23.5 419.99 -23.5 418.99 195.62 184.46 195.62 185.46" fill="#f4976f"/><polygon points="195.62 186.46 -23.5 420.99 -23.5 419.99 195.62 185.46 195.62 186.46" fill="#f4966e"/><polygon points="195.62 187.46 -23.5 421.99 -23.5 420.99 195.62 186.46 195.62 187.46" fill="#f4966d"/><polygon points="195.62 188.46 -23.17 422.64 -23.5 422.34 -23.5 421.99 195.62 187.46 195.62 188.46" fill="#f4956c"/><polygon points="195.62 189.46 -22.67 423.11 -23.17 422.64 195.62 188.46 195.62 189.46" fill="#f3956b"/><polygon points="195.62 190.46 -22.17 423.58 -22.67 423.11 195.62 189.46 195.62 190.46" fill="#f3946a"/><polygon points="195.62 191.46 -21.67 424.04 -22.17 423.58 195.62 190.46 195.62 191.46" fill="#f39469"/><polygon points="195.62 192.46 -21.17 424.51 -21.67 424.04 195.62 191.46 195.62 192.46" fill="#f39368"/><polygon points="195.62 193.46 -20.67 424.97 -21.17 424.51 195.62 192.46 195.62 193.46" fill="#f39267"/><polygon points="195.62 194.47 -20.17 425.44 -20.67 424.97 195.62 193.46 195.62 194.47" fill="#f39266"/><polygon points="195.62 195.47 -19.67 425.91 -20.17 425.44 195.62 194.47 195.62 195.47" fill="#f39166"/><polygon points="195.62 196.47 -19.17 426.37 -19.67 425.91 195.62 195.47 195.62 196.47" fill="#f39165"/><polygon points="195.62 197.47 -18.67 426.84 -19.17 426.37 195.62 196.47 195.62 197.47" fill="#f39064"/><polygon points="195.62 198.47 -18.18 427.31 -18.67 426.84 195.62 197.47 195.62 198.47" fill="#f38f63"/><polygon points="195.62 199.47 -17.68 427.77 -18.18 427.31 195.62 198.47 195.62 199.47" fill="#f38f62"/><polygon points="195.62 200.47 -17.18 428.24 -17.68 427.77 195.62 199.47 195.62 200.47" fill="#f38e61"/><polygon points="195.62 201.47 -16.68 428.71 -17.18 428.24 195.62 200.47 195.62 201.47" fill="#f38e60"/><polygon points="195.62 202.47 -16.18 429.17 -16.68 428.71 195.62 201.47 195.62 202.47" fill="#f38d5f"/><polygon points="195.62 203.47 -15.68 429.64 -16.18 429.17 195.62 202.47 195.62 203.47" fill="#f28c5e"/><polygon points="195.62 204.47 -15.18 430.11 -15.68 429.64 195.62 203.47 195.62 204.47" fill="#f28c5d"/><polygon points="195.62 205.48 -14.68 430.57 -15.18 430.11 195.62 204.47 195.62 205.48" fill="#f28b5c"/><polygon points="195.62 206.48 -14.18 431.04 -14.68 430.57 195.62 205.48 195.62 206.48" fill="#f28b5b"/><polygon points="195.62 207.48 -13.68 431.51 -14.18 431.04 195.62 206.48 195.62 207.48" fill="#f28a5a"/><polygon points="195.62 208.48 -13.18 431.97 -13.68 431.51 195.62 207.48 195.62 208.48" fill="#f28959"/><polygon points="195.62 209.48 -12.68 432.44 -13.18 431.97 195.62 208.48 195.62 209.48" fill="#f28958"/><polygon points="195.62 210.48 -12.18 432.9 -12.68 432.44 195.62 209.48 195.62 210.48" fill="#f28857"/><polygon points="195.62 211.48 -11.68 433.37 -12.18 432.9 195.62 210.48 195.62 211.48" fill="#f28856"/><polygon points="195.62 212.48 -11.18 433.84 -11.68 433.37 195.62 211.48 195.62 212.48" fill="#f28755"/><polygon points="195.62 213.48 -10.69 434.3 -11.18 433.84 195.62 212.48 195.62 213.48" fill="#f28654"/><polygon points="195.62 214.48 -10.19 434.77 -10.69 434.3 195.62 213.48 195.62 214.48" fill="#f28653"/><polygon points="195.62 215.48 -9.69 435.24 -10.19 434.77 195.62 214.48 195.62 215.48" fill="#f18553"/><polygon points="195.62 216.49 -9.19 435.7 -9.69 435.24 195.62 215.48 195.62 216.49" fill="#f18552"/><polygon points="195.62 217.49 -8.69 436.17 -9.19 435.7 195.62 216.49 195.62 217.49" fill="#f18451"/><polygon points="195.62 218.49 -8.19 436.64 -8.69 436.17 195.62 217.49 195.62 218.49" fill="#f1834f"/><polygon points="195.62 219.49 -7.69 437.1 -8.19 436.64 195.62 218.49 195.62 219.49" fill="#f1834e"/><polygon points="195.62 220.49 -7.19 437.57 -7.69 437.1 195.62 219.49 195.62 220.49" fill="#f1824d"/><polygon points="195.62 221.49 -6.69 438.04 -7.19 437.57 195.62 220.49 195.62 221.49" fill="#f1824c"/><polygon points="195.62 222.49 -6.19 438.5 -6.69 438.04 195.62 221.49 195.62 222.49" fill="#f1814b"/><polygon points="195.62 223.49 -5.69 438.97 -6.19 438.5 195.62 222.49 195.62 223.49" fill="#f1804a"/><polygon points="195.62 224.49 -5.19 439.44 -5.69 438.97 195.62 223.49 195.62 224.49" fill="#f18049"/><polygon points="195.62 225.49 -4.69 439.9 -5.19 439.44 195.62 224.49 195.62 225.49" fill="#f07f48"/><polygon points="195.62 226.49 -4.19 440.37 -4.69 439.9 195.62 225.49 195.62 226.49" fill="#f07f47"/><polygon points="195.62 227.5 -3.7 440.84 -4.19 440.37 195.62 226.49 195.62 227.5" fill="#f07e46"/><polygon points="195.62 228.5 -3.2 441.3 -3.7 440.84 195.62 227.5 195.62 228.5" fill="#f07d45"/><polygon points="195.62 229.5 -2.7 441.77 -3.2 441.3 195.62 228.5 195.62 229.5" fill="#f07d44"/><polygon points="195.62 230.5 -2.2 442.23 -2.7 441.77 195.62 229.5 195.62 230.5" fill="#f07c43"/><polygon points="195.62 231.5 -1.7 442.7 -2.2 442.23 195.62 230.5 195.62 231.5" fill="#f07b42"/><polygon points="195.62 232.5 -1.2 443.17 -1.7 442.7 195.62 231.5 195.62 232.5" fill="#f07b41"/><polygon points="195.62 233.5 -.7 443.63 -1.2 443.17 195.62 232.5 195.62 233.5" fill="#f07a3f"/><polygon points="195.62 234.5 -.2 444.1 -.7 443.63 195.62 233.5 195.62 234.5" fill="#f07a3e"/><polygon points="195.62 235.5 .3 444.57 -.2 444.1 195.62 234.5 195.62 235.5" fill="#f0793d"/><polygon points="195.62 236.5 .8 445.03 .3 444.57 195.62 235.5 195.62 236.5" fill="#ef783c"/><polygon points="195.62 237.5 1.3 445.5 .8 445.03 195.62 236.5 195.62 237.5" fill="#ef783b"/><polygon points="195.62 238.51 1.8 445.97 1.3 445.5 195.62 237.5 195.62 238.51" fill="#ef773a"/><polygon points="195.62 239.51 2.3 446.43 1.8 445.97 195.62 238.51 195.62 239.51" fill="#ef7638"/><polygon points="195.62 240.51 2.8 446.9 2.3 446.43 195.62 239.51 195.62 240.51" fill="#ef7637"/><polygon points="195.62 241.51 3.3 447.37 2.8 446.9 195.62 240.51 195.62 241.51" fill="#ef7536"/><polygon points="195.62 242.51 3.79 447.83 3.3 447.37 195.62 241.51 195.62 242.51" fill="#ef7535"/><polygon points="195.62 243.51 4.29 448.3 3.79 447.83 195.62 242.51 195.62 243.51" fill="#ef7433"/><polygon points="195.62 244.51 4.79 448.77 4.29 448.3 195.62 243.51 195.62 244.51" fill="#ef7332"/><polygon points="195.62 245.51 5.29 449.23 4.79 448.77 195.62 244.51 195.62 245.51" fill="#ee7331"/><polygon points="195.62 246.51 5.79 449.7 5.29 449.23 195.62 245.51 195.62 246.51" fill="#ee722f"/><polygon points="195.62 247.51 6.29 450.16 5.79 449.7 195.62 246.51 195.62 247.51" fill="#ee712e"/><polygon points="195.62 248.52 6.79 450.63 6.29 450.16 195.62 247.51 195.62 248.52" fill="#ee712c"/><polygon points="195.62 249.52 7.29 451.1 6.79 450.63 195.62 248.52 195.62 249.52" fill="#ee702b"/><polygon points="195.62 250.51 7.79 451.56 7.29 451.1 195.62 249.52 195.62 250.51" fill="#ee702b"/><polygon points="195.62 251.51 8.28 452.03 7.79 451.56 195.62 250.51 195.62 251.51" fill="#ee712c"/><polygon points="195.62 252.5 8.78 452.49 8.28 452.03 195.62 251.51 195.62 252.5" fill="#ee712e"/><polygon points="195.62 253.5 9.28 452.95 8.78 452.49 195.62 252.5 195.62 253.5" fill="#ee722f"/><polygon points="195.62 254.49 9.77 453.42 9.28 452.95 195.62 253.5 195.62 254.49" fill="#ee7331"/><polygon points="195.62 255.49 10.27 453.88 9.77 453.42 195.62 254.49 195.62 255.49" fill="#ef7332"/><polygon points="195.62 256.48 10.76 454.34 10.27 453.88 195.62 255.49 195.62 256.48" fill="#ef7433"/><polygon points="195.62 257.48 11.26 454.81 10.76 454.34 195.62 256.48 195.62 257.48" fill="#ef7535"/><polygon points="195.62 258.47 11.76 455.27 11.26 454.81 195.62 257.48 195.62 258.47" fill="#ef7536"/><polygon points="195.62 259.47 12.25 455.74 11.76 455.27 195.62 258.47 195.62 259.47" fill="#ef7637"/><polygon points="195.62 260.46 12.75 456.2 12.25 455.74 195.62 259.47 195.62 260.46" fill="#ef7638"/><polygon points="195.62 261.46 13.25 456.66 12.75 456.2 195.62 260.46 195.62 261.46" fill="#ef773a"/><polygon points="195.62 262.45 13.74 457.13 13.25 456.66 195.62 261.46 195.62 262.45" fill="#ef783b"/><polygon points="195.62 263.45 14.24 457.59 13.74 457.13 195.62 262.45 195.62 263.45" fill="#ef783c"/><polygon points="195.62 264.44 14.74 458.05 14.24 457.59 195.62 263.45 195.62 264.44" fill="#f0793d"/><polygon points="195.62 265.44 15.23 458.52 14.74 458.05 195.62 264.44 195.62 265.44" fill="#f07a3e"/><polygon points="195.62 266.43 15.73 458.98 15.23 458.52 195.62 265.44 195.62 266.43" fill="#f07a3f"/><polygon points="195.62 267.43 16.22 459.45 15.73 458.98 195.62 266.43 195.62 267.43" fill="#f07b41"/><polygon points="195.62 268.42 16.72 459.91 16.22 459.45 195.62 267.43 195.62 268.42" fill="#f07b42"/><polygon points="195.62 269.42 17.22 460.37 16.72 459.91 195.62 268.42 195.62 269.42" fill="#f07c43"/><polygon points="195.62 270.41 17.71 460.84 17.22 460.37 195.62 269.42 195.62 270.41" fill="#f07d44"/><polygon points="195.62 271.41 18.21 461.3 17.71 460.84 195.62 270.41 195.62 271.41" fill="#f07d45"/><polygon points="195.62 272.4 18.71 461.76 18.21 461.3 195.62 271.41 195.62 272.4" fill="#f07e46"/><polygon points="195.62 273.4 19.2 462.23 18.71 461.76 195.62 272.4 195.62 273.4" fill="#f07f47"/><polygon points="195.62 274.39 19.7 462.69 19.2 462.23 195.62 273.4 195.62 274.39" fill="#f07f48"/><polygon points="195.62 275.39 20.2 463.16 19.7 462.69 195.62 274.39 195.62 275.39" fill="#f18049"/><polygon points="195.62 276.38 20.69 463.62 20.2 463.16 195.62 275.39 195.62 276.38" fill="#f1804a"/><polygon points="195.62 277.38 21.19 464.08 20.69 463.62 195.62 276.38 195.62 277.38" fill="#f1814b"/><polygon points="195.62 278.37 21.69 464.55 21.19 464.08 195.62 277.38 195.62 278.37" fill="#f1824c"/><polygon points="195.62 279.37 22.18 465.01 21.69 464.55 195.62 278.37 195.62 279.37" fill="#f1824d"/><polygon points="195.62 280.36 22.68 465.47 22.18 465.01 195.62 279.37 195.62 280.36" fill="#f1834e"/><polygon points="195.62 281.36 23.17 465.94 22.68 465.47 195.62 280.36 195.62 281.36" fill="#f1834f"/><polygon points="195.62 282.35 23.67 466.4 23.17 465.94 195.62 281.36 195.62 282.35" fill="#f18451"/><polygon points="195.62 283.35 24.17 466.87 23.67 466.4 195.62 282.35 195.62 283.35" fill="#f18552"/><polygon points="195.62 284.35 24.66 467.33 24.17 466.87 195.62 283.35 195.62 284.35" fill="#f18553"/><polygon points="195.62 285.34 25.16 467.79 24.66 467.33 195.62 284.35 195.62 285.34" fill="#f28653"/><polygon points="195.62 286.34 25.66 468.26 25.16 467.79 195.62 285.34 195.62 286.34" fill="#f28654"/><polygon points="195.62 287.33 26.15 468.72 25.66 468.26 195.62 286.34 195.62 287.33" fill="#f28755"/><polygon points="195.62 288.33 26.65 469.19 26.15 468.72 195.62 287.33 195.62 288.33" fill="#f28856"/><polygon points="195.62 289.32 27.15 469.65 26.65 469.19 195.62 288.33 195.62 289.32" fill="#f28857"/><polygon points="195.62 290.32 27.64 470.11 27.15 469.65 195.62 289.32 195.62 290.32" fill="#f28958"/><polygon points="195.62 291.31 28.14 470.58 27.64 470.11 195.62 290.32 195.62 291.31" fill="#f28959"/><polygon points="195.62 292.31 28.64 471.04 28.14 470.58 195.62 291.31 195.62 292.31" fill="#f28a5a"/><polygon points="195.62 293.3 29.13 471.5 28.64 471.04 195.62 292.31 195.62 293.3" fill="#f28b5b"/><polygon points="195.62 294.3 29.63 471.97 29.13 471.5 195.62 293.3 195.62 294.3" fill="#f28b5c"/><polygon points="195.62 295.29 30.12 472.43 29.63 471.97 195.62 294.3 195.62 295.29" fill="#f28c5d"/><polygon points="195.62 296.29 30.62 472.9 30.12 472.43 195.62 295.29 195.62 296.29" fill="#f28c5e"/><polygon points="195.62 297.28 31.12 473.36 30.62 472.9 195.62 296.29 195.62 297.28" fill="#f38d5f"/><polygon points="195.62 298.28 31.61 473.82 31.12 473.36 195.62 297.28 195.62 298.28" fill="#f38e60"/><polygon points="195.62 299.27 32.11 474.29 31.61 473.82 195.62 298.28 195.62 299.27" fill="#f38e61"/><polygon points="195.62 300.27 32.61 474.75 32.11 474.29 195.62 299.27 195.62 300.27" fill="#f38f62"/><polygon points="195.62 301.26 33.1 475.21 32.61 474.75 195.62 300.27 195.62 301.26" fill="#f38f63"/><polygon points="195.62 302.26 33.6 475.68 33.1 475.21 195.62 301.26 195.62 302.26" fill="#f39064"/><polygon points="195.62 303.25 34.1 476.14 33.6 475.68 195.62 302.26 195.62 303.25" fill="#f39165"/><polygon points="195.62 304.25 34.59 476.61 34.1 476.14 195.62 303.25 195.62 304.25" fill="#f39166"/><polygon points="195.62 305.24 35.09 477.07 34.59 476.61 195.62 304.25 195.62 305.24" fill="#f39266"/><polygon points="195.62 306.24 35.58 477.53 35.09 477.07 195.62 305.24 195.62 306.24" fill="#f39267"/><polygon points="195.62 307.23 36.08 478 35.58 477.53 195.62 306.24 195.62 307.23" fill="#f39368"/><polygon points="195.62 308.23 36.58 478.46 36.08 478 195.62 307.23 195.62 308.23" fill="#f39469"/><polygon points="195.62 309.22 37.07 478.92 36.58 478.46 195.62 308.23 195.62 309.22" fill="#f3946a"/><polygon points="195.62 310.22 37.57 479.39 37.07 478.92 195.62 309.22 195.62 310.22" fill="#f3956b"/><polygon points="195.62 311.21 38.07 479.85 37.57 479.39 195.62 310.22 195.62 311.21" fill="#f4956c"/><polygon points="195.62 312.21 38.56 480.32 38.07 479.85 195.62 311.21 195.62 312.21" fill="#f4966d"/><polygon points="195.62 313.2 39.06 480.78 38.56 480.32 195.62 312.21 195.62 313.2" fill="#f4966e"/><polygon points="195.62 314.2 39.56 481.24 39.06 480.78 195.62 313.2 195.62 314.2" fill="#f4976f"/><polygon points="195.62 315.19 40.05 481.71 39.56 481.24 195.62 314.2 195.62 315.19" fill="#f4986f"/><polygon points="195.62 316.19 40.55 482.17 40.05 481.71 195.62 315.19 195.62 316.19" fill="#f49870"/><polygon points="195.62 317.18 41.05 482.63 40.55 482.17 195.62 316.19 195.62 317.18" fill="#f49971"/><polygon points="195.62 318.18 41.54 483.1 41.05 482.63 195.62 317.18 195.62 318.18" fill="#f49972"/><polygon points="195.62 319.17 42.04 483.56 41.54 483.1 195.62 318.18 195.62 319.17" fill="#f49a73"/><polygon points="195.62 320.17 42.53 484.03 42.04 483.56 195.62 319.17 195.62 320.17" fill="#f49a74"/><polygon points="195.62 321.16 43.03 484.49 42.53 484.03 195.62 320.17 195.62 321.16" fill="#f49b75"/><polygon points="195.62 322.16 43.53 484.95 43.03 484.49 195.62 321.16 195.62 322.16" fill="#f49c76"/><polygon points="195.62 323.15 44.02 485.42 43.53 484.95 195.62 322.16 195.62 323.15" fill="#f49c77"/><polygon points="195.62 324.15 44.52 485.88 44.02 485.42 195.62 323.15 195.62 324.15" fill="#f49d77"/><polygon points="195.62 325.14 45.02 486.34 44.52 485.88 195.62 324.15 195.62 325.14" fill="#f49d78"/><polygon points="195.62 326.14 45.51 486.81 45.02 486.34 195.62 325.14 195.62 326.14" fill="#f59e79"/><polygon points="195.62 327.13 46.01 487.27 45.51 486.81 195.62 326.14 195.62 327.13" fill="#f59e7a"/><polygon points="195.62 328.13 46.51 487.74 46.01 487.27 195.62 327.13 195.62 328.13" fill="#f59f7b"/><polygon points="195.62 329.13 47 488.2 46.51 487.74 195.62 328.13 195.62 329.13" fill="#f5a07c"/><polygon points="195.62 330.12 47.5 488.66 47 488.2 195.62 329.13 195.62 330.12" fill="#f5a07d"/><polygon points="195.62 331.12 48 489.13 47.5 488.66 195.62 330.12 195.62 331.12" fill="#f5a17e"/><polygon points="195.62 332.11 48.49 489.59 48 489.13 195.62 331.12 195.62 332.11" fill="#f5a17e"/><polygon points="195.62 333.11 48.99 490.06 48.49 489.59 195.62 332.11 195.62 333.11" fill="#f5a27f"/><polygon points="195.62 334.1 49.48 490.52 48.99 490.06 195.62 333.11 195.62 334.1" fill="#f5a280"/><polygon points="195.62 335.1 49.98 490.98 49.48 490.52 195.62 334.1 195.62 335.1" fill="#f5a381"/><polygon points="195.62 335.84 50.35 491.33 49.98 490.98 195.62 335.1 195.62 335.84" fill="#f5a381"/><polygon points="195.62 336.59 50.73 491.68 50.35 491.33 195.62 335.84 195.62 336.59" fill="#f5a381"/><polygon points="195.62 337.34 51.1 492.03 50.73 491.68 195.62 336.59 195.62 337.34" fill="#f5a381"/><polygon points="195.62 338.09 51.47 492.38 51.1 492.03 195.62 337.34 195.62 338.09" fill="#f5a381"/><polygon points="195.62 338.83 51.85 492.73 51.47 492.38 195.62 338.09 195.62 338.83" fill="#f5a381"/><polygon points="195.62 339.58 52.22 493.07 51.85 492.73 195.62 338.83 195.62 339.58" fill="#f5a381"/><polygon points="195.62 340.33 52.59 493.42 52.22 493.07 195.62 339.58 195.62 340.33" fill="#f5a381"/><polygon points="195.62 341.08 52.96 493.77 52.59 493.42 195.62 340.33 195.62 341.08" fill="#f5a381"/><polygon points="195.62 341.83 53.34 494.12 52.96 493.77 195.62 341.08 195.62 341.83" fill="#f5a381"/><polygon points="195.62 342.57 53.71 494.47 53.34 494.12 195.62 341.83 195.62 342.57" fill="#f5a381"/><polygon points="195.62 343.32 54.08 494.82 53.71 494.47 195.62 342.57 195.62 343.32" fill="#f5a381"/><polygon points="195.62 344.07 54.46 495.16 54.08 494.82 195.62 343.32 195.62 344.07" fill="#f5a381"/><polygon points="195.62 344.82 54.83 495.51 54.46 495.16 195.62 344.07 195.62 344.82" fill="#f5a381"/><polygon points="195.62 345.56 55.2 495.86 54.83 495.51 195.62 344.82 195.62 345.56" fill="#f5a381"/><polygon points="195.62 346.31 55.58 496.21 55.2 495.86 195.62 345.56 195.62 346.31" fill="#f5a381"/><polygon points="195.62 347.06 55.95 496.56 55.58 496.21 195.62 346.31 195.62 347.06" fill="#f5a381"/><polygon points="195.62 347.81 56.32 496.91 55.95 496.56 195.62 347.06 195.62 347.81" fill="#f5a381"/><polygon points="195.62 348.56 56.69 497.26 56.32 496.91 195.62 347.81 195.62 348.56" fill="#f5a381"/><polygon points="195.62 349.3 57.07 497.6 56.69 497.26 195.62 348.56 195.62 349.3" fill="#f5a381"/><polygon points="195.62 350.05 57.44 497.95 57.07 497.6 195.62 349.3 195.62 350.05" fill="#f5a381"/><polygon points="195.62 350.8 57.81 498.3 57.44 497.95 195.62 350.05 195.62 350.8" fill="#f5a381"/><polygon points="195.62 351.55 58.19 498.65 57.81 498.3 195.62 350.8 195.62 351.55" fill="#f5a381"/><polygon points="195.62 352.29 58.56 499 58.19 498.65 195.62 351.55 195.62 352.29" fill="#f5a381"/><polygon points="195.62 353.04 58.93 499.35 58.56 499 195.62 352.29 195.62 353.04" fill="#f5a381"/><polygon points="195.62 353.79 59.31 499.69 58.93 499.35 195.62 353.04 195.62 353.79" fill="#f5a381"/><polygon points="195.62 354.54 59.68 500.04 59.31 499.69 195.62 353.79 195.62 354.54" fill="#f5a381"/><polygon points="195.62 355.28 60.05 500.39 59.68 500.04 195.62 354.54 195.62 355.28" fill="#f5a381"/><polygon points="195.62 356.03 60.42 500.74 60.05 500.39 195.62 355.28 195.62 356.03" fill="#f5a381"/><polygon points="195.62 356.78 60.8 501.09 60.42 500.74 195.62 356.03 195.62 356.78" fill="#f5a381"/><polygon points="195.62 357.53 61.17 501.44 60.8 501.09 195.62 356.78 195.62 357.53" fill="#f5a381"/><polygon points="195.62 358.28 61.54 501.79 61.17 501.44 195.62 357.53 195.62 358.28" fill="#f5a381"/><polygon points="195.62 359.02 61.92 502.13 61.54 501.79 195.62 358.28 195.62 359.02" fill="#f5a381"/><polygon points="195.62 359.77 62.29 502.48 61.92 502.13 195.62 359.02 195.62 359.77" fill="#f5a381"/><polygon points="195.62 360.52 62.66 502.83 62.29 502.48 195.62 359.77 195.62 360.52" fill="#f5a381"/><polygon points="195.62 361.27 63.04 503.18 62.66 502.83 195.62 360.52 195.62 361.27" fill="#f5a381"/><polygon points="195.62 362.01 63.41 503.53 63.04 503.18 195.62 361.27 195.62 362.01" fill="#f5a381"/><polygon points="195.62 362.76 63.78 503.88 63.41 503.53 195.62 362.01 195.62 362.76" fill="#f5a381"/><polygon points="195.62 363.51 64.16 504.23 63.78 503.88 195.62 362.76 195.62 363.51" fill="#f5a381"/><polygon points="195.62 364.26 64.53 504.57 64.16 504.23 195.62 363.51 195.62 364.26" fill="#f5a381"/><polygon points="195.62 365.01 64.9 504.92 64.53 504.57 195.62 364.26 195.62 365.01" fill="#f5a381"/><polygon points="195.62 365.75 65.27 505.27 64.9 504.92 195.62 365.01 195.62 365.75" fill="#f5a381"/><polygon points="195.62 366.5 65.65 505.62 65.27 505.27 195.62 365.75 195.62 366.5" fill="#f5a381"/><polygon points="195.62 367.25 66.02 505.97 65.65 505.62 195.62 366.5 195.62 367.25" fill="#f5a381"/><polygon points="195.62 368 66.39 506.32 66.02 505.97 195.62 367.25 195.62 368" fill="#f5a381"/><polygon points="195.62 368.74 66.77 506.66 66.39 506.32 195.62 368 195.62 368.74" fill="#f5a381"/><polygon points="195.62 369.49 67.14 507.01 66.77 506.66 195.62 368.74 195.62 369.49" fill="#f5a381"/><polygon points="195.62 370.24 67.51 507.36 67.14 507.01 195.62 369.49 195.62 370.24" fill="#f5a381"/><polygon points="195.62 370.99 67.89 507.71 67.51 507.36 195.62 370.24 195.62 370.99" fill="#f4a381"/><polygon points="195.62 371.74 68.26 508.06 67.89 507.71 195.62 370.99 195.62 371.74" fill="#f4a381"/><polygon points="195.62 372.48 68.63 508.41 68.26 508.06 195.62 371.74 195.62 372.48" fill="#f4a381"/><polygon points="195.62 373.23 69 508.76 68.63 508.41 195.62 372.48 195.62 373.23" fill="#f4a381"/><polygon points="195.62 373.98 69.38 509.1 69 508.76 195.62 373.23 195.62 373.98" fill="#f4a381"/><polygon points="195.62 374.73 69.75 509.45 69.38 509.1 195.62 373.98 195.62 374.73" fill="#f4a381"/><polygon points="195.62 375.47 70.12 509.8 69.75 509.45 195.62 374.73 195.62 375.47" fill="#f4a381"/><polygon points="195.62 376.22 70.5 510.15 70.12 509.8 195.62 375.47 195.62 376.22" fill="#f4a381"/><polygon points="195.62 376.97 70.87 510.5 70.5 510.15 195.62 376.22 195.62 376.97" fill="#f4a381"/><polygon points="195.62 377.72 71.24 510.85 70.87 510.5 195.62 376.97 195.62 377.72" fill="#f4a281"/><polygon points="195.62 378.46 71.62 511.19 71.24 510.85 195.62 377.72 195.62 378.46" fill="#f4a281"/><polygon points="195.62 379.21 71.99 511.54 71.62 511.19 195.62 378.46 195.62 379.21" fill="#f4a281"/><polygon points="195.62 379.96 72.36 511.89 71.99 511.54 195.62 379.21 195.62 379.96" fill="#f3a281"/><polygon points="195.62 380.71 72.73 512.24 72.36 511.89 195.62 379.96 195.62 380.71" fill="#f3a281"/><polygon points="195.62 381.46 73.11 512.59 72.73 512.24 195.62 380.71 195.62 381.46" fill="#f3a281"/><polygon points="195.62 382.2 73.48 512.94 73.11 512.59 195.62 381.46 195.62 382.2" fill="#f3a281"/><polygon points="195.62 382.95 73.85 513.29 73.48 512.94 195.62 382.2 195.62 382.95" fill="#f3a281"/><polygon points="195.62 383.7 74.23 513.63 73.85 513.29 195.62 382.95 195.62 383.7" fill="#f3a281"/><polygon points="195.62 384.45 74.6 513.98 74.23 513.63 195.62 383.7 195.62 384.45" fill="#f2a281"/><polygon points="195.62 385.19 74.97 514.33 74.6 513.98 195.62 384.45 195.62 385.19" fill="#f2a280"/><polygon points="195.62 385.94 75.35 514.68 74.97 514.33 195.62 385.19 195.62 385.94" fill="#f2a280"/><polygon points="195.62 386.69 75.72 515.03 75.35 514.68 195.62 385.94 195.62 386.69" fill="#f2a280"/><polygon points="195.62 387.44 76.09 515.38 75.72 515.03 195.62 386.69 195.62 387.44" fill="#f2a280"/><polygon points="195.62 388.19 76.46 515.73 76.09 515.38 195.62 387.44 195.62 388.19" fill="#f1a180"/><polygon points="195.62 388.93 76.84 516.07 76.46 515.73 195.62 388.19 195.62 388.93" fill="#f1a180"/><polygon points="195.62 389.68 77.21 516.42 76.84 516.07 195.62 388.93 195.62 389.68" fill="#f1a180"/><polygon points="195.62 390.43 77.58 516.77 77.21 516.42 195.62 389.68 195.62 390.43" fill="#f0a180"/><polygon points="195.62 391.18 77.96 517.12 77.58 516.77 195.62 390.43 195.62 391.18" fill="#f0a180"/><polygon points="195.62 391.92 78.33 517.47 77.96 517.12 195.62 391.18 195.62 391.92" fill="#f0a180"/><polygon points="195.62 392.67 78.7 517.82 78.33 517.47 195.62 391.92 195.62 392.67" fill="#efa180"/><polygon points="195.62 393.42 79.08 518.16 78.7 517.82 195.62 392.67 195.62 393.42" fill="#efa080"/><polygon points="195.62 394.17 79.45 518.51 79.08 518.16 195.62 393.42 195.62 394.17" fill="#efa080"/><polygon points="195.62 394.92 79.82 518.86 79.45 518.51 195.62 394.17 195.62 394.92" fill="#eea080"/><polygon points="195.62 395.66 80.19 519.21 79.82 518.86 195.62 394.92 195.62 395.66" fill="#eea080"/><polygon points="195.62 396.41 80.57 519.56 80.19 519.21 195.62 395.66 195.62 396.41" fill="#eda080"/><polygon points="195.62 397.16 80.94 519.91 80.57 519.56 195.62 396.41 195.62 397.16" fill="#ed9f7f"/><polygon points="195.62 397.91 81.31 520.26 80.94 519.91 195.62 397.16 195.62 397.91" fill="#ec9f7f"/><polygon points="195.62 398.65 81.69 520.6 81.31 520.26 195.62 397.91 195.62 398.65" fill="#ec9f7f"/><polygon points="195.62 399.4 82.06 520.95 81.69 520.6 195.62 398.65 195.62 399.4" fill="#eb9f7f"/><polygon points="195.62 400.15 82.43 521.3 82.06 520.95 195.62 399.4 195.62 400.15" fill="#eb9f7f"/><polygon points="195.62 400.9 82.81 521.65 82.43 521.3 195.62 400.15 195.62 400.9" fill="#ea9e7f"/><polygon points="195.62 401.64 83.18 522 82.81 521.65 195.62 400.9 195.62 401.64" fill="#e99e7f"/><polygon points="195.62 402.39 83.55 522.35 83.18 522 195.62 401.64 195.62 402.39" fill="#e99e7f"/><polygon points="195.62 403.14 83.92 522.7 83.55 522.35 195.62 402.39 195.62 403.14" fill="#e89d7f"/><polygon points="195.62 403.89 84.3 523.04 83.92 522.7 195.62 403.14 195.62 403.89" fill="#e79d7e"/><polygon points="195.62 404.64 84.67 523.39 84.3 523.04 195.62 403.89 195.62 404.64" fill="#e69d7e"/><polygon points="195.62 405.38 85.04 523.74 84.67 523.39 195.62 404.64 195.62 405.38" fill="#e69c7e"/><polygon points="195.62 406.13 85.42 524.09 85.04 523.74 195.62 405.38 195.62 406.13" fill="#e59c7e"/><polygon points="195.62 406.88 85.79 524.44 85.42 524.09 195.62 406.13 195.62 406.88" fill="#e49c7e"/><polygon points="195.62 407.63 86.16 524.79 85.79 524.44 195.62 406.88 195.62 407.63" fill="#e39b7e"/><polygon points="195.62 408.37 86.54 525.13 86.16 524.79 195.62 407.63 195.62 408.37" fill="#e29b7d"/><polygon points="195.62 409.12 86.91 525.48 86.54 525.13 195.62 408.37 195.62 409.12" fill="#e19a7d"/><polygon points="195.62 409.87 87.28 525.83 86.91 525.48 195.62 409.12 195.62 409.87" fill="#e09a7d"/><polygon points="195.62 410.62 87.65 526.18 87.28 525.83 195.62 409.87 195.62 410.62" fill="#df9a7d"/><polygon points="195.62 411.37 88.03 526.53 87.65 526.18 195.62 410.62 195.62 411.37" fill="#de997d"/><polygon points="195.62 412.11 88.4 526.88 88.03 526.53 195.62 411.37 195.62 412.11" fill="#dd997c"/><polygon points="195.62 412.86 88.77 527.23 88.4 526.88 195.62 412.11 195.62 412.86" fill="#dc987c"/><polygon points="195.62 413.61 89.15 527.57 88.77 527.23 195.62 412.86 195.62 413.61" fill="#da977c"/><polygon points="195.62 414.36 89.52 527.92 89.15 527.57 195.62 413.61 195.62 414.36" fill="#d9977c"/><polygon points="195.62 415.1 89.89 528.27 89.52 527.92 195.62 414.36 195.62 415.1" fill="#d8967b"/><polygon points="195.62 415.85 90.27 528.62 89.89 528.27 195.62 415.1 195.62 415.85" fill="#d6967b"/><polygon points="195.62 416.6 90.64 528.97 90.27 528.62 195.62 415.85 195.62 416.6" fill="#d5957b"/><polygon points="195.62 417.35 91.01 529.32 90.64 528.97 195.62 416.6 195.62 417.35" fill="#d3947b"/><polygon points="195.62 418.1 91.38 529.66 91.01 529.32 195.62 417.35 195.62 418.1" fill="#d2947a"/><polygon points="195.62 418.84 91.76 530.01 91.38 529.66 195.62 418.1 195.62 418.84" fill="#d0937a"/><polygon points="195.62 419.59 92.13 530.36 91.76 530.01 195.62 418.84 195.62 419.59" fill="#cf927a"/><polygon points="195.62 420.34 92.5 530.71 92.13 530.36 195.62 419.59 195.62 420.34" fill="#cd9279"/><polygon points="195.62 421.09 92.88 531.06 92.5 530.71 195.62 420.34 195.62 421.09" fill="#cb9179"/><polygon points="195.62 421.83 93.25 531.41 92.88 531.06 195.62 421.09 195.62 421.83" fill="#c99078"/><polygon points="195.62 422.58 93.62 531.76 93.25 531.41 195.62 421.83 195.62 422.58" fill="#c78f78"/><polygon points="195.62 423.33 94 532.1 93.62 531.76 195.62 422.58 195.62 423.33" fill="#c58e78"/><polygon points="195.62 424.08 94.37 532.45 94 532.1 195.62 423.33 195.62 424.08" fill="#c38d77"/><polygon points="195.62 424.82 94.74 532.8 94.37 532.45 195.62 424.08 195.62 424.82" fill="#c18c77"/><polygon points="195.62 425.57 95.11 533.15 94.74 532.8 195.62 424.82 195.62 425.57" fill="#bf8b76"/><polygon points="195.62 426.32 95.49 533.5 95.11 533.15 195.62 425.57 195.62 426.32" fill="#bd8a76"/><polygon points="195.62 427.07 95.86 533.85 95.49 533.5 195.62 426.32 195.62 427.07" fill="#ba8975"/><polygon points="195.62 427.82 96.23 534.2 95.86 533.85 195.62 427.07 195.62 427.82" fill="#b88875"/><polygon points="195.62 428.56 96.61 534.54 96.23 534.2 195.62 427.82 195.62 428.56" fill="#b68774"/><polygon points="195.62 429.31 96.98 534.89 96.61 534.54 195.62 428.56 195.62 429.31" fill="#b38674"/><polygon points="195.62 430.06 97.35 535.24 96.98 534.89 195.62 429.31 195.62 430.06" fill="#b08573"/><polygon points="195.62 430.81 97.73 535.59 97.35 535.24 195.62 430.06 195.62 430.81" fill="#ae8473"/><polygon points="195.62 431.55 98.1 535.94 97.73 535.59 195.62 430.81 195.62 431.55" fill="#ab8372"/><polygon points="195.62 432.3 98.47 536.29 98.1 535.94 195.62 431.55 195.62 432.3" fill="#a88171"/><polygon points="195.62 433.05 98.84 536.63 98.47 536.29 195.62 432.3 195.62 433.05" fill="#a58071"/><polygon points="195.62 433.8 99.22 536.98 98.84 536.63 195.62 433.05 195.62 433.8" fill="#a27f70"/><polygon points="195.62 434.55 99.59 537.33 99.22 536.98 195.62 433.8 195.62 434.55" fill="#9f7d6f"/><polygon points="195.62 435.29 99.96 537.68 99.59 537.33 195.62 434.55 195.62 435.29" fill="#9c7c6f"/><polygon points="195.62 436.04 100.34 538.03 99.96 537.68 195.62 435.29 195.62 436.04" fill="#997a6e"/><polygon points="195.62 436.79 100.71 538.38 100.34 538.03 195.62 436.04 195.62 436.79" fill="#95796d"/><polygon points="195.62 437.54 101.08 538.73 100.71 538.38 195.62 436.79 195.62 437.54" fill="#92776c"/><polygon points="195.62 438.28 101.46 539.07 101.08 538.73 195.62 437.54 195.62 438.28" fill="#8e756b"/><polygon points="195.62 439.03 101.83 539.42 101.46 539.07 195.62 438.28 195.62 439.03" fill="#8b746b"/><polygon points="195.62 439.78 102.2 539.77 101.83 539.42 195.62 439.03 195.62 439.78" fill="#87726a"/><polygon points="195.62 440.53 102.57 540.12 102.2 539.77 195.62 439.78 195.62 440.53" fill="#837069"/><polygon points="195.62 441.28 102.95 540.47 102.57 540.12 195.62 440.53 195.62 441.28" fill="#7f6e68"/><polygon points="195.62 442.02 103.32 540.82 102.95 540.47 195.62 441.28 195.62 442.02" fill="#7b6d67"/><polygon points="195.62 442.77 103.69 541.17 103.32 540.82 195.62 442.02 195.62 442.77" fill="#776b66"/><polygon points="195.62 443.52 104.07 541.51 103.69 541.17 195.62 442.77 195.62 443.52" fill="#726965"/><polygon points="195.62 444.27 104.44 541.86 104.07 541.51 195.62 443.52 195.62 444.27" fill="#6e6764"/><polygon points="195.62 445.01 104.81 542.21 104.44 541.86 195.62 444.27 195.62 445.01" fill="#696462"/><polygon points="195.62 445.76 105.19 542.56 104.81 542.21 195.62 445.01 195.62 445.76" fill="#656261"/><polygon points="195.62 446.51 105.56 542.91 105.19 542.56 195.62 445.76 195.62 446.51" fill="#606060"/><polygon points="116.92 553.52 105.56 542.91 195.62 446.51 195.62 553.52 116.92 553.52" fill="#606060"/></g><path d="M185.86,19.02C135.1-44.76,29.67,65.96,5.46,202.47c-28.96,163.33,76.41,315.57,119.22,339.93,14.89,11.12,61.17,0,37.13-58.12-18.99-45.93-22.56-74.8-35.18-151.15-9.13-55.19-21.71-159.06,17.59-231.82,29.96-55.47,51.4-70.02,41.63-82.3h0Z" fill="none" stroke="#221f20" stroke-linecap="round" stroke-miterlimit="10"/></g></svg>